<svg width="254" height="174" viewBox="0 0 254 174" fill="none" xmlns="http://www.w3.org/2000/svg">
<g filter="url(#filter0_d_481_1104)">
<path d="M221.464 89.4532C220.942 92.634 219.505 95.5945 217.329 97.9742C216.913 98.5605 216.588 99.2061 216.365 99.8892C215.317 99.6787 214.679 100.313 213.881 100.822C211.875 102.35 209.456 103.241 206.938 103.38C208.204 100.926 207.064 99.133 205.115 97.7258C203.497 96.5574 201.616 95.7068 199.948 94.6242C197.801 93.2393 195.34 92.2211 194.059 89.8093C191.811 85.5577 191.761 85.5941 186.819 86.3117C186.889 80.557 189.921 76.3577 194.525 72.9804C198.926 71.0582 203.294 69.7777 208.261 71.0613C211.99 71.9524 215.309 74.0729 217.683 77.0805C220.015 79.9997 221.229 83.6537 221.106 87.3862C221.097 88.0901 220.717 88.8759 221.464 89.4532ZM209.919 92.1896C209.958 92.0275 209.96 91.8587 209.925 91.6957C209.887 91.5344 209.818 91.3824 209.72 91.2485C209.614 91.1139 209.48 91.0029 209.328 90.9226C209.182 90.8348 209.018 90.782 208.848 90.7685C208.133 90.6239 207.352 90.7502 207.183 91.4645C206.973 92.4129 207.922 92.7086 208.599 92.9022C209.277 93.0958 209.677 92.7795 209.919 92.1896V92.1896ZM214.868 80.7761C214.212 80.8298 213.628 81.1191 213.743 81.7751C213.79 82.1065 213.952 82.4106 214.203 82.633C214.459 82.8576 214.785 82.988 215.126 83.0024C215.253 83.0057 215.38 82.982 215.497 82.9329C215.613 82.8833 215.718 82.8135 215.809 82.7267C215.897 82.6397 215.965 82.5354 216.011 82.4204C216.036 82.3067 216.037 82.1889 216.015 82.0746C216.048 81.916 216.05 81.7524 216.021 81.593C215.968 81.4351 215.881 81.2907 215.766 81.17C215.652 81.0472 215.515 80.9489 215.362 80.8809C215.206 80.8146 215.038 80.783 214.868 80.7884L214.868 80.7761ZM209.703 74.4508C209.71 73.8704 209.317 73.6433 208.761 73.6241C208.205 73.605 207.523 73.7695 207.428 74.423C207.334 75.0764 207.861 75.4411 208.504 75.4736C208.802 75.4909 209.095 75.3927 209.323 75.1996C209.434 75.11 209.525 74.9982 209.591 74.8714C209.656 74.7446 209.695 74.6056 209.703 74.4632L209.703 74.4508ZM194.342 79.8207C193.773 79.8755 193.3 80.092 193.232 80.647C193.163 81.2019 193.689 81.653 194.344 81.6857C194.47 81.7116 194.6 81.7132 194.727 81.6904C194.849 81.6639 194.964 81.6104 195.063 81.534C195.162 81.4602 195.247 81.3692 195.314 81.2653C195.37 81.1574 195.409 81.0412 195.429 80.9209C195.438 80.217 194.971 79.9643 194.342 79.8701L194.342 79.8207Z" fill="#509F60"/>
<path d="M64.1221 88.3662L62.823 88.4367C60.7098 80.2591 55.0833 75.2498 47.1299 74.4731C47.02 72.335 46.9101 70.2093 46.8004 68.0588C47.3581 67.0626 47.5598 65.9064 47.3722 64.7804C47.5272 60.2001 47.7932 55.6458 50.3407 51.5764C50.5912 51.1771 50.6776 50.6966 50.5819 50.2351C50.4862 49.7737 50.2157 49.367 49.827 49.0999C49.2653 48.5249 48.6043 47.9734 48.8017 47C49.8585 46.9247 50.9038 47.2593 51.72 47.9341C52.5362 48.6089 53.0605 49.572 53.184 50.6232C54.0721 54.8334 55.047 59.0324 55.799 63.2533C56.016 65.1097 56.7229 66.8752 57.8474 68.3691C58.9719 69.8629 60.4736 71.0315 62.1988 71.7551C64.6587 72.8227 65.3157 74.7082 65.2986 77.1164C65.2532 80.8212 64.5669 84.3575 64.2624 88.0221C64.1846 88.1023 64.1355 88.2059 64.1227 88.3168L64.1221 88.3662Z" fill="#DBE4EA"/>
<path d="M160.842 31.6735L160.898 33.1686C160.641 33.167 160.386 33.2229 160.154 33.3324C159.928 33.4379 159.724 33.5864 159.555 33.7697C159.396 33.9596 159.279 34.1814 159.213 34.4202C159.155 34.655 159.152 34.9002 159.204 35.1364C158.297 36.5457 158.711 38.0329 158.767 39.5528C159.122 43.9511 158.843 48.3775 157.938 52.6965C157.339 53.1956 156.69 53.6693 156.852 54.5606C156.285 55.4676 155.208 55.5532 154.362 55.9999C151.872 57.365 148.683 57.2272 146.325 58.9645C145.127 60.9013 145.442 62.4491 147.504 63.6847C149.213 64.5646 150.773 65.7092 152.124 67.0761C148.809 69.2725 145.073 70.7537 141.152 71.4252C141.127 67.4478 141.151 63.4834 141.088 59.5056C141.012 58.48 141.267 57.4571 141.816 56.5873C142.389 55.7074 143.217 55.0236 144.19 54.6278C145.396 53.9736 146.642 53.3948 147.92 52.895C149.429 52.4215 150.777 51.539 151.813 50.3458C152.849 49.1526 153.534 47.6955 153.79 46.1367C154.68 42.3357 155.862 38.609 157.327 34.9899C157.902 33.4284 158.591 31.7324 160.842 31.6735Z" fill="#DBE4EA"/>
<path d="M194.549 72.993C189.946 76.3579 186.902 80.5571 186.843 86.3367L186.462 89.1974L177.196 92.6658C176.199 89.1953 176.664 85.6068 176.559 82.0607C176.454 78.5147 177.809 75.9005 181.597 74.5265C182.782 74.078 183.848 73.3643 184.714 72.4403C185.557 71.5296 186.172 70.4325 186.509 69.2386C186.818 68.2296 187.25 67.2716 187.633 66.2882C189.399 66.458 189.514 68.1886 190.517 69.0778C191.899 70.3175 192.93 71.9234 194.549 72.993Z" fill="#DBE4EA"/>
<path d="M85.4268 30.8115L85.545 29.2444C86.277 29.423 86.9448 29.8019 87.4733 30.3386C88.0018 30.8752 88.3702 31.5483 88.5371 32.2823C89.6171 35.1876 90.2509 38.2394 90.417 41.334C90.6537 47.2531 92.9381 51.5422 98.8056 54.0349C101.266 55.0901 101.894 57.2593 101.455 59.8106C100.857 63.2492 100.493 66.7154 100.092 70.1688C96.6159 69.274 93.6719 67.3482 90.5886 65.6925C91.8826 64.5789 93.3155 63.6374 94.8517 62.8916C96.6189 61.9622 97.7477 60.6544 96.5487 58.6018C96.5615 58.2624 96.4464 57.9305 96.2263 57.6715C96.0027 57.4036 95.6877 57.2281 95.342 57.179C93.2072 56.8317 91.467 55.5506 89.4854 54.81C88.2544 54.3626 87.0987 53.8174 87.043 52.3099L86.1288 51.2365C85.9221 45.8093 86.3121 40.3759 87.2917 35.0337C87.4186 34.7294 87.4486 34.3934 87.3777 34.0714C87.3103 33.7508 87.1506 33.4569 86.9182 33.2259C87.0002 32.7118 86.8948 32.1853 86.6212 31.7422C86.3475 31.2991 85.9237 30.9689 85.4268 30.8115V30.8115Z" fill="#DBE4EA"/>
<path d="M160.842 31.6732C158.591 31.7321 157.89 33.428 157.24 34.9886C155.776 38.6077 154.593 42.3344 153.703 46.1354C152.897 49.3738 151.297 51.7627 147.834 52.8813C146.558 53.3906 145.312 53.9733 144.103 54.6265C143.128 55.0188 142.299 55.7034 141.73 56.586C141.201 57.4624 140.971 58.487 141.076 59.5052C141.139 63.4707 141.115 67.4474 141.14 71.4248L140.553 71.9363C139.336 71.2931 138.353 70.2826 137.744 69.0488C137.143 67.8434 136.96 66.4726 137.223 65.1519C137.491 62.4859 137.61 59.8072 137.581 57.128C137.559 55.9812 137.911 54.8583 138.585 53.929C139.282 52.9864 140.253 52.2822 141.367 51.9128C144.299 50.7136 147.574 49.8521 148.986 46.6581C149.189 46.1314 149.361 45.5933 149.5 45.0464C150.997 41.977 151.36 38.5602 152.623 35.4138C153.221 33.5202 154.444 31.8851 156.092 30.7752C157.873 29.7225 159.63 29.6822 160.842 31.6732Z" fill="#638492"/>
<path d="M100.03 70.1928C100.492 66.7402 100.856 63.274 101.393 59.8346C101.832 57.2833 101.204 55.1018 98.7435 54.0589C92.8766 51.5169 90.5919 47.2524 90.3551 41.3457C90.1867 38.2514 89.553 35.2 88.4752 32.2941C88.3018 31.563 87.9312 30.8933 87.4037 30.3577C86.8762 29.8222 86.212 29.4412 85.483 29.2561C87.5569 27.5153 88.9295 27.5074 90.6755 29.3197C92.7882 31.4699 93.1988 34.291 93.7722 36.9412C94.2748 39.3187 94.1709 41.7506 94.995 44.1198C95.0125 47.7389 97.6247 49.5 100.485 51.153C105.163 53.8782 106.209 56.3488 104.774 61.4446C104.349 63.0004 104.077 64.5938 103.961 66.2022C103.859 67.253 103.482 68.2585 102.868 69.1181C102.254 69.9776 101.425 70.661 100.464 71.0998C100.293 71.0144 100.152 70.8792 100.06 70.712C99.9743 70.5487 99.942 70.3624 99.968 70.1797L100.03 70.1928Z" fill="#638492"/>
<path d="M187.596 66.2753C187.213 67.2587 186.781 68.2168 186.472 69.2258C186.135 70.4196 185.52 71.5168 184.677 72.4275C183.811 73.3515 182.745 74.0651 181.56 74.5137C177.834 75.8761 176.456 78.3541 176.522 82.0479C176.588 85.7417 176.187 89.158 177.159 92.6529L176.108 92.6401C173.44 91.3723 173.542 89.1009 173.707 86.7068C173.873 84.3128 174.259 82.0449 173.508 79.7384L173.9 76.0379C174.315 75.1581 174.92 74.381 175.671 73.7622C176.399 73.1247 177.246 72.6358 178.162 72.323C179.645 71.9557 180.961 71.102 181.901 69.8985C182.371 69.7245 182.779 69.4159 183.074 69.0113C183.36 68.6205 183.525 68.1544 183.548 67.6708C184.146 67.1083 184.534 66.3596 184.65 65.5476L187.344 53.5136C187.903 52.9666 188.297 52.2739 188.482 51.5143C192.279 49.3499 192.279 49.3499 194.859 51.7776C193.804 51.7592 192.777 52.1165 191.963 52.7855C191.148 53.4545 190.598 54.3914 190.412 55.4285C189.287 58.973 188.364 62.578 187.646 66.2265L187.596 66.2753Z" fill="#638492"/>
<path d="M64.2617 88.0714C64.5667 84.3698 65.3147 80.8466 65.2979 77.1658C65.3282 74.6959 64.6334 72.8718 62.1982 71.8045C60.4715 71.083 58.9685 69.9151 57.8437 68.4208C56.7188 66.9265 56.0129 65.1599 55.7984 63.3027C55.0464 59.0817 54.0715 54.8828 53.1834 50.6725C53.0599 49.6214 52.5356 48.6583 51.7194 47.9834C50.9032 47.3086 49.8579 46.9741 48.8011 47.0494C50.8673 44.9256 52.2295 44.757 54.3863 46.3397C54.8521 46.6789 55.368 46.9569 55.8589 47.2593C55.8259 47.6792 55.884 48.1012 56.0292 48.4965C56.1761 48.8979 56.4078 49.2631 56.7085 49.567C57.3942 54.1536 58.0881 58.7484 58.7901 63.3516C59.139 64.7753 59.9658 66.0365 61.1328 66.9251C62.0429 68.3319 63.6574 68.7593 65.0339 69.4431C65.7909 69.758 66.4651 70.2427 67.0043 70.8598C67.5435 71.4768 67.9333 72.2095 68.1434 73.0012L68.4521 76.0681C67.1835 78.6833 67.6807 81.5055 67.6347 84.2468C67.593 86.6424 66.7984 87.9172 64.2617 88.0714Z" fill="#638492"/>
<path d="M56.7087 49.5545C56.4189 49.2488 56.1977 48.8849 56.0597 48.4871C55.9218 48.0893 55.8702 47.6667 55.9085 47.2474C58.2588 45.5243 60.7603 44.0171 63.3826 42.7444C69.3431 39.3261 75.3239 35.9328 81.325 32.5645C82.571 31.7022 83.9857 31.1134 85.476 30.8368C85.9736 31.0118 86.3923 31.3587 86.6565 31.8149C86.9207 32.271 87.013 32.8064 86.9169 33.3246C86.4352 33.4388 85.9654 33.5985 85.5139 33.8015C78.3673 37.8145 71.2813 41.9271 64.0736 45.89C61.6229 47.0951 59.5955 49.0835 56.7087 49.5545Z" fill="#9DB5C9"/>
<path d="M188.407 51.5259C188.233 52.2867 187.842 52.981 187.282 53.5253C186.377 53.3447 185.531 52.9394 184.824 52.3466C179.722 48.8999 174.66 45.2437 169.408 41.9681C165.911 39.7515 163.054 36.8017 159.217 35.1367C159.164 34.9005 159.167 34.6553 159.226 34.4204C159.292 34.1817 159.408 33.9599 159.567 33.77C159.737 33.5867 159.94 33.4381 160.166 33.3327C160.399 33.2232 160.653 33.1672 160.91 33.1689C162.154 33.4007 163.318 33.9464 164.291 34.7542C172.201 40.1126 180.035 45.5689 187.907 51.001C188.099 51.1539 188.271 51.3303 188.42 51.526L188.407 51.5259Z" fill="#9DB5C9"/>
<path d="M47.0809 74.4353C55.0343 75.212 60.6114 80.2207 62.774 88.3989C63.9359 94.4899 61.157 99.2728 57.4415 103.81C56.6008 103.799 56.0984 104.435 55.4634 104.798C53.196 106.178 50.8677 107.496 48.0132 107.35C49.3403 104.995 48.5602 103.071 46.4888 101.576C45.0192 100.59 43.4991 99.6804 41.9348 98.8521C38.9759 97.1361 36.2785 95.2751 34.76 92.0453C33.2416 88.8154 30.597 88.6965 28.2038 91.2733C28.0018 89.1846 28.2727 87.0774 28.9964 85.1075C29.7295 83.1365 30.8868 81.3503 32.3867 79.8751C34.2349 77.8777 36.5289 76.3442 39.0821 75.399C41.6354 74.4538 44.3759 74.1236 47.0809 74.4353V74.4353ZM51.6022 95.9815C51.5663 95.6275 51.3927 95.3016 51.1187 95.074C50.8368 94.8376 50.4769 94.7143 50.1091 94.7282C49.4291 94.7198 48.6131 94.7098 48.7259 95.6005C48.7745 95.962 48.9397 96.2978 49.1964 96.5573C49.4682 96.8129 49.8109 96.9807 50.1797 97.0387C50.9688 97.2212 51.4195 96.7698 51.6022 95.9815V95.9815ZM51.3327 78.6126C51.4075 78.3319 51.368 78.0329 51.2228 77.7812C51.0776 77.5295 50.8385 77.3454 50.5578 77.2692C50.4014 77.2058 50.2327 77.1784 50.0642 77.1891C49.8925 77.1934 49.7235 77.2333 49.5682 77.3065C49.4166 77.3754 49.2839 77.4797 49.1811 77.6105C49.0697 77.7319 48.9912 77.8798 48.9533 78.04C48.9142 78.1938 48.9122 78.3546 48.9475 78.5093C48.9723 78.6723 49.0386 78.8262 49.1399 78.9563C49.2327 79.0928 49.3535 79.2079 49.4944 79.2941C49.642 79.3804 49.8051 79.4369 49.9745 79.4606C50.1257 79.4871 50.2802 79.489 50.432 79.4662C50.5787 79.446 50.7188 79.3928 50.8419 79.3106C50.9694 79.2367 51.0801 79.1371 51.167 79.0182C51.23 78.8916 51.2654 78.7531 51.2709 78.6119L51.3327 78.6126ZM35.905 83.3641C35.6284 83.3817 35.3658 83.4916 35.1593 83.6761C34.9635 83.8628 34.8346 84.1086 34.7921 84.3756C34.7535 84.5294 34.7515 84.6902 34.7864 84.8449C34.8208 85.0022 34.8958 85.1479 35.0038 85.2675C35.1145 85.3914 35.2475 85.4936 35.3958 85.5687C35.5474 85.6355 35.711 85.6711 35.8767 85.6734C36.5072 85.6811 37.1162 85.4292 37.0503 84.7491C37.0649 84.584 37.046 84.4177 36.9948 84.26C36.9436 84.1024 36.8612 83.9566 36.7525 83.8315C36.5309 83.5717 36.2195 83.4047 35.8803 83.3638L35.905 83.3641ZM56.2406 84.7495C55.6595 84.7423 55.2113 84.9962 55.3275 85.6028C55.345 85.9578 55.4885 86.2949 55.7323 86.5536C55.9762 86.8124 56.3043 86.9759 56.658 87.0148C57.3256 87.023 57.6538 86.4712 57.5509 85.7906C57.5015 85.4677 57.3331 85.1749 57.0787 84.9697C56.8045 84.7701 56.4683 84.6741 56.1299 84.6987L56.2406 84.7495Z" fill="#509F60"/>
<path d="M111.23 141.077C111.139 139.301 111.53 137.534 112.361 135.961C113.192 134.389 114.432 133.07 115.951 132.143C120.261 129.602 124.964 128.165 129.973 131.154C131.926 132.225 133.547 133.813 134.655 135.744C135.764 137.675 136.318 139.874 136.256 142.1C136.124 144.731 135.094 147.237 133.337 149.203C132.935 149.717 132.35 150.105 132.316 150.821C130.132 151.448 128.357 153.045 126.101 153.462C126.35 152.449 126.228 151.381 125.759 150.449C125.29 149.518 124.504 148.784 123.542 148.379C122.216 147.634 120.877 146.889 119.513 146.23C118.199 145.653 117.145 144.611 116.556 143.303C115.523 140.882 113.776 140.145 111.23 141.077Z" fill="#509F60"/>
<path d="M173.583 79.727C174.118 82.0086 174.185 84.3747 173.782 86.6831C173.593 88.9904 173.49 91.3111 176.182 92.6286C175.755 94.1549 174.85 93.4028 174.001 93.0219C168.788 90.6237 164.18 87.2077 159.269 84.3562C153.536 81.0377 148.028 77.4008 142.421 73.8985C141.627 73.431 140.98 72.7515 140.553 71.9365L141.14 71.4249C145.06 70.7518 148.796 69.2706 152.112 67.0759C152.699 67.0939 153.272 67.2625 153.775 67.5656C156.658 69.4041 159.528 71.2796 162.487 73.0203C166.232 75.1905 169.624 77.8629 173.583 79.727Z" fill="#5B9E5B"/>
<path d="M64.2618 88.0715C66.7985 87.9173 67.5931 86.6425 67.6348 84.2469C67.6683 81.5054 67.1711 78.6956 68.4521 76.0681C70.7643 75.059 73.1127 74.1243 75.3764 73.0405C80.4507 70.6324 85.4766 68.1496 90.5268 65.6918C93.6099 67.3599 96.5541 69.2734 100.03 70.1805C100.003 70.3608 100.04 70.5448 100.135 70.7005C100.222 70.8668 100.359 71.0022 100.526 71.0882C98.1685 73.7519 94.801 75.1063 91.8007 76.774C85.0778 80.5205 78.499 84.6146 71.4375 87.7394C69.8138 88.4369 68.1259 88.9747 66.3977 89.3451C66.1841 89.4261 65.9569 89.4652 65.7286 89.4604C65.4953 89.4465 65.2661 89.3936 65.0504 89.3039C64.8408 89.2149 64.6527 89.082 64.4988 88.9143C64.3413 88.7535 64.2176 88.5631 64.1347 88.354C64.1472 88.2466 64.1965 88.1469 64.2742 88.0716L64.2618 88.0715Z" fill="#5B9E5B"/>
<path d="M138.981 97.2863C136.869 101.126 133.302 103.639 129.651 105.929C127.621 107.139 126.938 108.366 127.776 110.575C127.915 111.195 127.961 111.832 127.914 112.466C124.167 115.508 119.843 116.208 115.112 115.829C111.53 115.526 108.746 113.701 105.948 111.938C105.957 111.209 105.72 110.379 105.975 109.777C107.242 107.248 105.412 106.213 103.786 104.723C100.949 102.107 97.664 99.794 95.8269 96.3379C96.7845 96.4395 97.7155 96.7146 98.5743 97.1497C104.974 101.65 112.203 103.023 119.981 102.92C123.615 102.742 127.223 102.219 130.758 101.36C133.821 100.632 136.171 98.5364 138.981 97.2863ZM115.05 113.84C117.526 113.586 119.865 113.417 122.181 113.088C122.64 113.008 123.069 112.808 123.425 112.51C123.783 112.22 124.049 111.833 124.193 111.395C124.552 110.387 124.862 109.242 122.804 109.711C118.836 110.613 114.888 109.923 110.976 109.257C110.211 109.125 109.125 108 108.625 109.402C108.506 109.922 108.559 110.467 108.776 110.955C108.993 111.443 109.362 111.848 109.829 112.109C111.472 113.241 113.413 113.252 115.05 113.84Z" fill="#AED1B6"/>
<path d="M138.981 97.2865C136.172 98.4872 133.796 100.632 130.672 101.298C127.141 102.173 123.531 102.695 119.896 102.858C112.104 102.972 104.863 101.587 98.4886 97.087C97.6485 96.6883 96.7573 96.4072 95.8404 96.2518L93.8995 93.1896C91.0388 86.485 92.0776 81.4214 97.1143 78.0495C100.423 75.852 104.15 74.3588 108.061 73.6631C118.323 71.7138 128.213 72.8971 137.202 77.9846C145.798 82.8204 145.698 91.0326 138.981 97.2865ZM119.07 74.366C112.492 73.8671 105.906 75.2017 100.043 78.2212C92.5777 81.9833 91.8825 90.2871 98.599 95.1369C102.553 97.8072 107.074 99.5241 111.805 100.153C120.295 101.566 128.49 100.752 135.96 96.5702C140.579 93.9836 143.205 89.5694 141.052 84.689C140.033 82.5905 138.443 80.8206 136.465 79.5813C131.314 76.1559 125.258 74.3403 119.07 74.366Z" fill="#9DC7A3"/>
<path d="M28.167 91.2483C30.5849 88.6719 33.2166 88.8399 34.7233 92.0203C36.2299 95.2006 38.9392 97.1112 41.8981 98.8271C43.4624 99.6555 44.9824 100.565 46.4521 101.551C48.5486 103.009 49.3159 104.97 47.9764 107.325C46.7194 108.016 45.2631 108.255 43.8506 108.003C39.4362 107.01 35.0978 105.858 32.0508 102.251C31.7705 101.914 31.1782 101.821 30.7232 101.617C30.9434 99.7922 29.5995 98.4666 29.0251 96.9033C28.3 95.1113 28.0061 93.1744 28.167 91.2483V91.2483Z" fill="#438852"/>
<path d="M186.462 89.1848L186.831 86.3239C191.786 85.5817 191.787 85.557 194.084 89.8092C195.353 92.2209 197.825 93.2393 199.972 94.6242C201.653 95.707 203.51 96.5572 205.128 97.7257C207.076 99.1329 208.241 100.963 206.95 103.38C204.985 104.184 202.806 104.305 200.764 103.724C196.557 102.838 192.71 100.723 189.71 97.648C188.478 94.8864 187.394 92.0613 186.462 89.1848V89.1848Z" fill="#438852"/>
<path d="M93.8984 93.2758L95.8393 96.338C97.7011 99.7944 100.962 102.107 103.786 104.723C105.388 106.212 107.267 107.236 105.975 109.777C105.811 110.487 105.802 111.224 105.948 111.938C105.624 113.638 105.932 115.399 106.815 116.889C103.69 116.64 102.022 115.521 101.347 112.067C101.182 110.539 100.528 109.105 99.4807 107.98C98.4338 106.854 97.0507 106.096 95.5377 105.82C94.1489 105.465 92.8782 104.751 91.8536 103.749C90.8492 102.753 90.1449 101.494 89.8208 100.118C89.0863 97.4904 91.4356 93.4556 93.8984 93.2758Z" fill="#5B9E5B"/>
<path d="M111.23 141.077C113.714 140.144 115.56 140.883 116.519 143.303C117.104 144.613 118.159 145.657 119.476 146.229C120.828 146.913 122.166 147.658 123.505 148.378C124.467 148.783 125.253 149.517 125.722 150.449C126.191 151.381 126.312 152.449 126.064 153.461C123.648 153.889 121.16 153.658 118.864 152.793C116.646 152.123 115.396 150.181 113.328 149.44C113.608 147.8 112.125 146.72 111.784 145.271C111.317 143.925 111.128 142.498 111.23 141.077V141.077Z" fill="#438852"/>
<path d="M30.7354 101.63C31.1903 101.845 31.7826 101.939 32.0629 102.276C35.1099 105.883 39.4237 107.022 43.8627 108.028C45.2766 108.27 46.7311 108.027 47.9886 107.337C50.8557 107.471 53.1839 106.166 55.4388 104.785C56.0742 104.398 56.5759 103.811 57.4168 103.809C57.1784 108.129 55.1422 109.821 49.307 110.75C46.4368 111.237 43.4997 111.172 40.654 110.558C37.8099 109.945 35.1115 108.788 32.708 107.15C30.3277 105.639 29.7656 104.088 30.7354 101.63Z" fill="#3E7C4B"/>
<path d="M189.722 97.6485C192.719 100.728 196.568 102.843 200.776 103.725C202.819 104.302 204.996 104.181 206.962 103.381C209.488 103.276 211.917 102.381 213.906 100.822C214.642 100.313 215.317 99.6788 216.39 99.8895C215.92 103.972 213.199 106.026 207.65 106.786C201.988 107.695 196.19 106.457 191.396 103.313C188.93 101.739 188.299 99.7431 189.722 97.6485Z" fill="#3E7C4B"/>
<path d="M106.791 116.851C105.908 115.361 105.6 113.601 105.924 111.9C108.771 113.664 111.543 115.489 115.088 115.78C119.819 116.171 124.18 115.471 127.89 112.429C128.145 112.898 128.298 113.415 128.341 113.947C128.384 114.478 128.315 115.013 128.139 115.517C127.963 116.021 127.684 116.482 127.318 116.872C126.953 117.261 126.511 117.57 126.019 117.778C120.851 120.803 115.585 120.652 110.184 118.461C109.039 118.028 107.934 117.396 106.791 116.851Z" fill="#9DC7A3"/>
<path d="M113.328 149.439C115.409 150.181 116.646 152.123 118.864 152.793C121.157 153.67 123.648 153.901 126.064 153.461C128.382 153.045 130.132 151.449 132.279 150.82C132.502 153.849 130.105 154.672 127.823 155.261C125.524 155.903 123.11 156.026 120.758 155.62C118.421 155.227 116.204 154.308 114.275 152.934C113.086 152.043 112.259 150.958 113.328 149.439Z" fill="#3E7C4B"/>
<path d="M209.919 92.1897C209.677 92.7796 209.312 93.2444 208.599 92.9393C207.885 92.6341 206.973 92.4377 207.17 91.5014C207.367 90.5651 208.132 90.6733 208.848 90.8056C209.011 90.8307 209.169 90.8827 209.316 90.9595C209.462 91.0375 209.591 91.1441 209.695 91.2729C209.789 91.406 209.863 91.5527 209.912 91.7079C209.951 91.8659 209.954 92.0307 209.919 92.1897Z" fill="#6EAB6E"/>
<path d="M214.918 80.7888C215.083 80.7912 215.247 80.8268 215.399 80.8935C215.555 80.9566 215.693 81.0556 215.803 81.1825C215.914 81.3039 215.997 81.4483 216.045 81.6055C216.073 81.7608 216.072 81.9201 216.04 82.0747C216.063 82.1931 216.061 82.3151 216.035 82.4329C215.989 82.5444 215.925 82.6479 215.846 82.7393C215.755 82.8223 215.649 82.888 215.534 82.9331C215.416 82.98 215.29 83.0036 215.163 83.0027C214.817 82.9941 214.485 82.8631 214.227 82.633C213.978 82.4116 213.819 82.1063 213.78 81.7753C213.69 81.1196 214.262 80.8425 214.918 80.7888Z" fill="#6EAB6E"/>
<path d="M209.753 74.4635C209.743 74.6074 209.704 74.7479 209.639 74.8765C209.573 75.0052 209.483 75.1194 209.372 75.2123C209.139 75.3947 208.849 75.4875 208.553 75.474C207.91 75.4661 207.321 75.1378 207.478 74.4357C207.635 73.7336 208.168 73.5919 208.811 73.6245C209.453 73.657 209.76 73.8708 209.753 74.4635Z" fill="#6EAB6E"/>
<path d="M194.391 79.8335C195.021 79.9276 195.549 80.1935 195.479 80.8843C195.467 81.0063 195.427 81.124 195.364 81.2287C195.297 81.3364 195.212 81.4315 195.113 81.5097C195.011 81.5815 194.897 81.6345 194.777 81.6661C194.65 81.6892 194.52 81.6876 194.394 81.6615C193.739 81.6534 193.161 81.3252 193.281 80.6227C193.401 79.9202 193.822 79.8882 194.391 79.8335Z" fill="#6EAB6E"/>
<path d="M159.18 35.1362C163.017 36.8012 165.886 39.7882 169.371 41.9676C174.623 45.2432 179.685 48.8994 184.786 52.3831C185.497 52.9715 186.341 53.3763 187.245 53.5619L184.538 65.5834C184.432 66.3985 184.042 67.1503 183.436 67.7066C183.29 67.5196 183.182 67.2589 182.986 67.133C176.346 63.0746 169.744 58.9673 163.054 55.0071C161.446 54.0488 160.068 52.5003 157.852 52.7079C158.756 48.3889 159.036 43.9624 158.68 39.5641C158.65 38.0322 158.273 36.496 159.18 35.1362Z" fill="#B5C7D6"/>
<path d="M181.851 69.9349C180.914 71.1412 179.596 71.9956 178.112 72.3593C177.197 72.6684 176.351 73.1531 175.621 73.7862C174.905 74.4089 174.324 75.1708 173.912 76.0255C173.037 75.7228 172.21 75.2968 171.455 74.7603C163.07 69.4702 154.669 64.1881 146.252 58.914C148.622 57.1768 151.761 57.3141 154.288 55.9494C155.159 55.503 156.223 55.4173 156.779 54.5101C157.532 54.5794 158.247 54.872 158.833 55.3504C166.526 60.2739 173.893 65.4898 181.851 69.9349Z" fill="#B5C7D6"/>
<path d="M146.275 59.0008L171.479 74.8471C172.233 75.3835 173.061 75.8095 173.936 76.1123L173.557 79.813C169.598 77.9612 166.194 75.2764 162.511 73.0946C159.552 71.3662 156.682 69.4908 153.799 67.6398C153.296 67.3369 152.722 67.1722 152.135 67.1625C150.767 65.8095 149.206 64.6666 147.503 63.771C145.429 62.4487 145.077 60.9005 146.275 59.0008Z" fill="#9DB5C9"/>
<path d="M181.851 69.9351C173.918 65.4657 166.526 60.2741 158.894 55.4008C158.305 54.9201 157.585 54.6273 156.827 54.5603C156.653 53.6689 157.314 53.22 157.914 52.6963C160.13 52.4393 161.508 54.0495 163.104 54.983C169.806 58.9557 176.384 63.0504 183.048 67.1214C183.244 67.2349 183.352 67.4956 183.498 67.695C183.485 68.1842 183.319 68.657 183.024 69.0479C182.729 69.4525 182.321 69.7611 181.851 69.9351V69.9351Z" fill="#9DB5C9"/>
<path d="M56.7087 49.5547C59.5955 49.0837 61.6223 47.1447 64.0255 45.7784C71.2324 41.8896 78.3183 37.777 85.4658 33.6899C85.9181 33.4888 86.3877 33.3292 86.8689 33.213C87.1037 33.4423 87.2638 33.737 87.3284 34.0585C87.4 34.3764 87.37 34.7087 87.2426 35.0085C86.263 40.3549 85.873 45.7924 86.0795 51.2236C84.9827 51.1448 83.8861 51.3799 82.9182 51.9013C75.8506 55.52 68.7838 59.0771 61.766 62.6717C60.8882 63.1745 59.8677 63.3706 58.8658 63.2291C58.1218 58.6912 57.4028 54.1331 56.7087 49.5547Z" fill="#B5C7D6"/>
<path d="M68.1433 73.0136C67.9367 72.2203 67.5482 71.4859 67.0085 70.8683C66.4689 70.2508 65.7928 69.7671 65.0338 69.4555C63.6335 68.6972 62.0437 68.2702 61.1327 66.9375C64.1795 64.5046 67.8431 63.2031 71.1923 61.3174C76.4589 58.3559 81.9681 55.7802 86.9918 52.4575C87.0849 53.9408 88.29 54.4867 89.4341 54.9577C91.4035 55.6981 93.1188 56.979 95.2908 57.3267C95.6353 57.3791 95.9493 57.554 96.175 57.8192C96.3952 58.0781 96.5102 58.41 96.4975 58.7495C92.4663 60.7875 88.3985 62.7879 84.404 64.8634C79.054 67.5645 73.8708 70.7864 68.1433 73.0136Z" fill="#B5C7D6"/>
<path d="M68.1433 73.0135C73.8707 70.7864 79.0541 67.5521 84.4549 64.7405C88.462 62.6528 92.5173 60.6645 96.5486 58.6142C97.7598 60.6793 96.6186 61.9869 94.8514 62.9163C93.2944 63.6535 91.8405 64.5907 90.5266 65.7041C85.477 68.1125 80.4506 70.6446 75.3762 73.0527C73.1126 74.1366 70.764 75.0836 68.4519 76.0804L68.1433 73.0135Z" fill="#9DB5C9"/>
<path d="M86.9927 52.3831C82.0059 55.7186 76.4596 58.2938 71.1932 61.243C67.8562 63.1412 64.1796 64.4919 61.1337 66.8507C59.9646 65.9717 59.1402 64.712 58.8033 63.2897C59.8011 63.4265 60.8162 63.2306 61.6911 62.7322C68.7587 59.1135 75.8253 55.5688 82.8433 51.9618C83.8121 51.443 84.9079 51.2081 86.0046 51.2841L86.9927 52.3831Z" fill="#9DB5C9"/>
<path d="M51.6022 95.9813C51.4195 96.7696 50.969 97.2087 50.1793 97.0755C49.8093 97.0133 49.4667 96.8413 49.1961 96.5818C48.9331 96.3319 48.7664 95.9976 48.7254 95.6373C48.6138 94.6602 49.429 94.732 50.1086 94.765C50.4705 94.7518 50.825 94.8703 51.1061 95.0983C51.2466 95.2021 51.3634 95.3345 51.4489 95.4867C51.5345 95.6389 51.5867 95.8075 51.6022 95.9813Z" fill="#6EAB6E"/>
<path d="M51.2709 78.6116C51.2038 78.8957 51.0276 79.1419 50.7802 79.2973C50.5228 79.4489 50.219 79.5022 49.9252 79.4474C49.7558 79.4237 49.5927 79.3672 49.445 79.2809C49.301 79.1944 49.1762 79.0794 49.0782 78.943C48.9808 78.8119 48.9188 78.658 48.8982 78.4961C48.857 78.338 48.8591 78.1716 48.9041 78.0145C48.9449 77.859 49.0231 77.7158 49.1318 77.5974C49.2346 77.4665 49.3673 77.3622 49.5188 77.2933C49.673 77.2168 49.8427 77.1766 50.0149 77.1759C50.1833 77.1661 50.3518 77.1935 50.5085 77.256C50.7887 77.346 51.0275 77.5329 51.1821 77.783C51.2493 77.9091 51.2907 78.0473 51.3038 78.1896C51.317 78.3318 51.3015 78.4753 51.2585 78.6115L51.2709 78.6116Z" fill="#6EAB6E"/>
<path d="M35.8429 83.388C36.1821 83.4289 36.4935 83.5959 36.7151 83.8557C36.8238 83.9809 36.9063 84.1266 36.9574 84.2843C37.0086 84.4419 37.0275 84.6082 37.013 84.7733C37.0045 85.4649 36.4693 85.7547 35.8394 85.6976C35.6736 85.6953 35.5101 85.6597 35.3584 85.5929C35.2101 85.5178 35.0772 85.4156 34.9664 85.2917C34.8584 85.1721 34.7835 85.0264 34.749 84.8691C34.7141 84.7144 34.7161 84.5536 34.7548 84.3998C34.7972 84.1328 34.9262 83.8871 35.1219 83.7003C35.3285 83.5158 35.5911 83.4059 35.8676 83.3883L35.8429 83.388Z" fill="#6EAB6E"/>
<path d="M56.1788 84.7487C56.5109 84.728 56.8392 84.8286 57.1027 85.0317C57.3576 85.2259 57.527 85.5114 57.5752 85.828C57.6261 85.9686 57.6417 86.1195 57.6206 86.2675C57.5995 86.4155 57.5424 86.5561 57.4543 86.677C57.3661 86.7978 57.2496 86.8952 57.115 86.9606C56.9805 87.026 56.8318 87.0575 56.6823 87.0521C56.3117 87.0425 55.9581 86.8946 55.6912 86.6376C55.4244 86.3806 55.2634 86.0331 55.2402 85.6635C55.1742 84.9957 55.5974 84.7662 56.1788 84.7487Z" fill="#6EAB6E"/>
<path d="M115.05 113.84C113.4 113.252 111.484 113.241 109.915 112.11C108.947 111.382 108.291 110.46 108.712 109.402C109.212 107.964 110.298 109.125 111.063 109.258C114.987 109.924 118.898 110.589 122.891 109.712C124.949 109.243 124.638 110.388 124.279 111.396C124.136 111.834 123.869 112.221 123.512 112.511C123.155 112.809 122.726 113.009 122.268 113.089C119.853 113.417 117.501 113.586 115.05 113.84Z" fill="#9DC7A3"/>
<path d="M119.07 74.3661C125.275 74.3308 131.349 76.147 136.515 79.582C138.493 80.8213 140.082 82.5912 141.101 84.6897C143.205 89.5818 140.58 93.9714 136.01 96.5709C128.54 100.753 120.344 101.566 111.854 100.153C107.105 99.5361 102.566 97.8182 98.599 95.137C91.8579 90.2746 92.5778 81.9711 100.043 78.2213C105.905 75.2018 112.492 73.8672 119.07 74.3661V74.3661ZM104.111 93.3518C104.649 94.1055 105.449 94.6308 106.356 94.8244C109.559 95.9884 112.928 96.6342 116.335 96.7375C122.513 97.0972 128.445 96.3794 133.8 93.2461C138.931 90.2458 139.08 86.1965 134.274 82.7905C127.974 78.3164 120.734 77.8448 113.309 78.2973C109.379 78.4156 105.541 79.5105 102.142 81.483C99.9742 82.8027 97.9261 84.4574 98.5242 87.1079C99.0821 90.0172 100.483 92.7145 104.111 93.3518Z" fill="#AED1B6"/>
<path d="M104.111 93.3514C100.483 92.7141 99.0821 90.0168 98.4377 87.1064C97.8395 84.4559 99.8876 82.8012 102.068 81.4817C105.466 79.5073 109.305 78.4122 113.235 78.296C120.659 77.8435 127.937 78.3155 134.2 82.7892C139.018 86.2077 138.882 90.2572 133.726 93.2447C128.358 96.3779 122.414 97.0956 116.249 96.736C116.258 95.9951 116.867 95.6938 117.429 95.2807C121.895 92.0623 125.605 87.9702 130.231 84.8526C131.477 84.0156 131.251 83.2718 129.872 82.835C127.781 82.1225 125.655 81.5193 123.501 81.0278C121.787 80.6857 119.584 79.8435 119.3 82.8167C119.209 83.1203 119.067 83.4066 118.882 83.6638C117.271 84.2331 115.804 85.1467 114.583 86.3407L113.625 86.8354C110.361 88.8457 106.889 90.6188 104.111 93.3514Z" fill="#449AD5"/>
<path d="M104.111 93.3517C106.889 90.6191 110.348 88.8458 113.699 86.8366C113.69 87.5775 112.916 88.2226 113.597 89.0956C114.816 90.5185 118.987 91.2365 120.854 90.2343C123.568 88.7607 121.372 87.3134 120.908 85.8503C121.37 85.4607 122.264 85.1876 121.754 84.4156C121.244 83.6436 119.993 83.7765 119.042 83.6907C119.23 83.4349 119.372 83.1482 119.461 82.8436C119.744 79.8828 121.96 80.7128 123.662 81.0547C125.82 81.55 127.95 82.1573 130.045 82.8744C131.412 83.3111 131.638 84.0549 130.391 84.8919C125.704 87.9717 122.03 92.1013 117.54 95.2823C116.979 95.683 116.406 95.9972 116.36 96.7377C112.957 96.6254 109.593 95.9756 106.393 94.8123C105.927 94.723 105.483 94.5412 105.089 94.2776C104.701 94.0206 104.369 93.689 104.111 93.3023L104.111 93.3517Z" fill="#89BFE3"/>
<path d="M120.858 85.8495C121.384 87.3134 123.592 88.7608 120.804 90.2335C118.937 91.2357 114.742 90.5421 113.548 89.0947C112.841 88.2215 113.665 87.577 113.65 86.8357L114.608 86.3411C116.478 87.1051 118.159 86.1129 119.906 85.8502L120.858 85.8495Z" fill="#AED1B6"/>
<path d="M119.955 85.8633C118.196 86.1258 116.527 87.1182 114.657 86.3418C115.877 85.1488 117.344 84.239 118.956 83.6772C118.87 84.5902 118.736 85.5025 119.955 85.8633Z" fill="#89BFE3"/>
<path d="M119.943 85.8633C118.711 85.5024 118.87 84.6151 118.98 83.7024C119.944 83.7883 121.073 83.4687 121.704 84.4275C122.214 85.1871 121.308 85.4601 120.858 85.8498L119.943 85.8633Z" fill="#449AD5"/>
</g>
<defs>
<filter id="filter0_d_481_1104" x="0" y="0" width="280.063" height="181.061" filterUnits="userSpaceOnUse" color-interpolation-filters="sRGB">
<feFlood flood-opacity="0" result="BackgroundImageFix"/>
<feColorMatrix in="SourceAlpha" type="matrix" values="0 0 0 0 0 0 0 0 0 0 0 0 0 0 0 0 0 0 127 0" result="hardAlpha"/>
<feOffset dx="23" dy="4"/>
<feGaussianBlur stdDeviation="2"/>
<feComposite in2="hardAlpha" operator="out"/>
<feColorMatrix type="matrix" values="0 0 0 0 0 0 0 0 0 0 0 0 0 0 0 0 0 0 0.25 0"/>
<feBlend mode="normal" in2="BackgroundImageFix" result="effect1_dropShadow_481_1104"/>
<feBlend mode="normal" in="SourceGraphic" in2="effect1_dropShadow_481_1104" result="shape"/>
</filter>
</defs>
</svg>
