<svg width="96" height="93" viewBox="0 0 96 93" fill="none" xmlns="http://www.w3.org/2000/svg">
<path d="M63.9 70.4299C59.64 69.1499 55.63 67.7699 52.38 64.6099C49.2004 61.5412 46.464 58.0442 44.25 54.2199C42 50.2199 41.05 45.7499 40 41.3399C38.88 36.5932 37.7267 31.8499 36.54 27.1099C36.4216 26.5805 36.1207 26.1097 35.69 25.7799C35.5045 25.3471 35.2078 24.971 34.83 24.6899C34.1201 24.2111 33.2676 23.9896 32.4144 24.0624C31.5612 24.1352 30.7586 24.4978 30.14 25.0899C29.5021 25.7015 29.0512 26.4818 28.84 27.3399C28.7 27.8199 28.73 28.3399 28.59 28.7999C28.5583 28.8909 28.5349 28.9846 28.52 29.0799C28.4145 29.0937 28.3127 29.1276 28.22 29.1799C27.3754 29.5272 26.6598 30.1287 26.1724 30.901C25.6851 31.6733 25.4501 32.5781 25.5 33.4899C25.5 33.9499 26.12 35.5699 26.08 35.6599C25.92 36.0499 23.95 36.5199 23.63 36.6599C22.977 36.9891 22.3958 37.4446 21.92 37.9999C21.572 38.6009 21.2904 39.238 21.08 39.8999C21.16 39.6899 20.55 40.2999 20.42 40.3999C20.0254 40.7136 19.6872 41.0924 19.42 41.5199C19.0093 42.3278 18.8624 43.2441 19 44.1399L18.47 44.3899C17.5851 44.7681 16.7544 45.2624 16 45.8599C14.4658 47.0605 13.4583 48.8103 13.19 50.7399C12.96 52.7399 11.48 53.8299 11.05 55.7399C10.8341 56.667 10.9253 57.6392 11.31 58.5099C11.4755 58.8738 11.6946 59.2109 11.96 59.5099C12.1302 59.6868 12.3105 59.8537 12.5 60.0099C12.06 61.7899 11.71 63.2199 12.73 65.0099C13.1842 65.8167 13.8255 66.5026 14.6 67.0099C15.0233 67.2933 15.4845 67.5155 15.97 67.6699C16.3727 67.7412 16.7811 67.7747 17.19 67.7699C16.97 67.9699 17.57 69.0199 17.8 69.3599C18.3452 70.1452 19.1371 70.726 20.05 71.0099C20.7495 71.1844 21.4692 71.2651 22.19 71.2499C22.4996 71.2287 22.8104 71.2287 23.12 71.2499L23.23 71.4099L23.62 71.9199C24.9 73.3499 26.71 73.4899 28.51 73.4499C31.0122 73.5298 33.4875 73.9918 35.85 74.8199C38.34 75.5099 40.68 75.3799 43.19 75.7199C44.6 75.9099 45.93 76.5399 47.34 76.7899C48.717 77.028 50.1126 77.1418 51.51 77.1299C54.25 77.1299 57.02 77.0199 59.75 76.8399C62.05 76.6899 64.11 76.1799 65.35 74.0799C65.5357 73.752 65.6455 73.3866 65.6714 73.0107C65.6972 72.6347 65.6384 72.2578 65.4993 71.9076C65.3601 71.5574 65.1442 71.2428 64.8675 70.9871C64.5907 70.7314 64.2601 70.541 63.9 70.4299V70.4299Z" fill="#557E20"/>
<path d="M86.4399 60.6798C85.542 57.4355 84.1163 54.3611 82.2199 51.5798C81.8808 51.0348 81.4217 50.5744 80.8778 50.2336C80.3338 49.8927 79.7193 49.6805 79.0809 49.613C78.4425 49.5455 77.7972 49.6245 77.194 49.844C76.5908 50.0636 76.0456 50.4178 75.5999 50.8798C74.8799 51.5198 74.2999 52.8798 73.4599 53.3298C72.6199 53.7798 70.7499 52.8498 69.6499 52.7698C68.7517 52.6953 67.848 52.8146 66.9999 53.1198C66.6199 53.2598 65.5699 53.7298 65.4999 53.7198C64.8899 53.5998 64.2399 52.8798 63.5899 52.7198C62.9104 52.5282 62.2057 52.4406 61.4999 52.4598C60.8433 52.6015 60.1708 52.6553 59.4999 52.6198C58.9599 52.4498 58.5599 51.7898 58.0099 51.4598C57.4555 51.149 56.8488 50.9422 56.2199 50.8498L55.7699 50.7698C55.3608 50.2126 54.8439 49.7433 54.2499 49.3898C53.7417 49.0989 53.2098 48.8514 52.6599 48.6498C52.4899 48.5898 51.9399 48.2898 51.5799 48.1798C51.5672 47.7121 51.5102 47.2467 51.4099 46.7898C51.2064 46.1972 50.8635 45.6622 50.4099 45.2298C49.4135 44.4473 48.286 43.848 47.0799 43.4598C46.7199 41.4598 44.8699 39.5598 43.7999 37.5898C42.1099 34.4798 42.7999 30.8198 41.2699 27.6598C41.8036 26.8984 42.0611 25.9776 41.9999 25.0498C41.8199 22.0498 37.2899 21.8398 36.9999 24.5998H36.8799L35.7999 24.6598C35.1963 24.6985 34.6008 24.8196 34.0299 25.0198C33.5118 25.1967 33.0435 25.4951 32.6642 25.89C32.285 26.2849 32.0057 26.7649 31.8499 27.2898C31.6966 27.7561 31.6475 28.2503 31.7063 28.7376C31.765 29.2249 31.9301 29.6934 32.1899 30.1098C31.6507 30.3748 31.1495 30.7112 30.6999 31.1098C29.6956 31.9113 28.9909 33.0282 28.6999 34.2798C28.6023 34.7984 28.6236 35.3325 28.7622 35.8417C28.9007 36.351 29.153 36.8221 29.4999 37.2198C28.9631 37.8015 28.5422 38.4803 28.2599 39.2198C28.148 39.6522 28.1578 40.1071 28.2884 40.5342C28.419 40.9614 28.6653 41.344 28.9999 41.6398C29.1899 41.7998 29.4599 42.0098 29.7799 42.2298C29.7005 42.3405 29.6303 42.4576 29.5699 42.5798C29.4631 42.804 29.3793 43.0386 29.3199 43.2798C29.1043 43.4796 28.9221 43.7125 28.7799 43.9698C27.8171 44.1226 26.8676 44.35 25.9399 44.6498C25.4148 44.9383 24.9653 45.3468 24.6281 45.8421C24.291 46.3374 24.0757 46.9054 23.9999 47.4998C23.9306 48.0142 23.9782 48.5376 24.1392 49.0311C24.3002 49.5246 24.5705 49.9753 24.9299 50.3498C25.1165 50.544 25.3284 50.7122 25.5599 50.8498C25.539 50.8847 25.5156 50.9182 25.4899 50.9498C24.9131 51.9512 24.7379 53.1342 24.9999 54.2598C25.2216 55.2339 25.8086 56.0858 26.6399 56.6398C27.3993 56.8464 28.1758 56.9836 28.9599 57.0498C28.87 57.341 28.8294 57.6452 28.8399 57.9498C28.869 58.5174 29.0187 59.0723 29.2791 59.5776C29.5395 60.0828 29.9045 60.5267 30.3499 60.8798C31.1481 61.4767 32.1048 61.8246 33.0999 61.8798C33.8382 62.0451 34.5248 62.3884 35.0999 62.8798C35.5499 63.5298 35.0999 64.5998 35.8599 65.3898C36.3238 65.8998 36.9669 66.2106 37.6546 66.2572C38.3424 66.3038 39.0216 66.0825 39.5499 65.6398C39.6005 65.7146 39.6573 65.7848 39.7199 65.8498C40.1316 66.2151 40.6059 66.5031 41.1199 66.6998C41.1238 67.2625 41.2756 67.8143 41.5599 68.2998C41.9638 68.8823 42.506 69.3553 43.1378 69.6765C43.7697 69.9976 44.4714 70.1568 45.1799 70.1398C45.2873 70.8662 45.6573 71.528 46.2199 71.9998C46.8257 72.5206 47.6012 72.8016 48.3999 72.7898L49.2399 72.6698V72.7198C49.8599 74.2798 51.8399 74.7898 53.2399 74.6098C53.6272 74.5588 54.0089 74.4717 54.3799 74.3498C54.4881 74.4279 54.6017 74.4981 54.7199 74.5598C55.4475 75.1256 56.2089 75.6466 56.9999 76.1198C57.5005 76.3552 58.0468 76.4772 58.5999 76.4772C59.1531 76.4772 59.6994 76.3552 60.1999 76.1198C60.5667 76.4842 61.0063 76.7671 61.4899 76.9498C63.0199 77.5198 63.8799 76.3898 65.1599 76.3498C66.1599 76.3498 67.2899 76.9698 68.3499 77.0198C69.5351 77.1286 70.7158 76.7697 71.6399 76.0198C71.7793 75.9068 71.9097 75.7831 72.0299 75.6498L72.2699 75.7698C72.8583 76.0783 73.5065 76.2557 74.1699 76.2898C75.596 76.409 77.017 76.0076 78.1699 75.1598C79.3499 74.2898 80.0099 73.3998 81.4099 72.8498C82.897 72.26 84.1554 71.2084 84.9999 69.8498C85.9549 68.5474 86.584 67.0353 86.8345 65.4398C87.0851 63.8444 86.9498 62.2122 86.4399 60.6798V60.6798Z" fill="#6A9329"/>
<path d="M78.16 46.6502C77.65 44.3702 76.16 42.5502 75.09 40.5402C73.52 37.6402 74.67 34.7902 73.75 31.8002C73.3771 30.5801 72.6016 29.5226 71.55 28.8002C70.69 28.2302 69.3 28.1202 68.61 27.3902C67.92 26.6602 67.81 25.3902 67.5 24.5902C67.1908 23.5301 66.6816 22.539 66 21.6702C65.3689 20.951 64.5679 20.401 63.67 20.0702C63.67 19.8702 63.62 19.6702 63.59 19.4802C63.6091 19.0075 63.5722 18.5342 63.48 18.0702C63.2605 16.8285 62.6326 15.6958 61.696 14.8516C60.7594 14.0074 59.5677 13.5001 58.31 13.4102C57.6934 13.2344 57.045 13.1997 56.4132 13.3088C55.7813 13.4179 55.1821 13.6678 54.66 14.0402V14.0402C54.4243 14.1125 54.2039 14.2277 54.01 14.3802C53.6369 14.5779 53.3174 14.8631 53.0787 15.2115C52.8401 15.5598 52.6896 15.9608 52.64 16.3802C51.86 16.3802 51.01 16.3802 50.74 16.3802C47.88 16.5302 46.55 18.6302 44.14 19.6602C41.93 20.6002 39.45 20.8602 38.73 23.6602C38.4792 24.7385 38.5736 25.8684 39 26.8902C39.63 28.5802 39.8 28.8902 38.85 30.4902C37.79 32.3002 37.27 34.4902 39.15 36.0602C39.6329 36.4548 40.1908 36.7474 40.79 36.9202C41.86 37.2402 41.5 36.7502 41.56 37.8702C41.64 39.1802 41.42 40.2802 42.05 41.5502C42.5379 42.5227 43.3154 43.32 44.2754 43.8322C45.2353 44.3445 46.3305 44.5464 47.41 44.4102L48.23 44.3002H48.54C48.54 44.5002 48.49 44.7102 48.49 44.8702C48.3758 46.1008 48.671 47.3346 49.33 48.3802C49.6369 48.8089 50.0254 49.1727 50.4733 49.4507C50.9212 49.7287 51.4197 49.9155 51.94 50.0002C52.808 50.0114 53.6752 49.9411 54.53 49.7902C54.6 50.0702 54.67 50.3502 54.72 50.6402C54.8138 51.0203 54.9307 51.3943 55.07 51.7602C55.2718 52.3376 55.5922 52.8664 56.0107 53.3125C56.4293 53.7586 56.9366 54.1121 57.5 54.3502C58.0708 54.6162 58.7058 54.7134 59.33 54.6302L59.84 54.5102C59.8781 54.5446 59.9222 54.5717 59.97 54.5902C61.08 55.0602 61.6 55.9602 62.97 56.1102C64.15 56.2302 65.18 55.7302 66.33 55.6502C67.8 55.5502 69.21 56.2902 70.67 56.4702C75.82 57.0602 79.18 51.3402 78.16 46.6502Z" fill="#73A92D"/>
</svg>
