<svg width="263" height="201" viewBox="0 0 263 201" fill="none" xmlns="http://www.w3.org/2000/svg">
<path d="M128.055 192.33L231.824 157.334V59.2402L128.055 92.7712V192.33Z" fill="#B1B6A1"/>
<path d="M231.627 87.9707V71.1064L249.105 90.2836C249.402 90.5992 249.584 91.0057 249.621 91.4375C249.659 91.8693 249.551 92.3012 249.314 92.6637C249.076 93.0262 248.724 93.2981 248.314 93.4357C247.904 93.5732 247.46 93.5682 247.053 93.4217L231.627 87.9707Z" fill="#FBF3DB"/>
<path d="M239.769 96.3506L248.363 93.4333L231.65 71.1064L223.021 73.9191L239.769 96.3506Z" fill="#FBF3DB"/>
<path d="M238.725 96.4668C241.067 96.5325 243.407 96.2863 245.684 95.7345C246.541 95.4254 247.324 94.9429 247.987 94.317C248.649 93.6912 249.176 92.9354 249.535 92.0967" fill="#FBF3DB"/>
<path d="M239.978 48.9307L128.044 12.8428L18.1165 50.093L128.055 85.379L239.978 48.9307Z" fill="#D3DADA"/>
<path d="M128.044 92.7709L239.978 56.6016V48.9424L128.055 85.379L18.1165 50.1046V57.6244L128.044 92.7709Z" fill="#E9EDED"/>
<path d="M216.144 47.8849L128.253 19.5376L41.9507 48.7915L128.264 76.488L216.144 47.8849Z" fill="#B1B2AE"/>
<path d="M211.539 49.3959L128.299 22.5479L46.5549 50.256L128.31 76.488L211.539 49.3959Z" fill="#CBCBC8"/>
<path d="M128.055 69.5258L145.522 63.238V48.6401L128.055 54.4863V69.5258Z" fill="#E9EDED"/>
<path d="M110.577 48.6404L128.044 54.4865L145.522 48.6404L128.044 42.8872L110.577 48.6404Z" fill="#E9EDED"/>
<path d="M117.513 48.8262L128.044 52.3595L138.587 48.8262L128.044 45.3511L117.513 48.8262Z" fill="#B1B2AE"/>
<path d="M128.044 45.3511V52.3595L117.513 48.8262L128.044 45.3511Z" fill="#8FADAD"/>
<path d="M110.577 56.311L98.016 61.7388C97.9373 61.7765 97.8719 61.8375 97.8287 61.9134C97.7854 61.9894 97.7663 62.0767 97.7738 62.1639C97.7814 62.251 97.8153 62.3337 97.871 62.4011C97.9267 62.4684 98.0016 62.5171 98.0856 62.5407L128.055 69.5142L110.577 56.311Z" fill="#61635E"/>
<path d="M128.044 69.5258L110.577 63.238V48.6401L128.044 54.4863V69.5258Z" fill="#B1B6A1"/>
<path d="M173.3 177.081L194.977 169.77V129.614L173.103 137.39L173.3 177.081Z" fill="#61635E"/>
<path d="M174.784 176.593L193.307 170.351V132.043L174.703 138.808L174.784 176.593Z" fill="#8FADAD"/>
<path d="M174.738 154.15L193.307 135.53V142.771L174.761 161.309L174.738 154.15Z" fill="#B1B2AE"/>
<path d="M174.773 169.084L193.307 149.617V152.615L174.773 172.257V169.084Z" fill="#B1B2AE"/>
<path d="M155.729 163.692L166.654 160.007V139.761L155.624 143.689L155.729 163.692Z" fill="#61635E"/>
<path d="M156.471 162.436L165.819 159.298V140.993L156.436 144.398L156.471 162.436Z" fill="#8FADAD"/>
<path d="M158.988 143.085V161.844H159.811V142.806L158.988 143.085Z" fill="#61635E"/>
<path d="M162.258 141.818V160.588H163.082V141.539L162.258 141.818Z" fill="#61635E"/>
<path d="M155.984 148.513L156.262 149.28L166.329 145.642V144.759L155.984 148.513Z" fill="#61635E"/>
<path d="M156.076 153.336L156.355 154.115L166.329 150.5V149.628L156.076 153.336Z" fill="#61635E"/>
<path d="M155.879 158.218L156.158 158.996L166.329 155.312V154.429L155.879 158.218Z" fill="#61635E"/>
<path d="M201.344 147.455L212.281 143.771V123.524L201.251 127.441L201.344 147.455Z" fill="#61635E"/>
<path d="M202.098 146.2L211.435 143.05V124.745L202.052 128.162L202.098 146.2Z" fill="#8FADAD"/>
<path d="M204.603 126.848V145.607H205.427V126.569L204.603 126.848Z" fill="#61635E"/>
<path d="M207.885 125.581V144.34H208.709V125.302L207.885 125.581Z" fill="#61635E"/>
<path d="M201.611 132.264L201.889 133.043L211.956 129.394V128.522L201.611 132.264Z" fill="#61635E"/>
<path d="M201.704 137.099L201.982 137.878L211.956 134.263V133.38L201.704 137.099Z" fill="#61635E"/>
<path d="M201.507 141.981L201.785 142.748L211.957 139.064V138.192L201.507 141.981Z" fill="#61635E"/>
<path d="M223.021 90.7604V73.9077L240.511 93.0733C240.803 93.391 240.98 93.7969 241.015 94.2269C241.051 94.6569 240.942 95.0865 240.706 95.4477C240.471 95.809 240.122 96.0813 239.715 96.2217C239.308 96.3621 238.866 96.3625 238.458 96.223L223.021 90.7604Z" fill="#879C42"/>
<path d="M231.151 99.1402L239.757 96.223L223.033 73.9077L214.415 76.7087L231.151 99.1402Z" fill="#879C42"/>
<path d="M230.119 99.2798C232.46 99.3515 234.801 99.1091 237.078 98.5592C237.934 98.2483 238.717 97.7651 239.379 97.1394C240.041 96.5138 240.568 95.759 240.929 94.9214" fill="#879C42"/>
<path d="M214.392 93.5728V76.7085L231.871 95.8857C232.167 96.2013 232.349 96.6078 232.387 97.0395C232.424 97.4713 232.316 97.9033 232.079 98.2658C231.842 98.6283 231.49 98.9002 231.079 99.0377C230.669 99.1752 230.225 99.1703 229.818 99.0237L214.392 93.5728Z" fill="#FBF3DB"/>
<path d="M222.534 101.953L231.128 99.0354L214.415 76.7085L205.786 79.5211L222.534 101.953Z" fill="#FBF3DB"/>
<path d="M221.525 102.092C223.867 102.164 226.208 101.918 228.484 101.36C229.342 101.055 230.128 100.573 230.791 99.9472C231.454 99.3208 231.98 98.5631 232.334 97.7222" fill="#FBF3DB"/>
<path d="M205.775 96.3742V79.5215L223.265 98.687C223.559 99.0052 223.738 99.4129 223.774 99.8451C223.81 100.277 223.7 100.709 223.463 101.072C223.225 101.434 222.873 101.706 222.463 101.845C222.053 101.984 221.608 101.981 221.2 101.837L205.775 96.3742Z" fill="#879C42"/>
<path d="M213.905 104.754L222.499 101.837L205.786 79.5215L197.157 82.3225L213.905 104.754Z" fill="#879C42"/>
<path d="M212.873 104.893C215.214 104.966 217.555 104.724 219.832 104.173C220.688 103.863 221.472 103.381 222.135 102.755C222.797 102.129 223.324 101.373 223.682 100.535" fill="#879C42"/>
<path d="M197.169 99.1866V82.3223L214.647 101.499C214.944 101.815 215.125 102.222 215.163 102.653C215.201 103.085 215.092 103.517 214.855 103.88C214.618 104.242 214.266 104.514 213.856 104.651C213.446 104.789 213.001 104.784 212.594 104.638L197.169 99.1866Z" fill="#FBF3DB"/>
<path d="M205.276 107.566L213.87 104.649L197.157 82.3223L188.528 85.1349L205.276 107.566Z" fill="#FBF3DB"/>
<path d="M204.244 107.706C206.586 107.779 208.927 107.533 211.203 106.974C212.061 106.668 212.847 106.187 213.51 105.561C214.173 104.935 214.698 104.177 215.053 103.336" fill="#FBF3DB"/>
<path d="M188.517 101.988V85.1353L206.007 104.301C206.298 104.619 206.475 105.024 206.511 105.454C206.546 105.884 206.437 106.314 206.202 106.675C205.966 107.037 205.618 107.309 205.211 107.449C204.803 107.59 204.361 107.59 203.954 107.451L188.517 101.988Z" fill="#879C42"/>
<path d="M196.647 110.379L205.253 107.451L188.528 85.1353L179.899 87.9363L196.647 110.379Z" fill="#879C42"/>
<path d="M195.615 110.507C197.956 110.579 200.296 110.336 202.574 109.786C203.434 109.478 204.221 108.996 204.887 108.37C205.554 107.745 206.085 106.988 206.447 106.148" fill="#879C42"/>
<path d="M179.887 104.8V87.936L197.366 107.113C197.662 107.429 197.844 107.835 197.882 108.267C197.92 108.699 197.811 109.131 197.574 109.493C197.337 109.856 196.985 110.128 196.575 110.265C196.165 110.403 195.72 110.398 195.313 110.251L179.887 104.8Z" fill="#FBF3DB"/>
<path d="M188.03 113.18L196.624 110.263L179.911 87.936L171.282 90.7487L188.03 113.18Z" fill="#FBF3DB"/>
<path d="M186.986 113.32C189.328 113.391 191.668 113.145 193.945 112.588C194.803 112.282 195.589 111.801 196.252 111.175C196.915 110.548 197.44 109.791 197.795 108.95" fill="#FBF3DB"/>
<path d="M171.259 107.613V90.7485L188.749 109.926C189.034 110.244 189.206 110.649 189.238 111.076C189.271 111.502 189.161 111.928 188.927 112.286C188.693 112.644 188.347 112.915 187.943 113.055C187.54 113.196 187.101 113.199 186.696 113.064L171.259 107.613Z" fill="#879C42"/>
<path d="M178.357 116.132C180.699 116.204 183.04 115.958 185.316 115.4C186.173 115.093 186.958 114.611 187.621 113.985C188.283 113.359 188.81 112.602 189.166 111.762" fill="#879C42"/>
<path d="M179.389 115.993L187.995 113.064L171.27 90.7485L162.641 93.5612L179.389 115.993Z" fill="#879C42"/>
<path d="M162.629 110.414V93.5615L180.131 112.739C180.422 113.056 180.6 113.462 180.635 113.892C180.67 114.322 180.562 114.752 180.326 115.113C180.091 115.474 179.742 115.747 179.335 115.887C178.928 116.027 178.486 116.028 178.078 115.888L162.629 110.414Z" fill="#FBF3DB"/>
<path d="M170.76 118.794L179.366 115.877L162.641 93.5615L154.024 96.3626L170.76 118.794Z" fill="#FBF3DB"/>
<path d="M169.728 118.933C172.07 119.005 174.41 118.758 176.686 118.201C177.542 117.893 178.325 117.412 178.988 116.789C179.65 116.165 180.177 115.411 180.537 114.575" fill="#FBF3DB"/>
<path d="M154 113.227V96.3623L171.479 115.539C171.775 115.855 171.957 116.262 171.995 116.693C172.033 117.125 171.924 117.557 171.687 117.92C171.45 118.282 171.098 118.554 170.688 118.691C170.278 118.829 169.833 118.824 169.426 118.678L154 113.227Z" fill="#879C42"/>
<path d="M162.142 121.606L170.737 118.678L154.024 96.3623L145.395 99.175L162.142 121.606Z" fill="#879C42"/>
<path d="M161.099 121.746C163.44 121.812 165.78 121.566 168.058 121.014C168.914 120.705 169.698 120.222 170.36 119.596C171.023 118.97 171.55 118.215 171.908 117.376" fill="#879C42"/>
<path d="M145.383 116.027V99.1748L162.873 118.34C163.167 118.659 163.346 119.066 163.382 119.498C163.418 119.931 163.309 120.362 163.071 120.725C162.833 121.087 162.482 121.36 162.072 121.498C161.661 121.637 161.217 121.634 160.809 121.49L145.383 116.027Z" fill="#FBF3DB"/>
<path d="M153.513 124.407L162.108 121.49L145.395 99.1748L136.766 101.976L153.513 124.407Z" fill="#FBF3DB"/>
<path d="M152.481 124.547C154.823 124.619 157.164 124.372 159.44 123.815C160.294 123.505 161.077 123.024 161.739 122.4C162.401 121.776 162.929 121.024 163.29 120.188" fill="#FBF3DB"/>
<path d="M136.742 118.84V101.988L154.256 121.153C154.547 121.471 154.724 121.877 154.76 122.307C154.795 122.737 154.686 123.167 154.451 123.528C154.215 123.889 153.867 124.161 153.46 124.302C153.052 124.442 152.61 124.443 152.203 124.303L136.742 118.84Z" fill="#879C42"/>
<path d="M144.884 127.22L153.478 124.303L136.766 101.988L128.136 104.789L144.884 127.22Z" fill="#879C42"/>
<path d="M143.817 127.36C146.159 127.432 148.5 127.186 150.776 126.628C151.635 126.322 152.421 125.841 153.084 125.215C153.747 124.588 154.272 123.831 154.627 122.99" fill="#879C42"/>
<path d="M128.044 121.932V104.789L145.441 124.105C145.726 124.424 145.898 124.828 145.931 125.255C145.963 125.682 145.853 126.108 145.619 126.466C145.385 126.824 145.039 127.094 144.636 127.235C144.232 127.375 143.793 127.378 143.388 127.243L128.044 121.932Z" fill="#6C9141"/>
<path d="M128.055 192.33L24.2866 157.334V59.2402L128.055 92.7712V192.33Z" fill="#808987"/>
<path d="M104.673 178.987C100.312 178.987 96.7866 180.986 96.7866 183.45V187.32C96.7866 190.121 100.266 192.376 104.673 192.376C109.081 192.376 112.56 190.121 112.56 187.32V183.403C112.56 180.939 109.023 178.987 104.673 178.987Z" fill="#AF7336"/>
<path d="M104.569 184.554C107.657 184.554 110.159 183.607 110.159 182.439C110.159 181.271 107.657 180.324 104.569 180.324C101.482 180.324 98.9788 181.271 98.9788 182.439C98.9788 183.607 101.482 184.554 104.569 184.554Z" fill="#61635E"/>
<path d="M106.924 174.442H102.203V183.438H106.924V174.442Z" fill="#61635E"/>
<path d="M116.492 168.666C116.481 168.302 116.394 167.944 116.236 167.615C116.078 167.287 115.853 166.996 115.576 166.76C115.376 165.675 114.896 164.661 114.184 163.819C114.184 163.819 114.184 163.715 114.184 163.668C114.184 161.437 111.864 159.624 108.895 159.624C108.104 159.619 107.318 159.757 106.576 160.03C105.898 159.946 105.217 159.904 104.534 159.903C101.307 159.808 98.159 160.913 95.6966 163.006C95.0576 163.221 94.4996 163.627 94.0974 164.169C93.6952 164.712 93.4681 165.364 93.4465 166.039C93.4481 166.279 93.4793 166.517 93.5393 166.748C93.4849 167.063 93.4539 167.382 93.4465 167.701C93.4582 168.707 93.7299 169.692 94.2352 170.56C94.1331 171.065 94.1545 171.587 94.2977 172.081C94.4408 172.575 94.7014 173.028 95.0572 173.399C95.4129 173.77 95.8532 174.05 96.3402 174.213C96.8273 174.377 97.3467 174.419 97.8538 174.338C98.1029 174.338 98.3515 174.315 98.5961 174.268C100.484 175.102 102.529 175.522 104.592 175.5C105.056 175.5 105.509 175.5 105.961 175.442C106.768 175.801 107.642 175.983 108.524 175.977C111.099 175.977 113.163 174.512 113.163 172.699C113.163 172.699 113.163 172.699 113.163 172.629C113.593 172.236 113.982 171.8 114.323 171.328C114.911 171.156 115.433 170.809 115.82 170.334C116.207 169.859 116.442 169.277 116.492 168.666Z" fill="#8D9532"/>
<path d="M110.136 172.176C111.405 172.176 112.433 170.116 112.433 167.574C112.433 165.032 111.405 162.971 110.136 162.971C108.868 162.971 107.84 165.032 107.84 167.574C107.84 170.116 108.868 172.176 110.136 172.176Z" fill="#B8C246"/>
<path d="M153.293 185.577C156.188 185.577 158.535 184.687 158.535 183.59C158.535 182.492 156.188 181.602 153.293 181.602C150.398 181.602 148.051 182.492 148.051 183.59C148.051 184.687 150.398 185.577 153.293 185.577Z" fill="#61635E"/>
<path d="M73.3816 168.596C69.0207 168.596 65.4949 170.595 65.4949 173.059V176.93C65.4949 179.731 68.9743 181.997 73.3816 181.997C77.7889 181.997 81.2568 179.672 81.2568 176.93V173.059C81.2568 170.595 77.7077 168.596 73.3816 168.596Z" fill="#AF7336"/>
<path d="M73.2773 174.222C76.3648 174.222 78.8676 173.275 78.8676 172.107C78.8676 170.938 76.3648 169.991 73.2773 169.991C70.1899 169.991 67.687 170.938 67.687 172.107C67.687 173.275 70.1899 174.222 73.2773 174.222Z" fill="#61635E"/>
<path d="M75.6316 164.099H70.9111V173.094H75.6316V164.099Z" fill="#61635E"/>
<path d="M85.2002 158.334C85.1907 157.967 85.1042 157.607 84.9464 157.277C84.7885 156.946 84.5627 156.653 84.284 156.416C84.084 155.331 83.6042 154.317 82.8922 153.476C82.8922 153.476 82.8922 153.371 82.8922 153.324C82.8922 151.093 80.5725 149.28 77.6034 149.28C76.8114 149.279 76.0257 149.421 75.2838 149.698C74.6036 149.604 73.9176 149.557 73.2309 149.559C70.0074 149.466 66.8635 150.571 64.4047 152.662C63.7693 152.89 63.2186 153.307 62.8267 153.857C62.4349 154.408 62.2206 155.066 62.2126 155.742C62.2142 155.981 62.2454 156.219 62.3054 156.451C62.251 156.766 62.22 157.084 62.2126 157.404C62.2223 158.413 62.4941 159.403 63.0013 160.275C62.9836 160.433 62.9836 160.593 63.0013 160.751C63.0553 161.664 63.4647 162.519 64.1416 163.132C64.8184 163.745 65.7084 164.067 66.6199 164.029C66.8403 163.997 67.0576 163.946 67.2694 163.878C69.1524 164.718 71.1928 165.146 73.2541 165.133C73.7296 165.133 74.182 165.133 74.6343 165.063C75.4401 165.426 76.314 165.612 77.1975 165.609C79.7723 165.609 81.8367 164.145 81.8367 162.332C81.8367 162.332 81.8367 162.332 81.8367 162.251C82.2897 161.863 82.6981 161.427 83.0546 160.949C83.6311 160.776 84.1431 160.435 84.5253 159.969C84.9075 159.503 85.1424 158.934 85.2002 158.334V158.334Z" fill="#8D9532"/>
<path d="M78.8443 161.832C80.1126 161.832 81.1407 159.771 81.1407 157.229C81.1407 154.688 80.1126 152.627 78.8443 152.627C77.576 152.627 76.5479 154.688 76.5479 157.229C76.5479 159.771 77.576 161.832 78.8443 161.832Z" fill="#B8C246"/>
<path d="M42.8087 158.38C38.4594 158.38 34.9336 160.379 34.9336 162.855V166.725C34.9336 169.515 38.413 171.781 42.8087 171.781C47.2044 171.781 50.6955 169.457 50.6955 166.725V162.855C50.6955 160.391 47.1697 158.38 42.8087 158.38Z" fill="#AF7336"/>
<path d="M42.7161 164.006C45.8035 164.006 48.3064 163.058 48.3064 161.89C48.3064 160.722 45.8035 159.775 42.7161 159.775C39.6286 159.775 37.1257 160.722 37.1257 161.89C37.1257 163.058 39.6286 164.006 42.7161 164.006Z" fill="#61635E"/>
<path d="M45.0705 153.882H40.3501V162.878H45.0705V153.882Z" fill="#61635E"/>
<path d="M54.6391 148.118C54.6266 147.754 54.5386 147.396 54.3809 147.068C54.2232 146.74 53.9991 146.448 53.7228 146.212C53.5203 145.127 53.0408 144.114 52.331 143.271C52.331 143.271 52.331 143.166 52.331 143.108C52.331 140.877 50.0114 139.075 47.0423 139.075C46.251 139.071 45.4653 139.208 44.7226 139.482C44.0418 139.394 43.3563 139.347 42.6698 139.343C39.4439 139.247 36.2979 140.357 33.8436 142.457C33.2037 142.668 32.6442 143.071 32.2415 143.612C31.8388 144.153 31.6125 144.805 31.5935 145.479C31.5951 145.722 31.6262 145.964 31.6863 146.2C31.6262 146.514 31.5951 146.833 31.5935 147.153C31.6016 148.157 31.8694 149.142 32.3706 150.012C32.3586 150.175 32.3586 150.338 32.3706 150.5C32.4245 151.407 32.8291 152.256 33.4984 152.868C34.1676 153.48 35.0488 153.807 35.9544 153.778C36.1997 153.778 36.4444 153.755 36.6851 153.708C38.5747 154.539 40.6177 154.963 42.6814 154.952C43.1423 154.952 43.603 154.929 44.0615 154.882C44.8652 155.252 45.7406 155.438 46.6247 155.428C49.1995 155.428 51.264 153.964 51.264 152.151C51.264 152.151 51.264 152.151 51.264 152.081C51.6997 151.694 52.0889 151.257 52.4238 150.779C53.0185 150.612 53.5487 150.269 53.9442 149.793C54.3398 149.318 54.5821 148.734 54.6391 148.118V148.118Z" fill="#8D9532"/>
<path d="M48.2715 151.616C49.5398 151.616 50.568 149.555 50.568 147.013C50.568 144.471 49.5398 142.411 48.2715 142.411C47.0032 142.411 45.9751 144.471 45.9751 147.013C45.9751 149.555 47.0032 151.616 48.2715 151.616Z" fill="#B8C246"/>
<path d="M153.386 180.3C149.303 180.3 145.986 182.172 145.986 184.484V188.122C145.986 190.749 149.303 192.876 153.386 192.876C157.468 192.876 160.785 190.749 160.785 188.122V184.484C160.785 182.172 157.468 180.3 153.386 180.3Z" fill="#AF7336"/>
<path d="M159.915 183.636C155.067 187.437 150.08 187.123 145.998 182.683C144.745 179.405 146.856 176.198 146.206 172.839C145.916 171.328 147.366 169.887 149.35 170.049C151.112 170.162 152.879 169.901 154.534 169.282C154.899 169.122 155.297 169.054 155.694 169.085C156.074 169.098 156.447 169.198 156.784 169.375C157.124 169.557 157.421 169.811 157.654 170.119C157.878 170.428 158.036 170.78 158.118 171.153C158.666 173.373 159.521 175.505 160.658 177.488C161.193 178.46 161.41 179.577 161.279 180.68C161.148 181.782 160.675 182.816 159.927 183.636H159.915ZM159.359 178.673C157.932 176.779 157.445 173.954 156.401 171.339C155.937 170.177 154.557 170.561 153.536 170.723C152.991 170.793 152.377 171.328 152.667 171.828C153.896 174.152 152.388 177.151 154.743 179.126C155.323 179.615 155.172 180.428 154.882 181.114C154.592 181.8 154.372 182.741 155.183 182.915C155.995 183.09 156.877 183.404 157.631 182.683C158.187 182.176 158.619 181.548 158.895 180.847C159.192 180.15 159.327 179.395 159.289 178.638L159.359 178.673Z" fill="#6C9141"/>
<path d="M159.324 178.638C159.358 179.394 159.219 180.148 158.92 180.842C158.621 181.537 158.168 182.154 157.596 182.648C157.244 182.897 156.832 183.05 156.403 183.091C155.974 183.132 155.541 183.059 155.149 182.88C154.418 182.718 154.569 181.718 154.847 181.079C155.125 180.44 155.288 179.58 154.708 179.091C152.388 177.116 153.861 174.082 152.632 171.792C152.365 171.293 152.957 170.758 153.502 170.688C154.522 170.549 155.902 170.154 156.366 171.304C157.41 173.919 157.897 176.744 159.324 178.638Z" fill="#879C42"/>
<path d="M215.065 159.926C210.982 159.926 207.665 161.797 207.665 164.11V167.748C207.665 170.374 210.982 172.501 215.065 172.501C219.147 172.501 222.464 170.374 222.464 167.748V164.11C222.464 161.797 219.205 159.926 215.065 159.926Z" fill="#AF7336"/>
<path d="M221.606 163.227C216.747 167.039 211.759 166.714 207.688 162.274C206.436 158.996 208.535 155.788 207.897 152.429C207.596 150.919 209.057 149.477 211.04 149.64C212.799 149.754 214.562 149.493 216.213 148.873C216.578 148.713 216.976 148.645 217.373 148.675C217.755 148.688 218.129 148.791 218.463 148.978C218.805 149.152 219.102 149.403 219.333 149.71C219.562 150.016 219.72 150.369 219.797 150.744C220.354 152.963 221.212 155.094 222.348 157.079C222.878 158.053 223.093 159.168 222.962 160.269C222.831 161.371 222.361 162.405 221.618 163.227H221.606ZM221.038 158.264C219.611 156.37 219.124 153.545 218.08 150.93C217.628 149.768 216.236 150.151 215.216 150.314C214.67 150.384 214.056 150.919 214.346 151.418C215.575 153.743 214.067 156.741 216.422 158.717C217.002 159.205 216.851 160.019 216.573 160.705C216.294 161.39 216.051 162.332 216.862 162.506C217.674 162.681 218.556 162.994 219.31 162.274C219.878 161.782 220.327 161.165 220.62 160.472C220.918 159.776 221.053 159.021 221.015 158.264H221.038Z" fill="#6C9141"/>
<path d="M221.003 158.264C221.037 159.022 220.899 159.777 220.597 160.472C220.307 161.17 219.853 161.788 219.275 162.274C218.923 162.523 218.511 162.676 218.082 162.717C217.653 162.758 217.22 162.685 216.828 162.506C216.097 162.344 216.248 161.402 216.538 160.705C216.828 160.007 216.967 159.205 216.387 158.717C214.067 156.742 215.54 153.708 214.311 151.418C214.056 150.919 214.636 150.384 215.181 150.314C216.201 150.175 217.593 149.78 218.045 150.93C219.089 153.545 219.576 156.37 221.003 158.264Z" fill="#879C42"/>
</svg>
