<svg width="943" height="981" viewBox="0 0 943 981" fill="none" xmlns="http://www.w3.org/2000/svg">
<path d="M324.395 870.432L324.697 886.379C320.669 886.253 320.014 888.898 320.694 891.896C321.273 894.415 322.859 896.506 325.729 896.103C329.178 895.624 329.581 893.256 328.498 890.359C331.645 893.004 331.871 895.927 328.498 896.909C325.125 897.892 325.225 899.983 325.301 902.502C325.578 909.757 324.999 917.063 325.981 924.318C326.232 926.157 326.786 928.349 324.848 929.86L324.395 925.93C324.168 923.94 325.2 920.766 322.23 920.766C319.712 920.766 318.378 923.487 318.479 926.182C318.581 931.945 318.227 937.707 317.421 943.414C309.869 941.675 303.425 937.72 296.451 934.823C293.43 933.564 290.712 931.775 287.54 935.176C285.375 937.468 283.612 934.269 283.26 932.959C282.001 928.576 278.628 927.366 275.003 925.855C266.444 922.303 258.01 918.474 249.527 914.745C248.62 914.342 247.588 913.46 246.808 913.637C236.36 915.728 232.081 904.265 223.119 902.855C220.274 902.401 219.846 898.824 219.871 895.75C219.871 865.319 219.871 834.895 219.871 804.48C219.871 730.147 219.871 655.822 219.871 581.506C219.871 578.987 219.67 576.468 219.569 573.948C220.325 561.025 218.663 548.001 220.778 535.128L227.197 522.154C228.682 521.902 228.682 520.768 228.632 519.635L229.664 517.644L244.769 506.232C252.12 503.713 259.596 501.773 266.771 498.902C278.225 494.317 290.258 490.462 299.749 482.275C310.767 473.083 322.262 464.481 334.187 456.503C349.792 445.433 366.395 435.843 383.781 427.86C399.816 420.756 416.507 414.66 434.456 416.524C446.178 417.488 457.947 417.749 469.7 417.305C479.65 417.106 489.486 415.145 498.751 411.511C507.084 408.311 514.535 403.348 522.591 399.62C537.679 393.011 552.327 385.437 566.444 376.947C568.534 375.637 571.353 374.579 571.983 371.581C575.381 371.002 577.244 368.407 579.409 366.14C585.297 359.59 588.878 351.29 589.605 342.51C589.967 338.739 591.153 335.093 593.081 331.832C595.008 328.571 597.629 325.775 600.757 323.641C610.273 320.794 618.656 323.994 626.787 328.503C620.191 336.287 610.575 338.051 601.613 341.099C595.319 343.24 592.852 346.918 592.676 353.695C592.323 365.913 593.104 378.131 593.809 390.324C594.212 397.504 591.09 402.215 585.929 406.346C580.769 410.478 575.482 414.332 569.969 417.935C567.653 419.421 565.639 421.361 567.879 424.459C567.049 426.097 565.362 426.5 563.902 427.281C552.297 433.478 540.037 438.794 529.615 446.805C522.629 452.312 514.514 456.209 505.85 458.217C499.855 459.315 493.79 459.988 487.7 460.232C477.428 461.088 467.283 458.821 457.063 458.418C443.357 458.135 429.666 459.489 416.28 462.449C416.406 459.703 414.82 459.048 412.479 459.325C406.927 460.01 401.564 461.782 396.695 464.54C387.841 469.195 379.554 474.859 371.999 481.418C364.925 487.817 357.272 493.636 351.583 501.572C350.752 502.494 350.276 503.682 350.239 504.923C350.202 506.164 350.607 507.378 351.381 508.348C350.601 510.994 347.731 512.404 347.328 515.251C342.293 521.423 340.808 529.283 337.259 536.135C334.943 537.042 334.892 539.788 333.18 541.174C331.242 539.209 329.203 536.135 326.534 539.788C323.226 544.087 320.35 548.703 317.95 553.568C311.38 567.524 312.16 582.715 311.606 597.604C311.354 605.161 312.311 612.946 312.437 620.629C312.588 631.059 312.437 641.513 312.437 651.943C312.437 654.336 313.217 656.628 315.76 656.628C318.302 656.628 318.277 654.109 318.479 652.119C318.68 650.129 317.371 647.988 320.039 646.904C320.971 673.205 321.902 699.53 321.197 725.856C316.364 725.025 315.382 727.418 315.357 731.801C315.357 761.024 315.584 790.247 317.295 819.444C318.101 832.997 317.447 846.626 317.497 860.23C317.497 862.018 317.9 863.807 318 865.621C318.328 869.727 320.593 871.062 324.395 870.432ZM304.608 713.285V601.609C304.608 600.274 304.608 598.939 304.608 597.629C304.834 594.807 302.443 594.127 300.806 592.893C299.17 591.658 297.836 593.523 296.502 594.228C293.607 595.739 294.639 598.586 294.664 600.929C295.243 686.808 293.405 772.688 295.57 858.542C295.973 874.665 295.57 890.788 295.57 906.91C295.57 910.563 295.57 914.216 295.57 917.869C295.533 918.539 295.63 919.21 295.855 919.842C296.08 920.474 296.43 921.054 296.882 921.549C297.335 922.045 297.882 922.444 298.491 922.725C299.1 923.006 299.759 923.162 300.429 923.184C303.399 923.184 305.111 921.018 305.464 918.146C305.552 916.821 305.552 915.491 305.464 914.166C305.061 883.633 305.464 853.1 304.708 822.568C303.852 785.989 304.608 749.662 304.608 713.285ZM244.769 789.415C244.769 766.81 244.769 744.212 244.769 721.624C244.858 720.127 244.807 718.626 244.618 717.139C244.483 716.312 244.083 715.551 243.48 714.97C242.876 714.388 242.101 714.018 241.269 713.915C239.356 713.613 238.752 715.099 237.997 716.434C237.022 718.373 236.604 720.544 236.788 722.707C236.788 767.397 236.788 812.096 236.788 856.804C236.47 858.623 236.828 860.496 237.795 862.069C238.828 863.354 239.583 865.016 241.697 864.361C242.51 864.148 243.235 863.686 243.772 863.04C244.309 862.395 244.631 861.597 244.693 860.759C244.693 859.449 244.693 858.114 244.693 856.778L244.769 789.415ZM235.857 590.399C235.655 592.476 235.655 594.569 235.857 596.646C235.991 597.82 236.549 598.905 237.424 599.698C238.3 600.491 239.434 600.937 240.615 600.954C241.197 600.925 241.766 600.771 242.283 600.503C242.801 600.235 243.255 599.859 243.615 599.401C243.975 598.943 244.233 598.413 244.371 597.846C244.51 597.28 244.525 596.69 244.416 596.117C243.309 592.339 244.618 588.938 244.668 585.36C245.001 571.569 248.443 558.032 254.738 545.759C260.729 533.49 270.195 525.605 281.951 519.76C284.292 518.602 286.18 517.695 284.77 514.722C283.361 511.749 280.868 511.85 278.477 513.034C269.631 517.156 261.801 523.176 255.543 530.669C241.068 548.328 237.997 569.817 235.857 590.323V590.399ZM502.074 440.507C506.696 439.882 511.26 438.88 515.718 437.509C525.051 435.15 533.924 431.25 541.975 425.971C549.855 420.932 557.633 415.718 565.412 410.553C573.191 405.389 581.599 401.056 588.422 394.481C589.756 393.171 591.971 391.811 590.033 389.442C589.674 388.979 589.219 388.598 588.7 388.325C588.181 388.053 587.609 387.896 587.024 387.865C586.438 387.834 585.853 387.93 585.308 388.145C584.763 388.361 584.271 388.692 583.865 389.115C576.14 395.229 567.979 400.769 559.446 405.691C549.603 411.259 540.364 417.935 530.798 424.006C522.465 429.321 512.874 431.085 503.484 433.352C500.966 433.957 498.726 435.04 498.6 437.433C498.474 439.826 500.765 440.481 502.074 440.431V440.507ZM452.481 436.602C454.998 436.854 456.735 436.073 456.786 433.554C456.836 431.034 454.923 430.531 452.632 430.48C449.359 430.48 446.036 430.253 442.764 430.052C437.905 429.75 433.6 427.533 428.716 427.407C417.03 426.93 405.372 428.886 394.48 433.151C381.292 438.604 368.592 445.169 356.517 452.775C354.276 454.11 352.313 455.949 353.848 458.292C355.812 461.29 358.002 458.418 359.664 457.284C367.827 451.806 376.394 446.955 385.291 442.774C391.081 439.978 397.047 437.962 402.913 435.745C409.971 432.998 417.602 432.054 425.117 432.999C434.305 434.108 443.67 433.302 452.481 436.526V436.602ZM293.607 549.487C293.833 551.855 292.826 554.828 296.678 555.18C300.529 555.533 300.328 552.938 300.781 550.369C301.15 546.23 302.927 542.344 305.816 539.36C307.754 537.571 308.333 535.077 306.42 533.238C304.507 531.399 301.889 532.407 299.925 534.397C295.934 538.379 293.665 543.771 293.607 549.411V549.487ZM235.706 662.019C235.706 665.194 235.706 668.343 235.706 671.492C235.706 673.759 236.763 675.598 239.054 675.699C241.345 675.799 242.604 674.011 242.629 671.744C242.629 665.622 242.629 659.475 242.629 653.328C242.629 650.683 240.942 650.053 238.626 650.028C236.31 650.003 235.63 651.464 235.681 653.555C235.857 656.301 235.807 659.122 235.807 661.944L235.706 662.019Z" fill="#62AFCD"/>
<path d="M416.406 462.524C429.792 459.564 443.483 458.211 457.188 458.493C467.409 458.897 477.554 461.164 487.825 460.307C493.916 460.064 499.981 459.39 505.976 458.292C514.64 456.285 522.755 452.388 529.74 446.88C540.163 438.869 552.397 433.553 564.028 427.356C565.463 426.575 567.175 426.172 568.005 424.535C570.738 424.134 573.331 423.07 575.558 421.436C584.469 415.466 593.658 409.848 599.498 400.376C599.498 406.497 599.926 412.619 599.725 418.741C599.449 420.189 599.75 421.687 600.564 422.916C601.377 424.145 602.64 425.006 604.08 425.316C607.202 426.273 610.197 427.835 613.344 428.616C621.601 430.908 629.053 435.544 637.662 436.652C638.01 437.019 638.46 437.274 638.954 437.381C639.448 437.489 639.963 437.446 640.431 437.257C652.465 433.352 664.498 429.397 676.531 425.517C679.25 424.61 679.678 422.721 679.653 420.126C679.653 407.858 679.653 395.614 679.653 383.346C686.299 383.346 692.391 385.865 698.634 387.553C698.634 390.677 698.634 393.826 698.634 396.975C698.634 408.059 698.634 408.059 708.704 412.09C709.006 412.216 709.308 412.392 709.61 412.493C721.669 416.322 732.997 422.242 745.559 424.56C758.297 422.696 769.953 417.229 782.137 413.576C782.938 413.32 783.617 412.778 784.044 412.053C784.471 411.328 784.616 410.472 784.453 409.646C786.407 409.445 788.381 409.703 790.218 410.402C793.465 409.445 796.688 408.311 800.011 407.555C808.722 405.838 817.308 403.54 825.713 400.678C828.231 399.746 827.904 398.663 827.778 396.647C827.325 390.097 825.084 383.9 824.203 377.426C846.474 384.815 868.736 392.205 890.99 399.595C902.998 403.625 915.258 406.875 926.939 411.838L927.996 414.357C917.801 417.405 908.033 421.764 897.787 424.434C891.468 426.046 885.401 428.691 879.183 430.807C872.462 433.1 865.69 435.216 859.044 437.559C847.162 441.69 835.481 446.477 823.423 449.953C815.644 452.17 808.117 454.992 800.514 457.511C785.158 462.726 769.776 467.865 754.445 473.054C746.515 475.725 738.686 478.622 730.782 481.343C722.877 484.063 715.325 486.557 707.596 489.102C699.868 491.646 691.384 494.316 683.328 497.037C675.273 499.758 666.638 502.957 658.154 505.779C650.4 508.298 642.546 510.641 634.818 513.336C622.432 517.485 610.08 521.683 597.761 525.932C592.047 527.897 586.408 530.039 580.693 532.004C575.658 533.767 570.447 535.379 565.337 537.042C558.011 539.561 550.811 542.458 543.46 544.6C532.006 547.95 520.804 552.333 509.601 556.012C501.168 558.757 492.659 561.327 484.427 564.552C476.195 567.776 467.862 569.741 459.58 572.311C458.526 572.568 457.601 573.201 456.98 574.091C456.359 574.982 456.084 576.069 456.207 577.148C456.207 579.39 457.138 581.833 455.326 583.849C453.438 581.858 454.445 579.415 454.394 577.198C454.492 576.293 454.265 575.382 453.753 574.63C453.241 573.877 452.477 573.332 451.6 573.092L425.444 565.005C419.855 563.191 414.317 561.302 408.753 559.438C401.579 556.918 394.429 554.576 387.255 552.208C378.116 549.21 368.953 546.287 359.815 543.34L337.334 536.11C340.909 529.258 342.369 521.398 347.404 515.226C349.216 516.838 353.043 515.226 353.471 519.08C349.72 519.408 349.871 522.431 349.544 524.95C349.317 526.814 349.544 528.703 352.061 529.132C353.019 529.389 354.038 529.272 354.913 528.804C355.787 528.336 356.451 527.552 356.769 526.612C357.554 524.23 357.373 521.633 356.265 519.382C360.872 518.249 364.472 521.398 368.626 522.33C377.235 524.27 385.568 527.368 393.951 530.039C402.762 532.885 411.724 535.304 420.434 538.453C425.895 540.643 431.486 542.493 437.175 543.995C443.997 545.557 450.316 548.857 457.767 548.53C462.155 548.057 466.457 546.99 470.556 545.355C478.41 542.886 486.24 540.367 494.044 537.798C502.099 535.077 510.13 532.18 518.186 529.459C526.871 526.512 535.581 523.665 544.291 520.768C551.843 518.249 559.396 516.309 566.57 513.21C572.461 510.691 578.881 509.935 584.62 506.887C586.532 506.096 588.094 504.642 589.019 502.79C589.944 500.939 590.17 498.815 589.655 496.81C588.9 492.553 583.89 489.555 579.585 489.832C564.481 490.806 549.309 491.713 534.07 492.553C523.17 493.132 512.194 493.183 501.344 493.233C481.205 493.233 461.065 494.997 440.775 495.601C434.179 495.803 427.508 496.231 420.963 496.281C401.73 496.433 382.572 497.163 363.389 498.498C366.488 494.666 370.096 491.275 374.114 488.422C384.435 479.907 395.008 471.77 407.948 467.361C410.843 466.051 415.374 467.134 416.406 462.524ZM829.263 437.483C832.204 437.676 835.152 437.22 837.898 436.148C841.498 435.191 845.777 433.226 845.752 429.044C845.727 424.862 841.472 424.51 838.2 423.149C830.874 420.151 823.876 421.764 816.852 423.603C815.56 423.875 814.377 424.522 813.451 425.463C812.524 426.403 811.895 427.596 811.641 428.893C811.724 430.129 812.159 431.315 812.896 432.311C813.632 433.307 814.638 434.07 815.795 434.511C820.006 436.522 824.622 437.539 829.288 437.483H829.263ZM420.409 482.476C420.519 481.524 420.414 480.56 420.103 479.654C419.792 478.748 419.282 477.922 418.611 477.239C417.94 476.555 417.125 476.031 416.225 475.703C415.325 475.376 414.364 475.254 413.411 475.347C408.829 475.145 405.858 477.362 405.506 480.99C405.153 484.617 409.962 489.303 413.889 489.278C415.585 489.051 417.154 488.255 418.338 487.019C419.523 485.783 420.253 484.181 420.409 482.476V482.476ZM617.246 470.359C622.583 470.359 624.798 468.671 624.798 464.665C624.553 462.776 623.671 461.027 622.298 459.708C620.925 458.389 619.142 457.578 617.246 457.41C615.372 457.362 613.554 458.049 612.181 459.325C610.807 460.601 609.987 462.364 609.895 464.237C609.744 469.074 611.255 470.334 617.12 470.359H617.246ZM750.871 443.378C755.075 443.907 757.114 441.64 757.34 437.483C757.224 435.572 756.372 433.781 754.964 432.484C753.556 431.188 751.701 430.488 749.788 430.53C748.06 430.81 746.483 431.681 745.326 432.995C744.169 434.309 743.504 435.985 743.444 437.735C743.771 442.169 746.641 443.605 750.871 443.378ZM582.858 453.455C581.071 452.221 581.222 448.921 578.352 448.895C576.061 448.895 573.317 450.054 573.317 452.8C573.251 453.429 573.31 454.065 573.491 454.671C573.672 455.277 573.972 455.842 574.372 456.331C574.772 456.821 575.266 457.226 575.823 457.524C576.381 457.821 576.992 458.005 577.622 458.065C580.341 458.267 581.65 456.151 582.858 453.455V453.455ZM716.004 448.719C713.865 449.399 711.473 449.979 711.775 452.75C711.845 453.287 712.023 453.805 712.3 454.271C712.576 454.737 712.945 455.142 713.383 455.461C713.822 455.779 714.321 456.005 714.849 456.123C715.378 456.242 715.925 456.251 716.457 456.151C718.547 456.151 720.183 454.841 720.007 452.85C720.001 451.781 719.581 450.755 718.834 449.989C718.087 449.223 717.073 448.777 716.004 448.744V448.719Z" fill="#6EAB6E"/>
<path d="M572.109 371.632C571.454 374.63 568.635 375.688 566.545 376.998C552.428 385.488 537.78 393.061 522.692 399.67C514.636 403.399 507.184 408.362 498.852 411.561C489.586 415.195 479.75 417.157 469.801 417.355C458.048 417.799 446.279 417.538 434.557 416.574C416.532 414.71 399.917 420.806 383.881 427.911C366.496 435.894 349.893 445.483 334.288 456.554C322.363 464.531 310.867 473.133 299.85 482.325C290.359 490.513 278.326 494.367 266.872 498.952C259.697 501.824 252.22 503.864 244.869 506.283C236.058 501.874 226.366 499.909 217.178 496.458C203.835 491.419 190.065 487.565 176.547 483.005C160.057 477.463 143.543 471.996 126.979 466.757C111.169 461.718 95.6367 456 79.7518 451.314C70.7646 448.643 61.8781 445.671 52.9917 442.723C45.238 440.204 37.6354 437.106 29.8062 434.813C22.7323 432.747 16.0359 429.12 8.383 429.372C10.4221 425.24 14.9283 425.416 18.4527 424.157C29.9321 419.95 41.6129 416.272 53.1931 412.367L117.538 390.677L177.05 370.523C178.686 371.103 181.581 367.601 181.934 372.387C182.79 383.699 184.174 395.06 184.3 406.321C182.085 406.749 180.298 407.304 179.995 410.201C178.888 420.731 180.977 425.316 190.392 430.354C201.339 436.108 212.573 441.296 224.05 445.898C239.835 452.649 255.77 458.972 271.881 465.018C277.088 467.228 282.902 467.549 288.32 465.925C298.188 462.549 307.88 458.695 317.723 455.345C328.07 451.843 337.158 445.671 347.353 441.917C356.089 438.667 364.17 434.637 370.363 427.306C371.997 425.174 374.367 423.728 377.009 423.25C379.526 422.922 380.08 420.504 380.332 418.212C380.885 412.946 376.732 408.916 370.262 408.362L370.64 394.556C380.709 393.221 390.779 391.357 401.025 390.677C409.156 390.148 417.036 387.755 425.066 387.679C436.042 387.679 446.666 384.983 457.541 384.127C462.328 384.109 467.107 383.739 471.84 383.018C483.445 380.348 495.403 380.348 507.084 378.559C517.565 376.843 528.127 375.657 538.728 375.007C549.855 374.378 560.78 371.153 572.109 371.632ZM184.577 463.356C189.159 463.356 193.892 464.061 197.97 460.836C199.682 459.526 202.124 458.695 201.721 456.1C201.512 454.79 200.963 453.558 200.128 452.528C199.293 451.497 198.201 450.705 196.963 450.231C193.01 448.616 188.776 447.803 184.507 447.837C180.237 447.872 176.017 448.754 172.091 450.432C167.056 452.447 167.056 457.184 171.285 460.509C175.514 463.834 179.945 463.532 184.577 463.356ZM464.892 390.475C461.997 390.475 458.951 391.407 459.127 396.295C459.083 397.32 459.245 398.344 459.603 399.306C459.962 400.268 460.509 401.149 461.213 401.896C461.917 402.642 462.763 403.24 463.702 403.654C464.641 404.068 465.653 404.29 466.679 404.306C467.551 404.352 468.423 404.216 469.239 403.905C470.055 403.595 470.798 403.117 471.419 402.503C472.04 401.888 472.525 401.151 472.845 400.338C473.165 399.525 473.311 398.654 473.275 397.781C473.275 393.146 470.757 390.475 464.892 390.475ZM111.799 427.759C111.889 426.93 111.797 426.09 111.527 425.3C111.258 424.51 110.818 423.789 110.239 423.188C109.66 422.588 108.956 422.121 108.177 421.823C107.398 421.524 106.563 421.401 105.732 421.461C100.697 421.26 97.1975 423.981 97.1472 428.188C97.1472 431.236 101.024 434.36 104.901 434.435C105.816 434.558 106.747 434.471 107.624 434.182C108.5 433.894 109.301 433.41 109.964 432.768C110.628 432.126 111.138 431.341 111.455 430.474C111.773 429.607 111.89 428.679 111.799 427.759V427.759ZM219.015 482.098C223.22 482.098 225.812 479.579 225.208 475.725C224.877 474.194 223.998 472.837 222.737 471.909C221.476 470.981 219.92 470.547 218.361 470.686C213.704 470.812 214.912 475.725 214.207 478.37C213.351 481.695 216.498 482.098 219.015 482.098ZM392.34 405.817C390.98 409.092 392.34 410.15 395.612 410.553C400.647 411.233 401.327 407.707 401.679 404.28C402.032 400.854 399.414 400.88 396.997 400.703C393.145 400.552 391.232 401.736 392.315 405.817H392.34ZM263.523 492.301C264.323 492.456 265.146 492.44 265.939 492.254C266.732 492.068 267.476 491.715 268.123 491.22C268.77 490.725 269.305 490.099 269.692 489.382C270.08 488.665 270.311 487.874 270.371 487.061C270.448 486.513 270.385 485.955 270.187 485.438C269.99 484.921 269.665 484.462 269.243 484.105C268.82 483.748 268.314 483.503 267.772 483.395C267.23 483.286 266.669 483.317 266.142 483.484C262.869 484.089 258.967 484.215 258.715 489.077C258.489 492.755 261.031 492.352 263.498 492.301H263.523Z" fill="#6EAB6E"/>
<path d="M932.527 452.448C933.141 453.237 933.602 454.134 933.887 455.093C934.844 466.177 934.642 477.312 934.592 488.422C934.592 490.613 932.578 491.596 930.564 492.276C898.912 502.907 867.318 513.563 835.783 524.245C814.511 531.374 793.188 538.302 771.941 545.507C750.694 552.711 730.177 560.042 709.232 567.146C691.887 573.041 674.417 578.609 657.072 584.479C639.223 590.499 621.45 596.722 603.627 602.793C585.803 608.864 567.98 614.885 550.157 620.856C526.971 628.64 503.786 636.298 480.626 644.108C472.872 646.627 465.521 650.507 457.214 651.313C456.836 638.289 455.905 625.264 456.257 612.19V611.106C458.237 611.151 460.215 610.957 462.148 610.527C474.131 606.345 486.122 602.214 498.122 598.133C509.828 594.177 521.609 590.399 533.366 586.393C543.813 582.841 554.185 578.987 564.632 575.46C580.114 570.22 595.646 565.207 611.129 560.017C628.818 554.089 646.44 548.118 663.994 542.106C681.549 536.093 699.373 529.997 717.464 523.816C728.214 520.063 739.139 516.838 749.788 512.833C758.096 509.684 766.755 507.567 775.164 504.696C792.786 498.7 810.408 492.402 828.029 486.381C842.253 481.544 856.602 477.01 870.826 472.248C882.532 468.318 894.187 464.288 905.843 460.282L930.111 451.918L932.527 452.448Z" fill="#8A6846"/>
<path d="M698.609 387.553C692.366 385.815 686.274 383.245 679.628 383.346C679.628 373.454 679.628 363.545 679.628 353.62C679.958 351.489 679.52 349.311 678.394 347.473C678.784 341.27 680.143 335.166 682.422 329.385L689.974 297.593C694.631 278.069 699.238 258.52 703.996 239.021C707.395 224.208 711.322 209.597 714.947 194.86C718.975 178.233 722.751 161.556 726.754 144.929C729.473 133.618 732.443 122.257 735.288 111.021C737.377 111.197 737.277 112.759 737.528 114.271C740.121 130.57 742.639 146.869 745.685 163.093C750.166 186.924 754.345 210.781 758.75 234.613C761.62 250.181 764.062 265.826 767.259 281.344C770.884 298.978 774.283 316.613 776.901 334.448C778.235 343.417 780.526 352.209 781.558 361.253C782.59 370.297 785.183 379.643 786.87 388.964C788.154 396.093 789.06 403.298 790.142 410.478C788.306 409.779 786.332 409.52 784.377 409.722C782.917 406.497 779.72 407.807 777.354 407.203C766.781 404.381 756.359 400.955 745.433 399.645C738.888 396.521 731.713 395.64 724.79 393.876C716.196 391.252 707.453 389.141 698.609 387.553ZM722.248 238.921C723.28 238.492 725.47 238.921 724.941 237.636C723.965 234.777 722.224 232.241 719.906 230.305C719.05 229.7 714.871 232.975 715.098 235.343C715.602 238.87 719.73 237.913 722.248 239.021V238.921ZM741.254 374.428C742.613 374.428 744.829 374.756 744.074 372.438C743.804 371.322 743.316 370.271 742.638 369.346C741.959 368.42 741.104 367.639 740.121 367.047C737.604 365.938 736.043 367.651 735.086 369.742C734.13 371.833 735.288 373.093 737.453 373.546C738.636 373.798 739.895 374.176 741.254 374.529V374.428ZM735.892 325.631C737.075 325.304 738.938 326.286 738.686 324.397C738.309 321.651 737.428 318.452 734.356 317.923C731.285 317.393 729.045 321.601 729.321 322.633C729.825 326.211 734.054 323.843 735.892 325.732V325.631ZM736.37 273.66C737.302 273.383 739.139 274.164 738.888 272.426C738.636 269.529 737.302 266.43 734.281 266.077C731.965 265.8 728.868 269.176 729.246 270.31C730.052 273.534 733.979 272.073 736.37 273.761V273.66Z" fill="#3F633E"/>
<path d="M511.036 169.743C515.668 174.202 517.883 180.223 521.106 185.589C532.862 205.742 544.291 225.896 555.846 246.201C565.211 262.525 574.601 278.841 584.016 295.149C584.991 296.668 586.05 298.131 587.188 299.532V299.532C587.326 299.596 587.447 299.691 587.543 299.809C587.639 299.927 587.707 300.064 587.742 300.212C588.927 303.418 590.563 306.437 592.6 309.181C596.502 315.63 596.477 315.63 590.889 319.887C590.889 319.887 590.889 320.19 590.738 320.341C589.423 320.49 588.126 320.76 586.861 321.147C574.274 325.959 561.863 330.72 549.452 335.708C534.801 341.578 520.275 347.75 505.624 353.644C497.215 357.045 488.681 360.169 480.198 363.419C480.676 327.596 479.291 291.748 481.079 255.95C481.859 240.23 480.726 224.485 481.96 208.74C482.791 197.832 482.136 186.823 482.136 175.991L511.036 169.743Z" fill="#6F76AF"/>
<path d="M184.2 406.397C184.2 395.035 182.689 383.724 181.833 372.463C181.481 367.676 178.586 371.178 176.949 370.599C176.981 370.186 177.121 369.79 177.355 369.449C177.59 369.108 177.91 368.836 178.284 368.659C183.318 366.14 184.2 364.124 182.035 358.859C181.238 357.224 180.874 355.411 180.977 353.594C182.06 353.972 183.167 354.274 184.225 354.728C199.833 361.446 215.424 368.164 230.998 374.881C241.899 379.592 253.001 383.85 263.549 389.216C276.136 395.589 280.466 392.264 288.924 385.185C301.889 374.352 313.167 361.756 324.848 349.589C330.285 343.92 335.673 337.723 344.987 341.729C345.843 342.081 346.976 341.729 347.958 341.855C355.737 343.064 363.49 344.374 371.269 345.558C373.585 355.836 371.445 366.241 372.15 376.569C370.559 382.449 370.064 388.572 370.69 394.632L370.312 408.437C369.963 408.908 369.719 409.449 369.597 410.023C369.476 410.597 369.479 411.19 369.608 411.762C370.287 416.448 367.694 418.665 363.742 420.277C337.561 430.959 311.396 441.699 285.249 452.498C283.74 453.203 282.107 453.602 280.443 453.671C278.779 453.74 277.119 453.479 275.557 452.901C264.656 448.543 253.731 444.235 243.032 439.423C228.078 432.672 212.823 426.827 197.718 420.176C193.086 418.186 186.289 418.035 185.383 410.629C185.557 410.322 185.664 409.981 185.699 409.63C185.733 409.279 185.693 408.924 185.581 408.589C185.47 408.254 185.289 407.947 185.051 407.686C184.813 407.425 184.523 407.218 184.2 407.077C184.271 406.978 184.31 406.859 184.31 406.737C184.31 406.614 184.271 406.495 184.2 406.397V406.397Z" fill="#E3E7D1"/>
<path d="M790.142 410.377C789.06 403.197 788.154 395.992 786.87 388.863C785.183 379.643 782.59 370.548 781.558 361.152C780.526 351.755 778.235 343.316 776.901 334.348C774.383 316.562 770.884 298.877 767.259 281.243C764.062 265.725 761.62 250.08 758.75 234.512C754.345 210.68 750.166 186.823 745.685 162.992C742.639 146.869 740.121 130.57 737.604 114.271C737.352 112.759 737.453 111.197 735.363 111.021C734.935 108.225 736.622 107.242 738.963 106.637C749.36 103.942 759.707 101.146 770.104 98.4753C772.42 97.8707 773.88 98.7272 774.333 101.322C776.85 115.329 779.192 129.335 781.885 143.292C783.874 153.998 785.787 164.755 787.877 175.462C791.426 193.625 793.918 212.015 797.619 230.154C799.784 240.86 801.32 251.642 803.51 262.324C805.448 271.897 806.808 281.57 808.545 291.143C810.861 303.487 813.781 315.731 815.593 328.125C817.28 339.588 819.747 350.924 821.409 362.386C822.139 367.425 823.423 372.463 824.455 377.501C825.336 383.976 827.576 390.097 828.03 396.723C828.03 398.738 828.457 399.821 825.965 400.754C817.51 403.614 808.873 405.903 800.111 407.606C796.612 408.286 793.39 409.42 790.142 410.377Z" fill="#5D8F5C"/>
<path d="M371.294 345.583C363.515 344.349 355.762 343.064 347.983 341.88C347.001 341.729 345.868 342.107 345.012 341.754C335.673 337.749 330.285 343.946 324.873 349.614C313.192 361.782 301.914 374.378 288.949 385.21C280.491 392.289 276.136 395.614 263.574 389.241C253.026 383.875 241.924 379.618 231.024 374.907C215.432 368.189 199.841 361.471 184.25 354.753C183.193 354.3 182.085 353.997 181.002 353.619C181.002 352.335 180.272 351.68 178.938 351.856C176.087 351.044 173.329 349.938 170.706 348.556C167.61 346.994 167.912 345.18 169.976 343.215C173.45 339.94 176.874 336.615 180.625 333.592C192.935 323.515 205.17 313.438 217.127 303.135C220.953 299.44 225.671 296.802 230.82 295.477C235.969 294.152 241.374 294.187 246.506 295.577C258.091 298.844 269.959 301.012 281.951 302.052C293.707 302.732 304.129 308.274 314.677 313.262C316.958 314.654 319.559 315.435 322.23 315.529C328.599 318.2 334.817 321.071 341.362 323.54C351.432 327.369 361.501 330.947 371.571 334.625C374.391 336.061 377.26 337.396 380.004 338.933C381.464 339.739 382.849 340.872 382.522 342.863C382.195 344.853 380.382 344.576 378.947 344.727L371.294 345.583Z" fill="#F3A07F"/>
<path d="M482.086 175.915C482.086 186.874 482.74 197.883 481.909 208.665C480.676 224.41 481.909 240.155 481.028 255.875C479.241 291.672 480.626 327.52 480.147 363.343C478.914 362.915 477.63 362.588 476.447 362.084C465.336 357.516 454.251 352.931 443.192 348.329C443.494 345.13 440.976 343.291 439.592 340.923C429.925 324.069 420.233 307.241 410.767 290.287C406.765 283.132 401.654 276.532 399.313 268.496L399.489 265.977L400.421 264.843C402.56 264.289 403.064 262.702 403.064 260.762L403.341 259.754C406.437 259.351 406.286 257.059 406.186 254.716C406.186 254.388 406.311 254.061 406.362 253.708C410.09 250.75 412.526 246.461 413.159 241.742L413.335 240.734C415.852 240.029 416.155 237.963 416.205 235.696C416.304 235.4 416.38 235.097 416.431 234.789C421.45 229.921 424.866 223.638 426.224 216.777C434.532 200.654 443.846 185.01 451.398 168.559C451.658 168.036 452.051 167.591 452.537 167.268C453.023 166.946 453.585 166.757 454.168 166.72C463.283 170.338 472.605 173.408 482.086 175.915Z" fill="#A1A3CA"/>
<path d="M220.929 535.229C218.814 548.102 220.476 561.126 219.72 574.049C198.003 567.231 176.37 560.135 154.821 552.762C133.448 545.457 111.824 538.957 90.3502 531.928C68.4235 524.749 46.5471 517.342 24.6455 510.037C20.5925 508.701 16.4639 507.517 12.3857 506.182C11.4882 506.062 10.672 505.599 10.1087 504.89C9.54532 504.181 9.27869 503.28 9.3648 502.378C9.3648 491.42 9.96899 480.436 8.86132 469.629C8.71028 468.294 9.5662 467.487 10.3466 466.631C11.4839 466.752 12.6112 466.954 13.7199 467.235C28.8245 472.274 43.929 477.438 59.0335 482.351C74.138 487.263 89.4187 492.176 104.574 497.164C123.001 503.21 141.378 509.407 159.957 515.428C171.21 519.106 182.614 522.28 193.841 526.26C202.753 529.46 211.765 532.533 220.929 535.229Z" fill="#624930"/>
<path d="M220.929 535.229C211.765 532.533 202.753 529.46 193.791 526.235C182.614 522.255 171.134 519.08 159.906 515.402C141.454 509.382 123.077 503.184 104.523 497.138C89.4187 492.1 74.1632 487.339 58.9831 482.325C43.8031 477.312 28.7741 472.249 13.6696 467.21C12.5608 466.929 11.4336 466.727 10.2963 466.606C9.57871 466.181 9.00533 465.551 8.65065 464.796C8.29598 464.041 8.17641 463.197 8.3075 462.373V429.624C15.8598 429.372 22.6568 433 29.7307 435.065C37.5599 437.358 45.1625 440.406 52.9162 442.976C61.8027 445.923 70.6891 448.896 79.6763 451.566C95.6619 455.975 111.144 461.794 126.953 466.807C143.518 472.047 160.032 477.514 176.521 483.056C190.04 487.616 203.81 491.495 217.153 496.508C226.341 499.96 236.033 501.925 244.844 506.333L229.74 517.745C229.785 516.894 229.92 516.049 230.142 515.226C230.721 513.563 231.024 511.901 229.387 510.767C227.751 509.633 226.392 510.49 224.881 511.397C223.611 511.991 222.547 512.951 221.825 514.154C221.103 515.356 220.756 516.747 220.828 518.148C221.055 521.625 223.95 520.794 226.014 521.323C226.465 521.525 226.881 521.797 227.247 522.129L220.929 535.229Z" fill="#598A58"/>
<path d="M456.156 612.165C455.804 625.239 456.735 638.263 457.113 651.288C450.115 651.288 444.073 647.836 437.653 645.846C417.967 639.75 398.407 633.25 378.821 626.725C364.9 622.09 351.13 617.228 337.158 612.618C331.67 610.804 326.056 609.419 320.518 607.832C320.543 607.677 320.531 607.519 320.483 607.37C320.435 607.221 320.352 607.085 320.241 606.975C321.374 594.052 318.076 581.103 320.619 568.205C325.074 568.205 328.674 570.976 332.778 572.16C343.351 575.233 353.798 578.785 364.271 582.236C377.21 586.519 390.099 590.903 403.039 595.185C410.415 597.704 417.942 599.695 425.268 602.289C435.513 605.967 445.583 609.393 456.156 612.165Z" fill="#624930"/>
<path d="M399.313 268.622C401.654 276.658 406.865 283.258 410.767 290.413C420.233 307.367 429.925 324.195 439.592 341.049C440.976 343.568 443.494 345.256 443.192 348.455C438.937 348.631 435.463 351.176 431.687 352.637C411.749 360.396 391.987 368.558 372.175 376.594C371.47 366.266 373.61 355.861 371.294 345.583L378.695 344.727C380.13 344.575 381.893 344.878 382.27 342.862C382.648 340.847 381.263 339.739 379.753 338.932C377.009 337.396 374.139 336.061 371.319 334.625C371.823 309.71 370.564 284.77 372.427 259.855C376.304 259.15 380.281 258.721 384.083 257.663C387.884 256.605 390.729 256.857 393.145 260.006C393.22 260.284 393.321 260.554 393.447 260.812C393.474 261.685 393.746 262.533 394.231 263.259C394.716 263.985 395.396 264.56 396.191 264.919C396.195 265.234 396.273 265.545 396.418 265.825C396.297 266.206 396.312 266.617 396.458 266.989C396.605 267.361 396.875 267.67 397.224 267.866L398.457 268.622H399.263H399.313Z" fill="#6F76AF"/>
<path d="M372.578 259.855C370.715 284.77 371.974 309.71 371.47 334.625C361.401 330.947 351.331 327.369 341.261 323.54C334.817 321.021 328.498 318.199 322.129 315.529C327.944 304.495 333.709 293.461 339.524 282.427C343.854 274.214 348.201 266.002 352.565 257.789C356.517 254.917 360.444 255.875 364.547 257.638C367.166 258.573 369.85 259.314 372.578 259.855V259.855Z" fill="#A1A3CA"/>
<path d="M590.687 320.391C590.687 320.24 590.687 320.013 590.838 319.938C596.427 315.68 596.452 315.68 592.55 309.231C590.513 306.488 588.877 303.468 587.691 300.263C595.722 301.547 603.098 304.923 610.776 307.316C625.73 311.977 640.582 316.889 655.435 321.877C663.239 324.397 670.968 327.344 678.948 329.435C680.052 329.738 681.217 329.738 682.321 329.435C680.042 335.217 678.683 341.32 678.293 347.523C670.565 344.802 662.811 342.232 655.133 339.386C646.826 336.262 638.694 332.005 629.732 337.446C628.977 337.925 627.794 337.698 626.812 337.824C626.485 335.154 630.488 334.625 629.758 331.778C631.243 330.14 631.016 329.107 628.7 328.83L626.888 328.604C618.756 324.094 610.373 320.895 600.858 323.742L590.687 320.391Z" fill="#6EAB6E"/>
<path d="M324.395 870.432C320.593 871.062 318.328 869.727 318.126 865.621C318.126 863.807 317.623 862.018 317.623 860.23C317.623 846.626 318.227 832.997 317.421 819.444C315.71 790.246 315.458 761.024 315.483 731.801C315.483 727.418 316.49 725.025 321.323 725.856C321.852 733.262 322.658 740.694 322.834 748.1C323.186 762.863 322.834 777.651 323.388 792.388C324.244 816.421 324.697 840.454 324.596 864.487C324.596 866.603 324.47 868.442 324.395 870.432Z" fill="#419ABD"/>
<path d="M320.618 568.23C318.101 581.128 321.374 594.077 320.241 607C319.002 608.386 318.318 610.18 318.318 612.039C318.318 613.898 319.002 615.691 320.241 617.077C320.241 627.019 320.241 636.953 320.241 646.879C317.572 647.962 318.932 650.305 318.68 652.094C318.428 653.882 318.454 656.628 315.961 656.603C313.469 656.578 312.638 654.311 312.638 651.917C312.638 641.488 312.638 631.033 312.638 620.604C312.512 612.92 311.556 605.237 311.808 597.578C312.361 582.69 311.581 567.499 318.151 553.543C320.552 548.677 323.427 544.062 326.736 539.763C329.404 536.135 331.443 539.183 333.382 541.148C333.18 541.589 332.953 542.018 332.702 542.433C327.416 550.495 321.726 558.279 320.618 568.23Z" fill="#419ABD"/>
<path d="M482.086 175.916C472.618 173.465 463.304 170.454 454.193 166.897C455.3 163.622 458.548 164.579 460.562 164.378C465.597 163.849 470.631 162.841 475.666 162.287C487.372 161.002 498.55 164.176 509.551 167.879C509.944 168.019 510.289 168.269 510.543 168.6C510.798 168.93 510.951 169.328 510.986 169.744L482.086 175.916Z" fill="#E3E7D1"/>
<path d="M372.578 259.855C369.867 259.312 367.2 258.571 364.598 257.638C360.494 255.875 356.567 254.918 352.615 257.789C352.686 256.709 353.17 255.698 353.967 254.966C354.765 254.234 355.813 253.838 356.894 253.86C361.822 253.492 366.689 252.545 371.395 251.038C379.576 248.015 385.467 253.33 391.937 256.454C392.479 256.854 392.895 257.402 393.136 258.031C393.377 258.661 393.433 259.346 393.296 260.006C390.779 256.857 387.884 256.656 384.234 257.663C380.583 258.671 376.354 259.15 372.578 259.855Z" fill="#E3E7D1"/>
<path d="M317.547 943.414C318.353 937.707 318.706 931.945 318.605 926.182C318.605 923.487 319.813 920.766 322.356 920.766C325.326 920.766 324.294 923.94 324.52 925.93L324.974 929.86V931.8C324.848 933.438 324.596 935.075 324.621 936.713C324.621 941.146 323.237 944.094 318.126 943.64C318.018 943.673 317.903 943.668 317.798 943.627C317.693 943.586 317.604 943.511 317.547 943.414Z" fill="#419ABD"/>
<path d="M932.528 452.447L930.01 451.918C930.01 440.909 930.01 429.901 929.884 418.892C929.884 417.254 930.74 415.063 928.072 414.458C927.694 413.576 927.342 412.694 926.989 411.939C930.514 411.007 932.729 412.518 932.754 415.969C932.88 428.062 933.383 440.28 932.528 452.447Z" fill="#8FDB8F"/>
<path d="M334.993 771.302C334.741 774.703 334.011 777.978 330.285 777.953C326.56 777.928 325.729 774.829 325.779 771.554C325.83 768.279 326.635 765.911 330.336 765.886C334.036 765.861 334.817 768.582 334.993 771.302Z" fill="#62AFCD"/>
<path d="M211.665 580.473C211.665 582.992 207.41 588.03 205.17 587.879C201.847 587.879 201.545 584.378 201.67 582.841C202.023 579.113 205.875 578.911 208.744 578.155C210.708 577.677 212.042 578.508 211.665 580.473Z" fill="#62AFCD"/>
<path d="M328.574 890.359C329.656 893.256 329.253 895.624 325.804 896.103C322.859 896.506 321.273 894.34 320.77 891.896C320.09 888.848 320.77 886.253 324.772 886.379C325.674 886.696 326.489 887.221 327.15 887.913C327.81 888.605 328.298 889.443 328.574 890.359V890.359Z" fill="#419ABD"/>
<path d="M426.224 216.953C424.866 223.814 421.45 230.098 416.431 234.965C418.58 228.418 421.898 222.315 426.224 216.953V216.953Z" fill="#E3E7D1"/>
<path d="M318.051 943.64C323.086 944.094 324.596 941.121 324.546 936.713C324.546 935.075 324.772 933.438 324.898 931.8C325.854 933.574 326.404 935.539 326.509 937.552C326.613 939.564 326.269 941.575 325.502 943.439C324.369 947.218 321.877 947.067 318.051 943.64Z" fill="#62AFCD"/>
<path d="M413.159 241.843C412.526 246.562 410.09 250.851 406.362 253.809C407.129 249.137 409.54 244.893 413.159 241.843V241.843Z" fill="#E3E7D1"/>
<path d="M320.14 617.203C318.902 615.817 318.217 614.023 318.217 612.164C318.217 610.305 318.902 608.512 320.14 607.126C320.251 607.236 320.334 607.372 320.382 607.521C320.431 607.67 320.442 607.828 320.417 607.982L320.14 617.203Z" fill="#62AFCD"/>
<path d="M406.186 254.816C406.186 257.058 406.437 259.351 403.341 259.855C403.467 257.638 403.593 255.522 406.186 254.816Z" fill="#E3E7D1"/>
<path d="M416.205 235.872C416.205 238.064 415.953 240.13 413.335 240.91C413.411 238.668 413.587 236.552 416.205 235.872Z" fill="#E3E7D1"/>
<path d="M403.064 260.762C403.064 262.701 402.56 264.289 400.421 264.843C400.572 263.004 401.05 261.366 403.064 260.762Z" fill="#E3E7D1"/>
<path d="M396.242 264.919C395.446 264.56 394.767 263.985 394.281 263.259C393.796 262.533 393.525 261.685 393.498 260.812C395.688 261.342 396.141 263.004 396.242 264.919Z" fill="#E3E7D1"/>
<path d="M399.313 268.622H398.507L397.274 267.841C396.926 267.645 396.655 267.335 396.509 266.964C396.362 266.592 396.348 266.181 396.468 265.8L399.489 265.951C399.414 266.858 399.363 267.74 399.313 268.622Z" fill="#E3E7D1"/>
<path d="M178.888 351.806C180.222 351.629 180.851 352.284 180.952 353.569C180.696 353.618 180.432 353.609 180.18 353.543C179.928 353.476 179.694 353.354 179.496 353.184C179.298 353.015 179.14 352.803 179.035 352.564C178.93 352.326 178.879 352.066 178.888 351.806Z" fill="#E3E7D1"/>
<path d="M353.521 519.08C353.093 515.251 349.267 516.838 347.454 515.226C347.857 512.379 350.727 510.968 351.507 508.323C352.742 508.27 353.936 507.868 354.952 507.163C355.968 506.459 356.763 505.481 357.247 504.343C358.652 501.779 360.744 499.659 363.289 498.221C382.472 496.886 401.629 496.156 420.862 496.004C427.407 496.004 434.079 495.526 440.674 495.324C460.814 494.72 480.953 493.082 501.243 492.956C512.119 492.956 523.095 492.956 533.97 492.276C549.074 491.47 564.246 490.563 579.485 489.555C583.84 489.278 588.85 492.276 589.554 496.534C590.069 498.538 589.843 500.662 588.918 502.513C587.993 504.365 586.431 505.82 584.52 506.61C578.78 509.659 572.36 510.389 566.47 512.933C559.295 516.057 551.642 517.972 544.19 520.491C535.48 523.388 526.77 526.235 518.085 529.182C510.029 531.903 501.999 534.8 493.943 537.521C485.887 540.242 478.31 542.71 470.455 545.078C466.356 546.713 462.054 547.781 457.667 548.253C450.115 548.58 443.897 545.28 437.074 543.718C431.386 542.217 425.795 540.366 420.333 538.176C411.623 535.027 402.712 532.608 393.85 529.762C385.467 527.066 377.135 523.993 368.525 522.053C364.371 521.121 360.771 517.972 356.164 519.105C355.913 519.13 355.66 519.13 355.409 519.105C355.107 518.602 354.755 518.476 354.352 519.105C354.075 519.127 353.796 519.119 353.521 519.08V519.08Z" fill="#7FC37E"/>
<path d="M590.687 320.391L600.757 323.691C597.629 325.825 595.008 328.622 593.081 331.883C591.153 335.143 589.967 338.789 589.605 342.56C588.878 351.34 585.297 359.64 579.409 366.19C577.244 368.457 575.381 371.052 571.983 371.632C560.68 371.153 549.754 374.377 538.526 375.007C527.999 375.698 517.514 376.917 507.109 378.66C495.378 380.449 483.42 380.449 471.865 383.119C467.132 383.84 462.353 384.21 457.566 384.228C446.691 385.084 436.067 387.704 425.091 387.78C417.061 387.78 409.181 390.299 401.05 390.777C390.98 391.458 380.785 393.297 370.665 394.657C370.039 388.597 370.534 382.474 372.125 376.594C391.937 368.558 411.699 360.396 431.637 352.637C435.413 351.176 438.887 348.631 443.141 348.455C454.218 353.04 465.303 357.625 476.396 362.21C477.58 362.714 478.914 363.041 480.097 363.469C488.581 360.22 497.115 357.096 505.523 353.695C520.174 347.8 534.7 341.628 549.351 335.758C561.762 330.72 574.274 326.009 586.76 321.197C588.041 320.807 589.356 320.537 590.687 320.391V320.391Z" fill="#8FDB8F"/>
<path d="M320.619 568.23C321.726 558.279 327.416 550.595 332.601 542.458C332.853 542.044 333.079 541.615 333.281 541.174C334.993 539.763 335.043 537.017 337.359 536.135L359.739 543.365C368.877 546.313 378.041 549.235 387.179 552.233C394.354 554.601 401.503 557.045 408.678 559.463C414.241 561.327 419.78 563.217 425.368 565.03L451.499 573.369C452.377 573.609 453.14 574.155 453.652 574.907C454.164 575.66 454.392 576.57 454.293 577.475C454.293 579.692 453.337 582.136 455.225 584.126C456.559 593.094 455.955 602.138 456.232 611.132V612.215C445.759 609.419 435.539 605.993 425.343 602.34C418.017 599.821 410.49 597.654 403.114 595.236C390.175 590.953 377.286 586.57 364.346 582.287C353.874 578.836 343.426 575.284 332.853 572.21C328.674 571.001 325.074 568.28 320.619 568.23Z" fill="#598A58"/>
<path d="M304.608 713.285C304.608 749.662 303.852 786.09 304.834 822.467C305.665 853 305.187 883.532 305.589 914.065C305.678 915.39 305.678 916.72 305.589 918.045C305.237 921.018 303.525 923.26 300.555 923.084C299.884 923.061 299.225 922.905 298.616 922.624C298.007 922.344 297.461 921.944 297.008 921.449C296.555 920.954 296.206 920.373 295.981 919.741C295.756 919.109 295.659 918.438 295.696 917.768C295.545 914.115 295.696 910.463 295.696 906.81C295.696 890.687 296.048 874.564 295.696 858.441C293.531 772.587 295.369 686.708 294.79 600.828C294.79 598.485 293.732 595.639 296.627 594.127C297.962 593.422 298.994 591.306 300.932 592.792C302.871 594.278 304.96 594.707 304.734 597.528C304.734 598.838 304.734 600.173 304.734 601.508L304.608 713.285Z" fill="#64C0CF"/>
<path d="M244.769 789.415V856.728C244.769 858.063 244.769 859.399 244.769 860.709C244.7 861.56 244.364 862.367 243.807 863.015C243.251 863.662 242.503 864.116 241.672 864.311C239.558 864.966 238.802 863.303 237.77 862.019C236.803 860.446 236.445 858.573 236.763 856.753C236.763 812.063 236.763 767.364 236.763 722.657C236.579 720.494 236.997 718.323 237.972 716.384C238.727 715.099 239.331 713.613 241.244 713.865C242.076 713.968 242.851 714.338 243.455 714.919C244.058 715.501 244.457 716.262 244.592 717.089C244.782 718.576 244.832 720.077 244.743 721.573C244.777 744.213 244.785 766.826 244.769 789.415Z" fill="#64C0CF"/>
<path d="M235.857 590.323C237.997 569.817 241.068 548.328 255.568 530.517C261.826 523.025 269.656 517.004 278.502 512.883C281.019 511.699 283.361 511.523 284.796 514.571C286.231 517.619 284.317 518.475 281.976 519.609C270.22 525.428 260.754 533.339 254.763 545.607C248.468 557.88 245.026 571.418 244.693 585.209C244.693 588.786 243.334 592.187 244.441 595.966C244.55 596.539 244.535 597.128 244.397 597.695C244.258 598.261 244 598.791 243.64 599.25C243.28 599.708 242.826 600.084 242.308 600.352C241.791 600.62 241.222 600.773 240.64 600.803C239.459 600.786 238.325 600.339 237.449 599.547C236.574 598.754 236.017 597.669 235.882 596.495C235.676 594.443 235.668 592.376 235.857 590.323Z" fill="#64C0CF"/>
<path d="M626.837 328.554L628.65 328.78L629.707 331.728C630.437 334.575 626.435 335.104 626.762 337.774C624.02 339.867 620.833 341.299 617.447 341.956C611.783 343.417 606.346 345.735 600.807 347.7C598.466 349.01 599.498 351.277 599.473 353.065C599.473 368.836 599.473 384.606 599.473 400.376C593.658 409.848 584.368 415.491 575.558 421.436C573.331 423.071 570.738 424.135 568.005 424.535C565.765 421.436 567.779 419.497 570.095 418.01C575.608 414.408 580.92 410.453 586.055 406.422C591.191 402.391 594.337 397.58 593.935 390.4C593.23 378.207 592.449 365.989 592.802 353.771C592.978 346.994 595.445 343.316 601.739 341.175C610.676 338.101 620.292 336.338 626.837 328.554Z" fill="#419ABD"/>
<path d="M502.074 440.431C500.765 440.431 498.449 439.726 498.6 437.458C498.751 435.191 500.966 433.982 503.484 433.302C512.874 431.034 522.465 429.271 530.798 423.955C540.364 417.884 549.603 411.208 559.446 405.641C567.979 400.719 576.14 395.178 583.865 389.065C584.271 388.641 584.763 388.311 585.308 388.095C585.853 387.879 586.438 387.784 587.024 387.815C587.609 387.846 588.181 388.003 588.7 388.275C589.219 388.547 589.674 388.928 590.033 389.392C591.971 391.659 589.756 393.02 588.422 394.431C581.599 401.006 573.317 405.339 565.412 410.503C557.508 415.667 549.855 420.882 541.975 425.921C533.925 431.2 525.051 435.099 515.719 437.458C511.259 438.821 506.696 439.815 502.074 440.431Z" fill="#64C0CF"/>
<path d="M452.481 436.526C443.67 433.352 434.305 434.007 425.192 432.924C417.678 431.978 410.047 432.922 402.988 435.67C397.047 437.886 391.081 439.902 385.367 442.698C376.47 446.879 367.903 451.73 359.739 457.209C358.078 458.342 355.888 461.214 353.924 458.216C352.388 455.873 354.352 454.034 356.592 452.699C368.668 445.093 381.368 438.528 394.555 433.075C405.447 428.81 417.105 426.854 428.792 427.331C433.676 427.507 437.981 429.674 442.839 429.976C446.112 430.178 449.435 430.354 452.707 430.404C454.998 430.404 456.912 430.933 456.861 433.478C456.811 436.022 454.898 436.778 452.481 436.526Z" fill="#64C0CF"/>
<path d="M363.289 498.221C360.744 499.659 358.652 501.779 357.247 504.343C356.763 505.481 355.968 506.459 354.952 507.163C353.936 507.867 352.742 508.27 351.507 508.323C350.733 507.353 350.328 506.139 350.365 504.898C350.402 503.657 350.878 502.469 351.709 501.547C357.398 493.712 365.051 487.892 372.125 481.393C379.68 474.834 387.967 469.17 396.821 464.514C401.689 461.757 407.053 459.985 412.605 459.3C414.946 459.023 416.532 459.677 416.406 462.423C415.248 467.034 410.843 466.001 407.847 467.034C394.908 471.442 384.334 479.63 374.013 488.094C369.992 490.963 366.384 494.371 363.289 498.221V498.221Z" fill="#419ABD"/>
<path d="M293.607 549.412C293.671 543.718 295.989 538.283 300.051 534.296C302.015 532.306 304.356 531.097 306.546 533.138C308.736 535.178 307.88 537.471 305.942 539.259C303.053 542.244 301.276 546.13 300.907 550.268C300.454 552.787 300.479 555.433 296.804 555.08C293.128 554.727 293.833 551.704 293.607 549.412Z" fill="#A1A3CA"/>
<path d="M235.807 661.944C235.807 659.122 235.807 656.301 235.807 653.479C235.807 651.388 236.209 649.927 238.752 649.952C241.295 649.978 242.73 650.607 242.755 653.253C242.755 659.399 242.755 665.546 242.755 671.668C242.755 673.935 241.496 675.724 239.18 675.623C236.864 675.522 235.857 673.683 235.832 671.416C235.781 668.267 235.807 665.068 235.807 661.944Z" fill="#A1A3CA"/>
<path d="M227.348 522.255C226.982 521.923 226.565 521.651 226.115 521.448C224.05 520.919 221.08 521.751 220.929 518.274C220.857 516.873 221.204 515.482 221.926 514.28C222.648 513.077 223.712 512.117 224.982 511.523C226.492 510.616 227.902 509.81 229.488 510.893C231.074 511.976 230.822 513.689 230.243 515.352C230.021 516.175 229.886 517.02 229.84 517.871V517.871L228.808 519.861C228.833 520.869 228.833 522.003 227.348 522.255Z" fill="#419ABD"/>
<path d="M228.783 519.735L229.815 517.745L228.783 519.735Z" fill="#598A58"/>
<path d="M456.232 611.107C455.955 602.113 456.559 593.069 455.225 584.101C457.037 582.085 456.106 579.642 456.106 577.4C455.983 576.321 456.258 575.234 456.879 574.343C457.5 573.453 458.425 572.82 459.479 572.563C467.762 570.044 476.245 567.928 484.326 564.804C492.407 561.68 501.143 559.01 509.5 556.264C520.829 552.586 531.905 548.202 543.36 544.852C550.711 542.685 557.91 539.813 565.236 537.294C570.271 535.581 575.507 533.969 580.592 532.256C586.307 530.291 591.946 528.15 597.66 526.185C609.996 521.902 622.348 517.703 634.717 513.589C642.445 511.069 650.3 508.727 658.053 506.031C666.462 503.209 674.769 500.136 683.228 497.289C691.686 494.443 699.415 492.024 707.495 489.354C715.576 486.684 722.978 484.316 730.681 481.595C738.384 478.874 746.415 475.977 754.345 473.307C769.676 468.117 785.057 462.978 800.413 457.763C807.966 455.244 815.518 452.322 823.322 450.206C835.38 446.729 847.061 441.943 858.943 437.811C865.665 435.468 872.437 433.352 879.083 431.06C885.301 428.944 891.368 426.298 897.686 424.686C908.033 422.167 917.826 417.683 927.895 414.609C930.589 415.214 929.708 417.406 929.733 419.043C929.733 430.052 929.733 441.061 929.859 452.07L905.591 460.434C893.936 464.439 882.28 468.47 870.574 472.4C856.325 477.161 841.976 481.696 827.778 486.532C810.156 492.553 792.534 498.851 774.912 504.847C766.504 507.719 757.844 509.885 749.536 512.984C738.888 516.989 727.962 520.214 717.213 523.968C699.456 530.131 681.658 536.228 663.818 542.257C645.978 548.286 628.356 554.257 610.952 560.168C595.47 565.358 579.938 570.245 564.456 575.611C554.008 579.138 543.637 582.992 533.189 586.544C521.483 590.55 509.702 594.329 497.946 598.284C486.189 602.239 473.954 606.497 461.972 610.678C460.082 611.045 458.155 611.189 456.232 611.107V611.107Z" fill="#7FC37E"/>
<path d="M600.858 347.649C606.396 345.684 611.833 343.367 617.498 341.905C620.883 341.248 624.071 339.817 626.812 337.723C627.794 337.598 628.977 337.724 629.732 337.346C638.694 331.904 646.826 336.162 655.133 339.285C662.811 342.132 670.565 344.702 678.293 347.422C679.42 349.26 679.857 351.439 679.527 353.569C679.527 363.495 679.527 373.404 679.527 383.296C679.527 395.564 679.527 407.808 679.527 420.076C679.527 422.595 679.124 424.56 676.405 425.467C664.372 429.347 652.339 433.302 640.306 437.207C639.837 437.396 639.322 437.439 638.828 437.331C638.334 437.223 637.884 436.969 637.536 436.602C637.989 412.77 635.825 388.964 636.58 365.107C636.605 364.612 636.605 364.116 636.58 363.621C636.603 362.955 636.406 362.3 636.019 361.758C635.632 361.216 635.077 360.817 634.44 360.623C629.053 358.658 623.665 356.617 618.278 354.627C612.488 352.486 606.119 351.529 600.858 347.649Z" fill="#8A6846"/>
<path d="M600.858 347.649C606.119 351.478 612.488 352.435 618.479 354.627C623.867 356.617 629.254 358.658 634.641 360.623C635.278 360.817 635.833 361.216 636.22 361.758C636.607 362.3 636.804 362.955 636.781 363.621C636.806 364.116 636.806 364.612 636.781 365.107C636.026 388.964 638.191 412.77 637.738 436.602C629.128 435.493 621.677 430.858 613.419 428.565C610.273 427.684 607.277 426.223 604.155 425.265C602.715 424.956 601.453 424.095 600.639 422.866C599.825 421.637 599.524 420.138 599.8 418.69C600.002 412.569 599.674 406.447 599.574 400.325C599.574 384.555 599.574 368.785 599.574 353.015C599.549 351.277 598.516 349.009 600.858 347.649Z" fill="#624930"/>
<path d="M698.609 387.553C707.45 389.091 716.193 391.152 724.79 393.725C731.713 395.489 738.888 396.37 745.433 399.494C745.433 407.833 745.433 416.197 745.433 424.535C732.846 422.217 721.543 416.297 709.484 412.468C709.182 412.468 708.88 412.191 708.578 412.065C698.508 408.06 698.508 408.06 698.508 396.95C698.559 393.826 698.609 390.677 698.609 387.553Z" fill="#624930"/>
<path d="M745.483 424.535C745.483 416.196 745.483 407.833 745.483 399.494C756.409 400.829 766.831 404.255 777.404 407.052C779.771 407.682 782.968 406.372 784.428 409.571C784.591 410.396 784.446 411.253 784.019 411.978C783.591 412.703 782.913 413.245 782.112 413.501C769.877 417.204 758.221 422.671 745.483 424.535Z" fill="#8A6846"/>
<path d="M829.288 437.484C824.614 437.543 819.989 436.526 815.77 434.511C814.613 434.07 813.607 433.307 812.87 432.311C812.134 431.315 811.699 430.129 811.616 428.893C811.869 427.597 812.499 426.404 813.426 425.463C814.352 424.522 815.535 423.875 816.827 423.603C823.851 421.764 830.849 420.152 838.175 423.15C841.498 424.51 845.727 425.19 845.727 429.044C845.727 432.899 841.472 435.191 837.873 436.149C835.142 437.213 832.213 437.669 829.288 437.484Z" fill="#7FC37E"/>
<path d="M420.409 482.476C420.253 484.182 419.523 485.783 418.338 487.019C417.154 488.255 415.585 489.051 413.889 489.278C409.962 489.278 405.279 484.643 405.506 480.99C405.732 477.337 408.829 475.146 413.411 475.347C414.364 475.254 415.325 475.376 416.225 475.703C417.125 476.031 417.94 476.556 418.611 477.239C419.282 477.923 419.792 478.748 420.103 479.654C420.414 480.56 420.519 481.524 420.409 482.476Z" fill="#5D8F5C"/>
<path d="M617.12 470.359C611.255 470.359 609.744 469.074 609.769 464.238C609.861 462.364 610.681 460.601 612.055 459.325C613.428 458.05 615.247 457.362 617.12 457.411C619.016 457.578 620.799 458.389 622.172 459.708C623.545 461.028 624.427 462.777 624.672 464.666C624.723 468.571 622.457 470.384 617.12 470.359Z" fill="#5D8F5C"/>
<path d="M750.871 443.379C746.641 443.555 743.771 442.119 743.495 437.736C743.554 435.985 744.219 434.309 745.376 432.995C746.533 431.681 748.11 430.81 749.838 430.531C751.751 430.488 753.606 431.188 755.014 432.485C756.422 433.781 757.274 435.573 757.391 437.484C757.114 441.691 755.075 443.958 750.871 443.379Z" fill="#5D8F5C"/>
<path d="M582.858 453.455C581.65 456.126 580.341 458.242 577.697 458.065C577.068 458.006 576.457 457.822 575.899 457.524C575.341 457.226 574.848 456.821 574.448 456.331C574.047 455.842 573.748 455.278 573.567 454.672C573.386 454.065 573.327 453.429 573.393 452.8C573.393 450.054 576.061 448.896 578.427 448.896C581.222 448.946 581.071 452.246 582.858 453.455Z" fill="#F3A07F"/>
<path d="M353.521 519.08C353.83 519.118 354.143 519.118 354.453 519.08H355.51C355.761 519.105 356.014 519.105 356.265 519.08C357.373 521.331 357.554 523.927 356.769 526.31C356.451 527.25 355.787 528.033 354.913 528.501C354.038 528.969 353.019 529.087 352.061 528.829C349.695 528.401 349.367 526.512 349.544 524.647C349.921 522.431 349.77 519.408 353.521 519.08Z" fill="#62AFCD"/>
<path d="M716.004 448.744C717.077 448.777 718.095 449.227 718.843 449.998C719.59 450.769 720.008 451.801 720.007 452.876C720.183 454.866 718.547 456.1 716.457 456.176C715.925 456.276 715.378 456.267 714.849 456.148C714.321 456.03 713.822 455.804 713.383 455.486C712.945 455.167 712.576 454.763 712.3 454.296C712.023 453.83 711.845 453.313 711.775 452.775C711.473 450.004 713.865 449.424 716.004 448.744Z" fill="#F3A07F"/>
<path d="M185.383 410.629C186.188 418.187 193.086 418.187 197.819 420.278C212.923 426.853 228.028 432.874 243.132 439.524C253.831 444.336 264.757 448.644 275.657 453.002C277.219 453.58 278.88 453.842 280.544 453.772C282.207 453.703 283.841 453.304 285.349 452.599C311.514 441.817 337.678 431.077 363.843 420.378C367.795 418.766 370.388 416.549 369.708 411.864C369.58 411.291 369.577 410.698 369.698 410.124C369.82 409.55 370.064 409.009 370.413 408.538C376.832 409.092 380.986 413.123 380.483 418.388C380.231 420.58 379.677 422.998 377.16 423.427C374.518 423.905 372.148 425.351 370.514 427.483C364.321 434.813 356.24 438.844 347.505 442.094C337.309 445.848 328.221 452.02 317.875 455.521C308.031 458.872 298.339 462.726 288.471 466.102C283.053 467.726 277.239 467.405 272.032 465.195C255.971 459.149 240.036 452.826 224.201 446.074C212.668 441.544 201.375 436.423 190.367 430.732C180.952 425.518 178.863 420.983 179.97 410.579C180.272 407.682 182.06 407.127 184.275 406.699C184.331 406.79 184.36 406.895 184.36 407.002C184.36 407.108 184.331 407.213 184.275 407.304C183.948 408.412 183.444 409.873 185.383 410.629Z" fill="#5D8F5C"/>
<path d="M184.577 463.355C179.945 463.355 175.338 463.708 171.285 460.584C167.232 457.461 167.182 452.573 172.091 450.508C176.017 448.829 180.237 447.947 184.507 447.913C188.776 447.878 193.01 448.692 196.963 450.306C198.201 450.78 199.293 451.573 200.128 452.603C200.963 453.633 201.512 454.866 201.721 456.176C202.124 458.695 199.682 459.602 197.97 460.912C193.841 464.061 189.159 463.255 184.577 463.355Z" fill="#7FC37E"/>
<path d="M464.892 390.476C470.682 390.476 473.3 392.995 473.149 397.731C473.192 398.601 473.053 399.471 472.741 400.285C472.429 401.099 471.951 401.838 471.337 402.457C470.724 403.076 469.988 403.56 469.178 403.878C468.367 404.196 467.499 404.342 466.629 404.306C465.603 404.29 464.591 404.069 463.652 403.655C462.713 403.241 461.867 402.643 461.163 401.896C460.459 401.149 459.911 400.269 459.553 399.307C459.195 398.345 459.033 397.321 459.076 396.295C458.951 391.458 461.997 390.652 464.892 390.476Z" fill="#5D8F5C"/>
<path d="M111.799 427.76C111.888 428.672 111.772 429.592 111.458 430.453C111.145 431.315 110.642 432.094 109.987 432.735C109.333 433.376 108.542 433.861 107.675 434.155C106.808 434.45 105.886 434.545 104.976 434.435C101.1 434.435 97.1724 431.236 97.2227 428.188C97.2227 423.981 100.747 421.26 105.807 421.462C106.633 421.413 107.459 421.545 108.229 421.848C108.999 422.152 109.693 422.62 110.263 423.219C110.833 423.819 111.266 424.536 111.532 425.32C111.797 426.104 111.888 426.937 111.799 427.76Z" fill="#5D8F5C"/>
<path d="M219.015 482.098C216.498 482.098 213.376 481.695 214.207 478.32C214.912 475.574 213.704 470.762 218.361 470.636C219.92 470.496 221.476 470.931 222.737 471.859C223.998 472.787 224.877 474.144 225.208 475.674C225.787 479.705 223.194 482.048 219.015 482.098Z" fill="#F3A07F"/>
<path d="M392.315 405.817C391.232 401.736 393.145 400.426 396.972 400.779C399.489 400.955 402.007 401.182 401.654 404.356C401.302 407.53 400.698 411.309 395.587 410.629C392.365 410.15 390.955 409.092 392.315 405.817Z" fill="#F3A07F"/>
<path d="M263.498 492.301C260.981 492.301 258.463 492.755 258.69 489.077C258.942 484.215 262.844 484.038 266.116 483.484C266.644 483.317 267.205 483.286 267.747 483.395C268.289 483.503 268.795 483.748 269.217 484.105C269.64 484.462 269.965 484.921 270.162 485.438C270.359 485.955 270.423 486.513 270.346 487.061C270.286 487.874 270.055 488.665 269.667 489.382C269.28 490.099 268.745 490.725 268.098 491.22C267.451 491.715 266.707 492.068 265.914 492.254C265.121 492.44 264.298 492.456 263.498 492.301Z" fill="#62AFCD"/>
<path d="M722.248 239.021C719.73 237.913 715.602 238.87 715.148 235.343C714.846 233.076 719.101 229.801 719.957 230.305C722.274 232.241 724.016 234.777 724.992 237.636C725.47 239.072 723.28 238.593 722.248 239.021Z" fill="#598A58"/>
<path d="M741.254 374.529C739.895 374.176 738.737 373.798 737.327 373.546C735.162 373.093 733.878 372.06 734.96 369.742C736.043 367.425 737.478 365.938 739.995 367.047C741.007 367.64 741.888 368.433 742.585 369.377C743.282 370.321 743.78 371.396 744.048 372.539C744.829 374.856 742.639 374.453 741.254 374.529Z" fill="#5D8F5C"/>
<path d="M735.892 325.732C734.054 323.843 729.825 326.211 729.221 322.734C729.045 321.701 731.361 317.52 734.256 318.023C737.151 318.527 738.208 321.752 738.586 324.498C738.938 326.387 737.075 325.405 735.892 325.732Z" fill="#5D8F5C"/>
<path d="M736.37 273.761C733.979 272.174 729.951 273.534 729.221 270.41C728.944 269.277 732.04 265.901 734.256 266.178C737.277 266.531 738.611 269.629 738.863 272.527C739.139 274.265 737.302 273.484 736.37 273.761Z" fill="#5D8F5C"/>
<path d="M185.383 410.629C183.444 409.949 183.948 408.487 184.2 407.077C184.523 407.218 184.813 407.425 185.051 407.686C185.289 407.946 185.47 408.254 185.581 408.589C185.693 408.924 185.733 409.279 185.699 409.63C185.664 409.981 185.557 410.322 185.383 410.629V410.629Z" fill="#6EAB6E"/>
<path d="M397.274 267.866L398.507 268.647L397.274 267.866Z" fill="#A1A3CA"/>
<path d="M629.758 331.728L628.7 328.78C631.016 329.057 631.243 330.015 629.758 331.728Z" fill="#62AFCD"/>
<path d="M355.51 519.206H354.453C354.956 518.576 355.208 518.702 355.51 519.206Z" fill="#6EAB6E"/>
<g filter="url(#filter0_d_481_255)">
<path d="M554.464 500.453C553.942 503.634 552.505 506.594 550.329 508.974C549.913 509.561 549.588 510.206 549.365 510.889C548.317 510.679 547.679 511.313 546.881 511.822C544.875 513.35 542.456 514.241 539.938 514.38C541.204 511.926 540.064 510.133 538.115 508.726C536.497 507.557 534.616 506.707 532.948 505.624C530.801 504.239 528.34 503.221 527.059 500.809C524.811 496.558 524.761 496.594 519.819 497.312C519.889 491.557 522.921 487.358 527.525 483.98C531.926 482.058 536.294 480.778 541.261 482.061C544.99 482.952 548.309 485.073 550.683 488.081C553.015 491 554.229 494.654 554.106 498.386C554.097 499.09 553.717 499.876 554.464 500.453ZM542.919 503.19C542.958 503.028 542.96 502.859 542.925 502.696C542.887 502.534 542.818 502.382 542.72 502.249C542.614 502.114 542.48 502.003 542.328 501.923C542.182 501.835 542.018 501.782 541.848 501.768C541.133 501.624 540.352 501.75 540.183 502.464C539.973 503.413 540.922 503.709 541.599 503.902C542.277 504.096 542.677 503.78 542.919 503.19V503.19ZM547.868 491.776C547.212 491.83 546.628 492.119 546.743 492.775C546.79 493.106 546.952 493.411 547.203 493.633C547.459 493.858 547.785 493.988 548.126 494.002C548.253 494.006 548.38 493.982 548.497 493.933C548.613 493.883 548.718 493.813 548.809 493.727C548.897 493.64 548.965 493.535 549.011 493.42C549.036 493.307 549.037 493.189 549.015 493.075C549.048 492.916 549.05 492.752 549.021 492.593C548.968 492.435 548.881 492.291 548.766 492.17C548.652 492.047 548.515 491.949 548.362 491.881C548.206 491.815 548.038 491.783 547.868 491.788L547.868 491.776ZM542.703 485.451C542.71 484.87 542.317 484.643 541.761 484.624C541.205 484.605 540.523 484.77 540.428 485.423C540.334 486.076 540.861 486.441 541.504 486.474C541.802 486.491 542.095 486.393 542.323 486.2C542.434 486.11 542.525 485.998 542.591 485.871C542.656 485.745 542.695 485.606 542.703 485.463L542.703 485.451ZM527.342 490.821C526.773 490.875 526.3 491.092 526.232 491.647C526.163 492.202 526.689 492.653 527.344 492.686C527.47 492.712 527.6 492.713 527.727 492.69C527.849 492.664 527.964 492.61 528.063 492.534C528.162 492.46 528.247 492.369 528.314 492.265C528.37 492.157 528.409 492.041 528.429 491.921C528.438 491.217 527.971 490.964 527.342 490.87L527.342 490.821Z" fill="#509F60"/>
<path d="M397.122 499.366L395.823 499.437C393.71 491.259 388.083 486.25 380.13 485.473C380.02 483.335 379.91 481.209 379.8 479.059C380.358 478.063 380.56 476.906 380.372 475.78C380.527 471.2 380.793 466.646 383.341 462.576C383.591 462.177 383.678 461.697 383.582 461.235C383.486 460.774 383.216 460.367 382.827 460.1C382.265 459.525 381.604 458.973 381.802 458C382.859 457.925 383.904 458.259 384.72 458.934C385.536 459.609 386.061 460.572 386.184 461.623C387.072 465.833 388.047 470.032 388.799 474.253C389.016 476.11 389.723 477.875 390.847 479.369C391.972 480.863 393.474 482.031 395.199 482.755C397.659 483.823 398.316 485.708 398.299 488.116C398.253 491.821 397.567 495.358 397.262 499.022C397.185 499.102 397.135 499.206 397.123 499.317L397.122 499.366Z" fill="#DBE4EA"/>
<path d="M493.842 442.673L493.898 444.169C493.641 444.167 493.386 444.223 493.154 444.332C492.928 444.438 492.724 444.586 492.555 444.77C492.396 444.96 492.279 445.181 492.213 445.42C492.155 445.655 492.152 445.9 492.204 446.136C491.297 447.546 491.711 449.033 491.767 450.553C492.122 454.951 491.843 459.377 490.938 463.697C490.339 464.196 489.69 464.669 489.852 465.561C489.285 466.468 488.208 466.553 487.362 467C484.872 468.365 481.683 468.227 479.325 469.965C478.127 471.901 478.442 473.449 480.504 474.685C482.213 475.565 483.773 476.709 485.124 478.076C481.809 480.272 478.073 481.754 474.152 482.425C474.127 478.448 474.151 474.483 474.088 470.506C474.012 469.48 474.267 468.457 474.816 467.587C475.389 466.707 476.217 466.024 477.19 465.628C478.396 464.974 479.642 464.395 480.92 463.895C482.429 463.421 483.777 462.539 484.813 461.346C485.849 460.153 486.534 458.695 486.79 457.137C487.68 453.336 488.862 449.609 490.327 445.99C490.902 444.428 491.591 442.732 493.842 442.673Z" fill="#DBE4EA"/>
<path d="M527.549 483.993C522.946 487.358 519.902 491.557 519.843 497.337L519.462 500.197L510.196 503.666C509.199 500.195 509.664 496.607 509.559 493.061C509.454 489.515 510.809 486.901 514.597 485.527C515.782 485.078 516.848 484.364 517.714 483.44C518.557 482.53 519.172 481.432 519.509 480.239C519.818 479.23 520.25 478.272 520.633 477.288C522.399 477.458 522.514 479.189 523.517 480.078C524.899 481.317 525.93 482.923 527.549 483.993Z" fill="#DBE4EA"/>
<path d="M418.427 441.812L418.545 440.244C419.277 440.423 419.945 440.802 420.473 441.339C421.002 441.875 421.37 442.548 421.537 443.282C422.617 446.188 423.251 449.239 423.417 452.334C423.654 458.253 425.938 462.542 431.806 465.035C434.266 466.09 434.894 468.259 434.455 470.811C433.857 474.249 433.493 477.715 433.092 481.169C429.616 480.274 426.672 478.348 423.589 476.692C424.883 475.579 426.316 474.637 427.852 473.892C429.619 472.962 430.748 471.654 429.549 469.602C429.561 469.262 429.446 468.93 429.226 468.672C429.003 468.404 428.688 468.228 428.342 468.179C426.207 467.832 424.467 466.551 422.485 465.81C421.254 465.363 420.099 464.817 420.043 463.31L419.129 462.236C418.922 456.809 419.312 451.376 420.292 446.034C420.419 445.729 420.449 445.393 420.378 445.071C420.31 444.751 420.151 444.457 419.918 444.226C420 443.712 419.895 443.185 419.621 442.742C419.347 442.299 418.924 441.969 418.427 441.812V441.812Z" fill="#DBE4EA"/>
<path d="M493.842 442.673C491.591 442.732 490.89 444.428 490.24 445.989C488.776 449.608 487.593 453.334 486.703 457.135C485.897 460.374 484.297 462.763 480.834 463.881C479.558 464.391 478.312 464.973 477.103 465.627C476.128 466.019 475.299 466.703 474.73 467.586C474.201 468.462 473.971 469.487 474.076 470.505C474.139 474.471 474.115 478.447 474.14 482.425L473.553 482.936C472.336 482.293 471.353 481.283 470.744 480.049C470.143 478.843 469.96 477.473 470.223 476.152C470.491 473.486 470.61 470.807 470.581 468.128C470.559 466.981 470.911 465.858 471.585 464.929C472.282 463.986 473.253 463.282 474.367 462.913C477.299 461.714 480.574 460.852 481.986 457.658C482.189 457.131 482.361 456.593 482.5 456.046C483.997 452.977 484.36 449.56 485.623 446.414C486.221 444.52 487.444 442.885 489.092 441.775C490.873 440.722 492.63 440.682 493.842 442.673Z" fill="#638492"/>
<path d="M433.03 481.193C433.492 477.74 433.856 474.274 434.393 470.835C434.832 468.283 434.204 466.102 431.743 465.059C425.877 462.517 423.592 458.252 423.355 452.346C423.187 449.251 422.553 446.2 421.475 443.294C421.302 442.563 420.931 441.893 420.404 441.358C419.876 440.822 419.212 440.441 418.483 440.256C420.557 438.515 421.929 438.507 423.675 440.32C425.788 442.47 426.199 445.291 426.772 447.941C427.275 450.319 427.171 452.751 427.995 455.12C428.013 458.739 430.625 460.5 433.485 462.153C438.163 464.878 439.209 467.349 437.774 472.445C437.349 474 437.077 475.594 436.961 477.202C436.859 478.253 436.482 479.259 435.868 480.118C435.254 480.978 434.425 481.661 433.464 482.1C433.293 482.014 433.152 481.879 433.06 481.712C432.974 481.549 432.942 481.362 432.968 481.18L433.03 481.193Z" fill="#638492"/>
<path d="M520.596 477.275C520.213 478.259 519.781 479.217 519.472 480.226C519.135 481.42 518.52 482.517 517.677 483.427C516.811 484.351 515.745 485.065 514.56 485.514C510.834 486.876 509.456 489.354 509.522 493.048C509.588 496.742 509.187 500.158 510.159 503.653L509.108 503.64C506.44 502.372 506.542 500.101 506.707 497.707C506.873 495.313 507.259 493.045 506.508 490.738L506.9 487.038C507.315 486.158 507.92 485.381 508.671 484.762C509.399 484.125 510.246 483.636 511.162 483.323C512.645 482.956 513.961 482.102 514.901 480.899C515.371 480.725 515.779 480.416 516.074 480.011C516.36 479.621 516.525 479.154 516.548 478.671C517.146 478.108 517.534 477.36 517.65 476.548L520.344 464.514C520.903 463.967 521.297 463.274 521.482 462.514C525.279 460.35 525.279 460.35 527.859 462.778C526.804 462.759 525.777 463.116 524.963 463.785C524.148 464.454 523.598 465.391 523.412 466.428C522.287 469.973 521.364 473.578 520.646 477.227L520.596 477.275Z" fill="#638492"/>
<path d="M397.262 499.071C397.567 495.37 398.315 491.847 398.298 488.166C398.328 485.696 397.633 483.872 395.198 482.804C393.472 482.083 391.968 480.915 390.844 479.421C389.719 477.927 389.013 476.16 388.798 474.303C388.046 470.082 387.072 465.883 386.183 461.673C386.06 460.621 385.536 459.658 384.719 458.983C383.903 458.309 382.858 457.974 381.801 458.049C383.867 455.926 385.23 455.757 387.386 457.34C387.852 457.679 388.368 457.957 388.859 458.259C388.826 458.679 388.884 459.101 389.029 459.497C389.176 459.898 389.408 460.263 389.709 460.567C390.394 465.154 391.088 469.748 391.79 474.352C392.139 475.775 392.966 477.037 394.133 477.925C395.043 479.332 396.657 479.759 398.034 480.443C398.791 480.758 399.465 481.243 400.004 481.86C400.544 482.477 400.933 483.21 401.143 484.001L401.452 487.068C400.184 489.683 400.681 492.505 400.635 495.247C400.593 497.642 399.798 498.917 397.262 499.071Z" fill="#638492"/>
<path d="M389.709 460.555C389.419 460.249 389.198 459.885 389.06 459.487C388.922 459.089 388.87 458.667 388.908 458.247C391.259 456.524 393.76 455.017 396.383 453.744C402.343 450.326 408.324 446.933 414.325 443.564C415.571 442.702 416.986 442.113 418.476 441.837C418.974 442.012 419.392 442.359 419.656 442.815C419.921 443.271 420.013 443.806 419.917 444.325C419.435 444.439 418.965 444.598 418.514 444.801C411.367 448.815 404.281 452.927 397.074 456.89C394.623 458.095 392.595 460.083 389.709 460.555Z" fill="#9DB5C9"/>
<path d="M521.407 462.526C521.233 463.287 520.842 463.981 520.282 464.525C519.377 464.345 518.531 463.939 517.824 463.347C512.722 459.9 507.66 456.244 502.408 452.968C498.911 450.752 496.054 447.802 492.217 446.137C492.164 445.901 492.167 445.655 492.226 445.42C492.292 445.182 492.408 444.96 492.567 444.77C492.737 444.587 492.94 444.438 493.166 444.333C493.399 444.223 493.653 444.167 493.91 444.169C495.154 444.401 496.318 444.946 497.291 445.754C505.201 451.113 513.035 456.569 520.907 462.001C521.099 462.154 521.271 462.33 521.42 462.526L521.407 462.526Z" fill="#9DB5C9"/>
<path d="M380.081 485.435C388.034 486.212 393.611 491.221 395.774 499.399C396.936 505.49 394.157 510.273 390.441 514.81C389.601 514.799 389.098 515.435 388.463 515.798C386.196 517.178 383.868 518.496 381.013 518.35C382.34 515.995 381.56 514.071 379.489 512.576C378.019 511.59 376.499 510.68 374.935 509.852C371.976 508.136 369.278 506.275 367.76 503.045C366.242 499.815 363.597 499.697 361.204 502.273C361.002 500.185 361.273 498.077 361.996 496.107C362.729 494.136 363.887 492.35 365.387 490.875C367.235 488.878 369.529 487.344 372.082 486.399C374.635 485.454 377.376 485.124 380.081 485.435V485.435ZM384.602 506.982C384.566 506.627 384.393 506.302 384.119 506.074C383.837 505.838 383.477 505.714 383.109 505.728C382.429 505.72 381.613 505.71 381.726 506.6C381.775 506.962 381.94 507.298 382.196 507.557C382.468 507.813 382.811 507.981 383.18 508.039C383.969 508.221 384.419 507.77 384.602 506.982V506.982ZM384.333 489.613C384.407 489.332 384.368 489.033 384.223 488.781C384.078 488.529 383.838 488.345 383.558 488.269C383.401 488.206 383.233 488.178 383.064 488.189C382.892 488.193 382.724 488.233 382.568 488.306C382.417 488.375 382.284 488.48 382.181 488.611C382.07 488.732 381.991 488.88 381.953 489.04C381.914 489.194 381.912 489.355 381.948 489.509C381.972 489.672 382.039 489.826 382.14 489.956C382.233 490.093 382.354 490.208 382.494 490.294C382.642 490.38 382.805 490.437 382.975 490.461C383.126 490.487 383.28 490.489 383.432 490.466C383.579 490.446 383.719 490.393 383.842 490.311C383.969 490.237 384.08 490.137 384.167 490.018C384.23 489.892 384.265 489.753 384.271 489.612L384.333 489.613ZM368.905 494.364C368.628 494.382 368.366 494.492 368.159 494.676C367.964 494.863 367.835 495.109 367.792 495.376C367.753 495.529 367.751 495.69 367.786 495.845C367.821 496.002 367.896 496.148 368.004 496.267C368.115 496.391 368.247 496.494 368.396 496.569C368.547 496.635 368.711 496.671 368.877 496.673C369.507 496.681 370.116 496.429 370.05 495.749C370.065 495.584 370.046 495.418 369.995 495.26C369.944 495.102 369.861 494.957 369.752 494.831C369.531 494.572 369.219 494.405 368.88 494.364L368.905 494.364ZM389.241 495.749C388.66 495.742 388.211 495.996 388.327 496.603C388.345 496.958 388.489 497.295 388.732 497.554C388.976 497.812 389.304 497.976 389.658 498.015C390.326 498.023 390.654 497.471 390.551 496.791C390.502 496.468 390.333 496.175 390.079 495.97C389.804 495.77 389.468 495.674 389.13 495.699L389.241 495.749Z" fill="#509F60"/>
<path d="M444.23 552.077C444.139 550.301 444.53 548.534 445.361 546.961C446.192 545.389 447.432 544.07 448.951 543.143C453.261 540.602 457.964 539.165 462.973 542.154C464.926 543.225 466.547 544.813 467.655 546.744C468.764 548.675 469.318 550.874 469.256 553.1C469.124 555.731 468.094 558.237 466.337 560.203C465.935 560.717 465.35 561.105 465.316 561.821C463.132 562.448 461.357 564.045 459.101 564.462C459.35 563.449 459.228 562.381 458.759 561.449C458.29 560.518 457.504 559.784 456.542 559.379C455.216 558.634 453.877 557.889 452.513 557.23C451.199 556.653 450.145 555.611 449.556 554.303C448.523 551.882 446.776 551.145 444.23 552.077Z" fill="#509F60"/>
<path d="M506.583 490.727C507.118 493.009 507.185 495.375 506.782 497.683C506.593 499.99 506.49 502.311 509.182 503.629C508.755 505.155 507.85 504.403 507.001 504.022C501.788 501.624 497.18 498.208 492.269 495.356C486.536 492.038 481.028 488.401 475.421 484.898C474.627 484.431 473.98 483.751 473.553 482.936L474.14 482.425C478.06 481.752 481.796 480.271 485.112 478.076C485.699 478.094 486.272 478.263 486.775 478.566C489.658 480.404 492.528 482.28 495.487 484.02C499.232 486.191 502.624 488.863 506.583 490.727Z" fill="#5B9E5B"/>
<path d="M397.262 499.071C399.798 498.917 400.593 497.642 400.635 495.247C400.668 492.505 400.171 489.696 401.452 487.068C403.764 486.059 406.113 485.124 408.376 484.04C413.451 481.632 418.477 479.15 423.527 476.692C426.61 478.36 429.554 480.273 433.03 481.181C433.003 481.361 433.04 481.545 433.135 481.701C433.222 481.867 433.359 482.002 433.526 482.088C431.168 484.752 427.801 486.106 424.801 487.774C418.078 491.521 411.499 495.615 404.437 498.739C402.814 499.437 401.126 499.975 399.398 500.345C399.184 500.426 398.957 500.465 398.729 500.46C398.495 500.446 398.266 500.394 398.05 500.304C397.841 500.215 397.653 500.082 397.499 499.914C397.341 499.754 397.218 499.563 397.135 499.354C397.147 499.247 397.196 499.147 397.274 499.072L397.262 499.071Z" fill="#5B9E5B"/>
<path d="M471.981 508.286C469.869 512.126 466.302 514.639 462.651 516.929C460.621 518.139 459.938 519.366 460.776 521.575C460.915 522.195 460.961 522.832 460.914 523.466C457.167 526.508 452.843 527.208 448.112 526.829C444.53 526.526 441.746 524.701 438.948 522.938C438.957 522.209 438.72 521.379 438.975 520.777C440.242 518.248 438.412 517.213 436.786 515.723C433.949 513.107 430.664 510.794 428.827 507.338C429.784 507.44 430.715 507.715 431.574 508.15C437.974 512.65 445.203 514.023 452.981 513.92C456.615 513.742 460.223 513.219 463.758 512.36C466.821 511.632 469.171 509.536 471.981 508.286ZM448.05 524.84C450.526 524.586 452.865 524.417 455.181 524.088C455.64 524.008 456.069 523.808 456.425 523.51C456.783 523.22 457.049 522.833 457.193 522.395C457.552 521.387 457.862 520.242 455.804 520.711C451.836 521.613 447.888 520.923 443.976 520.257C443.211 520.125 442.125 519 441.625 520.402C441.506 520.922 441.559 521.467 441.776 521.955C441.993 522.443 442.362 522.848 442.829 523.109C444.472 524.241 446.413 524.252 448.05 524.84Z" fill="#AED1B6"/>
<path d="M471.981 508.286C469.172 509.487 466.796 511.632 463.672 512.298C460.141 513.173 456.531 513.695 452.896 513.858C445.104 513.972 437.863 512.587 431.489 508.087C430.648 507.688 429.757 507.407 428.84 507.252L426.899 504.19C424.039 497.485 425.078 492.421 430.114 489.049C433.423 486.852 437.15 485.359 441.061 484.663C451.323 482.714 461.213 483.897 470.202 488.985C478.798 493.82 478.698 502.033 471.981 508.286ZM452.07 485.366C445.492 484.867 438.906 486.202 433.043 489.221C425.578 492.983 424.882 501.287 431.599 506.137C435.553 508.807 440.074 510.524 444.805 511.153C453.295 512.566 461.49 511.752 468.96 507.57C473.579 504.984 476.205 500.569 474.052 495.689C473.033 493.591 471.443 491.821 469.465 490.581C464.314 487.156 458.258 485.34 452.07 485.366Z" fill="#9DC7A3"/>
<path d="M361.167 502.248C363.585 499.672 366.217 499.84 367.723 503.02C369.23 506.201 371.939 508.111 374.898 509.827C376.462 510.655 377.982 511.565 379.452 512.551C381.549 514.009 382.316 515.97 380.976 518.325C379.719 519.016 378.263 519.255 376.851 519.003C372.436 518.01 368.098 516.858 365.051 513.251C364.771 512.914 364.178 512.821 363.723 512.617C363.943 510.792 362.599 509.467 362.025 507.903C361.3 506.111 361.006 504.174 361.167 502.248V502.248Z" fill="#438852"/>
<path d="M519.462 500.185L519.831 497.324C524.786 496.582 524.787 496.557 527.084 500.809C528.353 503.221 530.825 504.239 532.972 505.624C534.653 506.707 536.51 507.557 538.128 508.726C540.076 510.133 541.241 511.963 539.95 514.38C537.985 515.184 535.806 515.305 533.764 514.724C529.557 513.838 525.71 511.723 522.71 508.648C521.478 505.886 520.394 503.061 519.462 500.185V500.185Z" fill="#438852"/>
<path d="M426.898 504.276L428.839 507.338C430.701 510.794 433.962 513.107 436.786 515.723C438.388 517.212 440.267 518.236 438.975 520.777C438.811 521.487 438.802 522.224 438.948 522.938C438.624 524.638 438.932 526.399 439.815 527.889C436.69 527.64 435.022 526.521 434.347 523.067C434.182 521.539 433.528 520.105 432.481 518.98C431.434 517.854 430.051 517.096 428.538 516.82C427.149 516.465 425.878 515.751 424.854 514.749C423.849 513.753 423.145 512.494 422.821 511.118C422.086 508.49 424.436 504.456 426.898 504.276Z" fill="#5B9E5B"/>
<path d="M444.23 552.077C446.714 551.144 448.56 551.883 449.519 554.303C450.104 555.613 451.159 556.657 452.476 557.229C453.828 557.913 455.166 558.658 456.505 559.378C457.467 559.783 458.253 560.517 458.722 561.449C459.191 562.381 459.312 563.449 459.064 564.461C456.648 564.889 454.16 564.658 451.864 563.793C449.646 563.123 448.396 561.181 446.328 560.44C446.608 558.8 445.125 557.72 444.784 556.271C444.317 554.925 444.128 553.498 444.23 552.077V552.077Z" fill="#438852"/>
<path d="M363.735 512.63C364.19 512.845 364.783 512.939 365.063 513.276C368.11 516.883 372.424 518.022 376.863 519.028C378.277 519.27 379.731 519.027 380.989 518.337C383.856 518.471 386.184 517.166 388.439 515.785C389.074 515.398 389.576 514.811 390.417 514.809C390.178 519.129 388.142 520.821 382.307 521.75C379.437 522.237 376.5 522.172 373.654 521.558C370.81 520.945 368.112 519.788 365.708 518.15C363.328 516.639 362.766 515.088 363.735 512.63Z" fill="#3E7C4B"/>
<path d="M522.722 508.648C525.719 511.728 529.568 513.843 533.776 514.725C535.819 515.302 537.996 515.181 539.962 514.381C542.488 514.276 544.917 513.381 546.906 511.822C547.642 511.313 548.317 510.679 549.39 510.89C548.92 514.972 546.199 517.026 540.65 517.786C534.988 518.695 529.19 517.457 524.396 514.313C521.93 512.739 521.299 510.743 522.722 508.648Z" fill="#3E7C4B"/>
<path d="M439.791 527.851C438.908 526.361 438.6 524.601 438.924 522.9C441.771 524.664 444.543 526.489 448.088 526.78C452.819 527.171 457.18 526.471 460.89 523.429C461.145 523.898 461.298 524.415 461.341 524.947C461.384 525.478 461.315 526.013 461.139 526.517C460.963 527.021 460.684 527.482 460.318 527.872C459.953 528.261 459.511 528.57 459.019 528.778C453.851 531.803 448.585 531.652 443.184 529.461C442.039 529.028 440.934 528.396 439.791 527.851Z" fill="#9DC7A3"/>
<path d="M446.328 560.439C448.409 561.181 449.646 563.123 451.864 563.793C454.157 564.67 456.648 564.901 459.064 564.461C461.382 564.045 463.132 562.449 465.279 561.82C465.502 564.849 463.105 565.672 460.823 566.261C458.524 566.903 456.11 567.026 453.758 566.62C451.421 566.227 449.204 565.308 447.275 563.934C446.086 563.043 445.259 561.958 446.328 560.439Z" fill="#3E7C4B"/>
<path d="M542.919 503.19C542.677 503.78 542.312 504.244 541.599 503.939C540.885 503.634 539.973 503.438 540.17 502.501C540.367 501.565 541.132 501.673 541.848 501.806C542.011 501.831 542.169 501.883 542.316 501.96C542.462 502.038 542.591 502.144 542.695 502.273C542.789 502.406 542.863 502.553 542.912 502.708C542.951 502.866 542.954 503.031 542.919 503.19Z" fill="#6EAB6E"/>
<path d="M547.918 491.789C548.083 491.791 548.247 491.827 548.399 491.894C548.555 491.957 548.693 492.056 548.803 492.183C548.914 492.304 548.997 492.448 549.045 492.605C549.073 492.761 549.072 492.92 549.04 493.075C549.063 493.193 549.061 493.315 549.035 493.433C548.989 493.544 548.925 493.648 548.846 493.739C548.755 493.822 548.649 493.888 548.534 493.933C548.416 493.98 548.29 494.004 548.163 494.003C547.817 493.994 547.485 493.863 547.227 493.633C546.978 493.412 546.819 493.106 546.78 492.775C546.69 492.12 547.262 491.843 547.918 491.789Z" fill="#6EAB6E"/>
<path d="M542.753 485.464C542.743 485.607 542.704 485.748 542.639 485.877C542.573 486.005 542.483 486.119 542.372 486.212C542.139 486.395 541.849 486.488 541.553 486.474C540.91 486.466 540.321 486.138 540.478 485.436C540.635 484.734 541.168 484.592 541.811 484.624C542.453 484.657 542.76 484.871 542.753 485.464Z" fill="#6EAB6E"/>
<path d="M527.391 490.833C528.021 490.928 528.549 491.193 528.479 491.884C528.467 492.006 528.427 492.124 528.364 492.229C528.297 492.336 528.212 492.431 528.113 492.51C528.011 492.582 527.897 492.635 527.777 492.666C527.65 492.689 527.52 492.688 527.394 492.661C526.739 492.653 526.161 492.325 526.281 491.623C526.401 490.92 526.822 490.888 527.391 490.833Z" fill="#6EAB6E"/>
<path d="M492.18 446.136C496.017 447.801 498.886 450.788 502.371 452.968C507.623 456.243 512.685 459.899 517.786 463.383C518.497 463.972 519.341 464.376 520.245 464.562L517.538 476.583C517.432 477.399 517.042 478.15 516.436 478.707C516.29 478.52 516.182 478.259 515.986 478.133C509.346 474.075 502.744 469.967 496.054 466.007C494.446 465.049 493.068 463.5 490.852 463.708C491.756 459.389 492.036 454.962 491.68 450.564C491.65 449.032 491.273 447.496 492.18 446.136Z" fill="#B5C7D6"/>
<path d="M514.851 480.935C513.914 482.141 512.596 482.996 511.112 483.359C510.197 483.668 509.351 484.153 508.621 484.786C507.905 485.409 507.324 486.171 506.912 487.026C506.037 486.723 505.21 486.297 504.455 485.76C496.07 480.47 487.669 475.188 479.252 469.914C481.622 468.177 484.761 468.314 487.288 466.949C488.159 466.503 489.223 466.417 489.779 465.51C490.532 465.579 491.247 465.872 491.833 466.35C499.526 471.274 506.893 476.49 514.851 480.935Z" fill="#B5C7D6"/>
<path d="M479.275 470.001L504.479 485.847C505.233 486.384 506.061 486.81 506.936 487.112L506.557 490.813C502.598 488.961 499.194 486.276 495.511 484.095C492.552 482.366 489.682 480.491 486.799 478.64C486.296 478.337 485.722 478.172 485.135 478.162C483.767 476.809 482.206 475.667 480.503 474.771C478.429 473.449 478.077 471.901 479.275 470.001Z" fill="#9DB5C9"/>
<path d="M514.851 480.935C506.918 476.466 499.526 471.274 491.894 466.401C491.305 465.92 490.585 465.627 489.827 465.56C489.653 464.669 490.314 464.22 490.914 463.696C493.13 463.439 494.508 465.049 496.104 465.983C502.806 469.956 509.384 474.05 516.048 478.121C516.244 478.235 516.352 478.496 516.498 478.695C516.485 479.184 516.319 479.657 516.024 480.048C515.729 480.452 515.321 480.761 514.851 480.935V480.935Z" fill="#9DB5C9"/>
<path d="M389.709 460.555C392.595 460.084 394.622 458.145 397.025 456.778C404.232 452.89 411.318 448.777 418.466 444.69C418.918 444.489 419.388 444.329 419.869 444.213C420.104 444.442 420.264 444.737 420.328 445.059C420.4 445.376 420.37 445.709 420.243 446.009C419.263 451.355 418.873 456.792 419.08 462.224C417.983 462.145 416.886 462.38 415.918 462.901C408.851 466.52 401.784 470.077 394.766 473.672C393.888 474.174 392.868 474.371 391.866 474.229C391.122 469.691 390.403 465.133 389.709 460.555Z" fill="#B5C7D6"/>
<path d="M401.143 484.014C400.937 483.22 400.548 482.486 400.009 481.868C399.469 481.251 398.793 480.767 398.034 480.455C396.634 479.697 395.044 479.27 394.133 477.937C397.179 475.505 400.843 474.203 404.192 472.317C409.459 469.356 414.968 466.78 419.992 463.458C420.085 464.941 421.29 465.487 422.434 465.958C424.403 466.698 426.119 467.979 428.291 468.327C428.635 468.379 428.949 468.554 429.175 468.819C429.395 469.078 429.51 469.41 429.497 469.749C425.466 471.787 421.399 473.788 417.404 475.863C412.054 478.565 406.871 481.786 401.143 484.014Z" fill="#B5C7D6"/>
<path d="M401.143 484.014C406.871 481.786 412.054 478.552 417.455 475.74C421.462 473.653 425.517 471.665 429.549 469.614C430.76 471.679 429.619 472.987 427.851 473.916C426.294 474.653 424.84 475.591 423.527 476.704C418.477 479.112 413.451 481.645 408.376 484.053C406.113 485.137 403.764 486.084 401.452 487.08L401.143 484.014Z" fill="#9DB5C9"/>
<path d="M419.993 463.383C415.006 466.719 409.46 469.294 404.193 472.243C400.856 474.141 397.18 475.492 394.134 477.851C392.965 476.972 392.14 475.712 391.803 474.29C392.801 474.427 393.816 474.231 394.691 473.732C401.759 470.113 408.825 466.569 415.843 462.962C416.812 462.443 417.908 462.208 419.005 462.284L419.993 463.383Z" fill="#9DB5C9"/>
<path d="M384.602 506.981C384.419 507.77 383.969 508.209 383.179 508.076C382.809 508.013 382.467 507.841 382.196 507.582C381.933 507.332 381.766 506.998 381.725 506.637C381.614 505.66 382.429 505.732 383.109 505.765C383.471 505.752 383.825 505.87 384.106 506.098C384.247 506.202 384.363 506.335 384.449 506.487C384.534 506.639 384.587 506.807 384.602 506.981Z" fill="#6EAB6E"/>
<path d="M384.271 489.612C384.204 489.896 384.028 490.142 383.78 490.297C383.523 490.449 383.219 490.502 382.925 490.447C382.756 490.424 382.593 490.367 382.445 490.281C382.301 490.194 382.176 490.079 382.078 489.943C381.981 489.812 381.919 489.658 381.898 489.496C381.857 489.338 381.859 489.172 381.904 489.015C381.945 488.859 382.023 488.716 382.132 488.597C382.235 488.466 382.367 488.362 382.519 488.293C382.673 488.217 382.843 488.177 383.015 488.176C383.183 488.166 383.352 488.193 383.508 488.256C383.789 488.346 384.028 488.533 384.182 488.783C384.249 488.909 384.291 489.047 384.304 489.19C384.317 489.332 384.302 489.475 384.259 489.611L384.271 489.612Z" fill="#6EAB6E"/>
<path d="M368.843 494.388C369.182 494.429 369.493 494.596 369.715 494.856C369.824 494.981 369.906 495.127 369.957 495.284C370.009 495.442 370.028 495.608 370.013 495.773C370.005 496.465 369.469 496.755 368.839 496.698C368.674 496.695 368.51 496.66 368.358 496.593C368.21 496.518 368.077 496.416 367.966 496.292C367.858 496.172 367.783 496.026 367.749 495.869C367.714 495.714 367.716 495.554 367.755 495.4C367.797 495.133 367.926 494.887 368.122 494.7C368.328 494.516 368.591 494.406 368.868 494.388L368.843 494.388Z" fill="#6EAB6E"/>
<path d="M389.179 495.749C389.511 495.728 389.839 495.829 390.103 496.032C390.358 496.226 390.527 496.511 390.575 496.828C390.626 496.969 390.642 497.119 390.621 497.268C390.6 497.416 390.542 497.556 390.454 497.677C390.366 497.798 390.25 497.895 390.115 497.961C389.98 498.026 389.832 498.057 389.682 498.052C389.312 498.042 388.958 497.895 388.691 497.638C388.424 497.381 388.263 497.033 388.24 496.663C388.174 495.996 388.597 495.766 389.179 495.749Z" fill="#6EAB6E"/>
<path d="M448.05 524.84C446.4 524.252 444.484 524.241 442.915 523.11C441.947 522.382 441.291 521.46 441.712 520.402C442.212 518.964 443.298 520.125 444.063 520.258C447.987 520.924 451.898 521.589 455.891 520.712C457.949 520.243 457.638 521.388 457.279 522.396C457.136 522.834 456.869 523.221 456.512 523.511C456.155 523.809 455.726 524.009 455.268 524.089C452.853 524.417 450.501 524.586 448.05 524.84Z" fill="#9DC7A3"/>
<path d="M452.07 485.366C458.275 485.331 464.349 487.147 469.515 490.582C471.493 491.821 473.082 493.591 474.101 495.69C476.205 500.582 473.58 504.971 469.01 507.571C461.54 511.753 453.344 512.566 444.854 511.153C440.105 510.536 435.566 508.818 431.599 506.137C424.858 501.275 425.578 492.971 433.043 489.221C438.905 486.202 445.492 484.867 452.07 485.366V485.366ZM437.111 504.352C437.649 505.106 438.449 505.631 439.356 505.824C442.559 506.988 445.928 507.634 449.335 507.738C455.513 508.097 461.445 507.379 466.8 504.246C471.931 501.246 472.08 497.197 467.274 493.791C460.974 489.316 453.734 488.845 446.309 489.297C442.379 489.416 438.541 490.511 435.142 492.483C432.974 493.803 430.926 495.457 431.524 498.108C432.082 501.017 433.483 503.715 437.111 504.352Z" fill="#AED1B6"/>
<path d="M437.111 504.351C433.483 503.714 432.082 501.017 431.438 498.106C430.84 495.456 432.888 493.801 435.068 492.482C438.466 490.507 442.305 489.412 446.235 489.296C453.659 488.843 460.937 489.315 467.2 493.789C472.018 497.208 471.882 501.257 466.726 504.245C461.358 507.378 455.414 508.096 449.249 507.736C449.258 506.995 449.867 506.694 450.429 506.281C454.895 503.062 458.605 498.97 463.231 495.853C464.477 495.016 464.251 494.272 462.872 493.835C460.781 493.123 458.655 492.519 456.501 492.028C454.787 491.686 452.584 490.844 452.3 493.817C452.209 494.12 452.067 494.407 451.882 494.664C450.271 495.233 448.804 496.147 447.583 497.341L446.625 497.835C443.361 499.846 439.889 501.619 437.111 504.351Z" fill="#449AD5"/>
<path d="M437.111 504.352C439.889 501.619 443.348 499.846 446.699 497.837C446.69 498.578 445.916 499.223 446.597 500.096C447.816 501.519 451.987 502.237 453.854 501.234C456.568 499.761 454.372 498.313 453.908 496.85C454.37 496.461 455.264 496.188 454.754 495.416C454.244 494.644 452.993 494.776 452.042 494.691C452.23 494.435 452.372 494.148 452.461 493.844C452.744 490.883 454.96 491.713 456.662 492.055C458.82 492.55 460.95 493.157 463.045 493.874C464.412 494.311 464.638 495.055 463.391 495.892C458.704 498.972 455.03 503.101 450.54 506.282C449.979 506.683 449.406 506.997 449.36 507.738C445.957 507.625 442.593 506.976 439.393 505.812C438.927 505.723 438.483 505.541 438.089 505.278C437.701 505.021 437.369 504.689 437.111 504.302L437.111 504.352Z" fill="#89BFE3"/>
<path d="M453.858 496.849C454.384 498.313 456.592 499.761 453.804 501.233C451.937 502.236 447.742 501.542 446.548 500.095C445.841 499.222 446.665 498.577 446.65 497.836L447.608 497.341C449.478 498.105 451.159 497.113 452.906 496.85L453.858 496.849Z" fill="#AED1B6"/>
<path d="M452.955 496.863C451.196 497.126 449.527 498.118 447.657 497.342C448.877 496.149 450.344 495.239 451.956 494.677C451.87 495.59 451.736 496.503 452.955 496.863Z" fill="#89BFE3"/>
<path d="M452.943 496.863C451.711 496.502 451.87 495.615 451.98 494.702C452.944 494.788 454.073 494.469 454.704 495.427C455.214 496.187 454.308 496.46 453.858 496.85L452.943 496.863Z" fill="#449AD5"/>
</g>
<defs>
<filter id="filter0_d_481_255" x="333" y="411" width="280.063" height="181.061" filterUnits="userSpaceOnUse" color-interpolation-filters="sRGB">
<feFlood flood-opacity="0" result="BackgroundImageFix"/>
<feColorMatrix in="SourceAlpha" type="matrix" values="0 0 0 0 0 0 0 0 0 0 0 0 0 0 0 0 0 0 127 0" result="hardAlpha"/>
<feOffset dx="23" dy="4"/>
<feGaussianBlur stdDeviation="2"/>
<feComposite in2="hardAlpha" operator="out"/>
<feColorMatrix type="matrix" values="0 0 0 0 0 0 0 0 0 0 0 0 0 0 0 0 0 0 0.25 0"/>
<feBlend mode="normal" in2="BackgroundImageFix" result="effect1_dropShadow_481_255"/>
<feBlend mode="normal" in="SourceGraphic" in2="effect1_dropShadow_481_255" result="shape"/>
</filter>
</defs>
</svg>
