<svg width="297" height="316" viewBox="0 0 297 316" fill="none" xmlns="http://www.w3.org/2000/svg">
<path d="M10.1004 171.585C7.43347 180.237 8.15354 188.756 9.34476 197.132C10.5715 205.794 12.6606 214.331 14.3497 222.974C14.7137 224.68 14.9808 226.406 15.1497 228.142C15.3275 230.45 15.4253 232.963 12.6162 233.828C11.2687 234.257 9.82464 234.277 8.4658 233.885C7.10696 233.494 5.8941 232.708 4.97991 231.627C3.02417 229.55 2.70414 227.314 4.8199 225.113C6.93565 222.912 5.82443 220.515 5.25549 218.189C2.44634 206.337 0.197243 194.468 0.481714 182.278C0.659508 174.793 1.77961 167.334 5.94 161.141C9.71813 155.527 7.99353 149.86 7.5846 144.353C5.11326 110.991 14.1008 80.9698 34.0937 54.6558C63.3587 16.134 103.033 -1.83045 151.011 0.495301C213.177 3.46264 267.147 53.7915 275.859 115.446C276.365 119.082 277.485 122.78 277.201 126.353C276.312 137.474 280.801 146.991 284.624 156.971C290.847 173.251 291.238 190.556 291.238 207.763C291.238 210.748 291.238 213.734 291.238 216.719C291.238 218.733 291.327 220.283 293.851 221.076C297.469 222.261 297.229 224.721 294.616 226.939C293.123 228.162 291.498 229.211 289.771 230.067C286.126 231.939 283.548 230.602 283.281 226.503C283.033 223.019 283.219 219.49 283.219 215.979C283.219 200.376 283.406 184.791 280.152 169.366C279.602 166.016 278.556 162.766 277.05 159.724C274.312 161.712 274.685 164.599 274.125 166.853C266.421 198.119 249.951 223.693 224.716 243.576C221.525 246.071 220.582 247.978 222.502 251.792C228.29 263.287 226.725 275.299 224.28 287.311C222.618 295.598 223.062 296.088 231.188 296.605C233.366 296.748 236.379 296.222 236.762 299.207C237.144 302.192 234.148 302.584 232.077 303.297C222.182 306.683 215.106 301.185 216.173 290.768C216.635 286.251 217.88 281.857 218.68 277.34C219.929 270.396 219.293 263.244 216.84 256.631C215.328 252.451 213.79 251.284 209.355 253.868C193.662 263.2 176.156 269.049 158.016 271.022C128.965 274.078 101.584 268.83 76.0443 254.456C70.1415 251.142 69.9371 251.266 66.7279 257.344C62.7275 264.909 63.3587 272.581 65.9011 280.298C68.3191 287.614 71.3594 294.752 73.3596 302.183C75.4931 310.132 69.4926 316.494 61.3318 315.746C59.0916 315.541 57.047 314.917 56.5492 312.458C55.9891 309.722 58.1138 308.51 60.1584 308.127C65.9812 307.04 65.8478 303.734 64.1143 299.269C61.963 293.718 60.0962 288.051 58.1404 282.428C54.309 271.423 55.6869 260.952 61.9097 251.24C63.8121 248.263 63.7765 246.597 60.8696 244.396C37.4007 226.654 20.7503 204.038 12.4295 175.568C12.1114 174.574 11.7253 173.604 11.2738 172.663C11.096 172.378 10.7493 172.182 10.1004 171.585ZM33.1603 123.965C37.7119 124.491 41.5255 122.397 44.957 119.037C48.7618 115.312 51.4731 110.848 54.0689 106.286C59.5006 96.7332 64.5944 86.9044 71.8484 78.5995C79.1024 70.2945 88.0543 63.7628 97.7797 58.4163C107.505 53.0697 117.817 49.2915 126.085 41.6281C128.344 39.6806 130.061 37.1791 131.067 34.3678C132.074 31.5565 132.336 28.5315 131.827 25.5884C131.125 20.6161 127.222 18.1567 122.938 16.8914C116.405 14.8409 109.378 15.0258 102.962 17.4171C86.0719 24.0469 70.0704 32.637 56.9492 45.1033C38.9386 62.1677 24.804 81.8074 20.8481 107.355C19.5768 115.535 24.9107 123.894 33.1603 123.947V123.965ZM174.285 245.011C175.858 245.011 177.432 245.073 179.005 245.011C179.867 244.915 180.717 244.727 181.539 244.449C199.718 239.504 213.542 227.661 226.414 214.856C238.024 203.317 245.705 188.845 252.532 174.026C255.161 168.474 256.324 162.337 255.91 156.205C255.457 149.967 252.265 145.066 246.602 142.651C242.575 140.931 237.935 140.807 234.281 144.193C230.45 147.757 226.752 151.321 224.503 156.329C216.066 174.828 203.167 189.024 185.006 198.745C174.676 204.27 164.097 210.089 157.163 220.345C153.972 225.05 153.092 229.542 155.758 235.031C159.652 243.042 166.355 244.94 174.285 245.011ZM80.4714 205.277C79.5113 195.475 73.8397 186.635 65.6167 178.981C61.2252 174.882 56.318 172.975 50.5042 173.465C45.8548 173.857 43.3035 176.548 42.6723 181.173C40.4943 197.284 52.7533 212.468 63.5187 217.565C72.444 221.807 80.3736 216.79 80.4714 205.277ZM138.761 175.327C146.593 175.39 152.567 171.558 153.749 165.65C154.22 163.262 153.963 161.017 151.438 159.867C148.913 158.718 147.224 160.072 145.811 162.157C141.917 167.887 136.103 168.074 131.801 162.603C130.396 160.82 129.285 158.415 126.467 159.742C123.649 161.07 123.711 163.476 124.404 166.051C125.8 171.273 131.97 175.274 138.761 175.327ZM83.9473 113.04C82.8627 110.367 83.2094 106.304 78.6668 106.054C75.7243 105.894 74.6309 108.317 74.8798 110.643C75.2265 113.958 76.2843 117.513 80.3914 117.772C82.8272 117.932 83.6717 115.624 83.9473 113.04ZM202.687 108.825C202.598 112.033 203.967 113.985 206.839 114.172C210.306 114.412 211.284 111.864 211.328 108.995C211.372 106.125 210.27 103.39 207.088 103.479C204.056 103.586 202.936 106.277 202.687 108.825Z" fill="#EC466D"/>
</svg>
