<svg width="32" height="32" viewBox="0 0 32 32" fill="none" xmlns="http://www.w3.org/2000/svg">
<path d="M1.62488 31.6249L30.3749 31.6249C31.0663 31.6249 31.6249 31.0663 31.6249 30.3749L31.6249 1.62488C31.6249 0.933475 31.0663 0.374881 30.3749 0.374881L1.62488 0.374878C0.933471 0.374878 0.374878 0.933472 0.374878 1.62488L0.374875 30.3749C0.374875 31.0663 0.933469 31.6249 1.62488 31.6249ZM21.6249 6.93738C21.6249 6.7655 21.7655 6.62488 21.9374 6.62488L25.0624 6.62488C25.2343 6.62488 25.3749 6.7655 25.3749 6.93738L25.3749 25.0624C25.3749 25.2343 25.2343 25.3749 25.0624 25.3749L21.9374 25.3749C21.7655 25.3749 21.6249 25.2343 21.6249 25.0624L21.6249 6.93738ZM14.1249 17.8749C14.1249 17.703 14.2655 17.5624 14.4374 17.5624L17.5624 17.5624C17.7343 17.5624 17.8749 17.703 17.8749 17.8749L17.8749 25.0624C17.8749 25.2343 17.7343 25.3749 17.5624 25.3749L14.4374 25.3749C14.2655 25.3749 14.1249 25.2343 14.1249 25.0624L14.1249 17.8749ZM6.62488 15.0624C6.62488 14.8905 6.7655 14.7499 6.93738 14.7499L10.0624 14.7499C10.2343 14.7499 10.3749 14.8905 10.3749 15.0624L10.3749 25.0624C10.3749 25.2343 10.2343 25.3749 10.0624 25.3749L6.93738 25.3749C6.7655 25.3749 6.62488 25.2343 6.62488 25.0624L6.62488 15.0624Z" fill="#A1A1A1"/>
</svg>
