<svg width="22" height="22" viewBox="0 0 22 22" fill="none" xmlns="http://www.w3.org/2000/svg">
<circle cx="10.6809" cy="10.7428" r="8.39286" fill="#F6B545"/>
<path d="M10.6396 21.2258C4.71181 21.2258 0 16.5258 0 10.6129C0 4.70003 4.71181 2.47955e-05 10.6396 2.47955e-05C16.5673 2.47955e-05 21.2791 4.70003 21.2791 10.6129C21.2791 16.5258 16.5673 21.2258 10.6396 21.2258ZM10.6396 3.0323C6.38373 3.0323 3.03989 6.36777 3.03989 10.6129C3.03989 14.8581 6.38373 18.1936 10.6396 18.1936C14.8954 18.1936 18.2392 14.8581 18.2392 10.6129C18.2392 6.36777 14.8954 3.0323 10.6396 3.0323Z" fill="#FFCB5B"/>
<path d="M10.6396 0.533995C16.5673 0.387877 21.2791 5.06223 21.2791 10.6129H21.1271C20.3672 10.6129 19.7591 10.0286 19.6072 9.29824C19.3033 7.25323 18.2393 5.35434 16.7194 4.03967C15.5034 2.87111 13.8315 2.14078 12.0076 1.84854C11.2476 1.84867 10.6396 1.26445 10.6396 0.533995Z" fill="#F6B545"/>
<path d="M10.6396 21.2223C4.71181 21.3761 0 16.4557 0 10.6129H0.152041C0.911982 10.6129 1.52001 11.228 1.67192 11.9968C1.97587 14.1494 3.03989 16.1483 4.55978 17.5321C5.77571 18.7622 7.44763 19.531 9.27159 19.8386C10.0317 19.8384 10.6396 20.4535 10.6396 21.2223Z" fill="#FFE27A"/>
<path d="M4.23798 9.79278C4.23798 13.845 7.52547 17.0289 11.7096 17.0289C13.5028 17.0289 15.1466 16.4499 16.4913 15.2922C14.9971 17.0289 13.0544 18.0419 10.6635 18.0419C6.47938 18.0419 3.19189 14.858 3.19189 10.8058C3.19189 8.49026 4.23785 6.60891 5.8816 5.30639C4.83564 6.46415 4.23798 8.05608 4.23798 9.79278Z" fill="#F19920"/>
<path d="M15.064 5.8371C14.9083 5.8371 14.7527 5.8371 14.5969 5.99929C14.2856 6.32353 14.2856 6.80997 14.5969 7.13421C15.5312 8.10709 15.9983 9.5664 15.9983 10.8635C15.9983 11.35 16.3097 11.6742 16.7768 11.6742C17.2439 11.6742 17.5553 11.35 17.5553 10.8635C17.5553 9.07996 16.9324 7.29641 15.8425 5.99929C15.5312 5.8371 15.2198 5.8371 15.064 5.8371Z" fill="#FFCB5B"/>
<path d="M10.3736 5.83706C9.57557 5.83706 9.04364 6.4739 9.04364 7.42896V13.7968C9.04364 14.752 9.57569 15.3887 10.3736 15.3887C11.1716 15.3887 11.7035 14.7518 11.7035 13.7968V7.42909C11.7036 6.4739 11.1716 5.83706 10.3736 5.83706Z" fill="#F19920"/>
</svg>
