<svg width="32" height="35" viewBox="0 0 32 35" fill="none" xmlns="http://www.w3.org/2000/svg">
<path d="M30.7985 7.4615C30.9744 7.54707 31.1245 7.68911 31.2188 7.87757C31.2232 7.88655 31.2276 7.89557 31.2317 7.90463C31.2409 7.92449 31.2493 7.94469 31.257 7.9652C31.2995 8.07802 31.3184 8.1939 31.316 8.308V14.7368C31.316 15.2455 30.9036 15.6579 30.3949 15.6579C29.8863 15.6579 29.4739 15.2455 29.4739 14.7368V9.77977L25.2805 11.8764C24.8255 12.1039 24.2723 11.9195 24.0448 11.4645C23.8173 11.0096 24.0017 10.4563 24.4567 10.2288L28.3354 8.28947L24.4567 6.35013C24.0017 6.12264 23.8173 5.56939 24.0448 5.11441C24.2723 4.65943 24.8255 4.47501 25.2805 4.7025L30.7985 7.4615ZM31.316 26.692C31.3188 26.8272 31.2918 26.9649 31.2317 27.0954C31.1866 27.1934 31.1245 27.2831 31.0481 27.36C30.9705 27.437 30.8879 27.495 30.7985 27.5385L25.2805 30.2975C24.8255 30.525 24.2723 30.3406 24.0448 29.8856C23.8173 29.4306 24.0017 28.8774 24.4567 28.6499L28.3354 26.7105L24.4567 24.7712C24.0017 24.5437 23.8173 23.9904 24.0448 23.5355C24.2723 23.0805 24.8255 22.8961 25.2805 23.1236L29.4739 25.2202V20.2632C29.4739 19.7545 29.8863 19.3421 30.3949 19.3421C30.9036 19.3421 31.316 19.7545 31.316 20.2632V26.692ZM2.98079 26.7105L6.85948 28.6499C7.31446 28.8774 7.49887 29.4306 7.27138 29.8856C7.04389 30.3406 6.49064 30.525 6.03566 30.2975L0.517669 27.5385C0.341791 27.4529 0.191669 27.3109 0.0974398 27.1224C0.0929472 27.1134 0.0886156 27.1044 0.0844432 27.0954C0.0753079 27.0755 0.0668701 27.0553 0.0591523 27.0348C0.0166588 26.922 -0.00219078 26.8061 0.000201761 26.692V20.2632C0.000201761 19.7545 0.412571 19.3421 0.921254 19.3421C1.42994 19.3421 1.84231 19.7545 1.84231 20.2632V25.2202L6.03566 23.1236C6.49064 22.8961 7.04389 23.0805 7.27138 23.5355C7.49887 23.9904 7.31446 24.5437 6.85948 24.7712L2.98079 26.7105ZM1.84231 9.77977V14.7368C1.84231 15.2455 1.42994 15.6579 0.921254 15.6579C0.412571 15.6579 0.000201761 15.2455 0.000201761 14.7368V8.308C-0.00263359 8.17278 0.0243636 8.03507 0.0844432 7.90463C0.129556 7.80658 0.191678 7.71691 0.268094 7.64004C0.345647 7.56299 0.428336 7.50496 0.517669 7.4615L6.03566 4.7025C6.49064 4.47501 7.04389 4.65943 7.27138 5.11441C7.49887 5.56939 7.31446 6.12264 6.85948 6.35013L2.98079 8.28947L6.85948 10.2288C7.31446 10.4563 7.49887 11.0096 7.27138 11.4645C7.04389 11.9195 6.49064 12.1039 6.03566 11.8764L1.84231 9.77977ZM15.2296 0.105525C15.3576 0.0381381 15.5034 0 15.6581 0C15.8128 0 15.9586 0.0381381 16.0866 0.105525L21.5963 2.8604C22.0513 3.08789 22.2357 3.64114 22.0082 4.09612C21.7807 4.5511 21.2275 4.73552 20.7725 4.50803L16.5791 2.41135V7.36842C16.5791 7.8771 16.1668 8.28947 15.6581 8.28947C15.1494 8.28947 14.737 7.8771 14.737 7.36842V2.41135L10.5437 4.50803C10.0887 4.73552 9.53546 4.5511 9.30797 4.09612C9.08048 3.64114 9.26489 3.08789 9.71987 2.8604L15.2296 0.105525ZM16.0866 34.8945C15.9586 34.9619 15.8128 35 15.6581 35C15.5034 35 15.3576 34.9619 15.2296 34.8945L9.71987 32.1396C9.26489 31.9121 9.08048 31.3589 9.30797 30.9039C9.53546 30.4489 10.0887 30.2645 10.5437 30.492L14.737 32.5887V27.6316C14.737 27.1229 15.1494 26.7105 15.6581 26.7105C16.1668 26.7105 16.5791 27.1229 16.5791 27.6316V32.5887L20.7725 30.492C21.2275 30.2645 21.7807 30.4489 22.0082 30.9039C22.2357 31.3589 22.0513 31.9121 21.5963 32.1396L16.0866 34.8945ZM16.5791 16.2271V21.1842C16.5791 21.6929 16.1668 22.1053 15.6581 22.1053C15.1494 22.1053 14.737 21.6929 14.737 21.1842V16.2271L9.71987 13.7186C9.26489 13.4911 9.08048 12.9378 9.30797 12.4828C9.53546 12.0278 10.0887 11.8434 10.5437 12.0709L15.6581 14.6281L20.7725 12.0709C21.2275 11.8434 21.7807 12.0278 22.0082 12.4828C22.2357 12.9378 22.0513 13.4911 21.5963 13.7186L16.5791 16.2271Z" fill="#737171"/>
</svg>
