<svg width="334" height="590" viewBox="0 0 334 590" fill="none" xmlns="http://www.w3.org/2000/svg">
<rect width="334" height="590" rx="44" fill="#C4C4C4" fill-opacity="0.21"/>
<ellipse cx="310" cy="218.5" rx="10" ry="10.5" fill="#3C885E"/>
<ellipse cx="30" cy="340.5" rx="10" ry="10.5" fill="#3C885E"/>
<ellipse cx="67" cy="127.5" rx="10" ry="10.5" fill="#3C885E"/>
<ellipse cx="40" cy="101.5" rx="3" ry="3.5" fill="#3C885E"/>
<ellipse cx="301" cy="445.5" rx="3" ry="3.5" fill="#3C885E"/>
<ellipse cx="25" cy="274.5" rx="3" ry="3.5" fill="#3C885E"/>
<path d="M48.1661 64.1285L48.4302 64.553L48.1661 64.1285ZM45.363 65.8726L44.9385 66.1368L45.2026 66.5613L45.6271 66.2972L45.363 65.8726ZM43.619 63.0698L43.1945 63.3339L43.619 63.0698ZM35.1284 68.3527L35.5529 68.0886L35.1284 68.3527ZM36.8724 71.1556L37.1366 71.5801L37.5611 71.316L37.2969 70.8915L36.8724 71.1556ZM39.3527 81.3901L39.0885 80.9656L39.3527 81.3901ZM42.1554 79.6462L42.5799 79.3821L42.3158 78.9575L41.8913 79.2217L42.1554 79.6462ZM50.646 74.3632L50.3818 73.9387L49.9573 74.2028L50.2215 74.6274L50.646 74.3632ZM54.6283 65.9964C55.9413 68.1066 55.2951 70.8816 53.1849 72.1946L53.7132 73.0436C56.2923 71.4389 57.0821 68.0472 55.4774 65.4681L54.6283 65.9964ZM48.4302 64.553C50.5404 63.2401 53.3154 63.8863 54.6283 65.9964L55.4774 65.4681C53.8727 62.8891 50.481 62.0992 47.9019 63.704L48.4302 64.553ZM45.6271 66.2972L48.4302 64.553L47.9019 63.704L45.0988 65.4481L45.6271 66.2972ZM43.1945 63.3339L44.9385 66.1368L45.7875 65.6085L44.0435 62.8056L43.1945 63.3339ZM36.9964 61.8905C39.1065 60.5775 41.8815 61.2238 43.1945 63.3339L44.0435 62.8056C42.4388 60.2265 39.0471 59.4367 36.4681 61.0414L36.9964 61.8905ZM35.5529 68.0886C34.24 65.9784 34.8862 63.2035 36.9964 61.8905L36.4681 61.0414C33.889 62.6462 33.0991 66.0378 34.7039 68.6169L35.5529 68.0886ZM37.2969 70.8915L35.5529 68.0886L34.7039 68.6169L36.4479 71.4198L37.2969 70.8915ZM34.3339 73.324L37.1366 71.5801L36.6083 70.7311L33.8056 72.475L34.3339 73.324ZM32.8904 79.5221C31.5775 77.412 32.2237 74.637 34.3339 73.324L33.8056 72.475C31.2265 74.0797 30.4366 77.4714 32.0414 80.0504L32.8904 79.5221ZM39.0885 80.9656C36.9784 82.2785 34.2034 81.6323 32.8904 79.5221L32.0414 80.0504C33.6461 82.6295 37.0378 83.4194 39.6168 81.8146L39.0885 80.9656ZM41.8913 79.2217L39.0885 80.9656L39.6168 81.8146L42.4196 80.0707L41.8913 79.2217ZM44.324 82.185L42.5799 79.3821L41.7309 79.9104L43.4749 82.7133L44.324 82.185ZM50.5221 83.6284C48.4119 84.9414 45.6369 84.2951 44.324 82.185L43.4749 82.7133C45.0796 85.2923 48.4713 86.0822 51.0504 84.4774L50.5221 83.6284ZM51.9655 77.4303C53.2785 79.5404 52.6322 82.3154 50.5221 83.6284L51.0504 84.4774C53.6294 82.8727 54.4193 79.481 52.8145 76.902L51.9655 77.4303ZM50.2215 74.6274L51.9655 77.4303L52.8145 76.902L51.0705 74.0991L50.2215 74.6274ZM53.1849 72.1946L50.3818 73.9387L50.9101 74.7877L53.7132 73.0436L53.1849 72.1946Z" fill="black" fill-opacity="0.3"/>
<path d="M281.363 423.873L280.938 424.137L281.203 424.561L281.627 424.297L281.363 423.873ZM279.619 421.07L279.194 421.334L279.619 421.07ZM272.872 429.156L273.137 429.58L273.561 429.316L273.297 428.891L272.872 429.156ZM275.353 439.39L275.089 438.966L275.353 439.39ZM278.155 437.646L278.58 437.382L278.316 436.958L277.891 437.222L278.155 437.646ZM279.899 440.449L280.324 440.185L279.899 440.449ZM288.39 435.166L288.815 434.902L288.39 435.166ZM286.646 432.363L286.382 431.939L285.957 432.203L286.221 432.627L286.646 432.363ZM290.628 423.996C291.941 426.107 291.295 428.882 289.185 430.195L289.713 431.044C292.292 429.439 293.082 426.047 291.477 423.468L290.628 423.996ZM284.43 422.553C286.54 421.24 289.315 421.886 290.628 423.996L291.477 423.468C289.873 420.889 286.481 420.099 283.902 421.704L284.43 422.553ZM281.627 424.297L284.43 422.553L283.902 421.704L281.099 423.448L281.627 424.297ZM279.194 421.334L280.938 424.137L281.788 423.608L280.044 420.806L279.194 421.334ZM272.996 419.89C275.107 418.578 277.882 419.224 279.194 421.334L280.044 420.806C278.439 418.227 275.047 417.437 272.468 419.041L272.996 419.89ZM271.553 426.089C270.24 423.978 270.886 421.203 272.996 419.89L272.468 419.041C269.889 420.646 269.099 424.038 270.704 426.617L271.553 426.089ZM273.297 428.891L271.553 426.089L270.704 426.617L272.448 429.42L273.297 428.891ZM270.334 431.324L273.137 429.58L272.608 428.731L269.806 430.475L270.334 431.324ZM268.89 437.522C267.577 435.412 268.224 432.637 270.334 431.324L269.806 430.475C267.226 432.08 266.437 435.471 268.041 438.05L268.89 437.522ZM275.089 438.966C272.978 440.279 270.203 439.632 268.89 437.522L268.041 438.05C269.646 440.63 273.038 441.419 275.617 439.815L275.089 438.966ZM277.891 437.222L275.089 438.966L275.617 439.815L278.42 438.071L277.891 437.222ZM280.324 440.185L278.58 437.382L277.731 437.91L279.475 440.713L280.324 440.185ZM286.522 441.628C284.412 442.941 281.637 442.295 280.324 440.185L279.475 440.713C281.08 443.292 284.471 444.082 287.05 442.477L286.522 441.628ZM287.965 435.43C289.278 437.54 288.632 440.315 286.522 441.628L287.05 442.477C289.629 440.873 290.419 437.481 288.815 434.902L287.965 435.43ZM286.221 432.627L287.965 435.43L288.815 434.902L287.071 432.099L286.221 432.627ZM289.185 430.195L286.382 431.939L286.91 432.788L289.713 431.044L289.185 430.195Z" fill="black" fill-opacity="0.3"/>
</svg>
