<svg width="51" height="41" viewBox="0 0 51 41" fill="none" xmlns="http://www.w3.org/2000/svg">
<path d="M36.5616 12.6495H14.1816C12.3374 12.5998 10.502 12.9202 8.78371 13.5917C7.06541 14.2631 5.49905 15.272 4.17713 16.5588C2.8552 17.8457 1.8045 19.3843 1.08707 21.0839C0.36963 22.7835 0 24.6097 0 26.4545C0 28.2993 0.36963 30.1255 1.08707 31.8251C1.8045 33.5247 2.8552 35.0633 4.17713 36.3501C5.49905 37.637 7.06541 38.6459 8.78371 39.3173C10.502 39.9888 12.3374 40.3091 14.1816 40.2595H36.5616C38.4057 40.3091 40.2412 39.9888 41.9595 39.3173C43.6778 38.6459 45.2441 37.637 46.566 36.3501C47.888 35.0633 48.9387 33.5247 49.6561 31.8251C50.3735 30.1255 50.7432 28.2993 50.7432 26.4545C50.7432 24.6097 50.3735 22.7835 49.6561 21.0839C48.9387 19.3843 47.888 17.8457 46.566 16.5588C45.2441 15.272 43.6778 14.2631 41.9595 13.5917C40.2412 12.9202 38.4057 12.5998 36.5616 12.6495ZM16.1916 27.4495H13.6616V29.9795C13.6616 30.2447 13.5562 30.4991 13.3687 30.6866C13.1812 30.8741 12.9268 30.9795 12.6616 30.9795C12.3964 30.9795 12.142 30.8741 11.9545 30.6866C11.7669 30.4991 11.6616 30.2447 11.6616 29.9795V27.4495H9.13158C8.86637 27.4495 8.61201 27.3441 8.42448 27.1566C8.23694 26.9691 8.13158 26.7147 8.13158 26.4495C8.13158 26.1843 8.23694 25.9299 8.42448 25.7424C8.61201 25.5548 8.86637 25.4495 9.13158 25.4495H11.6616V22.9195C11.6616 22.6543 11.7669 22.3999 11.9545 22.2124C12.142 22.0248 12.3964 21.9195 12.6616 21.9195C12.9268 21.9195 13.1812 22.0248 13.3687 22.2124C13.5562 22.3999 13.6616 22.6543 13.6616 22.9195V25.4495H16.1916C16.4568 25.4495 16.7112 25.5548 16.8987 25.7424C17.0862 25.9299 17.1916 26.1843 17.1916 26.4495C17.1916 26.7147 17.0862 26.9691 16.8987 27.1566C16.7112 27.3441 16.4568 27.4495 16.1916 27.4495ZM36.1916 29.9195C35.9044 29.9195 35.6236 29.8342 35.385 29.6744C35.1463 29.5146 34.9605 29.2876 34.851 29.022C34.7416 28.7565 34.7135 28.4645 34.7702 28.1829C34.827 27.9014 34.9661 27.643 35.1699 27.4406C35.3737 27.2383 35.633 27.101 35.9149 27.0461C36.1968 26.9913 36.4887 27.0215 36.7534 27.1328C37.0182 27.244 37.244 27.4314 37.4021 27.6712C37.5602 27.911 37.6436 28.1923 37.6416 28.4795C37.6389 28.8623 37.485 29.2286 37.2134 29.4983C36.9417 29.7681 36.5744 29.9195 36.1916 29.9195ZM36.1916 25.2395C35.9044 25.2395 35.6236 25.1542 35.385 24.9944C35.1463 24.8346 34.9605 24.6076 34.851 24.342C34.7416 24.0765 34.7135 23.7845 34.7702 23.5029C34.827 23.2214 34.9661 22.963 35.1699 22.7606C35.3737 22.5583 35.633 22.421 35.9149 22.3661C36.1968 22.3113 36.4887 22.3415 36.7534 22.4528C37.0182 22.564 37.244 22.7514 37.4021 22.9912C37.5602 23.231 37.6436 23.5123 37.6416 23.7995C37.6389 24.1823 37.485 24.5486 37.2134 24.8183C36.9417 25.0881 36.5744 25.2395 36.1916 25.2395ZM40.8816 29.9195C40.5962 29.9116 40.3195 29.8197 40.0862 29.6552C39.8529 29.4907 39.6733 29.261 39.5699 28.9949C39.4666 28.7288 39.4441 28.4381 39.5053 28.1592C39.5665 27.8804 39.7087 27.6258 39.914 27.4274C40.1192 27.229 40.3785 27.0956 40.6593 27.044C40.94 26.9923 41.2298 27.0247 41.4923 27.1371C41.7547 27.2494 41.9781 27.4367 42.1346 27.6755C42.291 27.9143 42.3734 28.194 42.3716 28.4795C42.3703 28.6725 42.3306 28.8633 42.2546 29.0407C42.1787 29.2181 42.0681 29.3786 41.9293 29.5127C41.7905 29.6468 41.6264 29.7519 41.4464 29.8217C41.2665 29.8916 41.0745 29.9248 40.8816 29.9195ZM40.8816 25.2395C40.5962 25.2316 40.3195 25.1397 40.0862 24.9752C39.8529 24.8107 39.6733 24.581 39.5699 24.3149C39.4666 24.0488 39.4441 23.758 39.5053 23.4792C39.5665 23.2004 39.7087 22.9458 39.914 22.7474C40.1192 22.549 40.3785 22.4156 40.6593 22.364C40.94 22.3123 41.2298 22.3447 41.4923 22.4571C41.7547 22.5694 41.9781 22.7567 42.1346 22.9955C42.291 23.2343 42.3734 23.514 42.3716 23.7995C42.3703 23.9925 42.3306 24.1833 42.2546 24.3607C42.1787 24.5381 42.0681 24.6986 41.9293 24.8327C41.7905 24.9668 41.6264 25.0719 41.4464 25.1417C41.2665 25.2116 41.0745 25.2448 40.8816 25.2395Z" fill="#A3A3A3"/>
<path d="M20.0457 10.65H30.1741V1C30.1741 0.734784 30.0687 0.48043 29.8812 0.292893C29.6936 0.105357 29.4393 0 21.0457 0C20.7804 0 20.5261 0.105357 20.3385 0.292893C20.151 0.48043 20.0457 0.734784 20.0457 1V10.65Z" fill="#A3A3A3"/>
</svg>
