<svg width="1218" height="1141" viewBox="0 0 1218 1141" fill="none" xmlns="http://www.w3.org/2000/svg">
<path d="M376.625 301.378H213.844C189.699 301.378 170.125 320.952 170.125 345.097C170.125 369.242 189.699 388.815 213.844 388.815H287.328C311.987 388.815 331.977 408.805 331.977 433.464C331.977 458.123 311.987 478.113 287.328 478.113H178.497C155.379 478.113 136.639 496.853 136.639 519.971C136.639 543.088 155.379 561.829 178.497 561.829H826.832H1011.94C1035.06 561.829 1053.8 543.088 1053.8 519.971C1053.8 496.853 1035.06 478.113 1011.94 478.113H917.99C893.331 478.113 873.341 458.123 873.341 433.464C873.341 408.805 893.331 388.815 917.99 388.815H960.778H1077.05C1101.2 388.815 1120.77 369.242 1120.77 345.097C1120.77 320.952 1101.2 301.378 1077.05 301.378H744.977C726.482 301.378 711.49 286.386 711.49 267.892C711.49 249.398 726.482 234.405 744.977 234.405H987.754C1012.93 234.405 1033.33 213.999 1033.33 188.827C1033.33 163.654 1012.93 143.248 987.753 143.248H815.67C797.176 143.248 782.184 128.255 782.184 109.761C782.184 91.2672 797.176 76.2748 815.67 76.2748H835.204C856.267 76.2748 873.341 59.2001 873.341 38.1374C873.341 17.0747 856.267 0 835.204 0H370.114C349.051 0 331.977 17.0747 331.977 38.1374C331.977 59.2001 349.051 76.2748 370.114 76.2748H410.112C428.606 76.2748 443.598 91.2672 443.598 109.761C443.598 128.255 428.606 143.248 410.112 143.248H280.817C255.644 143.248 235.238 163.654 235.238 188.827C235.238 213.999 255.644 234.405 280.817 234.405H376.625C395.119 234.405 410.112 249.398 410.112 267.892C410.112 286.386 395.119 301.378 376.625 301.378Z" fill="#C4C4C4"/>
<path d="M802.648 959.946L735.675 984.13H832.413L802.648 959.946Z" fill="#8A6745"/>
<path d="M832.413 984.13H735.675L759.859 1021.34L782.184 1030.64L791.485 1015.76H823.111L832.413 984.13Z" fill="#60472E"/>
<path d="M1160.03 822.279L1029.61 869.376H1218L1160.03 822.279Z" fill="#8A6745"/>
<path d="M1218 869.377H1029.61L1076.71 941.833L1120.18 959.947L1138.3 930.965H1199.88L1218 869.377Z" fill="#60472E"/>
<path d="M106.873 799.955L39.8999 824.14H136.639L106.873 799.955Z" fill="#8A6745"/>
<path d="M136.639 824.14H39.8999L64.0846 861.347L86.4089 870.649L95.7107 855.766H127.337L136.639 824.14Z" fill="#60472E"/>
<path d="M242.25 997.153L304.071 1019.48H214.774L242.25 997.153Z" fill="#8A6745"/>
<path d="M214.774 1019.48H304.071L281.747 1053.82L261.14 1062.41L252.553 1048.67H223.36L214.774 1019.48Z" fill="#60472E"/>
<ellipse cx="97.571" cy="978.549" rx="24.1847" ry="26.045" fill="#C4C4C4" fill-opacity="0.49"/>
<ellipse cx="1120.77" cy="186.036" rx="24.1847" ry="26.045" fill="#C4C4C4" fill-opacity="0.49"/>
<ellipse cx="123.616" cy="238.126" rx="24.1847" ry="26.045" fill="#C4C4C4" fill-opacity="0.49"/>
<ellipse cx="51.0621" cy="522.761" rx="37.2072" ry="39.0676" fill="#3C885E"/>
<ellipse cx="992.404" cy="1047.38" rx="37.2072" ry="39.0676" fill="#3C885E"/>
<path d="M37.0415 934.576L36.7774 934.152L37.0415 934.576ZM25.7255 929.84L25.301 930.104L25.5651 930.528L25.9896 930.264L25.7255 929.84ZM13.4823 929.092L13.0578 929.356L13.4823 929.092ZM17.2349 935.123L17.4991 935.547L17.9236 935.283L17.6594 934.858L17.2349 935.123ZM11.2038 938.875L10.9396 938.451L11.2038 938.875ZM16.4867 947.366L16.2226 946.941L16.4867 947.366ZM22.5179 943.613L22.9424 943.349L22.6783 942.925L22.2537 943.189L22.5179 943.613ZM34.7625 944.363L35.187 944.099L34.7625 944.363ZM31.0085 938.33L30.7443 937.906L30.3198 938.17L30.584 938.594L31.0085 938.33ZM38.2208 927.954C39.5338 930.064 38.8875 932.839 36.7774 934.152L37.3057 935.001C39.8847 933.396 40.6746 930.004 39.0698 927.425L38.2208 927.954ZM32.0227 926.51C34.1328 925.197 36.9078 925.844 38.2208 927.954L39.0698 927.425C37.4651 924.846 34.0735 924.056 31.4944 925.661L32.0227 926.51ZM25.9896 930.264L32.0227 926.51L31.4944 925.661L25.4613 929.415L25.9896 930.264ZM21.5484 924.073L25.301 930.104L26.15 929.575L22.3974 923.544L21.5484 924.073ZM15.3503 922.629C17.4604 921.316 20.2354 921.963 21.5484 924.073L22.3974 923.544C20.7927 920.965 17.401 920.176 14.822 921.78L15.3503 922.629ZM13.9069 928.827C12.5939 926.717 13.2401 923.942 15.3503 922.629L14.822 921.78C12.2429 923.385 11.4531 926.777 13.0578 929.356L13.9069 928.827ZM17.6594 934.858L13.9069 928.827L13.0578 929.356L16.8104 935.387L17.6594 934.858ZM11.4679 939.3L17.4991 935.547L16.9708 934.698L10.9396 938.451L11.4679 939.3ZM10.0245 945.498C8.71151 943.388 9.35775 940.613 11.4679 939.3L10.9396 938.451C8.36053 940.056 7.57068 943.447 9.17542 946.026L10.0245 945.498ZM16.2226 946.941C14.1124 948.254 11.3375 947.608 10.0245 945.498L9.17542 946.026C10.7802 948.605 14.1718 949.395 16.7509 947.79L16.2226 946.941ZM22.2537 943.189L16.2226 946.941L16.7509 947.79L22.782 944.038L22.2537 943.189ZM26.6964 949.382L22.9424 943.349L22.0934 943.877L25.8473 949.911L26.6964 949.382ZM32.8945 950.826C30.7844 952.139 28.0094 951.492 26.6964 949.382L25.8473 949.911C27.4521 952.49 30.8437 953.279 33.4228 951.675L32.8945 950.826ZM34.3379 944.628C35.6509 946.738 35.0047 949.513 32.8945 950.826L33.4228 951.675C36.0019 950.07 36.7917 946.678 35.187 944.099L34.3379 944.628ZM30.584 938.594L34.3379 944.628L35.187 944.099L31.433 938.066L30.584 938.594ZM36.7774 934.152L30.7443 937.906L31.2726 938.755L37.3057 935.001L36.7774 934.152Z" fill="black" fill-opacity="0.3"/>
<path d="M1197.76 410.041L1197.5 409.617L1197.76 410.041ZM1192.48 401.551L1192.22 401.126L1192.48 401.551ZM1186.59 405.216L1186.17 405.48L1186.43 405.905L1186.85 405.64L1186.59 405.216ZM1178.1 410.499L1178.36 410.923L1178.79 410.659L1178.52 410.235L1178.1 410.499ZM1172.21 414.163L1172.48 414.588L1172.21 414.163ZM1177.49 422.654L1177.76 423.078L1177.49 422.654ZM1183.38 418.989L1183.81 418.725L1183.54 418.301L1183.12 418.565L1183.38 418.989ZM1187.05 424.88L1187.47 424.616L1187.05 424.88ZM1191.87 413.706L1191.61 413.282L1191.18 413.546L1191.45 413.971L1191.87 413.706ZM1198.94 403.419C1200.26 405.529 1199.61 408.304 1197.5 409.617L1198.03 410.466C1200.61 408.861 1201.4 405.47 1199.79 402.891L1198.94 403.419ZM1192.74 401.975C1194.85 400.662 1197.63 401.309 1198.94 403.419L1199.79 402.891C1198.19 400.311 1194.8 399.522 1192.22 401.126L1192.74 401.975ZM1186.85 405.64L1192.74 401.975L1192.22 401.126L1186.33 404.791L1186.85 405.64ZM1182.5 399.591L1186.17 405.48L1187.01 404.952L1183.35 399.063L1182.5 399.591ZM1176.3 398.148C1178.41 396.835 1181.19 397.481 1182.5 399.591L1183.35 399.063C1181.75 396.484 1178.35 395.694 1175.78 397.299L1176.3 398.148ZM1174.86 404.346C1173.55 402.236 1174.19 399.461 1176.3 398.148L1175.78 397.299C1173.2 398.904 1172.41 402.295 1174.01 404.874L1174.86 404.346ZM1178.52 410.235L1174.86 404.346L1174.01 404.874L1177.68 410.763L1178.52 410.235ZM1172.48 414.588L1178.36 410.923L1177.84 410.074L1171.95 413.738L1172.48 414.588ZM1171.03 420.786C1169.72 418.675 1170.37 415.9 1172.48 414.588L1171.95 413.738C1169.37 415.343 1168.58 418.735 1170.18 421.314L1171.03 420.786ZM1177.23 422.229C1175.12 423.542 1172.34 422.896 1171.03 420.786L1170.18 421.314C1171.79 423.893 1175.18 424.683 1177.76 423.078L1177.23 422.229ZM1183.12 418.565L1177.23 422.229L1177.76 423.078L1183.65 419.414L1183.12 418.565ZM1187.47 424.616L1183.81 418.725L1182.96 419.254L1186.62 425.144L1187.47 424.616ZM1193.67 426.059C1191.56 427.372 1188.79 426.726 1187.47 424.616L1186.62 425.144C1188.23 427.723 1191.62 428.513 1194.2 426.908L1193.67 426.059ZM1195.11 419.861C1196.43 421.971 1195.78 424.746 1193.67 426.059L1194.2 426.908C1196.78 425.303 1197.57 421.912 1195.96 419.333L1195.11 419.861ZM1191.45 413.971L1195.11 419.861L1195.96 419.333L1192.3 413.442L1191.45 413.971ZM1197.5 409.617L1191.61 413.282L1192.14 414.131L1198.03 410.466L1197.5 409.617Z" fill="black" fill-opacity="0.3"/>
<path d="M472.395 1030.43L472.697 1046.38C468.669 1046.25 468.014 1048.9 468.694 1051.9C469.273 1054.42 470.859 1056.51 473.729 1056.1C477.178 1055.62 477.581 1053.26 476.498 1050.36C479.645 1053 479.871 1055.93 476.498 1056.91C473.125 1057.89 473.225 1059.98 473.301 1062.5C473.578 1069.76 472.999 1077.06 473.981 1084.32C474.232 1086.16 474.786 1088.35 472.848 1089.86L472.395 1085.93C472.168 1083.94 473.2 1080.77 470.23 1080.77C467.712 1080.77 466.378 1083.49 466.479 1086.18C466.581 1091.94 466.227 1097.71 465.421 1103.41C457.869 1101.68 451.425 1097.72 444.451 1094.82C441.43 1093.56 438.712 1091.77 435.54 1095.18C433.375 1097.47 431.612 1094.27 431.26 1092.96C430.001 1088.58 426.628 1087.37 423.003 1085.85C414.444 1082.3 406.01 1078.47 397.527 1074.75C396.62 1074.34 395.588 1073.46 394.808 1073.64C384.361 1075.73 380.081 1064.27 371.119 1062.85C368.274 1062.4 367.846 1058.82 367.871 1055.75C367.871 1025.32 367.871 994.895 367.871 964.48C367.871 890.147 367.871 815.822 367.871 741.506C367.871 738.987 367.67 736.468 367.569 733.948C368.325 721.025 366.663 708.001 368.778 695.128L375.197 682.154C376.682 681.902 376.682 680.768 376.632 679.635L377.664 677.644L392.769 666.232C400.12 663.713 407.596 661.773 414.771 658.902C426.225 654.317 438.258 650.462 447.749 642.275C458.767 633.083 470.262 624.481 482.187 616.503C497.792 605.433 514.395 595.843 531.781 587.86C547.817 580.756 564.507 574.66 582.456 576.524C594.178 577.488 605.947 577.749 617.7 577.305C627.65 577.106 637.486 575.145 646.751 571.511C655.084 568.311 662.535 563.348 670.591 559.62C685.679 553.011 700.327 545.437 714.444 536.947C716.534 535.637 719.353 534.579 719.983 531.581C723.381 531.002 725.244 528.407 727.409 526.14C733.297 519.59 736.878 511.29 737.605 502.51C737.967 498.739 739.153 495.093 741.081 491.832C743.008 488.571 745.629 485.775 748.757 483.641C758.273 480.794 766.656 483.994 774.787 488.503C768.191 496.287 758.575 498.051 749.613 501.099C743.319 503.24 740.852 506.918 740.676 513.695C740.324 525.913 741.104 538.131 741.809 550.324C742.212 557.504 739.09 562.215 733.929 566.346C728.769 570.478 723.482 574.332 717.969 577.935C715.653 579.421 713.639 581.361 715.879 584.459C715.049 586.097 713.362 586.5 711.902 587.281C700.297 593.478 688.037 598.794 677.615 606.805C670.629 612.312 662.514 616.209 653.85 618.217C647.855 619.315 641.79 619.988 635.7 620.232C625.429 621.088 615.283 618.821 605.063 618.418C591.357 618.135 577.666 619.489 564.28 622.449C564.406 619.703 562.82 619.048 560.479 619.325C554.927 620.01 549.564 621.782 544.695 624.54C535.841 629.195 527.554 634.859 519.999 641.418C512.925 647.817 505.272 653.636 499.583 661.572C498.752 662.494 498.276 663.682 498.239 664.923C498.202 666.164 498.607 667.378 499.381 668.348C498.601 670.994 495.731 672.404 495.328 675.251C490.294 681.423 488.808 689.283 485.259 696.135C482.943 697.042 482.892 699.788 481.18 701.174C479.242 699.209 477.203 696.135 474.534 699.788C471.226 704.087 468.35 708.703 465.95 713.568C459.38 727.524 460.16 742.715 459.606 757.604C459.354 765.161 460.311 772.946 460.437 780.629C460.588 791.059 460.437 801.513 460.437 811.943C460.437 814.336 461.217 816.628 463.76 816.628C466.303 816.628 466.277 814.109 466.479 812.119C466.68 810.129 465.371 807.988 468.04 806.904C468.971 833.205 469.902 859.53 469.198 885.856C464.364 885.025 463.382 887.418 463.357 891.801C463.357 921.024 463.584 950.246 465.296 979.444C466.101 992.997 465.447 1006.63 465.497 1020.23C465.497 1022.02 465.9 1023.81 466 1025.62C466.328 1029.73 468.593 1031.06 472.395 1030.43ZM452.608 873.285V761.609C452.608 760.274 452.608 758.939 452.608 757.629C452.834 754.807 450.443 754.127 448.806 752.893C447.17 751.658 445.836 753.523 444.502 754.228C441.607 755.739 442.639 758.586 442.664 760.929C443.243 846.808 441.405 932.688 443.57 1018.54C443.973 1034.66 443.57 1050.79 443.57 1066.91C443.57 1070.56 443.57 1074.22 443.57 1077.87C443.533 1078.54 443.63 1079.21 443.855 1079.84C444.08 1080.47 444.43 1081.05 444.882 1081.55C445.335 1082.04 445.882 1082.44 446.491 1082.73C447.1 1083.01 447.759 1083.16 448.429 1083.18C451.399 1083.18 453.111 1081.02 453.464 1078.15C453.552 1076.82 453.552 1075.49 453.464 1074.17C453.061 1043.63 453.464 1013.1 452.708 982.568C451.853 945.989 452.608 909.662 452.608 873.285ZM392.769 949.415C392.769 926.81 392.769 904.212 392.769 881.624C392.858 880.127 392.807 878.626 392.618 877.139C392.483 876.312 392.083 875.551 391.48 874.97C390.876 874.388 390.101 874.018 389.269 873.915C387.356 873.613 386.752 875.099 385.997 876.434C385.022 878.373 384.604 880.544 384.788 882.707C384.788 927.397 384.788 972.096 384.788 1016.8C384.47 1018.62 384.828 1020.5 385.795 1022.07C386.828 1023.35 387.583 1025.02 389.697 1024.36C390.51 1024.15 391.235 1023.69 391.772 1023.04C392.309 1022.39 392.631 1021.6 392.693 1020.76C392.693 1019.45 392.693 1018.11 392.693 1016.78L392.769 949.415ZM383.857 750.399C383.655 752.476 383.655 754.569 383.857 756.646C383.992 757.82 384.549 758.905 385.424 759.698C386.3 760.491 387.434 760.937 388.615 760.954C389.197 760.925 389.766 760.771 390.283 760.503C390.801 760.235 391.255 759.859 391.615 759.401C391.975 758.943 392.233 758.413 392.371 757.846C392.51 757.28 392.525 756.69 392.416 756.117C391.309 752.339 392.618 748.938 392.668 745.36C393.001 731.569 396.443 718.032 402.738 705.759C408.729 693.49 418.195 685.605 429.951 679.76C432.292 678.602 434.18 677.695 432.77 674.722C431.361 671.749 428.868 671.85 426.477 673.034C417.631 677.156 409.801 683.176 403.543 690.669C389.068 708.328 385.997 729.817 383.857 750.323V750.399ZM650.074 600.507C654.697 599.882 659.26 598.88 663.719 597.509C673.051 595.15 681.925 591.25 689.975 585.971C697.855 580.932 705.634 575.718 713.412 570.553C721.191 565.389 729.599 561.056 736.422 554.481C737.756 553.171 739.971 551.811 738.033 549.442C737.674 548.979 737.219 548.598 736.7 548.325C736.181 548.053 735.609 547.896 735.024 547.865C734.438 547.834 733.853 547.93 733.308 548.145C732.763 548.361 732.271 548.692 731.865 549.115C724.14 555.229 715.979 560.769 707.446 565.691C697.603 571.259 688.364 577.935 678.798 584.006C670.465 589.321 660.874 591.085 651.484 593.352C648.966 593.957 646.726 595.04 646.6 597.433C646.474 599.826 648.765 600.481 650.074 600.431V600.507ZM600.481 596.602C602.998 596.854 604.735 596.073 604.786 593.554C604.836 591.034 602.923 590.531 600.632 590.48C597.359 590.48 594.036 590.253 590.764 590.052C585.905 589.75 581.6 587.533 576.717 587.407C565.03 586.93 553.372 588.886 542.48 593.151C529.292 598.604 516.593 605.169 504.517 612.775C502.276 614.11 500.313 615.949 501.848 618.292C503.812 621.29 506.002 618.418 507.664 617.284C515.827 611.806 524.394 606.955 533.291 602.774C539.081 599.978 545.047 597.962 550.913 595.745C557.971 592.998 565.602 592.054 573.117 592.999C582.305 594.108 591.67 593.302 600.481 596.526V596.602ZM441.607 709.487C441.833 711.855 440.826 714.828 444.678 715.18C448.53 715.533 448.328 712.938 448.781 710.369C449.15 706.23 450.927 702.344 453.816 699.36C455.755 697.571 456.334 695.077 454.42 693.238C452.507 691.399 449.889 692.407 447.925 694.397C443.934 698.379 441.665 703.771 441.607 709.411V709.487ZM383.706 822.019C383.706 825.194 383.706 828.343 383.706 831.492C383.706 833.759 384.763 835.598 387.054 835.699C389.345 835.799 390.604 834.011 390.629 831.744C390.629 825.622 390.629 819.475 390.629 813.328C390.629 810.683 388.942 810.053 386.626 810.028C384.31 810.003 383.63 811.464 383.681 813.555C383.857 816.301 383.807 819.122 383.807 821.944L383.706 822.019Z" fill="#62AFCD"/>
<path d="M564.406 622.524C577.792 619.564 591.483 618.211 605.189 618.493C615.409 618.897 625.554 621.164 635.826 620.307C641.916 620.064 647.981 619.39 653.976 618.292C662.64 616.285 670.755 612.388 677.741 606.88C688.163 598.869 700.397 593.553 712.028 587.356C713.463 586.575 715.175 586.172 716.005 584.535C718.738 584.134 721.331 583.07 723.558 581.436C732.469 575.466 741.658 569.848 747.498 560.376C747.498 566.497 747.926 572.619 747.725 578.741C747.449 580.189 747.75 581.687 748.564 582.916C749.378 584.145 750.64 585.006 752.08 585.316C755.202 586.273 758.197 587.835 761.344 588.616C769.601 590.908 777.053 595.544 785.662 596.652C786.01 597.019 786.46 597.274 786.954 597.381C787.448 597.489 787.963 597.446 788.431 597.257C800.465 593.352 812.498 589.397 824.531 585.517C827.25 584.61 827.678 582.721 827.653 580.126C827.653 567.858 827.653 555.614 827.653 543.346C834.299 543.346 840.391 545.865 846.634 547.553C846.634 550.677 846.634 553.826 846.634 556.975C846.634 568.059 846.634 568.059 856.704 572.09C857.006 572.216 857.308 572.392 857.61 572.493C869.669 576.322 880.997 582.242 893.559 584.56C906.297 582.696 917.953 577.229 930.137 573.576C930.938 573.32 931.617 572.778 932.044 572.053C932.471 571.328 932.617 570.472 932.453 569.646C934.407 569.445 936.382 569.703 938.218 570.402C941.465 569.445 944.688 568.311 948.011 567.555C956.722 565.838 965.308 563.54 973.714 560.678C976.231 559.746 975.904 558.663 975.778 556.647C975.325 550.097 973.084 543.9 972.203 537.426C994.474 544.815 1016.74 552.205 1038.99 559.595C1051 563.625 1063.26 566.875 1074.94 571.838L1076 574.357C1065.8 577.405 1056.03 581.764 1045.79 584.434C1039.47 586.046 1033.4 588.691 1027.18 590.807C1020.46 593.1 1013.69 595.216 1007.04 597.559C995.162 601.69 983.481 606.477 971.423 609.953C963.644 612.17 956.117 614.992 948.514 617.511C933.158 622.726 917.776 627.865 902.445 633.054C894.516 635.725 886.686 638.622 878.782 641.343C870.877 644.063 863.325 646.557 855.596 649.102C847.868 651.646 839.384 654.316 831.328 657.037C823.273 659.758 814.638 662.957 806.154 665.779C798.4 668.298 790.546 670.641 782.818 673.336C770.432 677.485 758.08 681.683 745.761 685.932C740.047 687.897 734.408 690.039 728.693 692.004C723.658 693.767 718.447 695.379 713.337 697.042C706.011 699.561 698.811 702.458 691.461 704.6C680.006 707.95 668.804 712.333 657.601 716.012C649.168 718.757 640.659 721.327 632.427 724.552C624.195 727.776 615.862 729.741 607.58 732.311C606.526 732.568 605.601 733.201 604.98 734.091C604.359 734.982 604.084 736.069 604.207 737.148C604.207 739.39 605.138 741.833 603.326 743.849C601.438 741.858 602.445 739.415 602.394 737.198C602.492 736.293 602.265 735.382 601.753 734.63C601.241 733.877 600.477 733.332 599.6 733.092L573.444 725.005C567.855 723.191 562.317 721.302 556.753 719.438C549.579 716.918 542.429 714.576 535.255 712.208C526.116 709.21 516.953 706.287 507.815 703.34L485.334 696.11C488.909 689.258 490.369 681.398 495.404 675.226C497.216 676.838 501.043 675.226 501.471 679.08C497.72 679.408 497.871 682.431 497.544 684.95C497.317 686.814 497.544 688.703 500.061 689.132C501.019 689.389 502.038 689.272 502.913 688.804C503.787 688.336 504.451 687.552 504.769 686.612C505.554 684.23 505.373 681.633 504.265 679.382C508.872 678.249 512.472 681.398 516.626 682.33C525.235 684.27 533.568 687.368 541.951 690.039C550.762 692.885 559.724 695.304 568.434 698.453C573.895 700.643 579.486 702.493 585.175 703.995C591.997 705.557 598.316 708.857 605.768 708.53C610.155 708.057 614.457 706.99 618.556 705.355C626.41 702.886 634.24 700.367 642.044 697.798C650.099 695.077 658.13 692.18 666.186 689.459C674.871 686.512 683.581 683.665 692.291 680.768C699.844 678.249 707.396 676.309 714.57 673.21C720.461 670.691 726.881 669.935 732.62 666.887C734.532 666.096 736.094 664.642 737.019 662.79C737.944 660.939 738.17 658.815 737.655 656.81C736.9 652.553 731.89 649.555 727.585 649.832C712.481 650.806 697.309 651.713 682.071 652.553C671.17 653.132 660.194 653.183 649.344 653.233C629.205 653.233 609.065 654.997 588.775 655.601C582.179 655.803 575.508 656.231 568.963 656.281C549.73 656.433 530.572 657.163 511.39 658.498C514.488 654.666 518.096 651.275 522.114 648.422C532.435 639.907 543.008 631.77 555.948 627.361C558.843 626.051 563.374 627.134 564.406 622.524ZM977.263 597.483C980.204 597.676 983.152 597.22 985.898 596.148C989.498 595.191 993.777 593.226 993.752 589.044C993.727 584.862 989.473 584.51 986.2 583.149C978.874 580.151 971.876 581.764 964.852 583.603C963.56 583.875 962.377 584.522 961.451 585.463C960.524 586.403 959.895 587.596 959.641 588.893C959.724 590.129 960.159 591.315 960.896 592.311C961.632 593.307 962.638 594.07 963.795 594.511C968.006 596.522 972.622 597.539 977.288 597.483H977.263ZM568.409 642.476C568.519 641.524 568.414 640.56 568.103 639.654C567.792 638.748 567.282 637.922 566.611 637.239C565.94 636.555 565.125 636.031 564.225 635.703C563.325 635.376 562.364 635.254 561.411 635.347C556.829 635.145 553.858 637.362 553.506 640.99C553.154 644.617 557.962 649.303 561.889 649.278C563.585 649.051 565.154 648.255 566.338 647.019C567.523 645.783 568.253 644.181 568.409 642.476ZM765.246 630.359C770.583 630.359 772.798 628.671 772.798 624.665C772.553 622.776 771.671 621.027 770.298 619.708C768.925 618.389 767.142 617.578 765.246 617.41C763.372 617.362 761.554 618.049 760.181 619.325C758.807 620.601 757.987 622.364 757.895 624.237C757.744 629.074 759.255 630.334 765.12 630.359H765.246ZM898.871 603.378C903.075 603.907 905.114 601.64 905.34 597.483C905.224 595.572 904.372 593.781 902.964 592.484C901.556 591.188 899.701 590.488 897.788 590.53C896.06 590.81 894.483 591.681 893.326 592.995C892.169 594.309 891.504 595.985 891.444 597.735C891.772 602.169 894.641 603.605 898.871 603.378ZM730.858 613.455C729.071 612.221 729.222 608.921 726.352 608.895C724.061 608.895 721.317 610.054 721.317 612.8C721.251 613.429 721.31 614.065 721.491 614.671C721.672 615.277 721.972 615.842 722.372 616.331C722.772 616.821 723.266 617.226 723.824 617.524C724.381 617.821 724.993 618.005 725.622 618.065C728.341 618.267 729.65 616.151 730.858 613.455ZM864.004 608.719C861.865 609.399 859.473 609.979 859.775 612.75C859.845 613.287 860.023 613.805 860.3 614.271C860.576 614.737 860.945 615.142 861.383 615.461C861.822 615.779 862.321 616.005 862.849 616.123C863.378 616.242 863.925 616.251 864.458 616.151C866.547 616.151 868.183 614.841 868.007 612.85C868.001 611.781 867.581 610.755 866.834 609.989C866.087 609.223 865.073 608.777 864.004 608.744V608.719Z" fill="#6EAB6E"/>
<path d="M720.109 531.632C719.454 534.63 716.635 535.688 714.545 536.998C700.428 545.488 685.78 553.061 670.692 559.67C662.636 563.399 655.184 568.362 646.852 571.561C637.586 575.195 627.751 577.157 617.801 577.355C606.048 577.799 594.279 577.538 582.557 576.574C564.532 574.71 547.917 580.806 531.881 587.911C514.496 595.894 497.893 605.483 482.288 616.554C470.363 624.531 458.867 633.133 447.85 642.325C438.359 650.513 426.326 654.367 414.872 658.952C407.697 661.824 400.22 663.864 392.869 666.283C384.058 661.874 374.366 659.909 365.178 656.458C351.835 651.419 338.065 647.565 324.547 643.005C308.058 637.463 291.543 631.996 274.979 626.757C259.169 621.718 243.637 616 227.752 611.314C218.765 608.643 209.878 605.671 200.992 602.723C193.238 600.204 185.635 597.106 177.806 594.813C170.732 592.747 164.036 589.12 156.383 589.372C158.422 585.24 162.928 585.417 166.453 584.157C177.932 579.95 189.613 576.272 201.193 572.367L265.538 550.677L325.05 530.523C326.686 531.103 329.581 527.601 329.934 532.387C330.79 543.699 332.174 555.06 332.3 566.321C330.085 566.749 328.298 567.304 327.996 570.201C326.888 580.731 328.977 585.316 338.392 590.354C349.339 596.108 360.573 601.296 372.05 605.898C387.835 612.649 403.77 618.972 419.881 625.018C425.088 627.228 430.902 627.549 436.32 625.925C446.188 622.549 455.88 618.695 465.724 615.345C476.07 611.843 485.158 605.671 495.354 601.917C504.089 598.667 512.17 594.637 518.363 587.306C519.997 585.174 522.367 583.728 525.009 583.25C527.526 582.922 528.08 580.504 528.332 578.212C528.886 572.946 524.732 568.916 518.262 568.362L518.64 554.556C528.709 553.221 538.779 551.357 549.025 550.677C557.156 550.148 565.036 547.755 573.066 547.679C584.042 547.679 594.666 544.983 605.541 544.127C610.328 544.109 615.107 543.739 619.84 543.018C631.445 540.348 643.403 540.348 655.084 538.559C665.565 536.843 676.127 535.657 686.728 535.007C697.855 534.378 708.78 531.153 720.109 531.632ZM332.577 623.356C337.159 623.356 341.892 624.061 345.97 620.836C347.682 619.526 350.124 618.695 349.721 616.1C349.512 614.79 348.963 613.558 348.128 612.528C347.293 611.497 346.201 610.705 344.963 610.231C341.01 608.616 336.776 607.803 332.507 607.837C328.237 607.872 324.017 608.754 320.091 610.432C315.056 612.447 315.056 617.184 319.285 620.509C323.515 623.834 327.945 623.532 332.577 623.356ZM612.892 550.475C609.997 550.475 606.951 551.407 607.127 556.295C607.083 557.32 607.245 558.344 607.603 559.306C607.962 560.268 608.509 561.149 609.213 561.896C609.917 562.642 610.763 563.24 611.702 563.654C612.641 564.068 613.653 564.29 614.679 564.306C615.551 564.352 616.423 564.216 617.239 563.905C618.055 563.595 618.798 563.117 619.419 562.503C620.04 561.888 620.526 561.151 620.845 560.338C621.165 559.525 621.311 558.654 621.275 557.781C621.275 553.146 618.757 550.475 612.892 550.475ZM259.799 587.759C259.889 586.93 259.797 586.09 259.527 585.3C259.258 584.51 258.818 583.789 258.239 583.188C257.66 582.588 256.956 582.121 256.177 581.823C255.399 581.524 254.564 581.401 253.732 581.461C248.697 581.26 245.198 583.981 245.147 588.188C245.147 591.236 249.024 594.36 252.901 594.435C253.816 594.558 254.747 594.471 255.624 594.182C256.501 593.894 257.301 593.41 257.964 592.768C258.628 592.126 259.138 591.341 259.455 590.474C259.773 589.607 259.89 588.679 259.799 587.759ZM367.016 642.098C371.22 642.098 373.813 639.579 373.208 635.725C372.877 634.194 371.998 632.837 370.737 631.909C369.476 630.981 367.92 630.547 366.361 630.686C361.704 630.812 362.912 635.725 362.207 638.37C361.351 641.695 364.498 642.098 367.016 642.098ZM540.34 565.817C538.98 569.092 540.34 570.15 543.612 570.553C548.647 571.233 549.327 567.707 549.679 564.28C550.032 560.854 547.414 560.88 544.997 560.703C541.145 560.552 539.232 561.736 540.315 565.817H540.34ZM411.523 652.301C412.323 652.456 413.146 652.44 413.939 652.254C414.732 652.068 415.476 651.715 416.123 651.22C416.77 650.725 417.305 650.099 417.693 649.382C418.08 648.665 418.311 647.874 418.371 647.061C418.448 646.513 418.385 645.955 418.187 645.438C417.99 644.921 417.665 644.462 417.243 644.105C416.82 643.748 416.314 643.503 415.772 643.395C415.23 643.286 414.669 643.317 414.142 643.484C410.869 644.089 406.967 644.215 406.715 649.077C406.489 652.755 409.031 652.352 411.498 652.301H411.523Z" fill="#6EAB6E"/>
<path d="M1080.53 612.448C1081.14 613.237 1081.6 614.134 1081.89 615.093C1082.84 626.177 1082.64 637.312 1082.59 648.422C1082.59 650.613 1080.58 651.596 1078.56 652.276C1046.91 662.907 1015.32 673.563 983.783 684.245C962.511 691.374 941.188 698.302 919.941 705.507C898.694 712.711 878.177 720.042 857.232 727.146C839.887 733.041 822.417 738.609 805.072 744.479C787.223 750.499 769.45 756.722 751.627 762.793C733.803 768.864 715.98 774.885 698.157 780.856C674.971 788.64 651.786 796.298 628.626 804.108C620.872 806.627 613.521 810.507 605.214 811.313C604.836 798.289 603.905 785.264 604.257 772.19V771.106C606.237 771.151 608.215 770.957 610.148 770.527C622.131 766.345 634.122 762.214 646.122 758.133C657.828 754.177 669.609 750.399 681.366 746.393C691.813 742.841 702.185 738.987 712.632 735.46C728.114 730.22 743.646 725.207 759.129 720.017C776.818 714.089 794.44 708.118 811.994 702.106C829.549 696.093 847.373 689.997 865.464 683.816C876.214 680.063 887.139 676.838 897.788 672.833C906.096 669.684 914.755 667.567 923.164 664.696C940.786 658.7 958.408 652.402 976.029 646.381C990.253 641.544 1004.6 637.01 1018.83 632.248C1030.53 628.318 1042.19 624.288 1053.84 620.282L1078.11 611.918L1080.53 612.448Z" fill="#8A6846"/>
<path d="M846.609 547.553C840.366 545.815 834.274 543.245 827.628 543.346C827.628 533.454 827.628 523.545 827.628 513.62C827.957 511.489 827.52 509.311 826.394 507.473C826.784 501.27 828.143 495.166 830.422 489.385L837.974 457.593C842.631 438.069 847.238 418.52 851.996 399.021C855.395 384.208 859.322 369.597 862.947 354.86C866.975 338.233 870.751 321.556 874.754 304.929C877.472 293.618 880.443 282.257 883.288 271.021C885.377 271.197 885.276 272.759 885.528 274.271C888.121 290.57 890.639 306.869 893.685 323.093C898.166 346.924 902.345 370.781 906.75 394.613C909.62 410.181 912.062 425.826 915.259 441.344C918.884 458.978 922.283 476.613 924.901 494.448C926.235 503.417 928.526 512.209 929.558 521.253C930.59 530.297 933.183 539.643 934.87 548.964C936.154 556.093 937.06 563.298 938.142 570.478C936.306 569.779 934.332 569.52 932.377 569.722C930.917 566.497 927.72 567.807 925.354 567.203C914.781 564.381 904.358 560.955 893.433 559.645C886.888 556.521 879.713 555.64 872.79 553.876C864.196 551.252 855.453 549.141 846.609 547.553ZM870.247 398.921C871.28 398.492 873.47 398.921 872.941 397.636C871.965 394.777 870.224 392.241 867.906 390.305C867.05 389.7 862.871 392.975 863.098 395.343C863.601 398.87 867.73 397.913 870.247 399.021V398.921ZM889.254 534.428C890.613 534.428 892.829 534.756 892.074 532.438C891.804 531.322 891.316 530.271 890.638 529.346C889.959 528.42 889.104 527.639 888.121 527.047C885.604 525.938 884.043 527.651 883.086 529.742C882.13 531.833 883.288 533.093 885.453 533.546C886.636 533.798 887.895 534.176 889.254 534.529V534.428ZM883.892 485.631C885.075 485.304 886.938 486.286 886.686 484.397C886.309 481.651 885.427 478.452 882.356 477.923C879.285 477.393 877.044 481.601 877.321 482.633C877.825 486.211 882.054 483.843 883.892 485.732V485.631ZM884.37 433.66C885.302 433.383 887.139 434.164 886.888 432.426C886.636 429.529 885.302 426.43 882.281 426.077C879.965 425.8 876.868 429.176 877.246 430.31C878.051 433.534 881.979 432.073 884.37 433.761V433.66Z" fill="#3F633E"/>
<path d="M659.036 329.743C663.668 334.202 665.883 340.223 669.106 345.589C680.862 365.742 692.291 385.896 703.846 406.201C713.211 422.525 722.601 438.841 732.016 455.149C732.991 456.668 734.05 458.131 735.188 459.532C735.326 459.596 735.447 459.691 735.543 459.809C735.639 459.927 735.707 460.064 735.742 460.212C736.927 463.418 738.563 466.437 740.6 469.181C744.502 475.63 744.477 475.63 738.889 479.887C738.889 479.887 738.889 480.19 738.738 480.341C737.423 480.49 736.126 480.76 734.861 481.147C722.274 485.959 709.863 490.72 697.452 495.708C682.801 501.577 668.275 507.75 653.624 513.644C645.215 517.045 636.681 520.169 628.198 523.419C628.676 487.596 627.291 451.748 629.079 415.95C629.859 400.23 628.726 384.485 629.96 368.74C630.791 357.832 630.136 346.823 630.136 335.991L659.036 329.743Z" fill="#6F76AF"/>
<path d="M332.2 566.397C332.2 555.035 330.689 543.724 329.833 532.463C329.481 527.676 326.586 531.178 324.949 530.599C324.981 530.186 325.121 529.79 325.355 529.449C325.59 529.108 325.91 528.836 326.284 528.659C331.318 526.14 332.199 524.124 330.035 518.859C329.238 517.224 328.874 515.411 328.977 513.594C330.06 513.972 331.167 514.274 332.225 514.728C347.833 521.446 363.424 528.164 378.998 534.881C389.899 539.592 401.001 543.85 411.549 549.216C424.136 555.589 428.466 552.264 436.924 545.185C449.889 534.352 461.167 521.756 472.848 509.589C478.285 503.92 483.673 497.723 492.987 501.729C493.843 502.081 494.976 501.729 495.958 501.855C503.736 503.064 511.49 504.374 519.269 505.558C521.585 515.836 519.445 526.241 520.15 536.569C518.559 542.449 518.064 548.572 518.69 554.632L518.312 568.437C517.963 568.908 517.719 569.449 517.597 570.023C517.476 570.597 517.479 571.19 517.607 571.762C518.287 576.448 515.694 578.665 511.742 580.277C485.561 590.959 459.396 601.699 433.249 612.498C431.74 613.203 430.107 613.602 428.443 613.671C426.779 613.74 425.118 613.479 423.557 612.901C412.656 608.543 401.731 604.235 391.032 599.423C376.078 592.672 360.823 586.827 345.718 580.176C341.086 578.186 334.289 578.035 333.383 570.629C333.557 570.322 333.664 569.981 333.699 569.63C333.733 569.279 333.693 568.924 333.581 568.589C333.47 568.254 333.289 567.947 333.051 567.686C332.813 567.425 332.523 567.218 332.2 567.077C332.271 566.978 332.31 566.859 332.31 566.737C332.31 566.614 332.271 566.495 332.2 566.397Z" fill="#E3E7D1"/>
<path d="M938.142 570.377C937.06 563.197 936.154 555.992 934.87 548.863C933.183 539.643 930.59 530.548 929.558 521.152C928.526 511.755 926.235 503.316 924.901 494.348C922.383 476.562 918.884 458.877 915.259 441.243C912.062 425.725 909.62 410.08 906.75 394.512C902.345 370.68 898.166 346.823 893.685 322.992C890.639 306.869 888.121 290.57 885.604 274.271C885.352 272.759 885.453 271.197 883.363 271.021C882.935 268.225 884.622 267.242 886.963 266.637C897.36 263.942 907.707 261.146 918.104 258.475C920.42 257.871 921.88 258.727 922.333 261.322C924.85 275.329 927.191 289.335 929.885 303.292C931.874 313.998 933.787 324.755 935.877 335.462C939.426 353.625 941.918 372.015 945.619 390.154C947.784 400.86 949.32 411.642 951.51 422.324C953.448 431.897 954.808 441.57 956.545 451.143C958.861 463.487 961.781 475.731 963.593 488.125C965.28 499.588 967.747 510.924 969.409 522.386C970.139 527.425 971.423 532.463 972.455 537.501C973.336 543.976 975.576 550.097 976.029 556.723C976.029 558.738 976.457 559.822 973.965 560.754C965.51 563.614 956.873 565.903 948.111 567.606C944.612 568.286 941.39 569.42 938.142 570.377Z" fill="#5D8F5C"/>
<path d="M519.294 505.583C511.515 504.349 503.762 503.064 495.983 501.88C495.001 501.729 493.868 502.107 493.012 501.754C483.673 497.749 478.285 503.946 472.873 509.614C461.192 521.782 449.914 534.378 436.949 545.21C428.491 552.289 424.136 555.614 411.574 549.241C401.026 543.875 389.924 539.618 379.024 534.907C363.432 528.189 347.841 521.471 332.25 514.753C331.193 514.3 330.085 513.997 329.002 513.619C329.002 512.335 328.272 511.68 326.938 511.856C324.087 511.044 321.329 509.938 318.706 508.556C315.61 506.994 315.912 505.18 317.976 503.215C321.45 499.94 324.874 496.615 328.625 493.592C340.935 483.515 353.17 473.438 365.127 463.135C368.953 459.44 373.671 456.802 378.82 455.477C383.969 454.152 389.374 454.187 394.506 455.577C406.091 458.844 417.959 461.012 429.951 462.052C441.707 462.732 452.129 468.274 462.677 473.262C464.959 474.654 467.559 475.435 470.23 475.529C476.599 478.2 482.817 481.071 489.362 483.54C499.432 487.369 509.501 490.947 519.571 494.625C522.391 496.061 525.26 497.396 528.004 498.933C529.465 499.739 530.849 500.872 530.522 502.863C530.195 504.853 528.382 504.576 526.947 504.727L519.294 505.583Z" fill="#F3A07F"/>
<path d="M630.086 335.915C630.086 346.874 630.74 357.883 629.909 368.665C628.676 384.41 629.909 400.155 629.028 415.875C627.241 451.672 628.626 487.52 628.147 523.343C626.914 522.915 625.63 522.588 624.447 522.084C613.336 517.516 602.251 512.931 591.192 508.329C591.494 505.13 588.976 503.291 587.592 500.923C577.925 484.069 568.233 467.241 558.767 450.287C554.765 443.132 549.654 436.532 547.313 428.496L547.489 425.977L548.421 424.843C550.56 424.289 551.064 422.702 551.064 420.762L551.341 419.754C554.437 419.351 554.286 417.059 554.186 414.716C554.186 414.388 554.311 414.061 554.362 413.708C558.09 410.75 560.526 406.461 561.159 401.742L561.335 400.734C563.852 400.029 564.155 397.963 564.205 395.696C564.304 395.4 564.38 395.097 564.431 394.789C569.45 389.921 572.866 383.638 574.224 376.777C582.532 360.654 591.846 345.01 599.398 328.559C599.658 328.036 600.051 327.591 600.537 327.268C601.023 326.946 601.585 326.757 602.168 326.72C611.283 330.338 620.605 333.408 630.086 335.915Z" fill="#A1A3CA"/>
<path d="M368.929 695.229C366.814 708.102 368.476 721.126 367.72 734.049C346.003 727.231 324.37 720.135 302.821 712.762C281.448 705.457 259.824 698.957 238.35 691.928C216.423 684.749 194.547 677.342 172.646 670.037C168.593 668.701 164.464 667.517 160.386 666.182C159.488 666.062 158.672 665.599 158.109 664.89C157.545 664.181 157.279 663.28 157.365 662.378C157.365 651.42 157.969 640.436 156.861 629.629C156.71 628.294 157.566 627.487 158.347 626.631C159.484 626.752 160.611 626.954 161.72 627.235C176.824 632.274 191.929 637.438 207.034 642.351C222.138 647.263 237.419 652.176 252.574 657.164C271.001 663.21 289.378 669.407 307.957 675.428C319.21 679.106 330.614 682.28 341.841 686.26C350.753 689.46 359.765 692.533 368.929 695.229Z" fill="#624930"/>
<path d="M368.929 695.229C359.765 692.533 350.753 689.46 341.791 686.235C330.614 682.255 319.134 679.08 307.906 675.402C289.454 669.382 271.077 663.184 252.523 657.138C237.419 652.1 222.163 647.339 206.983 642.325C191.803 637.312 176.774 632.249 161.67 627.21C160.561 626.929 159.434 626.727 158.296 626.606C157.579 626.181 157.005 625.551 156.651 624.796C156.296 624.041 156.176 623.197 156.307 622.373V589.624C163.86 589.372 170.657 593 177.731 595.065C185.56 597.358 193.162 600.406 200.916 602.976C209.803 605.923 218.689 608.896 227.676 611.566C243.662 615.975 259.144 621.794 274.953 626.807C291.518 632.047 308.032 637.514 324.521 643.056C338.04 647.616 351.81 651.495 365.153 656.508C374.341 659.96 384.033 661.925 392.844 666.333L377.74 677.745C377.785 676.894 377.92 676.049 378.142 675.226C378.721 673.563 379.024 671.901 377.387 670.767C375.751 669.633 374.391 670.49 372.881 671.397C371.611 671.991 370.547 672.951 369.825 674.154C369.103 675.356 368.756 676.747 368.828 678.148C369.055 681.625 371.95 680.794 374.014 681.323C374.465 681.525 374.881 681.797 375.247 682.129L368.929 695.229Z" fill="#598A58"/>
<path d="M604.156 772.165C603.804 785.239 604.735 798.263 605.113 811.288C598.115 811.288 592.073 807.836 585.653 805.846C565.967 799.75 546.407 793.25 526.821 786.725C512.9 782.09 499.13 777.228 485.158 772.618C479.67 770.804 474.056 769.419 468.518 767.832C468.543 767.677 468.531 767.519 468.483 767.37C468.435 767.221 468.352 767.085 468.241 766.975C469.374 754.052 466.076 741.103 468.619 728.205C473.074 728.205 476.674 730.976 480.778 732.16C491.351 735.233 501.798 738.785 512.271 742.236C525.21 746.519 538.099 750.903 551.039 755.185C558.415 757.704 565.942 759.695 573.268 762.289C583.513 765.967 593.583 769.393 604.156 772.165Z" fill="#624930"/>
<path d="M547.313 428.622C549.654 436.658 554.865 443.258 558.767 450.413C568.233 467.367 577.925 484.195 587.592 501.049C588.976 503.568 591.494 505.256 591.192 508.455C586.937 508.631 583.463 511.176 579.687 512.637C559.749 520.396 539.987 528.558 520.175 536.594C519.47 526.266 521.61 515.861 519.294 505.583L526.695 504.727C528.13 504.575 529.893 504.878 530.27 502.862C530.648 500.847 529.263 499.739 527.753 498.932C525.009 497.396 522.139 496.061 519.319 494.625C519.823 469.71 518.564 444.77 520.427 419.855C524.304 419.15 528.281 418.721 532.083 417.663C535.884 416.605 538.729 416.857 541.145 420.006C541.22 420.284 541.321 420.554 541.447 420.812C541.474 421.685 541.746 422.533 542.231 423.259C542.716 423.985 543.396 424.56 544.191 424.919C544.195 425.234 544.273 425.545 544.418 425.825C544.297 426.206 544.312 426.617 544.458 426.989C544.605 427.361 544.875 427.67 545.224 427.866L546.457 428.622H547.263H547.313Z" fill="#6F76AF"/>
<path d="M520.578 419.855C518.715 444.77 519.974 469.71 519.47 494.625C509.401 490.947 499.331 487.369 489.261 483.54C482.817 481.021 476.498 478.199 470.129 475.529C475.944 464.495 481.709 453.461 487.524 442.427C491.854 434.214 496.201 426.002 500.565 417.789C504.517 414.917 508.444 415.875 512.547 417.638C515.166 418.573 517.85 419.314 520.578 419.855Z" fill="#A1A3CA"/>
<path d="M738.687 480.391C738.687 480.24 738.687 480.013 738.838 479.938C744.427 475.68 744.452 475.68 740.55 469.231C738.513 466.488 736.877 463.468 735.691 460.263C743.722 461.547 751.098 464.923 758.776 467.316C773.73 471.977 788.582 476.889 803.435 481.877C811.239 484.397 818.968 487.344 826.948 489.435C828.052 489.738 829.217 489.738 830.321 489.435C828.042 495.217 826.683 501.32 826.293 507.523C818.565 504.802 810.811 502.232 803.133 499.386C794.826 496.262 786.694 492.005 777.732 497.446C776.977 497.925 775.794 497.698 774.812 497.824C774.485 495.154 778.488 494.625 777.757 491.778C779.243 490.14 779.016 489.107 776.7 488.83L774.888 488.604C766.756 484.094 758.373 480.895 748.857 483.742L738.687 480.391Z" fill="#6EAB6E"/>
<path d="M472.395 1030.43C468.593 1031.06 466.328 1029.73 466.126 1025.62C466.126 1023.81 465.623 1022.02 465.623 1020.23C465.623 1006.63 466.227 992.997 465.421 979.444C463.71 950.246 463.458 921.024 463.483 891.801C463.483 887.418 464.49 885.025 469.323 885.856C469.852 893.262 470.658 900.694 470.834 908.1C471.186 922.863 470.834 937.651 471.388 952.388C472.244 976.421 472.697 1000.45 472.596 1024.49C472.596 1026.6 472.47 1028.44 472.395 1030.43Z" fill="#419ABD"/>
<path d="M468.618 728.23C466.101 741.128 469.374 754.077 468.241 767C467.002 768.386 466.318 770.18 466.318 772.039C466.318 773.898 467.002 775.691 468.241 777.077C468.241 787.019 468.241 796.953 468.241 806.879C465.572 807.962 466.932 810.305 466.68 812.094C466.428 813.882 466.454 816.628 463.961 816.603C461.469 816.578 460.638 814.311 460.638 811.917C460.638 801.488 460.638 791.033 460.638 780.604C460.512 772.92 459.556 765.237 459.808 757.578C460.361 742.69 459.581 727.499 466.151 713.543C468.552 708.677 471.427 704.062 474.736 699.763C477.404 696.135 479.443 699.183 481.382 701.148C481.18 701.589 480.953 702.018 480.702 702.433C475.416 710.495 469.726 718.279 468.618 728.23Z" fill="#419ABD"/>
<path d="M630.086 335.916C620.618 333.465 611.304 330.454 602.193 326.897C603.3 323.622 606.548 324.579 608.562 324.378C613.597 323.849 618.631 322.841 623.666 322.287C635.372 321.002 646.55 324.176 657.551 327.879C657.944 328.019 658.289 328.269 658.543 328.6C658.798 328.93 658.951 329.328 658.986 329.744L630.086 335.916Z" fill="#E3E7D1"/>
<path d="M520.578 419.855C517.867 419.312 515.2 418.571 512.598 417.638C508.494 415.875 504.567 414.918 500.615 417.789C500.686 416.709 501.17 415.698 501.967 414.966C502.765 414.234 503.813 413.838 504.894 413.86C509.822 413.492 514.689 412.545 519.395 411.038C527.576 408.015 533.467 413.33 539.937 416.454C540.479 416.854 540.895 417.402 541.136 418.031C541.377 418.661 541.433 419.346 541.296 420.006C538.779 416.857 535.884 416.656 532.234 417.663C528.583 418.671 524.354 419.15 520.578 419.855Z" fill="#E3E7D1"/>
<path d="M465.547 1103.41C466.353 1097.71 466.706 1091.95 466.605 1086.18C466.605 1083.49 467.813 1080.77 470.356 1080.77C473.326 1080.77 472.294 1083.94 472.52 1085.93L472.974 1089.86V1091.8C472.848 1093.44 472.596 1095.08 472.621 1096.71C472.621 1101.15 471.237 1104.09 466.126 1103.64C466.018 1103.67 465.903 1103.67 465.798 1103.63C465.693 1103.59 465.604 1103.51 465.547 1103.41Z" fill="#419ABD"/>
<path d="M1080.53 612.447L1078.01 611.918C1078.01 600.909 1078.01 589.901 1077.88 578.892C1077.88 577.254 1078.74 575.063 1076.07 574.458C1075.69 573.576 1075.34 572.694 1074.99 571.939C1078.51 571.007 1080.73 572.518 1080.75 575.969C1080.88 588.062 1081.38 600.28 1080.53 612.447Z" fill="#8FDB8F"/>
<path d="M482.993 931.302C482.741 934.703 482.011 937.978 478.285 937.953C474.56 937.928 473.729 934.829 473.779 931.554C473.83 928.279 474.635 925.911 478.336 925.886C482.036 925.861 482.817 928.582 482.993 931.302Z" fill="#62AFCD"/>
<path d="M359.665 740.473C359.665 742.992 355.41 748.03 353.17 747.879C349.847 747.879 349.545 744.378 349.671 742.841C350.023 739.113 353.875 738.911 356.744 738.155C358.708 737.677 360.042 738.508 359.665 740.473Z" fill="#62AFCD"/>
<path d="M476.574 1050.36C477.656 1053.26 477.253 1055.62 473.804 1056.1C470.859 1056.51 469.273 1054.34 468.77 1051.9C468.09 1048.85 468.77 1046.25 472.772 1046.38C473.674 1046.7 474.489 1047.22 475.15 1047.91C475.81 1048.6 476.298 1049.44 476.574 1050.36Z" fill="#419ABD"/>
<path d="M574.224 376.953C572.866 383.814 569.45 390.098 564.431 394.965C566.58 388.418 569.898 382.315 574.224 376.953Z" fill="#E3E7D1"/>
<path d="M466.051 1103.64C471.086 1104.09 472.596 1101.12 472.546 1096.71C472.546 1095.08 472.772 1093.44 472.898 1091.8C473.854 1093.57 474.404 1095.54 474.509 1097.55C474.613 1099.56 474.27 1101.58 473.502 1103.44C472.37 1107.22 469.877 1107.07 466.051 1103.64Z" fill="#62AFCD"/>
<path d="M561.159 401.843C560.526 406.562 558.09 410.851 554.362 413.809C555.129 409.137 557.54 404.893 561.159 401.843Z" fill="#E3E7D1"/>
<path d="M468.14 777.203C466.902 775.817 466.217 774.023 466.217 772.164C466.217 770.305 466.902 768.512 468.14 767.126C468.251 767.236 468.334 767.372 468.382 767.521C468.431 767.67 468.442 767.828 468.417 767.982L468.14 777.203Z" fill="#62AFCD"/>
<path d="M554.186 414.816C554.186 417.058 554.437 419.351 551.341 419.855C551.467 417.638 551.593 415.522 554.186 414.816Z" fill="#E3E7D1"/>
<path d="M564.205 395.872C564.205 398.064 563.953 400.13 561.335 400.91C561.411 398.668 561.587 396.552 564.205 395.872Z" fill="#E3E7D1"/>
<path d="M551.064 420.762C551.064 422.701 550.56 424.289 548.421 424.843C548.572 423.004 549.05 421.366 551.064 420.762Z" fill="#E3E7D1"/>
<path d="M544.242 424.919C543.446 424.56 542.767 423.985 542.281 423.259C541.796 422.533 541.525 421.685 541.498 420.812C543.688 421.342 544.141 423.004 544.242 424.919Z" fill="#E3E7D1"/>
<path d="M547.313 428.622H546.507L545.274 427.841C544.926 427.645 544.655 427.335 544.509 426.964C544.362 426.592 544.348 426.181 544.468 425.8L547.489 425.951C547.414 426.858 547.363 427.74 547.313 428.622Z" fill="#E3E7D1"/>
<path d="M326.888 511.806C328.222 511.629 328.851 512.284 328.952 513.569C328.696 513.618 328.432 513.609 328.18 513.543C327.928 513.476 327.694 513.354 327.496 513.184C327.298 513.015 327.14 512.803 327.035 512.564C326.93 512.326 326.879 512.066 326.888 511.806Z" fill="#E3E7D1"/>
<path d="M501.521 679.08C501.093 675.251 497.267 676.838 495.454 675.226C495.857 672.379 498.727 670.968 499.507 668.323C500.742 668.27 501.936 667.868 502.952 667.163C503.968 666.459 504.763 665.481 505.247 664.343C506.652 661.779 508.744 659.659 511.289 658.221C530.472 656.886 549.629 656.156 568.862 656.004C575.407 656.004 582.079 655.526 588.674 655.324C608.814 654.72 628.953 653.082 649.243 652.956C660.119 652.956 671.095 652.956 681.97 652.276C697.074 651.47 712.246 650.563 727.485 649.555C731.84 649.278 736.85 652.276 737.554 656.534C738.069 658.538 737.843 660.662 736.918 662.513C735.993 664.365 734.431 665.82 732.52 666.61C726.78 669.659 720.36 670.389 714.47 672.933C707.295 676.057 699.642 677.972 692.19 680.491C683.48 683.388 674.77 686.235 666.085 689.182C658.029 691.903 649.999 694.8 641.943 697.521C633.887 700.242 626.31 702.71 618.455 705.078C614.356 706.713 610.054 707.781 605.667 708.253C598.115 708.58 591.897 705.28 585.074 703.718C579.386 702.217 573.795 700.366 568.333 698.176C559.623 695.027 550.712 692.608 541.85 689.762C533.467 687.066 525.135 683.993 516.525 682.053C512.371 681.121 508.771 677.972 504.164 679.105C503.913 679.13 503.66 679.13 503.409 679.105C503.107 678.602 502.755 678.476 502.352 679.105C502.075 679.127 501.796 679.119 501.521 679.08Z" fill="#7FC37E"/>
<path d="M738.687 480.391L748.757 483.691C745.629 485.825 743.008 488.622 741.081 491.883C739.153 495.143 737.967 498.789 737.605 502.56C736.878 511.34 733.297 519.64 727.409 526.19C725.244 528.457 723.381 531.052 719.983 531.632C708.68 531.153 697.754 534.377 686.526 535.007C675.999 535.698 665.514 536.917 655.109 538.66C643.378 540.449 631.42 540.449 619.865 543.119C615.132 543.84 610.353 544.21 605.566 544.228C594.691 545.084 584.067 547.704 573.091 547.78C565.061 547.78 557.181 550.299 549.05 550.777C538.98 551.458 528.785 553.297 518.665 554.657C518.039 548.597 518.534 542.474 520.125 536.594C539.937 528.558 559.699 520.396 579.637 512.637C583.413 511.176 586.887 508.631 591.141 508.455C602.218 513.04 613.303 517.625 624.396 522.21C625.58 522.714 626.914 523.041 628.097 523.469C636.581 520.22 645.115 517.096 653.523 513.695C668.174 507.8 682.7 501.628 697.351 495.758C709.762 490.72 722.274 486.009 734.76 481.197C736.041 480.807 737.356 480.537 738.687 480.391Z" fill="#8FDB8F"/>
<path d="M468.619 728.23C469.726 718.279 475.416 710.595 480.601 702.458C480.853 702.044 481.079 701.615 481.281 701.174C482.993 699.763 483.043 697.017 485.359 696.135L507.739 703.365C516.877 706.313 526.041 709.235 535.179 712.233C542.354 714.601 549.503 717.045 556.678 719.463C562.241 721.327 567.78 723.217 573.368 725.03L599.499 733.369C600.377 733.609 601.14 734.155 601.652 734.907C602.164 735.66 602.392 736.57 602.293 737.475C602.293 739.692 601.337 742.136 603.225 744.126C604.559 753.094 603.955 762.138 604.232 771.132V772.215C593.759 769.419 583.539 765.993 573.343 762.34C566.017 759.821 558.49 757.654 551.114 755.236C538.175 750.953 525.286 746.57 512.346 742.287C501.874 738.836 491.426 735.284 480.853 732.21C476.674 731.001 473.074 728.28 468.619 728.23Z" fill="#598A58"/>
<path d="M452.608 873.285C452.608 909.662 451.852 946.09 452.834 982.467C453.665 1013 453.187 1043.53 453.589 1074.07C453.678 1075.39 453.678 1076.72 453.589 1078.05C453.237 1081.02 451.525 1083.26 448.555 1083.08C447.884 1083.06 447.225 1082.91 446.616 1082.62C446.007 1082.34 445.461 1081.94 445.008 1081.45C444.555 1080.95 444.206 1080.37 443.981 1079.74C443.756 1079.11 443.659 1078.44 443.696 1077.77C443.545 1074.12 443.696 1070.46 443.696 1066.81C443.696 1050.69 444.048 1034.56 443.696 1018.44C441.531 932.587 443.369 846.708 442.79 760.828C442.79 758.485 441.732 755.639 444.627 754.127C445.962 753.422 446.994 751.306 448.932 752.792C450.871 754.278 452.96 754.707 452.734 757.528C452.734 758.838 452.734 760.173 452.734 761.508L452.608 873.285Z" fill="#64C0CF"/>
<path d="M392.769 949.415V1016.73C392.769 1018.06 392.769 1019.4 392.769 1020.71C392.7 1021.56 392.364 1022.37 391.807 1023.01C391.251 1023.66 390.503 1024.12 389.672 1024.31C387.558 1024.97 386.802 1023.3 385.77 1022.02C384.803 1020.45 384.445 1018.57 384.763 1016.75C384.763 972.063 384.763 927.364 384.763 882.657C384.579 880.494 384.997 878.323 385.972 876.384C386.727 875.099 387.331 873.613 389.244 873.865C390.076 873.968 390.851 874.338 391.455 874.919C392.058 875.501 392.457 876.262 392.592 877.089C392.782 878.576 392.832 880.077 392.743 881.573C392.777 904.213 392.785 926.826 392.769 949.415Z" fill="#64C0CF"/>
<path d="M383.857 750.323C385.997 729.817 389.068 708.328 403.568 690.517C409.826 683.025 417.656 677.004 426.502 672.883C429.02 671.699 431.361 671.523 432.796 674.571C434.231 677.619 432.317 678.475 429.976 679.609C418.22 685.428 408.754 693.339 402.763 705.607C396.468 717.88 393.026 731.418 392.693 745.209C392.693 748.786 391.334 752.187 392.441 755.966C392.55 756.539 392.535 757.128 392.397 757.695C392.258 758.261 392.001 758.791 391.64 759.25C391.28 759.708 390.826 760.084 390.308 760.352C389.791 760.62 389.222 760.773 388.64 760.803C387.459 760.786 386.325 760.339 385.449 759.547C384.574 758.754 384.017 757.669 383.882 756.495C383.676 754.443 383.668 752.376 383.857 750.323Z" fill="#64C0CF"/>
<path d="M774.837 488.554L776.65 488.78L777.707 491.728C778.437 494.575 774.435 495.104 774.762 497.774C772.02 499.867 768.833 501.299 765.447 501.956C759.783 503.417 754.346 505.735 748.807 507.7C746.466 509.01 747.498 511.277 747.473 513.065C747.473 528.836 747.473 544.606 747.473 560.376C741.658 569.848 732.368 575.491 723.557 581.436C721.331 583.071 718.738 584.135 716.005 584.535C713.765 581.436 715.779 579.497 718.095 578.01C723.608 574.408 728.92 570.453 734.055 566.422C739.191 562.391 742.337 557.58 741.935 550.4C741.23 538.207 740.449 525.989 740.802 513.771C740.978 506.994 743.445 503.316 749.739 501.175C758.675 498.101 768.292 496.338 774.837 488.554Z" fill="#419ABD"/>
<path d="M650.074 600.431C648.765 600.431 646.449 599.726 646.6 597.458C646.751 595.191 648.966 593.982 651.484 593.302C660.874 591.034 670.465 589.271 678.798 583.955C688.364 577.884 697.603 571.208 707.446 565.641C715.979 560.719 724.14 555.178 731.865 549.065C732.271 548.641 732.763 548.311 733.308 548.095C733.853 547.879 734.438 547.784 735.024 547.815C735.609 547.846 736.181 548.003 736.7 548.275C737.219 548.547 737.674 548.928 738.033 549.392C739.971 551.659 737.756 553.02 736.422 554.431C729.599 561.006 721.317 565.339 713.412 570.503C705.508 575.667 697.855 580.882 689.975 585.921C681.925 591.2 673.051 595.099 663.719 597.458C659.259 598.821 654.696 599.815 650.074 600.431Z" fill="#64C0CF"/>
<path d="M600.481 596.526C591.67 593.352 582.305 594.007 573.192 592.924C565.678 591.978 558.047 592.922 550.988 595.67C545.047 597.886 539.081 599.902 533.367 602.698C524.47 606.879 515.903 611.73 507.739 617.209C506.078 618.342 503.888 621.214 501.924 618.216C500.388 615.873 502.352 614.034 504.592 612.699C516.668 605.093 529.368 598.528 542.555 593.075C553.447 588.81 565.105 586.854 576.792 587.331C581.676 587.507 585.981 589.674 590.839 589.976C594.112 590.178 597.435 590.354 600.707 590.404C602.998 590.404 604.912 590.933 604.861 593.478C604.811 596.022 602.898 596.778 600.481 596.526Z" fill="#64C0CF"/>
<path d="M511.289 658.221C508.744 659.659 506.652 661.779 505.247 664.343C504.763 665.481 503.968 666.459 502.952 667.163C501.936 667.867 500.742 668.27 499.507 668.323C498.733 667.353 498.328 666.139 498.365 664.898C498.402 663.657 498.878 662.469 499.709 661.547C505.398 653.712 513.051 647.892 520.125 641.393C527.68 634.834 535.967 629.17 544.821 624.514C549.689 621.757 555.053 619.985 560.605 619.3C562.946 619.023 564.532 619.677 564.406 622.423C563.248 627.034 558.843 626.001 555.847 627.034C542.907 631.442 532.334 639.63 522.013 648.094C517.992 650.963 514.384 654.371 511.289 658.221Z" fill="#419ABD"/>
<path d="M441.607 709.412C441.671 703.718 443.989 698.283 448.051 694.296C450.015 692.306 452.356 691.097 454.546 693.138C456.736 695.178 455.88 697.471 453.942 699.259C451.053 702.244 449.276 706.13 448.907 710.268C448.454 712.787 448.479 715.433 444.804 715.08C441.128 714.727 441.833 711.704 441.607 709.412Z" fill="#A1A3CA"/>
<path d="M383.807 821.944C383.807 819.122 383.807 816.301 383.807 813.479C383.807 811.388 384.209 809.927 386.752 809.952C389.295 809.978 390.729 810.607 390.755 813.253C390.755 819.399 390.755 825.546 390.755 831.668C390.755 833.935 389.496 835.724 387.18 835.623C384.864 835.522 383.857 833.683 383.832 831.416C383.781 828.267 383.807 825.068 383.807 821.944Z" fill="#A1A3CA"/>
<path d="M375.348 682.255C374.982 681.923 374.565 681.651 374.115 681.448C372.05 680.919 369.08 681.751 368.929 678.274C368.857 676.873 369.204 675.482 369.926 674.28C370.648 673.077 371.712 672.117 372.982 671.523C374.492 670.616 375.902 669.81 377.488 670.893C379.074 671.976 378.822 673.689 378.243 675.352C378.021 676.175 377.886 677.02 377.84 677.871L376.808 679.861C376.833 680.869 376.833 682.003 375.348 682.255Z" fill="#419ABD"/>
<path d="M376.783 679.735L377.815 677.745L376.783 679.735Z" fill="#598A58"/>
<path d="M604.232 771.107C603.955 762.113 604.559 753.069 603.225 744.101C605.037 742.085 604.106 739.642 604.106 737.4C603.983 736.321 604.258 735.234 604.879 734.343C605.5 733.453 606.425 732.82 607.479 732.563C615.762 730.044 624.245 727.928 632.326 724.804C640.407 721.68 649.143 719.01 657.5 716.264C668.829 712.586 679.905 708.202 691.36 704.852C698.711 702.685 705.91 699.813 713.236 697.294C718.271 695.581 723.507 693.969 728.592 692.256C734.307 690.291 739.946 688.149 745.66 686.185C757.996 681.902 770.348 677.703 782.717 673.589C790.445 671.069 798.3 668.727 806.053 666.031C814.461 663.209 822.769 660.136 831.227 657.289C839.686 654.443 847.415 652.024 855.495 649.354C863.576 646.684 870.978 644.316 878.681 641.595C886.384 638.874 894.415 635.977 902.345 633.307C917.676 628.117 933.057 622.978 948.413 617.763C955.966 615.244 963.518 612.322 971.322 610.206C983.38 606.729 995.061 601.943 1006.94 597.811C1013.66 595.468 1020.44 593.352 1027.08 591.06C1033.3 588.944 1039.37 586.298 1045.69 584.686C1056.03 582.167 1065.83 577.683 1075.9 574.609C1078.59 575.214 1077.71 577.406 1077.73 579.043C1077.73 590.052 1077.73 601.061 1077.86 612.07L1053.59 620.434C1041.94 624.439 1030.28 628.47 1018.57 632.4C1004.33 637.161 989.976 641.696 975.778 646.532C958.156 652.553 940.534 658.851 922.912 664.847C914.504 667.719 905.844 669.885 897.536 672.984C886.888 676.989 875.962 680.214 865.213 683.968C847.456 690.131 829.658 696.228 811.818 702.257C793.978 708.286 776.356 714.257 758.952 720.168C743.47 725.358 727.938 730.245 712.456 735.611C702.008 739.138 691.637 742.992 681.189 746.544C669.483 750.55 657.702 754.329 645.945 758.284C634.189 762.239 621.954 766.497 609.972 770.678C608.082 771.045 606.155 771.189 604.232 771.107Z" fill="#7FC37E"/>
<path d="M748.858 507.649C754.396 505.684 759.833 503.367 765.498 501.905C768.883 501.248 772.071 499.817 774.812 497.723C775.794 497.598 776.977 497.724 777.732 497.346C786.694 491.904 794.826 496.162 803.133 499.285C810.811 502.132 818.565 504.702 826.293 507.422C827.42 509.26 827.857 511.439 827.527 513.569C827.527 523.495 827.527 533.404 827.527 543.296C827.527 555.564 827.527 567.808 827.527 580.076C827.527 582.595 827.124 584.56 824.405 585.467C812.372 589.347 800.339 593.302 788.306 597.207C787.837 597.396 787.322 597.439 786.828 597.331C786.334 597.223 785.884 596.969 785.536 596.602C785.989 572.77 783.825 548.964 784.58 525.107C784.605 524.612 784.605 524.116 784.58 523.621C784.603 522.955 784.406 522.3 784.019 521.758C783.632 521.216 783.077 520.817 782.44 520.623C777.053 518.658 771.665 516.617 766.278 514.627C760.488 512.486 754.119 511.529 748.858 507.649Z" fill="#8A6846"/>
<path d="M748.858 507.649C754.119 511.478 760.488 512.435 766.48 514.627C771.867 516.617 777.254 518.658 782.641 520.623C783.278 520.817 783.833 521.216 784.22 521.758C784.607 522.3 784.804 522.955 784.781 523.621C784.806 524.116 784.806 524.612 784.781 525.107C784.026 548.964 786.191 572.77 785.738 596.602C777.128 595.493 769.677 590.858 761.42 588.565C758.273 587.684 755.277 586.223 752.155 585.265C750.715 584.956 749.453 584.095 748.639 582.866C747.825 581.637 747.524 580.138 747.8 578.69C748.002 572.569 747.674 566.447 747.574 560.325C747.574 544.555 747.574 528.785 747.574 513.015C747.549 511.277 746.516 509.009 748.858 507.649Z" fill="#624930"/>
<path d="M846.609 547.553C855.45 549.091 864.193 551.152 872.79 553.725C879.713 555.489 886.888 556.37 893.433 559.494C893.433 567.833 893.433 576.197 893.433 584.535C880.846 582.217 869.543 576.297 857.484 572.468C857.182 572.468 856.88 572.191 856.578 572.065C846.508 568.06 846.508 568.06 846.508 556.95C846.559 553.826 846.609 550.677 846.609 547.553Z" fill="#624930"/>
<path d="M893.483 584.535C893.483 576.196 893.483 567.833 893.483 559.494C904.409 560.829 914.831 564.255 925.404 567.052C927.771 567.682 930.968 566.372 932.428 569.571C932.591 570.396 932.446 571.253 932.019 571.978C931.591 572.703 930.913 573.245 930.112 573.501C917.877 577.204 906.221 582.671 893.483 584.535Z" fill="#8A6846"/>
<path d="M977.288 597.484C972.614 597.543 967.989 596.526 963.77 594.511C962.613 594.07 961.607 593.307 960.87 592.311C960.134 591.315 959.699 590.129 959.616 588.893C959.869 587.597 960.499 586.404 961.426 585.463C962.352 584.522 963.535 583.875 964.827 583.603C971.851 581.764 978.849 580.152 986.175 583.15C989.498 584.51 993.727 585.19 993.727 589.044C993.727 592.899 989.472 595.191 985.873 596.149C983.142 597.213 980.213 597.669 977.288 597.484Z" fill="#7FC37E"/>
<path d="M568.409 642.476C568.253 644.182 567.523 645.783 566.338 647.019C565.154 648.255 563.585 649.051 561.889 649.278C557.962 649.278 553.279 644.643 553.506 640.99C553.732 637.337 556.829 635.146 561.411 635.347C562.364 635.254 563.325 635.376 564.225 635.703C565.125 636.031 565.94 636.556 566.611 637.239C567.282 637.923 567.792 638.748 568.103 639.654C568.414 640.56 568.519 641.524 568.409 642.476Z" fill="#5D8F5C"/>
<path d="M765.12 630.359C759.255 630.359 757.744 629.074 757.769 624.238C757.861 622.364 758.681 620.601 760.055 619.325C761.428 618.05 763.247 617.362 765.12 617.411C767.016 617.578 768.799 618.389 770.172 619.708C771.545 621.028 772.427 622.777 772.672 624.666C772.723 628.571 770.457 630.384 765.12 630.359Z" fill="#5D8F5C"/>
<path d="M898.871 603.379C894.641 603.555 891.771 602.119 891.495 597.736C891.554 595.985 892.219 594.309 893.376 592.995C894.533 591.681 896.11 590.81 897.838 590.531C899.751 590.488 901.606 591.188 903.014 592.485C904.422 593.781 905.274 595.573 905.391 597.484C905.114 601.691 903.075 603.958 898.871 603.379Z" fill="#5D8F5C"/>
<path d="M730.858 613.455C729.65 616.126 728.341 618.242 725.697 618.065C725.068 618.006 724.457 617.822 723.899 617.524C723.341 617.226 722.848 616.821 722.448 616.331C722.047 615.842 721.748 615.278 721.567 614.672C721.386 614.065 721.327 613.429 721.393 612.8C721.393 610.054 724.061 608.896 726.427 608.896C729.222 608.946 729.071 612.246 730.858 613.455Z" fill="#F3A07F"/>
<path d="M501.521 679.08C501.83 679.118 502.143 679.118 502.453 679.08H503.51C503.761 679.105 504.014 679.105 504.265 679.08C505.373 681.331 505.554 683.927 504.769 686.31C504.451 687.25 503.787 688.033 502.913 688.501C502.038 688.969 501.019 689.087 500.061 688.829C497.695 688.401 497.367 686.512 497.544 684.647C497.921 682.431 497.77 679.408 501.521 679.08Z" fill="#62AFCD"/>
<path d="M864.004 608.744C865.077 608.777 866.095 609.227 866.843 609.998C867.59 610.769 868.007 611.801 868.007 612.876C868.183 614.866 866.547 616.1 864.457 616.176C863.925 616.276 863.378 616.267 862.849 616.148C862.321 616.03 861.822 615.804 861.383 615.486C860.945 615.167 860.576 614.763 860.3 614.296C860.023 613.83 859.844 613.313 859.775 612.775C859.473 610.004 861.864 609.424 864.004 608.744Z" fill="#F3A07F"/>
<path d="M333.383 570.629C334.188 578.187 341.086 578.187 345.819 580.278C360.923 586.853 376.028 592.874 391.132 599.524C401.831 604.336 412.757 608.644 423.657 613.002C425.219 613.58 426.88 613.842 428.544 613.772C430.207 613.703 431.841 613.304 433.349 612.599C459.514 601.817 485.678 591.077 511.843 580.378C515.795 578.766 518.388 576.549 517.708 571.864C517.58 571.291 517.576 570.698 517.698 570.124C517.82 569.55 518.064 569.009 518.413 568.538C524.832 569.092 528.986 573.123 528.483 578.388C528.231 580.58 527.677 582.998 525.16 583.427C522.518 583.905 520.148 585.351 518.514 587.483C512.321 594.813 504.24 598.844 495.504 602.094C485.309 605.848 476.221 612.02 465.874 615.521C456.031 618.872 446.339 622.726 436.471 626.102C431.053 627.726 425.239 627.405 420.032 625.195C403.971 619.149 388.036 612.826 372.201 606.074C360.668 601.544 349.375 596.423 338.367 590.732C328.952 585.518 326.863 580.983 327.97 570.579C328.272 567.682 330.06 567.127 332.275 566.699C332.331 566.79 332.36 566.895 332.36 567.002C332.36 567.108 332.331 567.213 332.275 567.304C331.948 568.412 331.444 569.873 333.383 570.629Z" fill="#5D8F5C"/>
<path d="M332.577 623.355C327.945 623.355 323.338 623.708 319.285 620.584C315.232 617.461 315.182 612.573 320.091 610.508C324.017 608.829 328.237 607.947 332.507 607.913C336.776 607.878 341.01 608.692 344.963 610.306C346.201 610.78 347.293 611.573 348.128 612.603C348.963 613.633 349.512 614.866 349.721 616.176C350.124 618.695 347.682 619.602 345.97 620.912C341.841 624.061 337.159 623.255 332.577 623.355Z" fill="#7FC37E"/>
<path d="M612.892 550.476C618.682 550.476 621.3 552.995 621.149 557.731C621.192 558.601 621.053 559.471 620.741 560.285C620.429 561.099 619.951 561.838 619.337 562.457C618.724 563.076 617.988 563.56 617.178 563.878C616.367 564.196 615.499 564.342 614.629 564.306C613.603 564.29 612.591 564.069 611.652 563.655C610.713 563.241 609.867 562.643 609.163 561.896C608.459 561.149 607.911 560.269 607.553 559.307C607.195 558.345 607.033 557.321 607.076 556.295C606.951 551.458 609.997 550.652 612.892 550.476Z" fill="#5D8F5C"/>
<path d="M259.799 587.76C259.888 588.672 259.772 589.592 259.458 590.453C259.145 591.315 258.642 592.094 257.988 592.735C257.333 593.376 256.543 593.861 255.675 594.155C254.808 594.45 253.886 594.545 252.976 594.435C249.1 594.435 245.172 591.236 245.223 588.188C245.223 583.981 248.747 581.26 253.807 581.462C254.633 581.413 255.459 581.545 256.229 581.848C256.999 582.152 257.693 582.62 258.263 583.219C258.834 583.819 259.266 584.536 259.532 585.32C259.797 586.104 259.888 586.937 259.799 587.76Z" fill="#5D8F5C"/>
<path d="M367.015 642.098C364.498 642.098 361.376 641.695 362.207 638.32C362.912 635.574 361.704 630.762 366.361 630.636C367.92 630.496 369.476 630.931 370.737 631.859C371.998 632.787 372.877 634.144 373.208 635.674C373.787 639.705 371.194 642.048 367.015 642.098Z" fill="#F3A07F"/>
<path d="M540.315 565.817C539.232 561.736 541.145 560.426 544.972 560.779C547.489 560.955 550.007 561.182 549.654 564.356C549.302 567.53 548.698 571.309 543.587 570.629C540.365 570.15 538.955 569.092 540.315 565.817Z" fill="#F3A07F"/>
<path d="M411.498 652.301C408.981 652.301 406.463 652.755 406.69 649.077C406.942 644.215 410.844 644.038 414.116 643.484C414.644 643.317 415.205 643.286 415.747 643.395C416.289 643.503 416.795 643.748 417.217 644.105C417.64 644.462 417.965 644.921 418.162 645.438C418.359 645.955 418.423 646.513 418.346 647.061C418.286 647.874 418.055 648.665 417.667 649.382C417.28 650.099 416.745 650.725 416.098 651.22C415.451 651.715 414.707 652.068 413.914 652.254C413.121 652.44 412.298 652.456 411.498 652.301Z" fill="#62AFCD"/>
<path d="M870.248 399.021C867.73 397.913 863.602 398.87 863.148 395.343C862.846 393.076 867.101 389.801 867.957 390.305C870.274 392.241 872.015 394.777 872.991 397.636C873.47 399.072 871.28 398.593 870.248 399.021Z" fill="#598A58"/>
<path d="M889.254 534.529C887.895 534.176 886.737 533.798 885.327 533.546C883.162 533.093 881.878 532.06 882.96 529.742C884.043 527.425 885.478 525.938 887.995 527.047C889.007 527.64 889.888 528.433 890.585 529.377C891.282 530.321 891.78 531.396 892.048 532.539C892.829 534.856 890.639 534.453 889.254 534.529Z" fill="#5D8F5C"/>
<path d="M883.892 485.732C882.054 483.843 877.825 486.211 877.221 482.734C877.045 481.701 879.361 477.52 882.256 478.023C885.151 478.527 886.208 481.752 886.586 484.498C886.938 486.387 885.075 485.405 883.892 485.732Z" fill="#5D8F5C"/>
<path d="M884.37 433.761C881.979 432.174 877.951 433.534 877.221 430.41C876.944 429.277 880.04 425.901 882.256 426.178C885.277 426.531 886.611 429.629 886.862 432.527C887.139 434.265 885.302 433.484 884.37 433.761Z" fill="#5D8F5C"/>
<path d="M333.383 570.629C331.444 569.949 331.948 568.487 332.2 567.077C332.523 567.218 332.813 567.425 333.051 567.686C333.289 567.946 333.47 568.254 333.581 568.589C333.693 568.924 333.733 569.279 333.699 569.63C333.664 569.981 333.557 570.322 333.383 570.629Z" fill="#6EAB6E"/>
<path d="M545.274 427.866L546.507 428.647L545.274 427.866Z" fill="#A1A3CA"/>
<path d="M777.757 491.728L776.7 488.78C779.016 489.057 779.243 490.015 777.757 491.728Z" fill="#62AFCD"/>
<path d="M503.51 679.206H502.453C502.956 678.576 503.208 678.702 503.51 679.206Z" fill="#6EAB6E"/>
</svg>
