<svg width="347" height="567" viewBox="0 0 347 567" fill="none" xmlns="http://www.w3.org/2000/svg">
<path fill-rule="evenodd" clip-rule="evenodd" d="M99.8439 139.468H66.1401C57.9317 139.468 51.2775 146.123 51.2775 154.331C51.2775 162.539 57.9317 169.193 66.1401 169.193H76.5304C84.9135 169.193 91.7092 175.989 91.7092 184.372C91.7092 191.361 86.9855 197.247 80.5566 199.011H74.9198C73.6324 199.011 72.3891 199.2 71.2159 199.551H57.1425C49.2834 199.551 42.9124 205.922 42.9124 213.781C42.9124 221.64 49.2834 228.011 57.1425 228.011H86.4763C88.5921 230.069 89.9064 232.946 89.9064 236.131C89.9064 242.385 84.8362 247.455 78.5819 247.455H53.2703C44.7574 247.455 37.8563 254.356 37.8563 262.869C37.8563 271.382 44.7574 278.283 53.2703 278.283H70.2167C76.471 278.283 81.5412 283.353 81.5412 289.607C81.5412 295.862 76.471 300.932 70.2167 300.932H36.3755C28.2101 300.932 21.5907 307.551 21.5907 315.717C21.5907 323.882 28.2101 330.501 36.3755 330.501H46.9231C55.2622 330.501 62.0224 337.262 62.0224 345.601C62.0224 353.94 55.2622 360.7 46.9231 360.7H27.3812C19.5632 360.7 13.2255 367.038 13.2255 374.856C13.2255 382.674 19.5632 389.011 27.3812 389.011H93.3226C99.1015 389.981 103.505 395.007 103.505 401.061C103.505 407.809 98.0346 413.28 91.2865 413.28H57.8901C48.7051 413.28 41.2593 420.725 41.2593 429.91C41.2593 439.095 48.7052 446.541 57.8901 446.541H81.2827C88.0308 446.541 93.5013 452.012 93.5013 458.76C93.5013 465.508 88.0308 470.978 81.2827 470.978H37.7595C28.9494 470.978 21.8075 478.12 21.8075 486.93C21.8075 495.74 28.9495 502.882 37.7595 502.882H53.8677C62.8652 502.882 70.1591 510.176 70.1591 519.174C70.1591 528.171 62.8652 535.465 53.8677 535.465H27.0769C18.6417 535.465 11.8037 542.303 11.8037 550.738C11.8037 559.173 18.6417 566.011 27.0769 566.011H217.993H270.523C278.958 566.011 285.796 559.173 285.796 550.738C285.796 542.303 278.958 535.465 270.523 535.465H248.178C239.181 535.465 231.887 528.171 231.887 519.174C231.887 510.176 239.181 502.882 248.178 502.882H258.008H289.852C298.662 502.882 305.804 495.74 305.804 486.93C305.804 478.12 298.662 470.978 289.852 470.978H195.754C189.006 470.978 183.535 465.508 183.535 458.76C183.535 452.012 189.006 446.541 195.754 446.541H263.052C272.237 446.541 279.683 439.095 279.683 429.91C279.683 420.725 272.237 413.28 263.052 413.28H216.873C210.125 413.28 204.654 407.809 204.654 401.061C204.654 395.007 209.058 389.981 214.837 389.011H228.183C236.001 389.011 242.339 382.674 242.339 374.856C242.339 367.038 236.001 360.7 228.183 360.7H212.359C204.02 360.7 197.26 353.94 197.26 345.601C197.26 337.262 204.02 330.501 212.359 330.501H219.102H244.284C252.45 330.501 259.069 323.882 259.069 315.717C259.069 307.551 252.45 300.932 244.284 300.932H168.152C161.898 300.932 156.828 295.862 156.828 289.607C156.828 283.353 161.898 278.283 168.152 278.283H221.813C230.325 278.283 237.226 271.382 237.226 262.869C237.226 254.356 230.325 247.455 221.813 247.455H185.812C179.558 247.455 174.488 242.385 174.488 236.131C174.488 232.946 175.81 230.069 177.933 228.011H215.328H257.795C265.654 228.011 272.025 221.64 272.025 213.781C272.025 205.922 265.654 199.551 257.795 199.551H242.125C233.742 199.551 226.946 192.755 226.946 184.372C226.946 175.989 233.742 169.193 242.125 169.193H248.789H273.893C282.102 169.193 288.756 162.539 288.756 154.331C288.756 146.123 282.102 139.468 273.893 139.468H197.899C191.611 139.468 186.515 134.371 186.515 128.084C186.515 121.797 191.611 116.7 197.899 116.7H251.418C259.976 116.7 266.913 109.763 266.913 101.205C266.913 92.6474 259.976 85.71 251.418 85.71H215.559C209.271 85.71 204.174 80.6132 204.174 74.3259C204.174 68.0387 209.272 62.9418 215.559 62.9418C221.848 62.9418 226.946 57.8442 226.946 51.5559V49.9766C226.946 42.8161 221.142 37.0114 213.981 37.0114H104.674C97.514 37.0114 91.7092 42.8161 91.7092 49.9766C91.7092 57.1371 97.514 62.9418 104.674 62.9418H108.209C114.496 62.9418 119.593 68.0387 119.593 74.3259C119.593 80.6132 114.496 85.71 108.209 85.71H83.0382C74.4805 85.71 67.5432 92.6474 67.5432 101.205C67.5432 109.763 74.4805 116.7 83.0382 116.7H99.8439C106.131 116.7 111.228 121.797 111.228 128.084C111.228 134.371 106.131 139.468 99.8439 139.468Z" fill="url(#paint0_linear_175_178)" fill-opacity="0.71"/>
<path d="M346.804 20.0114H56.8037C36.9215 20.0114 20.8037 36.1291 20.8037 56.0114V114.093C20.8037 133.976 36.9215 150.093 56.8037 150.093H157.901C177.783 150.093 193.901 166.211 193.901 186.093V236.045C193.901 255.927 177.783 272.045 157.901 272.045H123.158C103.275 272.045 87.1577 288.163 87.1577 308.045V357.997C87.1577 377.879 103.275 393.997 123.158 393.997H224.255C244.137 393.997 260.255 410.115 260.255 429.997V466.011C260.255 485.894 244.137 502.011 224.255 502.011H52.5382" stroke="#D0CECE" stroke-width="40"/>
<path d="M346.804 20.0114H56.8037C36.9215 20.0114 20.8037 36.1291 20.8037 56.0114V114.093C20.8037 133.976 36.9215 150.093 56.8037 150.093H157.901C177.783 150.093 193.901 166.211 193.901 186.093V236.045C193.901 255.927 177.783 272.045 157.901 272.045H123.158C103.275 272.045 87.1577 288.163 87.1577 308.045V357.997C87.1577 377.879 103.275 393.997 123.158 393.997H224.255C244.137 393.997 260.255 410.115 260.255 429.997V466.011C260.255 485.894 244.137 502.011 224.255 502.011H52.5382" stroke="#FEFEFE" stroke-width="20"/>
<path d="M346.804 20.0114H56.8037C36.9215 20.0114 20.8037 36.1291 20.8037 56.0114V114.415C20.8037 134.297 36.9215 150.415 56.8037 150.415H193.901" stroke="#687370" stroke-width="20.8"/>
<path d="M79.3037 23.0114C81.5129 23.0114 83.3037 21.2205 83.3037 19.0114C83.3037 16.8022 81.5129 15.0114 79.3037 15.0114V23.0114ZM14.8037 75.5114C14.8037 77.7205 16.5946 79.5114 18.8037 79.5114C21.0129 79.5114 22.8037 77.7205 22.8037 75.5114H14.8037ZM79.3037 15.0114H54.8037V23.0114H79.3037V15.0114ZM14.8037 55.0114V75.5114H22.8037V55.0114H14.8037ZM54.8037 15.0114C32.7123 15.0114 14.8037 32.92 14.8037 55.0114H22.8037C22.8037 37.3382 37.1306 23.0114 54.8037 23.0114V15.0114Z" fill="#ACAFAE" fill-opacity="0.35"/>
<ellipse cx="187.804" cy="150.511" rx="43" ry="42.5" fill="#C4C4C4"/>
<ellipse cx="187.804" cy="150.511" rx="34" ry="33.5" fill="#D5D7D6"/>
<path d="M180.1 141.603V133.971H193.396V169.011H184.852V141.603H180.1Z" fill="black"/>
<path d="M76.7277 218.445L76.3032 218.709L76.5674 219.134L76.9919 218.87L76.7277 218.445ZM74.9837 215.642L74.5592 215.906L74.9837 215.642ZM66.4932 220.925L66.9177 220.661L66.4932 220.925ZM68.2372 223.728L68.5013 224.153L68.9258 223.889L68.6617 223.464L68.2372 223.728ZM73.5201 232.219L73.9447 231.955L73.6805 231.53L73.256 231.794L73.5201 232.219ZM82.0107 226.936L81.7466 226.511L81.3221 226.775L81.5862 227.2L82.0107 226.936ZM85.9931 218.569C87.3061 220.679 86.6598 223.454 84.5497 224.767L85.078 225.616C87.657 224.011 88.4469 220.62 86.8421 218.041L85.9931 218.569ZM79.795 217.126C81.9051 215.813 84.6801 216.459 85.9931 218.569L86.8421 218.041C85.2374 215.462 81.8457 214.672 79.2667 216.276L79.795 217.126ZM76.9919 218.87L79.795 217.126L79.2667 216.276L76.4636 218.021L76.9919 218.87ZM74.5592 215.906L76.3032 218.709L77.1523 218.181L75.4083 215.378L74.5592 215.906ZM68.3611 214.463C70.4713 213.15 73.2462 213.796 74.5592 215.906L75.4083 215.378C73.8035 212.799 70.4119 212.009 67.8328 213.614L68.3611 214.463ZM66.9177 220.661C65.6047 218.551 66.251 215.776 68.3611 214.463L67.8328 213.614C65.2537 215.219 64.4639 218.61 66.0686 221.189L66.9177 220.661ZM68.6617 223.464L66.9177 220.661L66.0686 221.189L67.8126 223.992L68.6617 223.464ZM65.6986 225.897L68.5013 224.153L67.973 223.304L65.1703 225.047L65.6986 225.897ZM64.2552 232.095C62.9422 229.985 63.5885 227.21 65.6986 225.897L65.1703 225.047C62.5912 226.652 61.8014 230.044 63.4061 232.623L64.2552 232.095ZM70.4533 233.538C68.3431 234.851 65.5682 234.205 64.2552 232.095L63.4061 232.623C65.0109 235.202 68.4025 235.992 70.9816 234.387L70.4533 233.538ZM73.256 231.794L70.4533 233.538L70.9816 234.387L73.7843 232.643L73.256 231.794ZM75.6887 234.757L73.9447 231.955L73.0956 232.483L74.8396 235.286L75.6887 234.757ZM81.8868 236.201C79.7767 237.514 77.0017 236.868 75.6887 234.757L74.8396 235.286C76.4444 237.865 79.836 238.655 82.4151 237.05L81.8868 236.201ZM83.3302 230.003C84.6432 232.113 83.997 234.888 81.8868 236.201L82.4151 237.05C84.9942 235.445 85.784 232.054 84.1793 229.474L83.3302 230.003ZM81.5862 227.2L83.3302 230.003L84.1793 229.474L82.4353 226.672L81.5862 227.2ZM84.5497 224.767L81.7466 226.511L82.2749 227.36L85.078 225.616L84.5497 224.767Z" fill="black" fill-opacity="0.8"/>
<path d="M271.531 521.701L271.795 522.126L271.531 521.701ZM268.728 523.445L268.303 523.709L268.567 524.134L268.992 523.87L268.728 523.445ZM266.984 520.642L266.559 520.906L266.984 520.642ZM258.493 525.925L258.069 526.189L258.493 525.925ZM260.237 528.728L260.501 529.153L260.926 528.889L260.662 528.464L260.237 528.728ZM262.717 538.963L262.453 538.538L262.717 538.963ZM265.52 537.219L265.945 536.955L265.681 536.53L265.256 536.794L265.52 537.219ZM275.755 534.739L275.33 535.003L275.755 534.739ZM274.011 531.936L273.747 531.511L273.322 531.775L273.586 532.2L274.011 531.936ZM277.993 523.569C279.306 525.679 278.66 528.454 276.55 529.767L277.078 530.616C279.657 529.011 280.447 525.62 278.842 523.041L277.993 523.569ZM271.795 522.126C273.905 520.813 276.68 521.459 277.993 523.569L278.842 523.041C277.237 520.462 273.846 519.672 271.267 521.276L271.795 522.126ZM268.992 523.87L271.795 522.126L271.267 521.276L268.464 523.021L268.992 523.87ZM266.559 520.906L268.303 523.709L269.152 523.181L267.408 520.378L266.559 520.906ZM260.361 519.463C262.471 518.15 265.246 518.796 266.559 520.906L267.408 520.378C265.804 517.799 262.412 517.009 259.833 518.614L260.361 519.463ZM258.918 525.661C257.605 523.551 258.251 520.776 260.361 519.463L259.833 518.614C257.254 520.219 256.464 523.61 258.069 526.189L258.918 525.661ZM260.662 528.464L258.918 525.661L258.069 526.189L259.813 528.992L260.662 528.464ZM257.699 530.897L260.501 529.153L259.973 528.304L257.17 530.047L257.699 530.897ZM256.255 537.095C254.942 534.985 255.588 532.21 257.699 530.897L257.17 530.047C254.591 531.652 253.801 535.044 255.406 537.623L256.255 537.095ZM262.453 538.538C260.343 539.851 257.568 539.205 256.255 537.095L255.406 537.623C257.011 540.202 260.403 540.992 262.982 539.387L262.453 538.538ZM265.256 536.794L262.453 538.538L262.982 539.387L265.784 537.643L265.256 536.794ZM267.689 539.757L265.945 536.955L265.096 537.483L266.84 540.286L267.689 539.757ZM273.887 541.201C271.777 542.514 269.002 541.868 267.689 539.757L266.84 540.286C268.444 542.865 271.836 543.655 274.415 542.05L273.887 541.201ZM275.33 535.003C276.643 537.113 275.997 539.888 273.887 541.201L274.415 542.05C276.994 540.445 277.784 537.054 276.179 534.474L275.33 535.003ZM273.586 532.2L275.33 535.003L276.179 534.474L274.435 531.672L273.586 532.2ZM276.55 529.767L273.747 531.511L274.275 532.36L277.078 530.616L276.55 529.767Z" fill="black" fill-opacity="0.8"/>
<ellipse cx="126.804" cy="170.511" rx="10" ry="10.5" fill="#3C885E"/>
<ellipse cx="57.3037" cy="52.0114" rx="6.5" ry="7" fill="#343434" fill-opacity="0.49"/>
<ellipse cx="43.3037" cy="445.011" rx="6.5" ry="7" fill="#343434" fill-opacity="0.49"/>
<ellipse cx="223.304" cy="359.011" rx="6.5" ry="7" fill="#343434" fill-opacity="0.49"/>
<circle cx="84.8037" cy="332.011" r="43" fill="#C4C4C4"/>
<ellipse cx="84.8037" cy="331.511" rx="34" ry="33.5" fill="#FEFEFE"/>
<path d="M71.6757 343.435C72.7637 342.571 73.2597 342.171 73.1637 342.235C76.2997 339.643 78.7637 337.515 80.5557 335.851C82.3797 334.187 83.9157 332.443 85.1637 330.619C86.4117 328.795 87.0357 327.019 87.0357 325.291C87.0357 323.979 86.7317 322.955 86.1237 322.219C85.5157 321.483 84.6037 321.115 83.3877 321.115C82.1717 321.115 81.2117 321.579 80.5077 322.507C79.8357 323.403 79.4997 324.683 79.4997 326.347H71.5797C71.6437 323.627 72.2197 321.355 73.3077 319.531C74.4277 317.707 75.8837 316.363 77.6757 315.499C79.4997 314.635 81.5157 314.203 83.7237 314.203C87.5317 314.203 90.3957 315.179 92.3157 317.131C94.2677 319.083 95.2437 321.627 95.2437 324.763C95.2437 328.187 94.0757 331.371 91.7397 334.315C89.4037 337.227 86.4277 340.075 82.8117 342.859H95.7717V349.531H71.6757V343.435Z" fill="#C4C4C4"/>
<ellipse cx="56.8037" cy="501.511" rx="43" ry="42.5" fill="#C4C4C4"/>
<ellipse cx="56.8037" cy="501.511" rx="34" ry="33.5" fill="#EDF0EF"/>
<ellipse cx="52.8037" cy="412.511" rx="10" ry="10.5" fill="#3C885E"/>
<circle cx="56.8037" cy="501.011" r="34" fill="#FEFEFE"/>
<path d="M44.2517 493.859C44.3797 490.435 45.4997 487.795 47.6117 485.939C49.7237 484.083 52.5877 483.155 56.2037 483.155C58.6037 483.155 60.6517 483.571 62.3477 484.403C64.0757 485.235 65.3717 486.371 66.2357 487.811C67.1317 489.251 67.5797 490.867 67.5797 492.659C67.5797 494.771 67.0517 496.499 65.9957 497.843C64.9397 499.155 63.7077 500.051 62.2997 500.531V500.723C64.1237 501.331 65.5637 502.339 66.6197 503.747C67.6757 505.155 68.2037 506.963 68.2037 509.171C68.2037 511.155 67.7397 512.915 66.8117 514.451C65.9157 515.955 64.5877 517.139 62.8277 518.003C61.0997 518.867 59.0357 519.299 56.6357 519.299C52.7957 519.299 49.7237 518.355 47.4197 516.467C45.1477 514.579 43.9477 511.731 43.8197 507.923H51.7877C51.8197 509.331 52.2197 510.451 52.9877 511.283C53.7557 512.083 54.8757 512.483 56.3477 512.483C57.5957 512.483 58.5557 512.131 59.2277 511.427C59.9317 510.691 60.2837 509.731 60.2837 508.547C60.2837 507.011 59.7877 505.907 58.7957 505.235C57.8357 504.531 56.2837 504.179 54.1397 504.179H52.6037V497.507H54.1397C55.7717 497.507 57.0837 497.235 58.0757 496.691C59.0997 496.115 59.6117 495.107 59.6117 493.667C59.6117 492.515 59.2917 491.619 58.6517 490.979C58.0117 490.339 57.1317 490.019 56.0117 490.019C54.7957 490.019 53.8837 490.387 53.2757 491.123C52.6997 491.859 52.3637 492.771 52.2677 493.859H44.2517Z" fill="#C4C4C4"/>
<path d="M211.555 149.511C214.454 149.511 216.851 151.879 216.338 154.732C215.965 156.808 215.369 158.843 214.558 160.801C213.076 164.38 210.903 167.632 208.163 170.371C205.424 173.11 202.172 175.283 198.593 176.766C196.635 177.577 194.6 178.172 192.525 178.546C189.672 179.059 187.304 176.661 187.304 173.763C187.304 170.864 189.697 168.584 192.486 167.794C193.195 167.593 193.892 167.351 194.576 167.068C196.881 166.113 198.976 164.713 200.741 162.948C202.505 161.184 203.905 159.089 204.86 156.783C205.143 156.1 205.385 155.402 205.586 154.693C206.377 151.905 208.656 149.511 211.555 149.511Z" fill="white" fill-opacity="0.38"/>
<path d="M233.804 154.511C234.632 154.511 235.304 153.84 235.304 153.011C235.304 152.183 234.632 151.511 233.804 151.511V154.511ZM220.804 153.011L235.804 161.672V144.351L220.804 153.011Z" fill="black"/>
<path d="M247.279 147.556L243.874 154.066V158.011H242.509V154.066L239.089 147.556H240.604L243.184 152.851L245.764 147.556H247.279ZM252.303 158.146C251.533 158.146 250.833 157.971 250.203 157.621C249.583 157.271 249.093 156.776 248.733 156.136C248.383 155.486 248.208 154.736 248.208 153.886C248.208 153.046 248.388 152.306 248.748 151.666C249.118 151.016 249.618 150.521 250.248 150.181C250.878 149.831 251.583 149.656 252.363 149.656C253.143 149.656 253.848 149.831 254.478 150.181C255.108 150.521 255.603 151.011 255.963 151.651C256.333 152.291 256.518 153.036 256.518 153.886C256.518 154.736 256.328 155.486 255.948 156.136C255.578 156.776 255.073 157.271 254.433 157.621C253.793 157.971 253.083 158.146 252.303 158.146ZM252.303 156.946C252.793 156.946 253.253 156.831 253.683 156.601C254.113 156.371 254.458 156.026 254.718 155.566C254.988 155.106 255.123 154.546 255.123 153.886C255.123 153.226 254.993 152.666 254.733 152.206C254.473 151.746 254.133 151.406 253.713 151.186C253.293 150.956 252.838 150.841 252.348 150.841C251.848 150.841 251.388 150.956 250.968 151.186C250.558 151.406 250.228 151.746 249.978 152.206C249.728 152.666 249.603 153.226 249.603 153.886C249.603 154.556 249.723 155.121 249.963 155.581C250.213 156.041 250.543 156.386 250.953 156.616C251.363 156.836 251.813 156.946 252.303 156.946ZM265.603 149.791V158.011H264.238V156.796C263.978 157.216 263.613 157.546 263.143 157.786C262.683 158.016 262.173 158.131 261.613 158.131C260.973 158.131 260.398 158.001 259.888 157.741C259.378 157.471 258.973 157.071 258.673 156.541C258.383 156.011 258.238 155.366 258.238 154.606V149.791H259.588V154.426C259.588 155.236 259.793 155.861 260.203 156.301C260.613 156.731 261.173 156.946 261.883 156.946C262.613 156.946 263.188 156.721 263.608 156.271C264.028 155.821 264.238 155.166 264.238 154.306V149.791H265.603ZM268.118 147.556H269.633L268.193 150.961H267.233L268.118 147.556ZM272.554 151.126C272.794 150.656 273.134 150.291 273.574 150.031C274.024 149.771 274.569 149.641 275.209 149.641V151.051H274.849C273.319 151.051 272.554 151.881 272.554 153.541V158.011H271.189V149.791H272.554V151.126ZM284.285 153.586C284.285 153.846 284.27 154.121 284.24 154.411H277.67C277.72 155.221 277.995 155.856 278.495 156.316C279.005 156.766 279.62 156.991 280.34 156.991C280.93 156.991 281.42 156.856 281.81 156.586C282.21 156.306 282.49 155.936 282.65 155.476H284.12C283.9 156.266 283.46 156.911 282.8 157.411C282.14 157.901 281.32 158.146 280.34 158.146C279.56 158.146 278.86 157.971 278.24 157.621C277.63 157.271 277.15 156.776 276.8 156.136C276.45 155.486 276.275 154.736 276.275 153.886C276.275 153.036 276.445 152.291 276.785 151.651C277.125 151.011 277.6 150.521 278.21 150.181C278.83 149.831 279.54 149.656 280.34 149.656C281.12 149.656 281.81 149.826 282.41 150.166C283.01 150.506 283.47 150.976 283.79 151.576C284.12 152.166 284.285 152.836 284.285 153.586ZM282.875 153.301C282.875 152.781 282.76 152.336 282.53 151.966C282.3 151.586 281.985 151.301 281.585 151.111C281.195 150.911 280.76 150.811 280.28 150.811C279.59 150.811 279 151.031 278.51 151.471C278.03 151.911 277.755 152.521 277.685 153.301H282.875ZM298.141 147.556V158.011H296.776V153.271H291.451V158.011H290.086V147.556H291.451V152.146H296.776V147.556H298.141ZM307.971 153.586C307.971 153.846 307.956 154.121 307.926 154.411H301.356C301.406 155.221 301.681 155.856 302.181 156.316C302.691 156.766 303.306 156.991 304.026 156.991C304.616 156.991 305.106 156.856 305.496 156.586C305.896 156.306 306.176 155.936 306.336 155.476H307.806C307.586 156.266 307.146 156.911 306.486 157.411C305.826 157.901 305.006 158.146 304.026 158.146C303.246 158.146 302.546 157.971 301.926 157.621C301.316 157.271 300.836 156.776 300.486 156.136C300.136 155.486 299.961 154.736 299.961 153.886C299.961 153.036 300.131 152.291 300.471 151.651C300.811 151.011 301.286 150.521 301.896 150.181C302.516 149.831 303.226 149.656 304.026 149.656C304.806 149.656 305.496 149.826 306.096 150.166C306.696 150.506 307.156 150.976 307.476 151.576C307.806 152.166 307.971 152.836 307.971 153.586ZM306.561 153.301C306.561 152.781 306.446 152.336 306.216 151.966C305.986 151.586 305.671 151.301 305.271 151.111C304.881 150.911 304.446 150.811 303.966 150.811C303.276 150.811 302.686 151.031 302.196 151.471C301.716 151.911 301.441 152.521 301.371 153.301H306.561ZM311.138 151.126C311.378 150.656 311.718 150.291 312.158 150.031C312.608 149.771 313.153 149.641 313.793 149.641V151.051H313.433C311.903 151.051 311.138 151.881 311.138 153.541V158.011H309.773V149.791H311.138V151.126ZM322.869 153.586C322.869 153.846 322.854 154.121 322.824 154.411H316.254C316.304 155.221 316.579 155.856 317.079 156.316C317.589 156.766 318.204 156.991 318.924 156.991C319.514 156.991 320.004 156.856 320.394 156.586C320.794 156.306 321.074 155.936 321.234 155.476H322.704C322.484 156.266 322.044 156.911 321.384 157.411C320.724 157.901 319.904 158.146 318.924 158.146C318.144 158.146 317.444 157.971 316.824 157.621C316.214 157.271 315.734 156.776 315.384 156.136C315.034 155.486 314.859 154.736 314.859 153.886C314.859 153.036 315.029 152.291 315.369 151.651C315.709 151.011 316.184 150.521 316.794 150.181C317.414 149.831 318.124 149.656 318.924 149.656C319.704 149.656 320.394 149.826 320.994 150.166C321.594 150.506 322.054 150.976 322.374 151.576C322.704 152.166 322.869 152.836 322.869 153.586ZM321.459 153.301C321.459 152.781 321.344 152.336 321.114 151.966C320.884 151.586 320.569 151.301 320.169 151.111C319.779 150.911 319.344 150.811 318.864 150.811C318.174 150.811 317.584 151.031 317.094 151.471C316.614 151.911 316.339 152.521 316.269 153.301H321.459ZM326.441 147.556L326.276 155.056H325.136L324.971 147.556H326.441ZM325.766 158.101C325.506 158.101 325.286 158.011 325.106 157.831C324.926 157.651 324.836 157.431 324.836 157.171C324.836 156.911 324.926 156.691 325.106 156.511C325.286 156.331 325.506 156.241 325.766 156.241C326.016 156.241 326.226 156.331 326.396 156.511C326.576 156.691 326.666 156.911 326.666 157.171C326.666 157.431 326.576 157.651 326.396 157.831C326.226 158.011 326.016 158.101 325.766 158.101Z" fill="black"/>
<defs>
<linearGradient id="paint0_linear_175_178" x1="161.427" y1="37.0114" x2="161.748" y2="589.266" gradientUnits="userSpaceOnUse">
<stop offset="0.119792" stop-color="#3C885E"/>
<stop offset="0.619792" stop-color="#55C5D1"/>
<stop offset="0.947917" stop-color="#55C5D1" stop-opacity="0.08"/>
</linearGradient>
</defs>
</svg>
