<svg width="346" height="566" viewBox="0 0 346 566" fill="none" xmlns="http://www.w3.org/2000/svg">
<path fill-rule="evenodd" clip-rule="evenodd" d="M99.0402 139.457H65.3364C57.128 139.457 50.4738 146.111 50.4738 154.32C50.4738 162.528 57.128 169.182 65.3364 169.182H75.7267C84.1098 169.182 90.9055 175.978 90.9055 184.361C90.9055 191.35 86.1818 197.236 79.7529 199H74.1161C72.8287 199 71.5854 199.189 70.4122 199.54H56.3388C48.4797 199.54 42.1086 205.911 42.1086 213.77C42.1086 221.629 48.4797 228 56.3388 228H85.6726C87.7884 230.058 89.1026 232.935 89.1026 236.119C89.1026 242.374 84.0325 247.444 77.7782 247.444H52.4665C43.9537 247.444 37.0526 254.345 37.0526 262.858C37.0526 271.37 43.9537 278.272 52.4665 278.272H69.413C75.6673 278.272 80.7375 283.342 80.7375 289.596C80.7375 295.85 75.6673 300.921 69.413 300.921H35.5718C27.4064 300.921 20.787 307.54 20.787 315.705C20.787 323.871 27.4064 330.49 35.5718 330.49H46.1194C54.4585 330.49 61.2187 337.25 61.2187 345.589C61.2187 353.929 54.4585 360.689 46.1194 360.689H26.5775C18.7595 360.689 12.4218 367.026 12.4218 374.844C12.4218 382.662 18.7595 389 26.5775 389H92.5189C98.2978 389.969 102.701 394.995 102.701 401.05C102.701 407.798 97.2309 413.268 90.4828 413.268H57.0864C47.9014 413.268 40.4556 420.714 40.4556 429.899C40.4556 439.084 47.9014 446.53 57.0864 446.53H80.479C87.2271 446.53 92.6975 452 92.6975 458.748C92.6975 465.496 87.2271 470.967 80.479 470.967H36.9558C28.1457 470.967 21.0038 478.109 21.0038 486.919C21.0038 495.729 28.1457 502.871 36.9558 502.871H53.064C62.0615 502.871 69.3554 510.165 69.3554 519.162C69.3554 528.16 62.0615 535.454 53.064 535.454H26.2732C17.838 535.454 11 542.292 11 550.727C11 559.162 17.838 566 26.2732 566H217.189H269.719C278.154 566 284.992 559.162 284.992 550.727C284.992 542.292 278.154 535.454 269.719 535.454H247.375C238.377 535.454 231.083 528.16 231.083 519.162C231.083 510.165 238.377 502.871 247.375 502.871H257.204H289.048C297.858 502.871 305 495.729 305 486.919C305 478.109 297.858 470.967 289.048 470.967H194.95C188.202 470.967 182.732 465.496 182.732 458.748C182.732 452 188.202 446.53 194.95 446.53H262.248C271.433 446.53 278.879 439.084 278.879 429.899C278.879 420.714 271.433 413.268 262.248 413.268H216.069C209.321 413.268 203.851 407.798 203.851 401.05C203.851 394.995 208.254 389.969 214.033 389H227.379C235.197 389 241.535 382.662 241.535 374.844C241.535 367.026 235.197 360.689 227.379 360.689H211.555C203.216 360.689 196.456 353.929 196.456 345.589C196.456 337.25 203.216 330.49 211.555 330.49H218.298H243.48C251.646 330.49 258.265 323.871 258.265 315.705C258.265 307.54 251.646 300.921 243.48 300.921H167.349C161.094 300.921 156.024 295.85 156.024 289.596C156.024 283.342 161.094 278.272 167.349 278.272H221.009C229.522 278.272 236.423 271.37 236.423 262.858C236.423 254.345 229.522 247.444 221.009 247.444H185.008C178.754 247.444 173.684 242.374 173.684 236.119C173.684 232.935 175.006 230.058 177.13 228H214.524H256.992C264.851 228 271.222 221.629 271.222 213.77C271.222 205.911 264.851 199.54 256.992 199.54H241.321C232.938 199.54 226.143 192.744 226.143 184.361C226.143 175.978 232.938 169.182 241.321 169.182H247.985H273.089C281.298 169.182 287.952 162.528 287.952 154.32C287.952 146.111 281.298 139.457 273.089 139.457H197.095C190.808 139.457 185.711 134.36 185.711 128.073C185.711 121.786 190.808 116.689 197.095 116.689H250.615C259.172 116.689 266.11 109.751 266.11 101.194C266.11 92.636 259.172 85.6987 250.615 85.6987H214.755C208.468 85.6987 203.371 80.6018 203.371 74.3146C203.371 68.0273 208.468 62.9305 214.756 62.9305C221.044 62.9305 226.143 57.8328 226.143 51.5445V49.9652C226.143 42.8047 220.338 37 213.177 37H103.871C96.7103 37 90.9055 42.8047 90.9055 49.9652C90.9055 57.1257 96.7103 62.9305 103.871 62.9305H107.405C113.693 62.9305 118.789 68.0273 118.789 74.3146C118.789 80.6018 113.693 85.6987 107.405 85.6987H82.2345C73.6768 85.6987 66.7395 92.636 66.7395 101.194C66.7395 109.751 73.6768 116.689 82.2345 116.689H99.0402C105.327 116.689 110.424 121.786 110.424 128.073C110.424 134.36 105.327 139.457 99.0402 139.457Z" fill="url(#paint0_linear_505_255)" fill-opacity="0.71"/>
<path d="M346 20H56C36.1178 20 20 36.1178 20 56V114.082C20 133.964 36.1178 150.082 56 150.082H157.097C176.98 150.082 193.097 166.2 193.097 186.082V236.034C193.097 255.916 176.98 272.034 157.097 272.034H122.354C102.472 272.034 86.354 288.151 86.354 308.034V357.986C86.354 377.868 102.472 393.986 122.354 393.986H223.451C243.334 393.986 259.451 410.103 259.451 429.986V466C259.451 485.882 243.334 502 223.451 502H51.7345" stroke="#D0CECE" stroke-width="40"/>
<path d="M346 20H56C36.1178 20 20 36.1178 20 56V114.082C20 133.964 36.1178 150.082 56 150.082H157.097C176.98 150.082 193.097 166.2 193.097 186.082V236.034C193.097 255.916 176.98 272.034 157.097 272.034H122.354C102.472 272.034 86.354 288.151 86.354 308.034V357.986C86.354 377.868 102.472 393.986 122.354 393.986H223.451C243.334 393.986 259.451 410.103 259.451 429.986V466C259.451 485.882 243.334 502 223.451 502H51.7345" stroke="#FEFEFE" stroke-width="20"/>
<path d="M346 20H56C36.1178 20 20 36.1177 20 56V114.404C20 134.286 36.1178 150.404 56 150.404H193.097" stroke="#687370" stroke-width="20.8"/>
<path d="M78.5 23C80.7091 23 82.5 21.2091 82.5 19C82.5 16.7909 80.7091 15 78.5 15V23ZM14 75.5C14 77.7091 15.7909 79.5 18 79.5C20.2091 79.5 22 77.7091 22 75.5H14ZM78.5 15H54V23H78.5V15ZM14 55V75.5H22V55H14ZM54 15C31.9086 15 14 32.9086 14 55H22C22 37.3269 36.3269 23 54 23V15Z" fill="#ACAFAE" fill-opacity="0.35"/>
<path d="M84.0101 225.18L84.2743 225.605L84.0101 225.18ZM78.7271 216.69L78.9913 217.114L78.7271 216.69ZM75.924 218.434L75.4995 218.698L75.7637 219.122L76.1882 218.858L75.924 218.434ZM74.18 215.631L73.7555 215.895L74.18 215.631ZM65.6895 220.914L65.2649 221.178L65.6895 220.914ZM67.4334 223.717L67.6976 224.141L68.1221 223.877L67.858 223.453L67.4334 223.717ZM72.7164 232.207L73.141 231.943L72.8768 231.519L72.4523 231.783L72.7164 232.207ZM81.207 226.924L80.9429 226.5L80.5183 226.764L80.7825 227.189L81.207 226.924ZM85.1894 218.558C86.5023 220.668 85.8561 223.443 83.746 224.756L84.2743 225.605C86.8533 224 87.6432 220.608 86.0384 218.029L85.1894 218.558ZM78.9913 217.114C81.1014 215.801 83.8764 216.447 85.1894 218.558L86.0384 218.029C84.4337 215.45 81.042 214.66 78.463 216.265L78.9913 217.114ZM76.1882 218.858L78.9913 217.114L78.463 216.265L75.6599 218.009L76.1882 218.858ZM73.7555 215.895L75.4995 218.698L76.3486 218.17L74.6046 215.367L73.7555 215.895ZM67.5574 214.452C69.6675 213.139 72.4425 213.785 73.7555 215.895L74.6046 215.367C72.9998 212.788 69.6082 211.998 67.0291 213.603L67.5574 214.452ZM66.114 220.65C64.801 218.54 65.4473 215.765 67.5574 214.452L67.0291 213.603C64.45 215.207 63.6602 218.599 65.2649 221.178L66.114 220.65ZM67.858 223.453L66.114 220.65L65.2649 221.178L67.0089 223.981L67.858 223.453ZM64.8949 225.885L67.6976 224.141L67.1693 223.292L64.3666 225.036L64.8949 225.885ZM63.4515 232.083C62.1385 229.973 62.7847 227.198 64.8949 225.885L64.3666 225.036C61.7875 226.641 60.9977 230.033 62.6024 232.612L63.4515 232.083ZM69.6496 233.527C67.5394 234.84 64.7644 234.193 63.4515 232.083L62.6024 232.612C64.2072 235.191 67.5988 235.981 70.1779 234.376L69.6496 233.527ZM72.4523 231.783L69.6496 233.527L70.1779 234.376L72.9806 232.632L72.4523 231.783ZM74.885 234.746L73.141 231.943L72.2919 232.472L74.0359 235.274L74.885 234.746ZM81.0831 236.19C78.9729 237.503 76.198 236.856 74.885 234.746L74.0359 235.274C75.6407 237.853 79.0323 238.643 81.6114 237.039L81.0831 236.19ZM82.5265 229.991C83.8395 232.102 83.1932 234.877 81.0831 236.19L81.6114 237.039C84.1905 235.434 84.9803 232.042 83.3756 229.463L82.5265 229.991ZM80.7825 227.189L82.5265 229.991L83.3756 229.463L81.6316 226.66L80.7825 227.189ZM83.746 224.756L80.9429 226.5L81.4712 227.349L84.2743 225.605L83.746 224.756Z" fill="black" fill-opacity="0.8"/>
<path d="M276.01 530.18L276.274 530.605L276.01 530.18ZM270.727 521.69L270.991 522.114L270.727 521.69ZM267.924 523.434L267.5 523.698L267.764 524.122L268.188 523.858L267.924 523.434ZM266.18 520.631L265.756 520.895L266.18 520.631ZM257.689 525.914L257.265 526.178L257.689 525.914ZM259.433 528.717L259.698 529.141L260.122 528.877L259.858 528.453L259.433 528.717ZM264.716 537.207L265.141 536.943L264.877 536.519L264.452 536.783L264.716 537.207ZM266.46 540.01L266.036 540.274L266.46 540.01ZM274.951 534.727L274.527 534.991L274.951 534.727ZM273.207 531.924L272.943 531.5L272.518 531.764L272.782 532.189L273.207 531.924ZM277.189 523.558C278.502 525.668 277.856 528.443 275.746 529.756L276.274 530.605C278.853 529 279.643 525.608 278.038 523.029L277.189 523.558ZM270.991 522.114C273.101 520.801 275.876 521.447 277.189 523.558L278.038 523.029C276.434 520.45 273.042 519.66 270.463 521.265L270.991 522.114ZM268.188 523.858L270.991 522.114L270.463 521.265L267.66 523.009L268.188 523.858ZM265.756 520.895L267.5 523.698L268.349 523.17L266.605 520.367L265.756 520.895ZM259.557 519.452C261.668 518.139 264.443 518.785 265.756 520.895L266.605 520.367C265 517.788 261.608 516.998 259.029 518.603L259.557 519.452ZM258.114 525.65C256.801 523.54 257.447 520.765 259.557 519.452L259.029 518.603C256.45 520.207 255.66 523.599 257.265 526.178L258.114 525.65ZM259.858 528.453L258.114 525.65L257.265 526.178L259.009 528.981L259.858 528.453ZM256.895 530.885L259.698 529.141L259.169 528.292L256.367 530.036L256.895 530.885ZM255.451 537.083C254.139 534.973 254.785 532.198 256.895 530.885L256.367 530.036C253.788 531.641 252.998 535.033 254.602 537.612L255.451 537.083ZM261.65 538.527C259.539 539.84 256.764 539.193 255.451 537.083L254.602 537.612C256.207 540.191 259.599 540.981 262.178 539.376L261.65 538.527ZM264.452 536.783L261.65 538.527L262.178 539.376L264.981 537.632L264.452 536.783ZM266.885 539.746L265.141 536.943L264.292 537.472L266.036 540.274L266.885 539.746ZM273.083 541.19C270.973 542.503 268.198 541.856 266.885 539.746L266.036 540.274C267.641 542.853 271.032 543.643 273.611 542.039L273.083 541.19ZM274.527 534.991C275.839 537.102 275.193 539.877 273.083 541.19L273.611 542.039C276.19 540.434 276.98 537.042 275.376 534.463L274.527 534.991ZM272.782 532.189L274.527 534.991L275.376 534.463L273.632 531.66L272.782 532.189ZM275.746 529.756L272.943 531.5L273.471 532.349L276.274 530.605L275.746 529.756Z" fill="black" fill-opacity="0.8"/>
<ellipse cx="126" cy="170.5" rx="10" ry="10.5" fill="#3C885E"/>
<ellipse cx="56.5" cy="52" rx="6.5" ry="7" fill="#343434" fill-opacity="0.49"/>
<ellipse cx="42.5" cy="445" rx="6.5" ry="7" fill="#343434" fill-opacity="0.49"/>
<circle cx="84" cy="332" r="43" fill="#C4C4C4"/>
<ellipse cx="84" cy="331.5" rx="34" ry="33.5" fill="#FEFEFE"/>
<path d="M70.872 343.424C71.96 342.56 72.456 342.16 72.36 342.224C75.496 339.632 77.96 337.504 79.752 335.84C81.576 334.176 83.112 332.432 84.36 330.608C85.608 328.784 86.232 327.008 86.232 325.28C86.232 323.968 85.928 322.944 85.32 322.208C84.712 321.472 83.8 321.104 82.584 321.104C81.368 321.104 80.408 321.568 79.704 322.496C79.032 323.392 78.696 324.672 78.696 326.336H70.776C70.84 323.616 71.416 321.344 72.504 319.52C73.624 317.696 75.08 316.352 76.872 315.488C78.696 314.624 80.712 314.192 82.92 314.192C86.728 314.192 89.592 315.168 91.512 317.12C93.464 319.072 94.44 321.616 94.44 324.752C94.44 328.176 93.272 331.36 90.936 334.304C88.6 337.216 85.624 340.064 82.008 342.848H94.968V349.52H70.872V343.424Z" fill="#C4C4C4"/>
<ellipse cx="52" cy="412.5" rx="10" ry="10.5" fill="#3C885E"/>
<ellipse cx="56" cy="501.5" rx="43" ry="42.5" fill="#C4C4C4"/>
<ellipse cx="56" cy="501.5" rx="34" ry="33.5" fill="#EDF0EF"/>
<circle cx="56" cy="501" r="34" fill="#FEFEFE"/>
<path d="M43.448 493.848C43.576 490.424 44.696 487.784 46.808 485.928C48.92 484.072 51.784 483.144 55.4 483.144C57.8 483.144 59.848 483.56 61.544 484.392C63.272 485.224 64.568 486.36 65.432 487.8C66.328 489.24 66.776 490.856 66.776 492.648C66.776 494.76 66.248 496.488 65.192 497.832C64.136 499.144 62.904 500.04 61.496 500.52V500.712C63.32 501.32 64.76 502.328 65.816 503.736C66.872 505.144 67.4 506.952 67.4 509.16C67.4 511.144 66.936 512.904 66.008 514.44C65.112 515.944 63.784 517.128 62.024 517.992C60.296 518.856 58.232 519.288 55.832 519.288C51.992 519.288 48.92 518.344 46.616 516.456C44.344 514.568 43.144 511.72 43.016 507.912H50.984C51.016 509.32 51.416 510.44 52.184 511.272C52.952 512.072 54.072 512.472 55.544 512.472C56.792 512.472 57.752 512.12 58.424 511.416C59.128 510.68 59.48 509.72 59.48 508.536C59.48 507 58.984 505.896 57.992 505.224C57.032 504.52 55.48 504.168 53.336 504.168H51.8V497.496H53.336C54.968 497.496 56.28 497.224 57.272 496.68C58.296 496.104 58.808 495.096 58.808 493.656C58.808 492.504 58.488 491.608 57.848 490.968C57.208 490.328 56.328 490.008 55.208 490.008C53.992 490.008 53.08 490.376 52.472 491.112C51.896 491.848 51.56 492.76 51.464 493.848H43.448Z" fill="#C4C4C4"/>
<ellipse cx="187" cy="150.5" rx="43" ry="42.5" fill="#C4C4C4"/>
<ellipse cx="187" cy="150.5" rx="34" ry="33.5" fill="#D5D7D6"/>
<path d="M179.296 141.592V133.96H192.592V169H184.048V141.592H179.296Z" fill="black"/>
<path d="M210.751 149.5C213.65 149.5 216.047 151.868 215.534 154.721C215.161 156.797 214.565 158.831 213.754 160.789C212.272 164.368 210.099 167.62 207.36 170.36C204.62 173.099 201.368 175.272 197.789 176.754C195.831 177.565 193.797 178.161 191.721 178.534C188.868 179.047 186.5 176.65 186.5 173.751C186.5 170.853 188.893 168.573 191.682 167.783C192.391 167.582 193.089 167.339 193.772 167.056C196.078 166.101 198.172 164.702 199.937 162.937C201.702 161.172 203.101 159.078 204.056 156.772C204.339 156.089 204.582 155.391 204.783 154.682C205.573 151.893 207.853 149.5 210.751 149.5Z" fill="white" fill-opacity="0.38"/>
<defs>
<linearGradient id="paint0_linear_505_255" x1="160.624" y1="37" x2="160.944" y2="589.255" gradientUnits="userSpaceOnUse">
<stop offset="0.119792" stop-color="#3C885E"/>
<stop offset="0.619792" stop-color="#55C5D1"/>
<stop offset="0.947917" stop-color="#55C5D1" stop-opacity="0.08"/>
</linearGradient>
</defs>
</svg>
