<svg width="158" height="108" viewBox="0 0 158 108" fill="none" xmlns="http://www.w3.org/2000/svg">
<ellipse cx="111.5" cy="16" rx="6.5" ry="7" fill="#FFE27A" fill-opacity="0.48"/>
<ellipse cx="55.5" cy="101" rx="6.5" ry="7" fill="#FFE27A" fill-opacity="0.48"/>
<path d="M46.6923 26.8709C64.1955 26.8709 78.3846 40.6707 78.3846 57.6935C78.3846 74.7164 64.1955 88.5161 46.6923 88.5161C29.1891 88.5161 15 74.7164 15 57.6935C15 40.6707 29.1891 26.8709 46.6923 26.8709Z" fill="#FFCA5D"/>
<path d="M86.3078 36.3548C103.811 36.3548 118 50.1546 118 67.1774C118 84.2003 103.811 98 86.3078 98C68.8046 98 54.6155 84.2003 54.6155 67.1774C54.6155 50.1546 68.8046 36.3548 86.3078 36.3548Z" fill="#F6B545"/>
<path d="M86.3078 98C68.6507 98 54.6155 84.35 54.6155 67.1774C54.6155 50.0049 68.6507 36.3548 86.3078 36.3548C103.965 36.3548 118 50.0049 118 67.1774C118 84.35 103.965 98 86.3078 98ZM86.3078 45.1613C73.6309 45.1613 63.6705 54.8484 63.6705 67.1774C63.6705 79.5065 73.6309 89.1935 86.3078 89.1935C98.9847 89.1935 108.945 79.5065 108.945 67.1774C108.945 54.8484 98.9847 45.1613 86.3078 45.1613Z" fill="#FFCB5B"/>
<path d="M86.3076 36.3648C103.965 35.9295 118 49.8531 118 66.3871H117.547C115.283 66.3871 113.472 64.6465 113.02 62.471C112.114 56.3795 108.945 50.7233 104.418 46.8072C100.796 43.3264 95.8155 41.1509 90.3824 40.2808C88.1184 40.2808 86.3076 38.5402 86.3076 36.3648Z" fill="#F6B545"/>
<path d="M86.3078 97.9895C68.6507 98.4477 54.6155 83.7912 54.6155 66.3871H55.0684C57.332 66.3871 59.1432 68.2193 59.5957 70.5093C60.5011 76.9214 63.6705 82.8754 68.1978 86.9975C71.8197 90.6615 76.7999 92.9515 82.233 93.8678C84.4966 93.8674 86.3078 95.6996 86.3078 97.9895Z" fill="#FFE27A"/>
<path d="M67.2387 63.9444C67.2387 76.0148 77.0313 85.4987 89.4948 85.4987C94.8363 85.4987 99.7326 83.7742 103.738 80.3255C99.2874 85.4987 93.5009 88.5161 86.3791 88.5161C73.9157 88.5161 64.123 79.0322 64.123 66.9618C64.123 60.0645 67.2387 54.4605 72.135 50.5806C69.0194 54.0293 67.2387 58.7712 67.2387 63.9444Z" fill="#F19920"/>
<path d="M86.6529 53.9467C83.9659 53.9467 82.1748 55.7337 82.1748 58.4136V76.2815C82.1748 78.9617 83.9663 80.7484 86.6529 80.7484C89.3395 80.7484 91.131 78.9614 91.131 76.2815V58.4136C91.131 55.7337 89.3399 53.9467 86.6529 53.9467Z" fill="#F19920"/>
<path d="M103.221 40.9928C100.087 52.1603 92.0259 61.0945 81.7258 65.1145C79.9343 75.3888 73.2172 84.3225 64.7085 89.6831C59.3345 83.8761 55.752 76.2821 55.752 67.7948C55.752 50.3734 69.6346 36.5255 87.0998 36.5255C92.9218 36.079 98.2954 37.8656 103.221 40.9928Z" fill="#F19920"/>
<path d="M72.3213 50.3733C69.1867 54.3937 66.9473 59.3074 66.9473 64.6676C66.9473 70.9215 69.6343 76.7285 74.1124 80.7489C73.2168 82.0891 72.3209 82.9824 71.4254 83.8757C66.9473 79.8552 64.2603 74.0482 64.2603 67.3475C64.2606 60.2007 67.3952 54.3937 72.3213 50.3733Z" fill="#E78825"/>
<path d="M82.1733 64.6675V58.4136C82.1733 55.7333 83.9648 53.9467 86.6514 53.9467C89.3381 53.9467 91.1295 55.7337 91.1295 58.4136V59.3069C88.4429 61.5407 85.3083 63.3273 82.1733 64.6675Z" fill="#E78825"/>
<path d="M102.154 41.1761C101.265 44.2442 100.377 46.8743 98.5997 49.5043C95.0455 46.8743 90.6027 45.1211 85.7156 45.1211C73.2756 45.1211 63.5013 54.7644 63.5013 67.0377C63.5013 73.6128 66.1671 79.311 70.6098 83.256C68.3884 85.4476 66.1671 87.2011 63.5013 88.5161C58.1697 82.8179 54.6155 75.3663 54.6155 67.038C54.6155 49.9431 68.3884 36.3548 85.7156 36.3548C91.9356 36.3544 97.2668 38.1076 102.154 41.1761Z" fill="#F6B545"/>
<path d="M100.869 45.8387C97.8712 43.4678 94.0167 42.0451 90.1621 41.0968C88.0209 40.6225 86.3076 38.7258 86.3076 36.3549C92.3034 36.3549 97.4428 38.2519 102.154 41.5712C101.726 42.9938 101.297 44.4161 100.869 45.8387Z" fill="#F19920"/>
<path d="M64.4513 88.5161C58.5497 82.6452 54.6155 74.9677 54.6155 66.3871H55.1074C57.5663 66.3871 59.5336 68.1937 60.0251 70.4517C61.0086 76.7743 64.4513 82.1939 68.877 86.2581C67.4021 86.7099 65.9267 87.613 64.4513 88.5161Z" fill="#FFCB5B"/>
<path d="M46.6923 26.8709C64.1955 26.8709 78.3846 40.6707 78.3846 57.6935C78.3846 74.7164 64.1955 88.5161 46.6923 88.5161C29.1891 88.5161 15 74.7164 15 57.6935C15 40.6707 29.1891 26.8709 46.6923 26.8709Z" fill="#F6B545"/>
<path d="M41.9385 35.6524C41.9385 32.5791 42.3942 29.9446 43.3052 26.871C44.2163 26.871 45.5831 26.871 46.4941 26.871C64.2617 26.871 78.3846 40.4821 78.3846 57.6057C78.3846 60.679 77.9289 63.3134 77.0179 66.3871C76.1068 66.3871 74.7401 66.3871 73.829 66.3871C56.0615 66.3867 41.9385 52.7756 41.9385 35.6524Z" fill="#F19920"/>
<path d="M46.6923 88.5161C29.0352 88.5161 15 74.8661 15 57.6935C15 40.521 29.0352 26.8709 46.6923 26.8709C64.3494 26.8709 78.3846 40.5214 78.3846 57.6935C78.3846 74.8657 64.3494 88.5161 46.6923 88.5161ZM46.6923 35.6778C34.0154 35.6778 24.055 45.3649 24.055 57.6939C24.055 70.0229 34.0154 79.71 46.6923 79.71C59.3692 79.71 69.3296 70.0229 69.3296 57.6939C69.3296 45.3649 59.3692 35.6778 46.6923 35.6778Z" fill="#FFCB5B"/>
<path d="M46.6924 26.8814C64.3495 26.4233 78.3847 41.0795 78.3847 58.4839H77.9318C75.6682 58.4839 73.857 56.6517 73.4045 54.3617C72.4991 47.9495 69.3297 41.9954 64.8024 37.8732C61.1805 34.2092 56.2003 31.9192 50.7672 31.0029C48.5035 31.0033 46.6924 29.1714 46.6924 26.8814Z" fill="#F6B545"/>
<path d="M46.6923 88.5062C29.0352 88.9414 15 75.0178 15 58.4839H15.4529C17.7165 58.4839 19.5277 60.2244 19.9802 62.3999C20.8856 68.4914 24.055 74.1477 28.5823 78.0637C32.2042 81.5446 37.1844 83.72 42.6175 84.5905C44.8815 84.5905 46.6923 86.3307 46.6923 88.5062Z" fill="#FFE27A"/>
<path d="M27.6238 55.0173C27.6238 67.5907 37.4164 77.4698 49.8797 77.4698C55.2212 77.4698 60.1174 75.6734 64.1232 72.0811C59.6722 77.4698 53.8854 80.6129 46.7636 80.6129C34.3003 80.6129 24.5078 70.7339 24.5078 58.1605C24.5078 50.9758 27.6234 45.1383 32.5197 41.0968C29.4045 44.6891 27.6238 49.6286 27.6238 55.0173Z" fill="#F19920"/>
<path d="M59.8717 45.8387C59.4078 45.8387 58.9442 45.8387 58.4803 46.234C57.5528 47.0242 57.5528 48.2097 58.4803 49C61.2631 51.371 62.6545 54.9275 62.6545 58.0888C62.6545 59.2743 63.582 60.0645 64.9734 60.0645C66.3649 60.0645 67.2923 59.2743 67.2923 58.0888C67.2923 53.742 65.437 49.3952 62.1906 46.234C61.2627 45.8387 60.3352 45.8387 59.8717 45.8387Z" fill="#FFCB5B"/>
<path d="M46.6923 45.8387C43.8399 45.8387 41.9385 47.5249 41.9385 50.0537V66.914C41.9385 69.4432 43.8403 71.129 46.6923 71.129C49.5448 71.129 51.4462 69.4428 51.4462 66.914V50.0537C51.4466 47.5249 49.5448 45.8387 46.6923 45.8387Z" fill="#F19920"/>
<path d="M66.9482 66.9015C67.8438 64.2213 68.7397 61.541 68.7397 58.4142C68.7397 45.9065 58.8876 36.0791 46.3485 36.0791C45.0049 36.0791 43.2139 36.0791 41.8704 36.5259V36.0791C41.8704 32.9524 42.3183 30.2721 43.2139 27.145C44.1094 27.145 45.4529 27.145 46.3485 27.145C63.8136 27.145 77.6963 40.9928 77.6963 58.4142C77.6963 61.541 77.2483 64.2213 76.3528 67.3484C75.4572 67.3484 74.1137 67.3484 73.2182 67.3484C70.9784 67.348 69.1873 67.348 66.9482 66.9015Z" fill="#F6B545"/>
<path d="M68.7389 0.342274C86.0519 0.342274 100.087 14.342 100.087 31.6116C100.087 48.8811 86.0519 62.8809 68.7389 62.8809C51.426 62.8809 37.3911 48.8811 37.3911 31.6116C37.3911 14.342 51.426 0.342274 68.7389 0.342274Z" fill="#F6B545"/>
<path d="M68.8769 63.2258C51.2198 63.2258 37.1846 49.2258 37.1846 31.6129C37.1846 14 51.2198 2.09856e-05 68.8769 2.09856e-05C86.534 2.09856e-05 100.569 14 100.569 31.6129C100.569 49.2258 86.534 63.2258 68.8769 63.2258ZM68.8769 9.03234C56.1999 9.03234 46.2396 18.9678 46.2396 31.6129C46.2396 44.2581 56.1999 54.1935 68.8769 54.1935C81.5538 54.1935 91.5142 44.2581 91.5142 31.6129C91.5142 18.9678 81.5538 9.03234 68.8769 9.03234Z" fill="#FFCB5B"/>
<path d="M68.877 1.59059C86.5341 1.15535 100.569 15.079 100.569 31.6129H100.116C97.8527 31.6129 96.0416 29.8723 95.5891 27.6969C94.6837 21.6053 91.5143 15.9491 86.987 12.033C83.365 8.55221 78.3848 6.37675 72.9518 5.50626C70.6881 5.50664 68.877 3.76642 68.877 1.59059Z" fill="#F6B545"/>
<path d="M68.8769 63.2154C51.2198 63.6735 37.1846 49.0171 37.1846 31.6129H37.6375C39.9011 31.6129 41.7123 33.4451 42.1648 35.7351C43.0701 42.1472 46.2396 48.1012 50.7669 52.2233C54.3888 55.8873 59.369 58.1773 64.8021 59.0936C67.0661 59.0932 68.8769 60.9254 68.8769 63.2154Z" fill="#FFE27A"/>
<path d="M49.8084 29.1702C49.8084 41.2406 59.6009 50.7245 72.0642 50.7245C77.4057 50.7245 82.302 49 86.3078 45.5514C81.8568 50.7245 76.07 53.7419 68.9482 53.7419C56.4849 53.7419 46.6924 44.2581 46.6924 32.1876C46.6924 25.2903 49.808 19.6863 54.7043 15.8065C51.5886 19.2551 49.8084 23.997 49.8084 29.1702Z" fill="#F19920"/>
<path d="M82.0563 17.3871C81.5923 17.3871 81.1288 17.3871 80.6648 17.8702C79.7374 18.836 79.7374 20.285 80.6648 21.2508C83.4477 24.1487 84.8391 28.4956 84.8391 32.3594C84.8391 33.8083 85.7666 34.7742 87.158 34.7742C88.5494 34.7742 89.4769 33.8083 89.4769 32.3594C89.4769 27.0467 87.6216 21.7339 84.3752 17.8702C83.4477 17.3871 82.5202 17.3871 82.0563 17.3871Z" fill="#FFCB5B"/>
<path d="M68.0846 17.3871C65.7075 17.3871 64.123 19.2841 64.123 22.1289V41.097C64.123 43.9422 65.7079 45.8387 68.0846 45.8387C70.4617 45.8387 72.0461 43.9418 72.0461 41.097V22.1293C72.0465 19.2841 70.4617 17.3871 68.0846 17.3871Z" fill="#F19920"/>
<path d="M140.923 66.4338L140.499 66.6979L140.763 67.1225L141.187 66.8583L140.923 66.4338ZM139.179 63.6309L138.755 63.8951L139.179 63.6309ZM130.688 68.9139L131.113 68.6498L130.688 68.9139ZM132.432 71.7168L132.697 72.1413L133.121 71.8772L132.857 71.4526L132.432 71.7168ZM137.715 80.2074L138.14 79.9432L137.876 79.5187L137.451 79.7828L137.715 80.2074ZM147.95 77.7273L147.526 77.9914L147.95 77.7273ZM146.206 74.9244L145.942 74.4998L145.517 74.764L145.782 75.1885L146.206 74.9244ZM150.188 66.5576C151.501 68.6678 150.855 71.4427 148.745 72.7557L149.273 73.6048C151.852 72 152.642 68.6084 151.037 66.0293L150.188 66.5576ZM143.99 65.1142C146.1 63.8012 148.875 64.4475 150.188 66.5576L151.037 66.0293C149.433 63.4502 146.041 62.6604 143.462 64.2651L143.99 65.1142ZM141.187 66.8583L143.99 65.1142L143.462 64.2651L140.659 66.0093L141.187 66.8583ZM138.755 63.8951L140.499 66.6979L141.348 66.1696L139.604 63.3668L138.755 63.8951ZM132.556 62.4516C134.667 61.1387 137.442 61.7849 138.755 63.8951L139.604 63.3668C137.999 60.7877 134.607 59.9978 132.028 61.6026L132.556 62.4516ZM131.113 68.6498C129.8 66.5396 130.446 63.7646 132.556 62.4516L132.028 61.6026C129.449 63.2073 128.659 66.599 130.264 69.1781L131.113 68.6498ZM132.857 71.4526L131.113 68.6498L130.264 69.1781L132.008 71.9809L132.857 71.4526ZM129.894 73.8852L132.697 72.1413L132.168 71.2922L129.366 73.0361L129.894 73.8852ZM128.45 80.0833C127.138 77.9732 127.784 75.1982 129.894 73.8852L129.366 73.0361C126.787 74.6409 125.997 78.0325 127.601 80.6116L128.45 80.0833ZM134.649 81.5267C132.538 82.8397 129.763 82.1935 128.45 80.0833L127.601 80.6116C129.206 83.1907 132.598 83.9805 135.177 82.3758L134.649 81.5267ZM137.451 79.7828L134.649 81.5267L135.177 82.3758L137.98 80.6319L137.451 79.7828ZM139.884 82.7461L138.14 79.9432L137.291 80.4715L139.035 83.2744L139.884 82.7461ZM146.082 84.1895C143.972 85.5025 141.197 84.8563 139.884 82.7461L139.035 83.2744C140.64 85.8535 144.031 86.6433 146.61 85.0386L146.082 84.1895ZM147.526 77.9914C148.839 80.1016 148.192 82.8766 146.082 84.1895L146.61 85.0386C149.189 83.4339 149.979 80.0422 148.375 77.4631L147.526 77.9914ZM145.782 75.1885L147.526 77.9914L148.375 77.4631L146.631 74.6602L145.782 75.1885ZM148.745 72.7557L145.942 74.4998L146.47 75.3489L149.273 73.6048L148.745 72.7557Z" fill="black" fill-opacity="0.3"/>
<path d="M22.7261 9.68966L22.462 9.26513L22.7261 9.68966ZM19.9231 11.4338L19.4985 11.6979L19.7627 12.1225L20.1872 11.8583L19.9231 11.4338ZM18.1791 8.63091L17.7545 8.89506L18.1791 8.63091ZM9.68848 13.9139L10.113 13.6498L9.68848 13.9139ZM11.4325 16.7168L11.6966 17.1413L12.1212 16.8772L11.857 16.4526L11.4325 16.7168ZM8.62977 18.4607L8.89392 18.8852L8.62977 18.4607ZM16.7155 25.2074L17.14 24.9432L16.8758 24.5187L16.4513 24.7828L16.7155 25.2074ZM18.4595 28.0103L18.035 28.2744L18.4595 28.0103ZM25.206 19.9244L24.9419 19.4998L24.5174 19.764L24.7815 20.1885L25.206 19.9244ZM29.1884 11.5576C30.5014 13.6678 29.8551 16.4427 27.745 17.7557L28.2733 18.6048C30.8523 17 31.6422 13.6084 30.0375 11.0293L29.1884 11.5576ZM22.9903 10.1142C25.1004 8.80122 27.8754 9.44746 29.1884 11.5576L30.0375 11.0293C28.4327 8.45024 25.0411 7.66039 22.462 9.26513L22.9903 10.1142ZM20.1872 11.8583L22.9903 10.1142L22.462 9.26513L19.6589 11.0093L20.1872 11.8583ZM17.7545 8.89506L19.4985 11.6979L20.3476 11.1696L18.6036 8.36676L17.7545 8.89506ZM11.5564 7.45164C13.6666 6.13867 16.4416 6.78491 17.7545 8.89506L18.6036 8.36676C16.9988 5.78769 13.6072 4.99784 11.0281 6.60259L11.5564 7.45164ZM10.113 13.6498C8.80003 11.5396 9.44627 8.76462 11.5564 7.45164L11.0281 6.60259C8.44905 8.20733 7.6592 11.599 9.26395 14.1781L10.113 13.6498ZM11.857 16.4526L10.113 13.6498L9.26395 14.1781L11.0079 16.9809L11.857 16.4526ZM8.89392 18.8852L11.6966 17.1413L11.1683 16.2922L8.36562 18.0361L8.89392 18.8852ZM7.4505 25.0833C6.13753 22.9732 6.78377 20.1982 8.89392 18.8852L8.36562 18.0361C5.78655 19.6409 4.9967 23.0325 6.60144 25.6116L7.4505 25.0833ZM13.6486 26.5267C11.5385 27.8397 8.76347 27.1935 7.4505 25.0833L6.60144 25.6116C8.20618 28.1907 11.5978 28.9805 14.1769 27.3758L13.6486 26.5267ZM16.4513 24.7828L13.6486 26.5267L14.1769 27.3758L16.9796 25.6319L16.4513 24.7828ZM18.884 27.7461L17.14 24.9432L16.2909 25.4715L18.035 28.2744L18.884 27.7461ZM25.0821 29.1895C22.972 30.5025 20.197 29.8563 18.884 27.7461L18.035 28.2744C19.6397 30.8535 23.0314 31.6433 25.6104 30.0386L25.0821 29.1895ZM26.5255 22.9914C27.8385 25.1016 27.1923 27.8766 25.0821 29.1895L25.6104 30.0386C28.1895 28.4339 28.9793 25.0422 27.3746 22.4631L26.5255 22.9914ZM24.7815 20.1885L26.5255 22.9914L27.3746 22.4631L25.6306 19.6602L24.7815 20.1885ZM27.745 17.7557L24.9419 19.4998L25.4702 20.3489L28.2733 18.6048L27.745 17.7557Z" fill="black" fill-opacity="0.3"/>
<ellipse cx="11.5" cy="62" rx="6.5" ry="7" fill="#C4C4C4" fill-opacity="0.49"/>
</svg>
