<svg width="43" height="42" viewBox="0 0 43 42" fill="none" xmlns="http://www.w3.org/2000/svg">
<path d="M42 7.6363C42 7.6363 38.9342 8.51797 37.6424 6.81382C36.3505 5.10968 38.6107 5.10968 38.6107 5.10968C38.6107 5.10968 39.7292 5.16042 39.6224 6.48399C39.5156 7.80756 36.7543 9.45461 36.7543 9.45461" fill="#3C885E"/>
<path d="M42 7.6363C42 7.6363 38.9342 8.51797 37.6424 6.81382C36.3505 5.10968 38.6107 5.10968 38.6107 5.10968C38.6107 5.10968 39.7292 5.16042 39.6224 6.48399C39.5156 7.80756 36.7543 9.45461 36.7543 9.45461" stroke="#A0A0A0" stroke-width="2" stroke-miterlimit="10" stroke-linecap="round"/>
<path d="M40.2155 19.8138C39.7863 14.8272 38.7175 11.0732 37.2364 8.27699C31.5457 -2.46589 19.77 0.945572 14.8013 3.00175C14.0821 3.29957 13.3047 3.43015 12.5277 3.38364C11.7506 3.33712 10.9943 3.11473 10.3158 2.73323C0.24633 -2.93633 2.4928 5.66791 4.03308 9.86907C4.27276 10.5237 4.37632 11.2203 4.33742 11.9163C4.29852 12.6124 4.11798 13.2931 3.80685 13.9169C2.97486 15.5925 1.96422 18.0198 1.99805 19.873C2.0023 20.5217 1.87574 21.1645 1.62593 21.7632C1.45572 22.1861 1.28023 22.6026 1.18509 22.7686C-1.80562 27.9867 2.37017 31.8348 4.92533 33.5728C5.74081 34.1142 6.67581 34.4491 7.64963 34.5485C8.22475 34.6103 8.76621 34.8502 9.19837 35.2346C9.8887 35.8488 12.2007 36.2315 13.926 36.4377C15.1955 36.5882 16.3623 37.2095 17.1958 38.1788C18.4644 39.6525 20.3842 41.6273 21.4593 41.4666C23.1593 41.2118 24.4659 36.6332 25.356 36.3415C25.6267 36.2527 26.0273 36.1036 26.4523 35.9387C27.6398 35.4759 28.9583 35.4786 30.1439 35.9461C31.162 36.3531 32.4348 36.611 33.2425 35.87C34.1114 35.0739 34.5681 33.4142 34.8007 32.1297C34.9803 31.0796 35.4873 30.1132 36.249 29.3684C39.6383 26.1187 40.151 21.8996 40.2261 20.5401C40.24 20.298 40.2364 20.0553 40.2155 19.8138ZM4.33543 2.23531C4.25592 2.2201 4.18193 2.18388 4.12115 2.13042C4.06036 2.07696 4.01499 2.0082 3.98975 1.93129C3.96451 1.85437 3.96031 1.7721 3.9776 1.69302C3.99488 1.61394 4.03302 1.54092 4.08806 1.48155H4.09334C4.13767 1.43312 4.19206 1.39497 4.25269 1.36977C4.31331 1.34457 4.37872 1.33293 4.44432 1.33566C5.54588 1.38112 10.5399 1.8579 10.782 6.79802C10.7867 6.90867 10.751 7.01725 10.6816 7.10354L10.671 7.11728C10.6159 7.18556 10.5423 7.23646 10.459 7.26382C10.3756 7.29118 10.2861 7.29385 10.2013 7.2715C10.1165 7.24915 10.0399 7.20274 9.98092 7.13786C9.92188 7.07297 9.88288 6.9924 9.86861 6.90585C9.25123 3.58213 5.92117 2.54506 4.33543 2.23531ZM5.15367 15.7913C5.66957 15.7913 6.08609 16.3664 6.08609 17.0757C6.08609 17.7851 5.66957 18.3602 5.15367 18.3602C4.63778 18.3602 4.22971 17.7872 4.22971 17.0779C4.22971 16.3685 4.64306 15.7934 5.1579 15.7934L5.15367 15.7913ZM3.17995 28.6496C2.56363 28.6496 2.06359 27.9603 2.06359 27.1114C2.06359 26.2625 2.56363 25.5722 3.17995 25.5722C3.79628 25.5722 4.29632 26.2614 4.29632 27.1114C4.29632 27.9613 3.79628 28.6496 3.17995 28.6496ZM8.07778 29.7976C7.88538 30.6254 7.24263 31.1836 6.64216 31.0451C6.04169 30.9066 5.70974 30.1211 5.90215 29.2934C6.09455 28.4656 6.73624 27.9074 7.33671 28.047C7.93718 28.1865 8.26913 28.9699 8.07778 29.7976ZM11.9893 31.1371C11.981 31.3 11.9185 31.4556 11.8117 31.5789C11.43 32.0156 10.7545 31.7481 10.7175 31.1445C10.3507 25.8206 5.881 23.6386 3.76033 22.9049C3.29096 22.7421 3.16198 22.0835 3.5267 21.7209L3.55525 21.6924C3.62309 21.6234 3.70653 21.5717 3.79852 21.5417C3.89051 21.5117 3.98836 21.5043 4.08383 21.5201C5.62094 21.7833 12.391 23.3785 11.9882 31.1371H11.9893ZM14.5381 22.389C14.185 23.1481 13.4513 23.5519 12.9006 23.2982C12.3498 23.0445 12.1901 22.2188 12.5432 21.4598C12.8963 20.7008 13.63 20.2969 14.1808 20.5496C14.7316 20.8022 14.8912 21.63 14.537 22.389H14.5381ZM25.9206 20.2493C25.8656 20.3847 25.7613 20.4941 25.6288 20.5555C25.4962 20.6169 25.3453 20.6256 25.2066 20.58C25.0678 20.5343 24.9516 20.4376 24.8814 20.3095C24.8112 20.1814 24.7923 20.0314 24.8285 19.8899C25.947 15.546 22.6782 12.5173 21.0618 11.3269C20.9805 11.2673 20.9163 11.1873 20.8756 11.0951C20.8348 11.0028 20.819 10.9015 20.8297 10.8012C20.8404 10.7009 20.8773 10.6052 20.9366 10.5237C20.9958 10.4421 21.0755 10.3775 21.1676 10.3363L21.2183 10.3141C21.2976 10.2788 21.3839 10.2618 21.4707 10.2646C21.5575 10.2673 21.6425 10.2897 21.7194 10.33C22.9753 10.9802 28.3478 14.2108 25.9206 20.2493Z" fill="#3C885E"/>
</svg>
