<svg width="101" height="105" viewBox="0 0 101 105" fill="none" xmlns="http://www.w3.org/2000/svg">
<path d="M84.7954 27.0637L84.5824 26.8587C84.2319 26.6457 83.8059 26.5594 83.5309 26.2224C83.4782 25.8431 83.3085 25.4896 83.0455 25.2112C81.4628 23.3615 79.8612 21.5361 78.106 19.8427C75.6011 17.416 72.8024 15.5015 69.4293 14.5147C65.0748 13.2366 60.6745 12.1661 56.1151 12.007C53.3703 11.91 50.612 11.9073 47.8995 12.3522C42.9033 13.1611 38.6297 15.782 34.2402 18.0793C32.493 18.9934 30.8105 20.0261 29.0984 21.0049C27.9003 19.8944 26.6284 18.8665 25.2912 17.9283C23.3445 16.4911 21.6135 14.725 19.2704 13.8837C17.0136 13.0748 14.7218 12.5355 12.3976 13.6356C11.4782 14.0698 10.6639 14.6441 10.4698 15.7577C10.0217 16.4985 9.80044 17.3544 9.83343 18.2195C9.83343 19.3439 10.1651 20.4117 10.4185 21.4848C11.3407 25.3919 12.8101 29.1075 14.4036 32.78C14.7083 33.4784 14.9294 34.2199 15.5199 34.7564C14.9806 35.9132 14.4414 37.0753 13.8805 38.224C12.2048 41.6834 10.7636 45.2516 9.5665 48.9044C8.58775 51.8434 7.8274 54.8041 7.94873 57.94C7.99187 59.059 8.31273 60.1214 8.42058 61.2215L8.33969 61.7877C7.9134 62.0582 7.55009 62.4169 7.27426 62.8397C6.99844 63.2625 6.81652 63.7396 6.7408 64.2387C6.00202 68.4316 6.69766 72.3603 9.02724 75.9923C9.80647 77.2057 10.8041 78.2006 11.7046 79.2981C14.3093 82.469 17.4208 84.7178 21.6054 85.2139C21.7668 85.2638 21.9202 85.3364 22.0611 85.4296C24.148 87.2605 26.4695 87.22 28.9042 86.2952C29.1064 86.2547 29.3734 86.2952 29.5028 86.1631C31.3012 84.4859 33.1347 85.1735 34.9789 86.0525C35.0114 86.0643 35.0447 86.0733 35.0787 86.0795C36.6345 86.4354 37.9772 86.9989 37.9098 88.9565C37.9098 89.0428 38.0096 89.1318 38.0635 89.2262C38.2738 92.5427 39.5761 95.0477 42.9303 96.2368C46.6916 97.5634 50.2102 96.9945 53.4916 94.9668C55.4896 93.7345 55.7727 91.6044 55.7403 89.4419C55.7996 89.3044 55.8563 89.1722 55.9156 89.0266C58.0726 88.5952 60.2027 87.9777 62.3354 87.4088C64.6003 86.7994 66.0913 84.7744 68.4021 84.316C68.5072 84.2972 68.58 84.1165 68.6717 84.0086H69.2756C70.9716 85.1789 72.7808 84.9281 74.5577 84.3268C76.6796 83.6042 78.1275 82.1697 78.4753 79.8697C78.6021 79.0203 78.4753 78.1359 78.745 77.2946C79.0146 77.0682 78.8933 76.7554 78.9499 76.4642C79.3894 76.4453 79.6105 76.0975 79.8693 75.8278C81.5626 74.0806 83.0375 72.1472 84.5851 70.2787C86.8284 67.5823 88.5163 64.5731 89.3737 61.1433C89.9696 58.757 90.6652 56.3976 91.0158 53.9547C91.4175 51.1532 91.3393 48.3516 91.1425 45.5393C91.0077 43.6303 90.6032 41.7644 90.2311 39.9119C89.6029 36.8057 88.6835 33.8046 87.0441 31.057C86.7341 30.5366 86.2353 30.0782 86.2649 29.3906C87.4054 29.7466 88.4597 29.4392 89.4735 28.9376C89.6047 28.8554 89.7508 28.8 89.9035 28.7745C90.0563 28.7491 90.2125 28.7541 90.3633 28.7893C92.6767 29.4392 94.2216 28.2501 95.5644 26.6026C95.6993 26.4525 95.7769 26.2595 95.7832 26.0578C95.7895 25.8561 95.7243 25.6586 95.599 25.5004C95.4737 25.3421 95.2964 25.2333 95.0986 25.1932C94.9008 25.1532 94.6952 25.1844 94.5182 25.2813C94.2434 25.4254 93.9833 25.5961 93.7417 25.791C93.0353 26.2952 92.2318 26.6457 91.3986 26.4057C90.7299 26.2116 90.9564 25.4054 90.7731 24.8769C90.7165 24.7124 90.6814 24.5371 90.6113 24.3807C90.2177 23.5017 89.1715 22.8061 88.5001 22.9651C87.578 23.1836 87.152 23.9385 87.0981 25.1223C87.0495 26.1064 87.7991 26.7401 88.0418 27.5921C86.8149 28.0478 85.8605 27.2416 84.8062 27.0529L84.7954 27.0637Z" fill="#FEFEFE"/>
<path d="M29.0876 21.0049C30.7997 20.0261 32.4822 18.9934 34.2294 18.0793C38.6189 15.782 42.8925 13.1665 47.8887 12.3522C50.6012 11.9073 53.3595 11.91 56.1043 12.007C60.6637 12.1661 65.064 13.2366 69.4185 14.5147C72.7916 15.5015 75.5903 17.4268 78.0952 19.8427C79.8505 21.5361 81.4521 23.348 83.0348 25.2112C83.3017 25.4882 83.4752 25.8418 83.5309 26.2224C83.1399 26.2763 82.633 26.0471 82.4038 26.492C82.2043 26.8857 82.5171 27.247 82.811 27.4519C83.7601 28.1152 84.6687 28.8648 85.8416 29.1345L86.2541 29.3718C86.2245 30.0593 86.7233 30.5177 87.0334 31.0381C88.6727 33.7857 89.5921 36.7868 90.2204 39.8931C90.5951 41.7563 90.9969 43.6114 91.1317 45.5204C91.3285 48.3328 91.4013 51.1343 91.005 53.9358C90.6545 56.3788 89.9588 58.7381 89.3629 61.1244C88.5055 64.5542 86.8177 67.5526 84.5744 70.2598C83.0267 72.1284 81.5518 74.0617 79.8586 75.8089C79.5889 76.0786 79.3786 76.4264 78.9391 76.4453C78.9984 74.4526 79.9907 72.4411 78.7962 70.4755C78.6479 70.2274 78.8555 70.0306 78.9418 69.8068C80.0958 66.8084 80.7618 63.7345 80.4005 60.4962C79.6429 53.6986 76.0298 48.7022 70.462 45.0432C67.679 43.195 64.5668 41.8988 61.2947 41.2251C61.0709 41.1945 60.8594 41.105 60.6817 40.9657C60.504 40.8264 60.3666 40.6423 60.2835 40.4323C60.0735 39.956 59.8122 39.5039 59.5043 39.0841C58.3314 37.4663 57.3122 35.6193 55.2712 34.929C53.2301 34.2387 51.162 33.8073 49.0427 34.4248C47.9912 34.7322 46.7186 34.6594 46.058 35.8269C43.8066 37.0457 42.0135 38.9305 42.9168 41.2763C41.1588 41.5783 39.5168 42.2443 37.8667 42.8753C33.8023 44.4155 30.0768 46.7326 26.8982 49.6971C24.0998 52.3124 21.9488 55.5436 20.6158 59.1345C20.4729 59.5093 20.3112 59.7412 19.8905 59.7034C18.4777 58.8082 16.8599 58.5521 15.2664 58.2635C14.4363 58.1236 13.5831 58.262 12.8398 58.6572C11.3137 59.4176 9.91969 60.3964 8.42865 61.208C8.3208 60.1079 7.99994 59.0509 7.9568 57.9265C7.83816 54.7906 8.59852 51.83 9.57457 48.8909C10.7716 45.2381 12.2129 41.6699 13.8886 38.2105C14.4494 37.0619 14.9806 35.8997 15.528 34.743C15.954 34.8724 16.3665 35.0746 16.8384 34.9236C17.7204 34.614 18.5687 34.2156 19.3702 33.7345C21.4409 32.5966 23.4577 31.3078 25.906 31.0085C26.4614 30.9384 26.7148 30.5447 26.8065 30.0108C27.7987 30.1591 28.4243 29.601 28.7478 28.7947C29.7994 26.2413 30.2173 23.65 29.0876 21.0049ZM40.1747 28.3121L40.3931 28.5305C40.5575 29.1614 41.0806 29.1237 41.5633 29.156C43.2484 29.272 44.5858 28.4145 45.8773 27.5193C50.2183 24.4778 54.6995 21.7086 59.6283 19.7241C60.4372 19.4059 61.2165 18.9718 61.5454 18.0658C61.966 17.3971 61.6155 16.9603 61.025 16.7796C60.173 16.51 59.2859 16.2646 58.3773 16.4372C54.8873 17.0678 51.5653 18.4126 48.6194 20.3874C46.6997 21.6763 44.8446 23.0487 42.8332 24.2271C41.6999 24.8529 40.7549 25.7709 40.0965 26.8857C39.9293 27.1877 39.5572 27.5059 39.9698 27.8968C39.9661 27.9817 39.9848 28.066 40.0241 28.1413C40.0634 28.2165 40.1218 28.2801 40.1936 28.3256L40.1747 28.3121ZM16.9867 46.9953C17.0125 46.3115 16.8786 45.6311 16.5957 45.0081C16.0241 43.8972 14.7757 43.7004 14.0666 44.7142C13.5386 45.4311 13.1929 46.2658 13.0595 47.1461C12.9261 48.0265 13.0089 48.926 13.3008 49.7672C13.3783 50.055 13.5416 50.3124 13.7689 50.5051C13.9963 50.6977 14.2769 50.8166 14.5735 50.8458C14.8707 50.8699 15.1686 50.8098 15.4332 50.6725C15.6979 50.5351 15.9185 50.3261 16.0699 50.0692C16.6711 49.1571 16.99 48.0878 16.9867 46.9953Z" fill="#EFF5F6"/>
<path d="M46.0443 35.835C46.7049 34.6675 47.9776 34.7403 49.0291 34.4329C51.1484 33.8154 53.2434 34.2576 55.2575 34.9371C57.2717 35.6166 58.3178 37.4636 59.4907 39.0922C59.7986 39.512 60.0599 39.9641 60.2699 40.4404C60.353 40.6504 60.4904 40.8345 60.6681 40.9738C60.8458 41.1131 61.0573 41.2026 61.281 41.2332C64.5532 41.9069 67.6654 43.2031 70.4484 45.0513C76.0162 48.7103 79.6292 53.7067 80.3869 60.5042C80.7482 63.7399 80.0822 66.8165 78.9282 69.8149C78.8419 70.0387 78.6343 70.2355 78.7826 70.4836C79.9771 72.4492 78.9848 74.4607 78.9255 76.4534C78.8689 76.723 78.9956 77.0574 78.7206 77.2839C78.5994 77.2868 78.4802 77.3155 78.371 77.368C78.2617 77.4206 78.1649 77.4957 78.087 77.5886C76.2373 79.3655 74.0857 80.7298 71.9691 82.1535C71.0631 82.7629 70.0089 83.1674 69.2539 83.9979H68.65C67.7225 83.1889 66.8677 82.6497 65.56 83.5152C63.1334 85.1573 60.305 85.9932 57.5116 86.8237C55.964 87.2848 55.8939 87.336 55.8939 89.0212C55.8345 89.1587 55.7779 89.2909 55.7186 89.4365C54.2168 89.4365 52.7877 89.9083 51.3291 90.1699C47.9156 90.782 44.5371 90.9626 41.1533 90.0162C40.1233 89.7277 39.123 89.3151 38.0418 89.2262C37.9879 89.1399 37.8854 89.0509 37.8881 88.9565C37.9555 86.9989 36.6128 86.4354 35.057 86.0795C35.023 86.0733 34.9897 86.0643 34.9572 86.0525C33.113 85.1735 31.2795 84.4859 29.4811 86.1631C29.3517 86.2844 29.0847 86.2547 28.8825 86.2952C28.6911 85.6292 28.0386 85.524 27.5506 85.2652C26.2456 84.5803 26.2024 84.4724 27.2809 83.588C28.0923 82.8913 28.9392 82.237 29.8181 81.6277C31.7594 80.355 32.5575 78.7103 32.0749 76.3509C31.8862 75.4234 31.7298 74.4634 31.5842 73.5116C33.8554 73.6014 36.1246 73.2892 38.2871 72.5895C38.7994 72.4277 38.9639 72.3576 39.0286 73.1287C39.1796 75.0162 39.2551 77.0331 40.5898 78.5916C42.6551 80.9968 45.4835 81.3311 48.3874 81.1801C49.7035 81.1084 51.004 80.8599 52.2539 80.4413C55.5946 79.3169 58.6144 77.869 59.4449 73.97C59.5365 73.5494 59.7846 73.4307 60.1109 73.5224C61.1894 73.8487 62.2382 73.6545 63.3059 73.5008C65.7326 73.1557 68.0891 72.6029 70.1383 71.1873C72.1875 69.7717 73.7837 68.1404 73.4898 65.3928C73.417 64.7025 73.1932 64.0446 73.2795 63.3274C73.3739 62.5562 73.0665 61.9145 72.6755 61.27C71.5512 59.423 69.7581 58.7058 67.7818 58.2096C66.5388 57.8995 65.2581 58.1368 63.9584 57.9265C64.0056 57.763 64.0717 57.6055 64.1553 57.4573C65.2904 56.0121 65.889 54.4617 65.1745 52.6227C65.1019 52.389 65.0843 52.1417 65.1232 51.9001C65.3147 50.1906 64.4842 48.9664 63.2763 47.9094C63.0067 47.6802 62.7235 47.3378 62.3919 47.4618C61.9902 47.6101 62.1843 48.0793 62.1951 48.3975C62.2867 50.9995 61.9713 53.5395 60.8793 55.9177C60.3185 57.1419 59.6687 58.4038 58.0024 58.428C58.0671 58.1961 58.2261 57.9427 58.1776 57.7378C57.5898 55.3461 57.7408 52.8573 57.1719 50.4575C56.1824 46.2781 54.81 42.2443 52.2889 38.7363C50.8087 36.7113 48.9482 35.0531 46.0443 35.835Z" fill="#D1E3E6"/>
<path d="M31.6085 73.5116C31.7541 74.4607 31.9105 75.4233 32.0992 76.3509C32.5819 78.7102 31.7838 80.355 29.8424 81.6277C28.9635 82.237 28.1166 82.8913 27.3052 83.588C26.2267 84.4724 26.2645 84.5803 27.5749 85.2651C28.0629 85.5348 28.7154 85.6292 28.9068 86.2952C26.4802 87.22 24.1506 87.2605 22.0637 85.4296C21.9228 85.3364 21.7694 85.2638 21.608 85.2139C20.4917 83.588 20.1871 81.7005 19.8959 79.813C21.3303 80.2552 22.0259 81.6439 23.215 82.407C23.7893 82.7764 24.4256 83.6015 24.9217 83.3992C25.5715 83.1296 25.6902 82.1211 25.7306 81.385C25.9382 77.327 25.3154 73.5062 22.8995 70.0413C19.3944 65.018 14.6759 62.4914 8.58766 62.4348C8.50677 62.2218 8.42318 62.0115 8.3396 61.8012L8.42049 61.2349C9.91153 60.426 11.3055 59.4445 12.8316 58.6841C13.575 58.289 14.4281 58.1505 15.2583 58.2905C16.8518 58.579 18.4695 58.8297 19.8824 59.7303C19.9471 59.8436 20.001 60.0404 20.0792 60.0512C21.0418 60.1833 21.7509 60.7415 22.4762 61.3347C23.3579 62.0519 24.1236 62.9148 25.1186 63.4918C25.3882 63.8531 25.2399 64.4005 25.6362 64.716C27.5398 66.2421 28.4754 68.5529 30.1336 70.2759C30.3547 70.5078 30.2199 70.8017 30.2765 71.039C30.4949 71.9639 30.5165 73.0397 31.6085 73.5116Z" fill="#B0CED6"/>
<path d="M8.33701 61.7931C8.42059 62.0034 8.50417 62.2137 8.58506 62.4267C8.96459 64.1567 9.52677 65.8416 10.2622 67.4528C9.77143 68.9547 10.0572 70.3757 10.7556 71.7239C11.3299 72.8375 12.3248 73.2392 13.3952 72.8752C13.4581 72.9038 13.5178 72.9391 13.5732 72.9804C15.6817 74.9137 17.3291 77.2946 19.6452 79.0338C19.8906 79.2198 19.8852 79.5164 19.896 79.7942C20.1872 81.6816 20.4811 83.5691 21.6027 85.2031C17.4181 84.707 14.3066 82.4582 11.702 79.2872C10.8014 78.1898 9.81457 77.1949 9.02456 75.9815C6.69497 72.3494 5.99933 68.4316 6.73811 64.2279C6.81601 63.7317 6.99894 63.2578 7.27467 62.8379C7.55041 62.418 7.91259 62.0618 8.33701 61.7931Z" fill="#EFF5F6"/>
<path d="M29.0875 21.0048C30.2173 23.65 29.7994 26.2412 28.7478 28.7812C28.4135 29.5901 27.7987 30.1456 26.8065 29.9973C26.5369 29.4769 26.2672 28.943 25.9626 28.4361C24.3691 25.7828 22.4358 23.3696 20.5269 20.9455C18.9765 18.9772 17.2563 17.1328 15.1343 15.7685C13.5408 14.7438 12.2223 14.0482 10.4697 15.7685C10.6639 14.6549 11.4781 14.0805 12.3976 13.6464C14.7218 12.5409 17.0136 13.0883 19.2704 13.8945C21.6135 14.7304 23.3445 16.4965 25.2912 17.9391C26.6243 18.8742 27.8927 19.8985 29.0875 21.0048Z" fill="#D1E3E6"/>
<path d="M38.0608 89.218C39.1393 89.307 40.1423 89.7195 41.1723 90.0081C44.5561 90.9545 47.9346 90.7738 51.3481 90.1618C52.8068 89.8921 54.2358 89.4364 55.7376 89.4283C55.77 91.5854 55.4869 93.721 53.4889 94.9532C50.2048 96.9809 46.6889 97.5499 42.9276 96.2232C39.5734 95.0395 38.2711 92.5346 38.0608 89.218Z" fill="#B0CED6"/>
<path d="M10.4696 15.7631C12.2222 14.0482 13.5407 14.7438 15.1342 15.7631C17.2562 17.1274 18.9764 18.9718 20.5267 20.9401C22.4357 23.3669 24.369 25.7775 25.9625 28.4307C26.2671 28.9376 26.526 29.4715 26.8064 29.9919C26.7282 30.5312 26.4613 30.9195 25.9058 30.9896C23.4792 31.3024 21.4408 32.5912 19.362 33.748C18.5605 34.2291 17.7122 34.6275 16.8301 34.9371C16.3583 35.0881 15.9458 34.8859 15.5198 34.7564C14.9293 34.2171 14.7109 33.4783 14.4035 32.78C12.81 29.121 11.3405 25.3973 10.4184 21.4902C10.1649 20.4116 9.83869 19.3493 9.8333 18.2249C9.8003 17.3597 10.0215 16.5039 10.4696 15.7631ZM16.3475 33.3246C16.4661 33.5781 16.6171 33.5511 16.7573 33.3543H16.9596C19.5291 32.2407 21.8587 30.6067 24.59 29.849C24.6687 29.8288 24.7408 29.7887 24.7996 29.7325C24.8583 29.6764 24.9016 29.6062 24.9254 29.5285C24.9493 29.4509 24.9527 29.3684 24.9356 29.289C24.9184 29.2096 24.8811 29.136 24.8273 29.0751C24.2422 28.2662 23.8836 27.2928 23.0478 26.67C21.4384 24.114 19.5669 21.7328 17.4638 19.565C16.636 18.7021 15.7597 17.8339 14.6273 17.3081C13.1066 16.599 12.0065 17.2596 11.931 18.9556C11.8906 19.9694 12.1791 20.9428 12.3408 21.9216C12.7938 24.7151 13.5056 27.4411 14.9454 29.8948C15.6151 30.9446 16.0901 32.1064 16.3475 33.3246Z" fill="#B0CED6"/>
<path d="M86.2541 29.3906L85.8416 29.1533C85.6771 28.3606 84.8467 27.9049 84.79 27.0582C85.8497 27.2497 86.8042 28.0559 88.0256 27.5975C87.7829 26.7509 87.0333 26.1118 87.0819 25.1276C87.1385 23.9358 87.5618 23.1808 88.4839 22.9705C89.1553 22.8114 90.2015 23.5098 90.5951 24.3861C90.6652 24.5425 90.7003 24.7178 90.7569 24.8823C90.9403 25.4215 90.7138 26.2305 91.3825 26.4111C92.2156 26.6511 93.0191 26.3006 93.7255 25.7963C93.9671 25.6015 94.2272 25.4308 94.502 25.2867C94.679 25.1897 94.8847 25.1585 95.0825 25.1986C95.2803 25.2387 95.4575 25.3475 95.5828 25.5057C95.7081 25.664 95.7733 25.8614 95.767 26.0632C95.7607 26.2649 95.6832 26.4579 95.5482 26.6079C94.2001 28.2581 92.6605 29.4445 90.3471 28.7947C90.1963 28.7595 90.0401 28.7545 89.8874 28.7799C89.7346 28.8054 89.5885 28.8608 89.4573 28.943C88.4381 29.4311 87.3946 29.7385 86.2541 29.3906Z" fill="#B0CED6"/>
<path d="M69.2676 84.0005C70.0225 83.1701 71.0768 82.7656 71.9827 82.1562C74.0993 80.7325 76.251 79.3682 78.1006 77.5913C78.1786 77.4984 78.2754 77.4233 78.3846 77.3707C78.4939 77.3182 78.613 77.2895 78.7342 77.2866C78.4646 78.1278 78.594 79.0122 78.4646 79.8616C78.1168 82.1643 76.6689 83.5961 74.5469 84.3187C72.7781 84.92 70.9635 85.1708 69.2676 84.0005Z" fill="#B0CED6"/>
<path d="M55.9128 89.0131C55.9128 87.3279 55.9776 87.2767 57.5306 86.8156C60.324 85.9851 63.1389 85.1492 65.579 83.5071C66.8867 82.6308 67.736 83.1862 68.669 83.9898C68.5827 84.0976 68.5099 84.2783 68.3993 84.2972C66.0886 84.7555 64.5976 86.7805 62.3327 87.3899C60.1999 87.9642 58.0807 88.5817 55.9128 89.0131Z" fill="#EFF5F6"/>
<path d="M84.79 27.0502C84.8466 27.8968 85.6771 28.3525 85.8415 29.1453C84.6687 28.8756 83.76 28.126 82.8109 27.4627C82.517 27.2578 82.2043 26.8965 82.4038 26.5028C82.633 26.0471 83.1399 26.2763 83.5308 26.2332C83.8005 26.5702 84.2319 26.6565 84.5824 26.8695L84.7954 27.0744L84.79 27.0502Z" fill="#D1E3E6"/>
<path d="M84.7953 27.0636L84.5823 26.8587L84.7953 27.0636Z" fill="#B0CED6"/>
<path d="M25.1131 63.4865C24.1182 62.9067 23.3525 62.0439 22.4708 61.3294C21.7455 60.7361 21.0364 60.178 20.0738 60.0459C19.9956 60.0459 19.9417 59.8383 19.877 59.725C20.2976 59.7628 20.4594 59.5309 20.6023 59.1561C21.9352 55.5652 24.0862 52.334 26.8846 49.7187C30.0611 46.7455 33.7868 44.4201 37.8531 42.8726C39.5032 42.2416 41.1452 41.5756 42.9032 41.2736C44.0006 42.9939 45.7181 44.1102 47.0663 45.5878C47.7862 46.3752 48.7622 47.0223 49.0049 48.1818C47.5354 49.5785 46.0605 50.9617 43.7876 49.8832C43.7013 49.8427 43.58 49.8832 43.4775 49.8832C40.276 49.7661 37.1128 50.6114 34.3964 52.3099C33.4446 52.9031 32.3526 53.5179 32.0614 54.7987C29.9799 55.8152 29.2924 57.1634 29.6591 59.4554C27.7016 60.302 26.1323 61.5855 25.1131 63.4865Z" fill="#D1E3E6"/>
<path d="M49.005 48.1845C48.7623 47.025 47.7862 46.3779 47.0663 45.5905C45.7182 44.121 44.0007 43.0047 42.9033 41.2763C42.0081 38.9305 43.7931 37.0457 46.0444 35.8269C48.9483 35.0342 50.8088 36.7032 52.2809 38.7525C54.802 42.2578 56.1744 46.3024 57.1639 50.4737C57.7328 52.8708 57.5818 55.3595 58.1696 57.7539C58.2182 57.9589 58.0591 58.2123 57.9944 58.4442C57.0345 59.0806 56.622 58.2582 56.1663 57.7081C54.225 55.3703 52.5452 52.8546 50.86 50.3146C50.3423 49.5461 49.9379 48.6213 49.005 48.1845ZM55.8131 53.8226C55.8535 53.5772 55.9047 53.4667 55.8805 53.3777C54.9179 49.8724 54.3355 46.2538 52.7555 42.9265C52.0868 41.5217 51.6338 40.0252 50.3558 38.9682C49.0778 37.9112 46.9126 37.8735 45.9824 38.9682C45.0522 40.0629 45.2598 42.336 46.4705 43.2258C47.975 44.3367 49.1506 45.755 50.2453 47.2218C51.5179 48.9125 52.6395 50.7271 53.8502 52.4555C54.0497 52.7413 54.1872 53.3184 54.6375 53.1458C55.2738 52.9139 55.4113 53.4154 55.8131 53.8226Z" fill="#B0CED6"/>
<path d="M39.9696 27.8968C39.5598 27.5058 39.9292 27.1877 40.0964 26.8857C40.7548 25.7709 41.6998 24.8529 42.8331 24.227C44.8364 23.0487 46.6996 21.6762 48.6193 20.3874C51.566 18.4164 54.888 17.0753 58.3772 16.448C59.2858 16.2754 60.1729 16.5315 61.0249 16.7904C61.6154 16.9711 61.9659 17.4079 61.5453 18.0766C60.3104 18.3974 59.0378 18.6158 57.8864 19.1794C53.4672 21.3689 49.2071 23.8361 45.2975 26.8722C43.8496 27.9966 42.372 28.9915 40.393 28.5305L40.1746 28.3121C40.1841 28.2305 40.1698 28.1478 40.1334 28.0742C40.0971 28.0005 40.0402 27.9389 39.9696 27.8968Z" fill="#D1E3E6"/>
<path d="M16.9867 46.9953C16.9922 48.0915 16.6732 49.1647 16.0699 50.08C15.9175 50.339 15.6948 50.5495 15.4275 50.687C15.1602 50.8245 14.8594 50.8833 14.56 50.8565C14.2635 50.8273 13.9828 50.7085 13.7555 50.5158C13.5281 50.3231 13.3648 50.0658 13.2874 49.778C12.9955 48.9368 12.9127 48.0372 13.0461 47.1569C13.1795 46.2765 13.5251 45.4419 14.0531 44.725C14.7623 43.7111 16.0106 43.916 16.5822 45.0189C16.8682 45.6375 17.0066 46.3141 16.9867 46.9953Z" fill="#141514"/>
<path d="M40.3958 28.5305C42.3748 28.9916 43.8524 27.9912 45.3003 26.8722C49.2072 23.8361 53.4673 21.3689 57.8865 19.1686C59.0378 18.597 60.3132 18.3867 61.5454 18.0658C61.2164 18.9718 60.4264 19.414 59.6283 19.7241C54.6887 21.7086 50.2075 24.4778 45.8773 27.5193C44.5993 28.4145 43.2619 29.272 41.5632 29.156C41.0833 29.121 40.5602 29.1614 40.3958 28.5305Z" fill="#B0CED6"/>
<path d="M39.9697 27.8968C40.0461 27.9371 40.1084 27.9998 40.1483 28.0763C40.1883 28.1529 40.2041 28.2398 40.1935 28.3255C40.1218 28.2801 40.0633 28.2165 40.024 28.1412C39.9847 28.0659 39.966 27.9816 39.9697 27.8968Z" fill="#B0CED6"/>
<path d="M40.1746 28.3121L40.393 28.5305L40.1746 28.3121Z" fill="#B0CED6"/>
<path d="M49.0048 48.1845C49.9377 48.6213 50.353 49.5461 50.8599 50.32C52.545 52.8492 54.2248 55.3757 56.1661 57.7135C56.6218 58.2528 57.0343 59.0859 57.9942 58.4496C59.6605 58.4253 60.3103 57.1634 60.8712 55.9393C61.9631 53.561 62.2786 51.0211 62.1869 48.419C62.1869 48.1009 61.982 47.6317 62.3838 47.4834C62.7154 47.3594 63.0066 47.7018 63.2681 47.931C64.4761 48.988 65.3065 50.2121 65.1151 51.9216C65.0762 52.1632 65.0937 52.4106 65.1663 52.6443C65.8808 54.4832 65.2823 56.0336 64.1471 57.4789C64.0635 57.6271 63.9975 57.7846 63.9503 57.9481C65.2499 58.1584 66.5306 57.9211 67.7736 58.2312C69.75 58.7273 71.5484 59.4446 72.6674 61.2916C73.0583 61.936 73.3657 62.5778 73.2713 63.3489C73.1851 64.0527 73.4089 64.7241 73.4817 65.4144C73.7755 68.162 72.147 69.8149 70.1302 71.2089C68.1134 72.6029 65.7218 73.1773 63.2978 73.5224C62.2193 73.6761 61.1758 73.8702 60.1027 73.544C59.7765 73.4442 59.5284 73.5709 59.4367 73.9916C58.6063 77.8798 55.5864 79.3277 52.2458 80.4629C50.9959 80.8814 49.6954 81.1299 48.3793 81.2017C45.4754 81.3527 42.647 81.0183 40.5816 78.6132C39.247 77.0547 39.1715 75.0486 39.0205 73.1503C38.9558 72.3683 38.7913 72.4385 38.279 72.611C36.1267 73.307 33.8688 73.6191 31.6084 73.5332C30.5299 73.0613 30.4949 71.9855 30.2603 71.0552C30.2037 70.8179 30.3385 70.5159 30.1174 70.2921C28.4592 68.5691 27.5236 66.2475 25.62 64.7322C25.2236 64.4167 25.3854 63.8693 25.1023 63.508C26.1215 61.6205 27.6907 60.3236 29.6428 59.4769C30.5677 61.1244 31.7675 61.6475 33.2154 61.03C34.8871 60.3182 35.9117 58.2447 35.3967 56.5594C34.9464 55.0387 33.903 54.4967 32.0506 54.8203C32.3418 53.5395 33.4338 52.9328 34.3856 52.3315C37.102 50.6329 40.2651 49.7876 43.4667 49.9047C43.5691 49.9047 43.6905 49.8697 43.7767 49.9047C46.0605 50.9617 47.5353 49.5785 49.0048 48.1845Z" fill="#E4E6BE"/>
<path d="M10.262 67.4528C9.52667 65.8416 8.96448 64.1568 8.58496 62.4268C14.6732 62.4861 19.397 65.0099 22.8968 70.0333C25.3235 73.4981 25.9355 77.3135 25.7279 81.377C25.6902 82.1131 25.5715 83.1269 24.919 83.3912C24.4229 83.5934 23.7866 82.7683 23.2123 82.3989C22.0232 81.6358 21.3249 80.2418 19.8932 79.805C19.8932 79.5353 19.8932 79.2306 19.6424 79.0446C17.3263 77.3162 15.6789 74.9245 13.5704 72.9912C13.515 72.9499 13.4553 72.9146 13.3924 72.886C14.5923 71.5891 14.63 70.0656 14.0989 68.526C13.7888 67.6254 13.3142 66.6978 12.2492 66.4363C11.3379 66.2098 10.7528 66.776 10.262 67.4528ZM22.6002 75.0944C22.6137 74.1291 21.8588 72.096 21.3572 71.5432C20.5025 70.6022 19.1085 70.6669 18.5396 71.6754C17.7658 73.0505 18.2107 75.7847 19.3917 76.8983C20.3623 77.815 21.5271 77.664 22.1526 76.4857C22.3493 76.0386 22.4993 75.5723 22.6002 75.0944Z" fill="#D1E3E6"/>
<path d="M10.2619 67.4528C10.7527 66.776 11.3404 66.2098 12.2518 66.4363C13.3303 66.7059 13.7914 67.6254 14.1014 68.526C14.6407 70.0656 14.5949 71.5891 13.395 72.886C12.3165 73.2501 11.3297 72.8483 10.7553 71.7347C10.057 70.3757 9.7712 68.9547 10.2619 67.4528Z" fill="#B0CED6"/>
<path d="M16.9596 33.3435H16.7574L16.3476 33.3139C16.0922 32.1001 15.621 30.942 14.9563 29.8949C13.5165 27.4411 12.7992 24.7151 12.3517 21.9216C12.1899 20.9321 11.9014 19.9587 11.9418 18.9556C12.0065 17.2596 13.1066 16.599 14.6381 17.3081C15.7706 17.8474 16.6468 18.7021 17.4746 19.565C19.5726 21.7258 21.4404 24.0987 23.0478 26.6457C22.9437 26.6397 22.8396 26.6575 22.7434 26.6976C22.6471 26.7378 22.5613 26.7994 22.4924 26.8776C21.1442 28.4766 19.7179 30.0351 18.448 31.7014C17.9869 32.3 17.1295 32.513 16.9596 33.3435Z" fill="#EFF5F6"/>
<path d="M16.9597 33.3435C17.1296 32.513 17.987 32.3 18.4454 31.7014C19.718 30.035 21.1417 28.4657 22.4898 26.8776C22.5587 26.7993 22.6446 26.7378 22.7408 26.6976C22.837 26.6574 22.9411 26.6397 23.0452 26.6457C23.8811 27.2685 24.2397 28.2446 24.8248 29.0508C24.8786 29.1117 24.9158 29.1854 24.933 29.2647C24.9502 29.3441 24.9467 29.4266 24.9229 29.5042C24.8991 29.5819 24.8557 29.6521 24.797 29.7083C24.7383 29.7644 24.6662 29.8045 24.5875 29.8247C21.8589 30.5959 19.5293 32.2299 16.9597 33.3435Z" fill="#D1E3E6"/>
<path d="M16.3477 33.3246L16.7575 33.3543C16.6065 33.5511 16.4663 33.5781 16.3477 33.3246Z" fill="#D1E3E6"/>
<path d="M32.0614 54.7987C33.9138 54.4751 34.9572 55.0171 35.4075 56.5378C35.909 58.2231 34.8979 60.2966 33.2262 61.0085C31.7783 61.6259 30.5785 61.1028 29.6537 59.4553C29.2924 57.1634 29.9799 55.8152 32.0614 54.7987Z" fill="#141514"/>
<path d="M55.813 53.8226C55.4112 53.4154 55.2737 52.9139 54.6455 53.1593C54.1952 53.3319 54.0577 52.7548 53.8582 52.469C52.6475 50.7298 51.5259 48.926 50.2533 47.2353C49.1505 45.7685 47.9749 44.3502 46.4785 43.2393C45.2678 42.3495 45.0467 40.1034 45.9904 38.9817C46.9341 37.86 49.0912 37.9166 50.3638 38.9817C51.6364 40.0467 52.0948 41.5352 52.7635 42.94C54.3435 46.2673 54.9205 49.8832 55.8885 53.3912C55.9047 53.4667 55.8534 53.5772 55.813 53.8226Z" fill="#D1E3E6"/>
<path d="M22.6003 75.0944C22.4994 75.5723 22.3494 76.0386 22.1528 76.4857C21.5272 77.6641 20.3624 77.8151 19.3918 76.8983C18.2108 75.7847 17.774 73.0505 18.5397 71.6754C19.1087 70.6669 20.5026 70.5968 21.3574 71.5432C21.8589 72.096 22.6138 74.1291 22.6003 75.0944Z" fill="#B0CED6"/>
</svg>
