<svg width="151" height="50" viewBox="0 0 151 50" fill="none" xmlns="http://www.w3.org/2000/svg">
<g filter="url(#filter0_ddddii_3_1450)">
<rect x="15" y="15" width="118" height="16.1274" rx="8.06372" fill="#EDF0EF"/>
</g>
<rect width="118" height="16.1274" rx="8.06372" transform="matrix(1 0 0 -1 15 31.1274)" fill="#D6D5D5"/>
<mask id="mask0_3_1450" style="mask-type:alpha" maskUnits="userSpaceOnUse" x="15" y="15" width="118" height="17">
<rect width="118" height="16.1274" rx="8.06372" transform="matrix(1 0 0 -1 15 31.1274)" fill="#C4C4C4" fill-opacity="0.66"/>
</mask>
<g mask="url(#mask0_3_1450)">
<rect width="76.1684" height="2.74063" rx="1.37032" transform="matrix(0.726761 0.686891 0.924675 -0.380758 -0.425781 14.4467)" fill="#B9B6B6" fill-opacity="0.37"/>
<rect width="76.1684" height="2.74063" rx="1.37032" transform="matrix(0.726761 0.686891 0.924675 -0.380758 52.283 -7.26074)" fill="#B9B6B6" fill-opacity="0.37"/>
<rect width="76.1684" height="2.74063" rx="1.37032" transform="matrix(0.726761 0.686891 0.924675 -0.380758 25.9277 3.5918)" fill="#B9B6B6" fill-opacity="0.37"/>
<rect width="76.1684" height="2.74063" rx="1.37032" transform="matrix(0.726761 0.686891 0.924675 -0.380758 78.6389 -18.1133)" fill="#B9B6B6" fill-opacity="0.37"/>
<rect width="76.1684" height="2.74063" rx="1.37032" transform="matrix(0.726761 0.686891 0.924675 -0.380758 12.7498 9.01807)" fill="#B9B6B6" fill-opacity="0.37"/>
<rect width="76.1684" height="2.74063" rx="1.37032" transform="matrix(0.726761 0.686891 0.924675 -0.380758 65.4609 -12.687)" fill="#B9B6B6" fill-opacity="0.37"/>
<rect width="76.1684" height="2.74063" rx="1.37032" transform="matrix(0.726761 0.686891 0.924675 -0.380758 39.105 -1.83447)" fill="#B9B6B6" fill-opacity="0.37"/>
<rect width="76.1684" height="2.74063" rx="1.37032" transform="matrix(0.726761 0.686891 0.924675 -0.380758 91.8169 -23.54)" fill="#B9B6B6" fill-opacity="0.37"/>
<rect width="76.1684" height="2.74063" rx="1.37032" transform="matrix(0.726761 0.686891 0.924675 -0.380758 6.16113 11.731)" fill="#B9B6B6" fill-opacity="0.37"/>
<rect width="76.1684" height="2.74063" rx="1.37032" transform="matrix(0.726761 0.686891 0.924675 -0.380758 58.8723 -9.97412)" fill="#B9B6B6" fill-opacity="0.37"/>
<rect width="76.1684" height="2.74063" rx="1.37032" transform="matrix(0.726761 0.686891 0.924675 -0.380758 32.5164 0.878906)" fill="#B9B6B6" fill-opacity="0.37"/>
<rect width="76.1684" height="2.74063" rx="1.37032" transform="matrix(0.726761 0.686891 0.924675 -0.380758 85.2275 -20.8267)" fill="#B9B6B6" fill-opacity="0.37"/>
<rect width="76.1684" height="2.74063" rx="1.37032" transform="matrix(0.726761 0.686891 0.924675 -0.380758 19.3391 6.30518)" fill="#B9B6B6" fill-opacity="0.37"/>
<rect width="76.1684" height="2.74063" rx="1.37032" transform="matrix(0.726761 0.686891 0.924675 -0.380758 72.0503 -15.3999)" fill="#B9B6B6" fill-opacity="0.37"/>
<rect width="76.1684" height="2.74063" rx="1.37032" transform="matrix(0.726761 0.686891 0.924675 -0.380758 45.6943 -4.54785)" fill="#B9B6B6" fill-opacity="0.37"/>
<rect width="76.1684" height="2.74063" rx="1.37032" transform="matrix(0.726761 0.686891 0.924675 -0.380758 98.4055 -26.2529)" fill="#B9B6B6" fill-opacity="0.37"/>
</g>
<defs>
<filter id="filter0_ddddii_3_1450" x="0" y="0" width="151" height="49.1274" filterUnits="userSpaceOnUse" color-interpolation-filters="sRGB">
<feFlood flood-opacity="0" result="BackgroundImageFix"/>
<feColorMatrix in="SourceAlpha" type="matrix" values="0 0 0 0 0 0 0 0 0 0 0 0 0 0 0 0 0 0 127 0" result="hardAlpha"/>
<feOffset dx="5" dy="5"/>
<feGaussianBlur stdDeviation="6.5"/>
<feColorMatrix type="matrix" values="0 0 0 0 0.819608 0 0 0 0 0.85098 0 0 0 0 0.901961 0 0 0 0.9 0"/>
<feBlend mode="normal" in2="BackgroundImageFix" result="effect1_dropShadow_3_1450"/>
<feColorMatrix in="SourceAlpha" type="matrix" values="0 0 0 0 0 0 0 0 0 0 0 0 0 0 0 0 0 0 127 0" result="hardAlpha"/>
<feOffset dx="-5" dy="-5"/>
<feGaussianBlur stdDeviation="5"/>
<feColorMatrix type="matrix" values="0 0 0 0 1 0 0 0 0 1 0 0 0 0 1 0 0 0 0.9 0"/>
<feBlend mode="normal" in2="effect1_dropShadow_3_1450" result="effect2_dropShadow_3_1450"/>
<feColorMatrix in="SourceAlpha" type="matrix" values="0 0 0 0 0 0 0 0 0 0 0 0 0 0 0 0 0 0 127 0" result="hardAlpha"/>
<feOffset dx="5" dy="-5"/>
<feGaussianBlur stdDeviation="5"/>
<feColorMatrix type="matrix" values="0 0 0 0 0.819608 0 0 0 0 0.85098 0 0 0 0 0.901961 0 0 0 0.2 0"/>
<feBlend mode="normal" in2="effect2_dropShadow_3_1450" result="effect3_dropShadow_3_1450"/>
<feColorMatrix in="SourceAlpha" type="matrix" values="0 0 0 0 0 0 0 0 0 0 0 0 0 0 0 0 0 0 127 0" result="hardAlpha"/>
<feOffset dx="-5" dy="5"/>
<feGaussianBlur stdDeviation="5"/>
<feColorMatrix type="matrix" values="0 0 0 0 0.819608 0 0 0 0 0.85098 0 0 0 0 0.901961 0 0 0 0.2 0"/>
<feBlend mode="normal" in2="effect3_dropShadow_3_1450" result="effect4_dropShadow_3_1450"/>
<feBlend mode="normal" in="SourceGraphic" in2="effect4_dropShadow_3_1450" result="shape"/>
<feColorMatrix in="SourceAlpha" type="matrix" values="0 0 0 0 0 0 0 0 0 0 0 0 0 0 0 0 0 0 127 0" result="hardAlpha"/>
<feOffset dx="-1" dy="-1"/>
<feGaussianBlur stdDeviation="1"/>
<feComposite in2="hardAlpha" operator="arithmetic" k2="-1" k3="1"/>
<feColorMatrix type="matrix" values="0 0 0 0 0.819608 0 0 0 0 0.85098 0 0 0 0 0.901961 0 0 0 0.5 0"/>
<feBlend mode="normal" in2="shape" result="effect5_innerShadow_3_1450"/>
<feColorMatrix in="SourceAlpha" type="matrix" values="0 0 0 0 0 0 0 0 0 0 0 0 0 0 0 0 0 0 127 0" result="hardAlpha"/>
<feOffset dx="1" dy="1"/>
<feGaussianBlur stdDeviation="1"/>
<feComposite in2="hardAlpha" operator="arithmetic" k2="-1" k3="1"/>
<feColorMatrix type="matrix" values="0 0 0 0 1 0 0 0 0 1 0 0 0 0 1 0 0 0 0.3 0"/>
<feBlend mode="normal" in2="effect5_innerShadow_3_1450" result="effect6_innerShadow_3_1450"/>
</filter>
</defs>
</svg>
