<svg width="64" height="64" viewBox="0 0 64 64" fill="none" xmlns="http://www.w3.org/2000/svg">
<path d="M31.567 3.75C31.7594 3.41667 32.2406 3.41666 32.433 3.75L56.6817 45.75C56.8742 46.0833 56.6336 46.5 56.2487 46.5H7.75129C7.36639 46.5 7.12582 46.0833 7.31828 45.75L31.567 3.75Z" fill="white" stroke="#EC6656" stroke-width="3"/>
<path d="M34.175 21.825L33.675 33.8H30.05L29.55 21.825H34.175ZM31.925 40.2C31.175 40.2 30.5583 39.9833 30.075 39.55C29.6083 39.1 29.375 38.55 29.375 37.9C29.375 37.2333 29.6083 36.675 30.075 36.225C30.5583 35.775 31.175 35.55 31.925 35.55C32.6583 35.55 33.2583 35.775 33.725 36.225C34.2083 36.675 34.45 37.2333 34.45 37.9C34.45 38.55 34.2083 39.1 33.725 39.55C33.2583 39.9833 32.6583 40.2 31.925 40.2Z" fill="black"/>
</svg>
