<svg width="48" height="43" viewBox="0 0 48 43" fill="none" xmlns="http://www.w3.org/2000/svg">
<path d="M24.5 2L3 5.8C7.33772 17.2 16.5 40 23.3684 40C35.1368 34.7886 43.7369 15.0286 46 5.8L24.5 2Z" fill="#8FADAD" stroke="#8FADAD" stroke-width="2.5"/>
<path d="M24 3V13.5V39.5C14.8 41.5 6.83333 18.6667 4 7L24 3Z" fill="#96B7B7" stroke="#96B7B7"/>
<path d="M24.5 27.5V14L19 17.5V25L24.5 27.5Z" fill="#A5C4C4"/>
<path d="M24.5 27.5V14L30 17.5V25L24.5 27.5Z" fill="#749C9C"/>
<path fill-rule="evenodd" clip-rule="evenodd" d="M24.25 3.27255L4.13829 6.95969C5.17613 12.4634 7.30267 20.0558 10.6011 26.5385C14.1206 33.4558 18.6916 38.5733 24.25 39.2983C29.8084 38.5733 34.3794 33.4558 37.8989 26.5385C41.1973 20.0558 43.3238 12.4634 44.3617 6.95969L24.25 3.27255ZM23.9401 0.279358L2.13104 4.27769L0.681885 4.54337L0.921505 5.99706C1.87227 11.765 4.15018 20.4754 7.92728 27.8989C11.4924 34.9059 16.6744 41.3023 23.7833 42.2633L23.7896 42.3567C23.9439 42.3464 24.0974 42.3336 24.25 42.3182C24.4026 42.3336 24.5561 42.3464 24.7104 42.3567L24.7166 42.2633C31.8256 41.3023 37.0075 34.9059 40.5727 27.8989C44.3498 20.4754 46.6277 11.765 47.5785 5.99706L47.8181 4.54337L46.3689 4.27769L24.5599 0.279358L24.5397 0.169434L24.25 0.222548L23.9603 0.169434L23.9401 0.279358Z" fill="#638492"/>
</svg>
