<svg width="28" height="28" viewBox="0 0 28 28" fill="none" xmlns="http://www.w3.org/2000/svg">
<path d="M14.0149 10.2065C13.0805 10.2065 12.2055 10.569 11.543 11.2315C10.8837 11.894 10.518 12.769 10.518 13.7034C10.518 14.6378 10.8837 15.5128 11.543 16.1753C12.2055 16.8346 13.0805 17.2003 14.0149 17.2003C14.9493 17.2003 15.8243 16.8346 16.4868 16.1753C17.1462 15.5128 17.5118 14.6378 17.5118 13.7034C17.5118 12.769 17.1462 11.894 16.4868 11.2315C16.1632 10.9054 15.778 10.6469 15.3537 10.471C14.9294 10.295 14.4743 10.2051 14.0149 10.2065V10.2065ZM26.8993 17.5659L24.8555 15.819C24.9524 15.2253 25.0024 14.619 25.0024 14.0159C25.0024 13.4128 24.9524 12.8034 24.8555 12.2128L26.8993 10.4659C27.0537 10.3337 27.1642 10.1577 27.2161 9.9612C27.268 9.76471 27.2589 9.55707 27.1899 9.3659L27.1618 9.28465C26.5993 7.7118 25.7565 6.25388 24.6743 4.98152L24.618 4.91589C24.4866 4.76137 24.3115 4.65029 24.1156 4.59729C23.9198 4.5443 23.7126 4.55187 23.5212 4.61902L20.9837 5.52214C20.0462 4.75339 19.0024 4.14714 17.8712 3.72527L17.3805 1.07214C17.3435 0.872276 17.2466 0.688401 17.1025 0.544949C16.9585 0.401497 16.7743 0.305258 16.5743 0.269019L16.4899 0.253394C14.8649 -0.0403565 13.1524 -0.0403565 11.5274 0.253394L11.443 0.269019C11.243 0.305258 11.0588 0.401497 10.9148 0.544949C10.7707 0.688401 10.6738 0.872276 10.6368 1.07214L10.143 3.73777C9.02249 4.16301 7.97864 4.76779 7.05241 5.52839L4.49616 4.61902C4.3048 4.55134 4.09738 4.54349 3.90145 4.59652C3.70553 4.64955 3.53038 4.76094 3.39928 4.91589L3.34303 4.98152C2.2627 6.25524 1.42013 7.71279 0.855533 9.28465L0.827408 9.3659C0.686783 9.75652 0.802408 10.194 1.11803 10.4659L3.18678 12.2315C3.08991 12.819 3.04303 13.419 3.04303 14.0128C3.04303 14.6128 3.08991 15.2128 3.18678 15.794L1.12428 17.5596C0.969894 17.6918 0.859397 17.8678 0.807483 18.0643C0.755569 18.2608 0.764698 18.4685 0.833658 18.6596L0.861783 18.7409C1.42741 20.3128 2.26178 21.7659 3.34928 23.044L3.40553 23.1096C3.53695 23.2642 3.71211 23.3753 3.90791 23.4283C4.10372 23.4812 4.31099 23.4737 4.50241 23.4065L7.05866 22.4972C7.98991 23.2628 9.02741 23.869 10.1493 24.2878L10.643 26.9534C10.68 27.1533 10.777 27.3371 10.921 27.4806C11.065 27.624 11.2493 27.7203 11.4493 27.7565L11.5337 27.7722C13.1746 28.0675 14.8552 28.0675 16.4962 27.7722L16.5805 27.7565C16.7805 27.7203 16.9648 27.624 17.1088 27.4806C17.2528 27.3371 17.3498 27.1533 17.3868 26.9534L17.8774 24.3003C19.0087 23.8753 20.0524 23.2721 20.9899 22.5034L23.5274 23.4065C23.7188 23.4742 23.9262 23.4821 24.1221 23.429C24.318 23.376 24.4932 23.2646 24.6243 23.1096L24.6805 23.044C25.768 21.7596 26.6024 20.3128 27.168 18.7409L27.1962 18.6596C27.3305 18.2721 27.2149 17.8378 26.8993 17.5659ZM14.0149 19.1971C10.9805 19.1971 8.52116 16.7378 8.52116 13.7034C8.52116 10.669 10.9805 8.20965 14.0149 8.20965C17.0493 8.20965 19.5087 10.669 19.5087 13.7034C19.5087 16.7378 17.0493 19.1971 14.0149 19.1971Z" fill="#737171"/>
</svg>
