<svg width="59" height="59" viewBox="0 0 59 59" fill="none" xmlns="http://www.w3.org/2000/svg">
<circle cx="29.4489" cy="29.6211" r="23.1406" fill="#F6B545"/>
<path d="M29.3351 58.5232C12.9913 58.5232 0 45.5644 0 29.2616C0 12.9587 12.9913 -2.28882e-05 29.3351 -2.28882e-05C45.6789 -2.28882e-05 58.6702 12.9587 58.6702 29.2616C58.6702 45.5644 45.6789 58.5232 29.3351 58.5232ZM29.3351 8.36049C17.6011 8.36049 8.38151 17.5569 8.38151 29.2616C8.38151 40.9662 17.6011 50.1627 29.3351 50.1627C41.0691 50.1627 50.2887 40.9662 50.2887 29.2616C50.2887 17.5569 41.0691 8.36049 29.3351 8.36049Z" fill="#FFCB5B"/>
<path d="M29.3357 1.47312C45.6795 1.07025 58.6708 13.9583 58.6708 29.2625H58.2516C56.1563 29.2625 54.4799 27.6513 54.061 25.6377C53.223 19.9992 50.2893 14.7637 46.0987 11.1389C42.7462 7.91696 38.1364 5.9033 33.1074 5.09756C31.0121 5.0979 29.3357 3.48712 29.3357 1.47312Z" fill="#F6B545"/>
<path d="M29.3351 58.5135C12.9913 58.9376 0 45.3713 0 29.2616H0.419202C2.51449 29.2616 4.19093 30.9575 4.60978 33.0772C5.44782 39.0124 8.38151 44.5235 12.5721 48.339C15.9246 51.7305 20.5344 53.8502 25.5634 54.6983C27.659 54.6979 29.3351 56.3939 29.3351 58.5135Z" fill="#FFE27A"/>
<path d="M11.6845 27.0017C11.6845 38.1744 20.7487 46.9529 32.285 46.9529C37.2293 46.9529 41.7614 45.3566 45.4692 42.1645C41.3492 46.9528 35.9928 49.7458 29.4008 49.7458C17.8645 49.7458 8.80029 40.9674 8.80029 29.7947C8.80029 23.4104 11.6842 18.2232 16.2163 14.6319C13.3324 17.8241 11.6845 22.2133 11.6845 27.0017Z" fill="#F19920"/>
<path d="M41.5336 16.0951C41.1042 16.0951 40.6751 16.0951 40.2457 16.5423C39.3872 17.4363 39.3872 18.7775 40.2457 19.6715C42.8215 22.3538 44.1095 26.3774 44.1095 29.9538C44.1095 31.295 44.968 32.189 46.2559 32.189C47.5438 32.189 48.4023 31.295 48.4023 29.9538C48.4023 25.0362 46.685 20.1186 43.68 16.5423C42.8216 16.0951 41.963 16.0951 41.5336 16.0951Z" fill="#FFCB5B"/>
<path d="M28.0554 25.9339H23.3754V28.0039C23.5754 27.7839 23.8554 27.6039 24.2154 27.4639C24.5754 27.3239 24.9654 27.2539 25.3854 27.2539C26.1354 27.2539 26.7554 27.4239 27.2454 27.7639C27.7454 28.1039 28.1104 28.5439 28.3404 29.0839C28.5704 29.6239 28.6854 30.2089 28.6854 30.8389C28.6854 32.0089 28.3554 32.9389 27.6954 33.6289C27.0354 34.3089 26.1054 34.6489 24.9054 34.6489C24.1054 34.6489 23.4104 34.5139 22.8204 34.2439C22.2304 33.9639 21.7754 33.5789 21.4554 33.0889C21.1354 32.5989 20.9604 32.0339 20.9304 31.3939H23.4354C23.4954 31.7039 23.6404 31.9639 23.8704 32.1739C24.1004 32.3739 24.4154 32.4739 24.8154 32.4739C25.2854 32.4739 25.6354 32.3239 25.8654 32.0239C26.0954 31.7239 26.2104 31.3239 26.2104 30.8239C26.2104 30.3339 26.0904 29.9589 25.8504 29.6989C25.6104 29.4389 25.2604 29.3089 24.8004 29.3089C24.4604 29.3089 24.1804 29.3939 23.9604 29.5639C23.7404 29.7239 23.5954 29.9389 23.5254 30.2089H21.0504V23.6839H28.0554V25.9339ZM30.1013 29.0239C30.1013 27.3039 30.4313 25.9489 31.0913 24.9589C31.7613 23.9689 32.8363 23.4739 34.3163 23.4739C35.7963 23.4739 36.8663 23.9689 37.5263 24.9589C38.1963 25.9489 38.5313 27.3039 38.5313 29.0239C38.5313 30.7639 38.1963 32.1289 37.5263 33.1189C36.8663 34.1089 35.7963 34.6039 34.3163 34.6039C32.8363 34.6039 31.7613 34.1089 31.0913 33.1189C30.4313 32.1289 30.1013 30.7639 30.1013 29.0239ZM36.0113 29.0239C36.0113 28.0139 35.9013 27.2389 35.6813 26.6989C35.4613 26.1489 35.0063 25.8739 34.3163 25.8739C33.6263 25.8739 33.1713 26.1489 32.9513 26.6989C32.7313 27.2389 32.6213 28.0139 32.6213 29.0239C32.6213 29.7039 32.6613 30.2689 32.7413 30.7189C32.8213 31.1589 32.9813 31.5189 33.2213 31.7989C33.4713 32.0689 33.8363 32.2039 34.3163 32.2039C34.7963 32.2039 35.1563 32.0689 35.3963 31.7989C35.6463 31.5189 35.8113 31.1589 35.8913 30.7189C35.9713 30.2689 36.0113 29.7039 36.0113 29.0239Z" fill="#70593A"/>
</svg>
