<svg width="52" height="52" viewBox="0 0 52 52" fill="none" xmlns="http://www.w3.org/2000/svg">
<circle cx="26" cy="26" r="23" fill="#EDF0EF" stroke="#D0CECE" stroke-width="6"/>
<path d="M19.53 21.28C19.61 19.14 20.31 17.49 21.63 16.33C22.95 15.17 24.74 14.59 27 14.59C28.5 14.59 29.78 14.85 30.84 15.37C31.92 15.89 32.73 16.6 33.27 17.5C33.83 18.4 34.11 19.41 34.11 20.53C34.11 21.85 33.78 22.93 33.12 23.77C32.46 24.59 31.69 25.15 30.81 25.45V25.57C31.95 25.95 32.85 26.58 33.51 27.46C34.17 28.34 34.5 29.47 34.5 30.85C34.5 32.09 34.21 33.19 33.63 34.15C33.07 35.09 32.24 35.83 31.14 36.37C30.06 36.91 28.77 37.18 27.27 37.18C24.87 37.18 22.95 36.59 21.51 35.41C20.09 34.23 19.34 32.45 19.26 30.07H24.24C24.26 30.95 24.51 31.65 24.99 32.17C25.47 32.67 26.17 32.92 27.09 32.92C27.87 32.92 28.47 32.7 28.89 32.26C29.33 31.8 29.55 31.2 29.55 30.46C29.55 29.5 29.24 28.81 28.62 28.39C28.02 27.95 27.05 27.73 25.71 27.73H24.75V23.56H25.71C26.73 23.56 27.55 23.39 28.17 23.05C28.81 22.69 29.13 22.06 29.13 21.16C29.13 20.44 28.93 19.88 28.53 19.48C28.13 19.08 27.58 18.88 26.88 18.88C26.12 18.88 25.55 19.11 25.17 19.57C24.81 20.03 24.6 20.6 24.54 21.28H19.53Z" fill="black"/>
</svg>
