<svg width="103" height="98" viewBox="0 0 103 98" fill="none" xmlns="http://www.w3.org/2000/svg">
<path d="M31.6923 26.8709C49.1955 26.8709 63.3846 40.6707 63.3846 57.6935C63.3846 74.7164 49.1955 88.5161 31.6923 88.5161C14.1891 88.5161 0 74.7164 0 57.6935C0 40.6707 14.1891 26.8709 31.6923 26.8709Z" fill="#FFCA5D"/>
<path d="M71.3078 36.3548C88.811 36.3548 103 50.1546 103 67.1774C103 84.2003 88.811 98 71.3078 98C53.8046 98 39.6155 84.2003 39.6155 67.1774C39.6155 50.1546 53.8046 36.3548 71.3078 36.3548Z" fill="#F6B545"/>
<path d="M71.3078 98C53.6507 98 39.6155 84.35 39.6155 67.1774C39.6155 50.0049 53.6507 36.3548 71.3078 36.3548C88.9649 36.3548 103 50.0049 103 67.1774C103 84.35 88.9649 98 71.3078 98ZM71.3078 45.1613C58.6309 45.1613 48.6705 54.8484 48.6705 67.1774C48.6705 79.5065 58.6309 89.1935 71.3078 89.1935C83.9847 89.1935 93.9451 79.5065 93.9451 67.1774C93.9451 54.8484 83.9847 45.1613 71.3078 45.1613Z" fill="#FFCB5B"/>
<path d="M71.3076 36.3648C88.9647 35.9295 103 49.8531 103 66.3871H102.547C100.283 66.3871 98.4722 64.6465 98.0197 62.471C97.1144 56.3795 93.9449 50.7233 89.4176 46.8072C85.7957 43.3264 80.8155 41.1509 75.3824 40.2808C73.1184 40.2808 71.3076 38.5402 71.3076 36.3648Z" fill="#F6B545"/>
<path d="M71.3078 97.9895C53.6507 98.4477 39.6155 83.7912 39.6155 66.3871H40.0684C42.332 66.3871 44.1432 68.2193 44.5957 70.5093C45.5011 76.9214 48.6705 82.8754 53.1978 86.9975C56.8197 90.6615 61.7999 92.9515 67.233 93.8678C69.4966 93.8674 71.3078 95.6996 71.3078 97.9895Z" fill="#FFE27A"/>
<path d="M52.2387 63.9444C52.2387 76.0148 62.0313 85.4987 74.4948 85.4987C79.8363 85.4987 84.7326 83.7742 88.7384 80.3255C84.2874 85.4987 78.5009 88.5161 71.3791 88.5161C58.9157 88.5161 49.123 79.0322 49.123 66.9618C49.123 60.0645 52.2387 54.4605 57.135 50.5806C54.0194 54.0293 52.2387 58.7712 52.2387 63.9444Z" fill="#F19920"/>
<path d="M71.6529 53.9467C68.9659 53.9467 67.1748 55.7337 67.1748 58.4136V76.2815C67.1748 78.9617 68.9663 80.7484 71.6529 80.7484C74.3395 80.7484 76.131 78.9614 76.131 76.2815V58.4136C76.131 55.7337 74.3399 53.9467 71.6529 53.9467Z" fill="#F19920"/>
<path d="M88.2215 40.9928C85.0869 52.1603 77.0259 61.0945 66.7258 65.1145C64.9343 75.3888 58.2172 84.3225 49.7085 89.6831C44.3345 83.8761 40.752 76.2821 40.752 67.7948C40.752 50.3734 54.6346 36.5255 72.0998 36.5255C77.9218 36.079 83.2954 37.8656 88.2215 40.9928Z" fill="#F19920"/>
<path d="M57.3213 50.3733C54.1867 54.3937 51.9473 59.3074 51.9473 64.6676C51.9473 70.9215 54.6343 76.7285 59.1124 80.7489C58.2168 82.0891 57.3209 82.9824 56.4254 83.8757C51.9473 79.8552 49.2603 74.0482 49.2603 67.3475C49.2606 60.2007 52.3952 54.3937 57.3213 50.3733Z" fill="#E78825"/>
<path d="M67.1733 64.6675V58.4136C67.1733 55.7333 68.9648 53.9467 71.6514 53.9467C74.3381 53.9467 76.1295 55.7337 76.1295 58.4136V59.3069C73.4429 61.5407 70.3083 63.3273 67.1733 64.6675Z" fill="#E78825"/>
<path d="M87.1539 41.1761C86.2655 44.2442 85.3766 46.8743 83.5997 49.5043C80.0455 46.8743 75.6027 45.1211 70.7156 45.1211C58.2756 45.1211 48.5013 54.7644 48.5013 67.0377C48.5013 73.6128 51.1671 79.311 55.6098 83.256C53.3884 85.4476 51.1671 87.2011 48.5013 88.5161C43.1697 82.8179 39.6155 75.3663 39.6155 67.038C39.6155 49.9431 53.3884 36.3548 70.7156 36.3548C76.9356 36.3544 82.2668 38.1076 87.1539 41.1761Z" fill="#F6B545"/>
<path d="M85.8689 45.8387C82.8712 43.4678 79.0167 42.0451 75.1621 41.0968C73.0209 40.6225 71.3076 38.7258 71.3076 36.3549C77.3034 36.3549 82.4428 38.2519 87.1538 41.5712C86.7257 42.9938 86.2973 44.4161 85.8689 45.8387Z" fill="#F19920"/>
<path d="M49.4513 88.5161C43.5497 82.6452 39.6155 74.9677 39.6155 66.3871H40.1074C42.5663 66.3871 44.5336 68.1937 45.0251 70.4517C46.0086 76.7743 49.4513 82.1939 53.877 86.2581C52.4021 86.7099 50.9267 87.613 49.4513 88.5161Z" fill="#FFCB5B"/>
<path d="M31.6923 26.8709C49.1955 26.8709 63.3846 40.6707 63.3846 57.6935C63.3846 74.7164 49.1955 88.5161 31.6923 88.5161C14.1891 88.5161 0 74.7164 0 57.6935C0 40.6707 14.1891 26.8709 31.6923 26.8709Z" fill="#F6B545"/>
<path d="M26.9385 35.6524C26.9385 32.5791 27.3942 29.9446 28.3052 26.871C29.2163 26.871 30.5831 26.871 31.4941 26.871C49.2617 26.871 63.3846 40.4821 63.3846 57.6057C63.3846 60.679 62.9289 63.3134 62.0179 66.3871C61.1068 66.3871 59.7401 66.3871 58.829 66.3871C41.0615 66.3867 26.9385 52.7756 26.9385 35.6524Z" fill="#F19920"/>
<path d="M31.6923 88.5161C14.0352 88.5161 0 74.8661 0 57.6935C0 40.521 14.0352 26.8709 31.6923 26.8709C49.3494 26.8709 63.3846 40.5214 63.3846 57.6935C63.3846 74.8657 49.3494 88.5161 31.6923 88.5161ZM31.6923 35.6778C19.0154 35.6778 9.055 45.3649 9.055 57.6939C9.055 70.0229 19.0154 79.71 31.6923 79.71C44.3692 79.71 54.3296 70.0229 54.3296 57.6939C54.3296 45.3649 44.3692 35.6778 31.6923 35.6778Z" fill="#FFCB5B"/>
<path d="M31.6924 26.8814C49.3495 26.4233 63.3847 41.0795 63.3847 58.4839H62.9318C60.6682 58.4839 58.857 56.6517 58.4045 54.3617C57.4991 47.9495 54.3297 41.9954 49.8024 37.8732C46.1805 34.2092 41.2003 31.9192 35.7672 31.0029C33.5035 31.0033 31.6924 29.1714 31.6924 26.8814Z" fill="#F6B545"/>
<path d="M31.6923 88.5062C14.0352 88.9414 0 75.0178 0 58.4839H0.452887C2.71654 58.4839 4.5277 60.2244 4.98019 62.3999C5.88558 68.4914 9.055 74.1477 13.5823 78.0637C17.2042 81.5446 22.1844 83.72 27.6175 84.5905C29.8815 84.5905 31.6923 86.3307 31.6923 88.5062Z" fill="#FFE27A"/>
<path d="M12.6238 55.0173C12.6238 67.5907 22.4164 77.4698 34.8797 77.4698C40.2212 77.4698 45.1174 75.6734 49.1232 72.0811C44.6722 77.4698 38.8854 80.6129 31.7636 80.6129C19.3003 80.6129 9.50781 70.7339 9.50781 58.1605C9.50781 50.9758 12.6234 45.1383 17.5197 41.0968C14.4045 44.6891 12.6238 49.6286 12.6238 55.0173Z" fill="#F19920"/>
<path d="M44.8717 45.8387C44.4078 45.8387 43.9442 45.8387 43.4803 46.234C42.5528 47.0242 42.5528 48.2097 43.4803 49C46.2631 51.371 47.6545 54.9275 47.6545 58.0888C47.6545 59.2743 48.582 60.0645 49.9734 60.0645C51.3649 60.0645 52.2923 59.2743 52.2923 58.0888C52.2923 53.742 50.437 49.3952 47.1906 46.234C46.2627 45.8387 45.3352 45.8387 44.8717 45.8387Z" fill="#FFCB5B"/>
<path d="M31.6923 45.8387C28.8399 45.8387 26.9385 47.5249 26.9385 50.0537V66.914C26.9385 69.4432 28.8403 71.129 31.6923 71.129C34.5448 71.129 36.4462 69.4428 36.4462 66.914V50.0537C36.4466 47.5249 34.5448 45.8387 31.6923 45.8387Z" fill="#F19920"/>
<path d="M51.9482 66.9015C52.8438 64.2213 53.7397 61.541 53.7397 58.4142C53.7397 45.9065 43.8876 36.0791 31.3485 36.0791C30.0049 36.0791 28.2139 36.0791 26.8704 36.5259V36.0791C26.8704 32.9524 27.3183 30.2721 28.2139 27.145C29.1094 27.145 30.4529 27.145 31.3485 27.145C48.8136 27.145 62.6963 40.9928 62.6963 58.4142C62.6963 61.541 62.2483 64.2213 61.3528 67.3484C60.4572 67.3484 59.1137 67.3484 58.2182 67.3484C55.9784 67.348 54.1873 67.348 51.9482 66.9015Z" fill="#F6B545"/>
<path d="M53.7389 0.342274C71.0519 0.342274 85.0868 14.342 85.0868 31.6116C85.0868 48.8811 71.0519 62.8809 53.7389 62.8809C36.426 62.8809 22.3911 48.8811 22.3911 31.6116C22.3911 14.342 36.426 0.342274 53.7389 0.342274Z" fill="#F6B545"/>
<path d="M53.8769 63.2258C36.2198 63.2258 22.1846 49.2258 22.1846 31.6129C22.1846 14 36.2198 2.09856e-05 53.8769 2.09856e-05C71.534 2.09856e-05 85.5692 14 85.5692 31.6129C85.5692 49.2258 71.534 63.2258 53.8769 63.2258ZM53.8769 9.03234C41.1999 9.03234 31.2396 18.9678 31.2396 31.6129C31.2396 44.2581 41.1999 54.1935 53.8769 54.1935C66.5538 54.1935 76.5142 44.2581 76.5142 31.6129C76.5142 18.9678 66.5538 9.03234 53.8769 9.03234Z" fill="#FFCB5B"/>
<path d="M53.877 1.59059C71.5341 1.15535 85.5693 15.079 85.5693 31.6129H85.1164C82.8527 31.6129 81.0416 29.8723 80.5891 27.6969C79.6837 21.6053 76.5143 15.9491 71.987 12.033C68.365 8.55221 63.3848 6.37675 57.9518 5.50626C55.6881 5.50664 53.877 3.76642 53.877 1.59059Z" fill="#F6B545"/>
<path d="M53.8769 63.2154C36.2198 63.6735 22.1846 49.0171 22.1846 31.6129H22.6375C24.9011 31.6129 26.7123 33.4451 27.1648 35.7351C28.0701 42.1472 31.2396 48.1012 35.7669 52.2233C39.3888 55.8873 44.369 58.1773 49.8021 59.0936C52.0661 59.0932 53.8769 60.9254 53.8769 63.2154Z" fill="#FFE27A"/>
<path d="M34.8084 29.1702C34.8084 41.2406 44.6009 50.7245 57.0642 50.7245C62.4057 50.7245 67.302 49 71.3078 45.5514C66.8568 50.7245 61.07 53.7419 53.9482 53.7419C41.4849 53.7419 31.6924 44.2581 31.6924 32.1876C31.6924 25.2903 34.808 19.6863 39.7043 15.8065C36.5886 19.2551 34.8084 23.997 34.8084 29.1702Z" fill="#F19920"/>
<path d="M67.0563 17.3871C66.5923 17.3871 66.1288 17.3871 65.6648 17.8702C64.7374 18.836 64.7374 20.285 65.6648 21.2508C68.4477 24.1487 69.8391 28.4956 69.8391 32.3594C69.8391 33.8083 70.7666 34.7742 72.158 34.7742C73.5494 34.7742 74.4769 33.8083 74.4769 32.3594C74.4769 27.0467 72.6216 21.7339 69.3752 17.8702C68.4477 17.3871 67.5202 17.3871 67.0563 17.3871Z" fill="#FFCB5B"/>
<path d="M53.0846 17.3871C50.7075 17.3871 49.123 19.2841 49.123 22.1289V41.097C49.123 43.9422 50.7079 45.8387 53.0846 45.8387C55.4617 45.8387 57.0461 43.9418 57.0461 41.097V22.1293C57.0465 19.2841 55.4617 17.3871 53.0846 17.3871Z" fill="#F19920"/>
</svg>
