<svg width="52" height="52" viewBox="0 0 52 52" fill="none" xmlns="http://www.w3.org/2000/svg">
<circle cx="26" cy="26" r="23" fill="#EDF0EF" stroke="#D0CECE" stroke-width="6"/>
<path d="M19.17 32.89C19.85 32.35 20.16 32.1 20.1 32.14C22.06 30.52 23.6 29.19 24.72 28.15C25.86 27.11 26.82 26.02 27.6 24.88C28.38 23.74 28.77 22.63 28.77 21.55C28.77 20.73 28.58 20.09 28.2 19.63C27.82 19.17 27.25 18.94 26.49 18.94C25.73 18.94 25.13 19.23 24.69 19.81C24.27 20.37 24.06 21.17 24.06 22.21H19.11C19.15 20.51 19.51 19.09 20.19 17.95C20.89 16.81 21.8 15.97 22.92 15.43C24.06 14.89 25.32 14.62 26.7 14.62C29.08 14.62 30.87 15.23 32.07 16.45C33.29 17.67 33.9 19.26 33.9 21.22C33.9 23.36 33.17 25.35 31.71 27.19C30.25 29.01 28.39 30.79 26.13 32.53H34.23V36.7H19.17V32.89Z" fill="black"/>
</svg>
