<svg width="42" height="42" viewBox="0 0 42 42" fill="none" xmlns="http://www.w3.org/2000/svg">
<circle cx="20.7451" cy="20.8659" r="16.301" fill="#F6B545"/>
<path d="M20.6647 41.2258C9.15151 41.2258 0 32.0972 0 20.6129C0 9.12861 9.15151 2.67029e-05 20.6647 2.67029e-05C32.1778 2.67029e-05 41.3293 9.12861 41.3293 20.6129C41.3293 32.0972 32.1778 41.2258 20.6647 41.2258ZM20.6647 5.88947C12.3988 5.88947 5.90423 12.3678 5.90423 20.6129C5.90423 28.8581 12.3988 35.3364 20.6647 35.3364C28.9305 35.3364 35.4251 28.8581 35.4251 20.6129C35.4251 12.3678 28.9305 5.88947 20.6647 5.88947Z" fill="#FFCB5B"/>
<path d="M20.6648 1.03732C32.178 0.753525 41.3295 9.83229 41.3295 20.6131H41.0342C39.5582 20.6131 38.3772 19.4782 38.0822 18.0597C37.4918 14.0878 35.4252 10.3996 32.4733 7.84621C30.1116 5.57658 26.8643 4.15809 23.3217 3.5905C21.8457 3.59074 20.6648 2.45605 20.6648 1.03732Z" fill="#F6B545"/>
<path d="M20.6647 41.219C9.15152 41.5177 0 31.9611 0 20.6129H0.295301C1.7713 20.6129 2.95224 21.8076 3.24729 23.3008C3.83763 27.4817 5.90423 31.3639 8.85622 34.0518C11.2179 36.4408 14.4652 37.934 18.0077 38.5314C19.484 38.5312 20.6647 39.7259 20.6647 41.219Z" fill="#FFE27A"/>
<path d="M8.23123 19.0207C8.23123 26.8911 14.6164 33.075 22.7429 33.075C26.2258 33.075 29.4184 31.9505 32.0303 29.7019C29.1281 33.075 25.3549 35.0425 20.7112 35.0425C12.5846 35.0425 6.19946 28.8586 6.19946 20.9882C6.19946 16.4909 8.23098 12.8368 11.4235 10.307C9.39202 12.5557 8.23123 15.6476 8.23123 19.0207Z" fill="#F19920"/>
<path d="M29.2578 11.3378C28.9553 11.3378 28.653 11.3378 28.3505 11.6528C27.7458 12.2826 27.7458 13.2273 28.3505 13.8571C30.1651 15.7467 31.0723 18.581 31.0723 21.1003C31.0723 22.0451 31.6771 22.6749 32.5844 22.6749C33.4916 22.6749 34.0964 22.0451 34.0964 21.1003C34.0964 17.6362 32.8866 14.1721 30.7698 11.6528C30.1651 11.3378 29.5603 11.3378 29.2578 11.3378Z" fill="#FFCB5B"/>
<path d="M23.385 17.285H18.705V19.355C18.905 19.135 19.185 18.955 19.545 18.815C19.905 18.675 20.295 18.605 20.715 18.605C21.465 18.605 22.085 18.775 22.575 19.115C23.075 19.455 23.44 19.895 23.67 20.435C23.9 20.975 24.015 21.56 24.015 22.19C24.015 23.36 23.685 24.29 23.025 24.98C22.365 25.66 21.435 26 20.235 26C19.435 26 18.74 25.865 18.15 25.595C17.56 25.315 17.105 24.93 16.785 24.44C16.465 23.95 16.29 23.385 16.26 22.745H18.765C18.825 23.055 18.97 23.315 19.2 23.525C19.43 23.725 19.745 23.825 20.145 23.825C20.615 23.825 20.965 23.675 21.195 23.375C21.425 23.075 21.54 22.675 21.54 22.175C21.54 21.685 21.42 21.31 21.18 21.05C20.94 20.79 20.59 20.66 20.13 20.66C19.79 20.66 19.51 20.745 19.29 20.915C19.07 21.075 18.925 21.29 18.855 21.56H16.38V15.035H23.385V17.285Z" fill="#70593A"/>
</svg>
