<svg width="84" height="84" viewBox="0 0 84 84" fill="none" xmlns="http://www.w3.org/2000/svg">
<g filter="url(#filter0_ddddii_3_1514)">
<circle cx="45" cy="45" r="21" fill="#FE4C37"/>
<circle cx="45" cy="45" r="20.5" stroke="url(#paint0_radial_3_1514)"/>
</g>
<path d="M37.38 44.67V46.8H30.78V44.67H37.38ZM47.0862 42.285H42.4062V44.355C42.6062 44.135 42.8862 43.955 43.2462 43.815C43.6062 43.675 43.9962 43.605 44.4162 43.605C45.1662 43.605 45.7862 43.775 46.2762 44.115C46.7762 44.455 47.1412 44.895 47.3712 45.435C47.6012 45.975 47.7162 46.56 47.7162 47.19C47.7162 48.36 47.3862 49.29 46.7262 49.98C46.0662 50.66 45.1362 51 43.9362 51C43.1362 51 42.4412 50.865 41.8512 50.595C41.2612 50.315 40.8062 49.93 40.4862 49.44C40.1662 48.95 39.9912 48.385 39.9612 47.745H42.4662C42.5262 48.055 42.6712 48.315 42.9012 48.525C43.1312 48.725 43.4462 48.825 43.8462 48.825C44.3162 48.825 44.6662 48.675 44.8962 48.375C45.1262 48.075 45.2412 47.675 45.2412 47.175C45.2412 46.685 45.1212 46.31 44.8812 46.05C44.6412 45.79 44.2912 45.66 43.8312 45.66C43.4912 45.66 43.2112 45.745 42.9912 45.915C42.7712 46.075 42.6262 46.29 42.5562 46.56H40.0812V40.035H47.0862V42.285ZM49.132 45.375C49.132 43.655 49.462 42.3 50.122 41.31C50.792 40.32 51.867 39.825 53.347 39.825C54.827 39.825 55.897 40.32 56.557 41.31C57.227 42.3 57.562 43.655 57.562 45.375C57.562 47.115 57.227 48.48 56.557 49.47C55.897 50.46 54.827 50.955 53.347 50.955C51.867 50.955 50.792 50.46 50.122 49.47C49.462 48.48 49.132 47.115 49.132 45.375ZM55.042 45.375C55.042 44.365 54.932 43.59 54.712 43.05C54.492 42.5 54.037 42.225 53.347 42.225C52.657 42.225 52.202 42.5 51.982 43.05C51.762 43.59 51.652 44.365 51.652 45.375C51.652 46.055 51.692 46.62 51.772 47.07C51.852 47.51 52.012 47.87 52.252 48.15C52.502 48.42 52.867 48.555 53.347 48.555C53.827 48.555 54.187 48.42 54.427 48.15C54.677 47.87 54.842 47.51 54.922 47.07C55.002 46.62 55.042 46.055 55.042 45.375Z" fill="#70593A"/>
<defs>
<filter id="filter0_ddddii_3_1514" x="0" y="0" width="84" height="84" filterUnits="userSpaceOnUse" color-interpolation-filters="sRGB">
<feFlood flood-opacity="0" result="BackgroundImageFix"/>
<feColorMatrix in="SourceAlpha" type="matrix" values="0 0 0 0 0 0 0 0 0 0 0 0 0 0 0 0 0 0 127 0" result="hardAlpha"/>
<feOffset dx="5" dy="5"/>
<feGaussianBlur stdDeviation="6.5"/>
<feColorMatrix type="matrix" values="0 0 0 0 0.819608 0 0 0 0 0.85098 0 0 0 0 0.901961 0 0 0 0.31 0"/>
<feBlend mode="normal" in2="BackgroundImageFix" result="effect1_dropShadow_3_1514"/>
<feColorMatrix in="SourceAlpha" type="matrix" values="0 0 0 0 0 0 0 0 0 0 0 0 0 0 0 0 0 0 127 0" result="hardAlpha"/>
<feOffset dx="-5" dy="-5"/>
<feGaussianBlur stdDeviation="9.5"/>
<feColorMatrix type="matrix" values="0 0 0 0 1 0 0 0 0 1 0 0 0 0 1 0 0 0 0.04 0"/>
<feBlend mode="normal" in2="effect1_dropShadow_3_1514" result="effect2_dropShadow_3_1514"/>
<feColorMatrix in="SourceAlpha" type="matrix" values="0 0 0 0 0 0 0 0 0 0 0 0 0 0 0 0 0 0 127 0" result="hardAlpha"/>
<feOffset dx="5" dy="-5"/>
<feGaussianBlur stdDeviation="5"/>
<feColorMatrix type="matrix" values="0 0 0 0 0.819608 0 0 0 0 0.85098 0 0 0 0 0.901961 0 0 0 0.2 0"/>
<feBlend mode="normal" in2="effect2_dropShadow_3_1514" result="effect3_dropShadow_3_1514"/>
<feColorMatrix in="SourceAlpha" type="matrix" values="0 0 0 0 0 0 0 0 0 0 0 0 0 0 0 0 0 0 127 0" result="hardAlpha"/>
<feOffset dx="-5" dy="5"/>
<feGaussianBlur stdDeviation="5"/>
<feColorMatrix type="matrix" values="0 0 0 0 0.819608 0 0 0 0 0.85098 0 0 0 0 0.901961 0 0 0 0.2 0"/>
<feBlend mode="normal" in2="effect3_dropShadow_3_1514" result="effect4_dropShadow_3_1514"/>
<feBlend mode="normal" in="SourceGraphic" in2="effect4_dropShadow_3_1514" result="shape"/>
<feColorMatrix in="SourceAlpha" type="matrix" values="0 0 0 0 0 0 0 0 0 0 0 0 0 0 0 0 0 0 127 0" result="hardAlpha"/>
<feOffset dx="-1" dy="-1"/>
<feGaussianBlur stdDeviation="1"/>
<feComposite in2="hardAlpha" operator="arithmetic" k2="-1" k3="1"/>
<feColorMatrix type="matrix" values="0 0 0 0 0.819608 0 0 0 0 0.85098 0 0 0 0 0.901961 0 0 0 0.5 0"/>
<feBlend mode="normal" in2="shape" result="effect5_innerShadow_3_1514"/>
<feColorMatrix in="SourceAlpha" type="matrix" values="0 0 0 0 0 0 0 0 0 0 0 0 0 0 0 0 0 0 127 0" result="hardAlpha"/>
<feOffset dx="1" dy="1"/>
<feGaussianBlur stdDeviation="1"/>
<feComposite in2="hardAlpha" operator="arithmetic" k2="-1" k3="1"/>
<feColorMatrix type="matrix" values="0 0 0 0 1 0 0 0 0 1 0 0 0 0 1 0 0 0 0.3 0"/>
<feBlend mode="normal" in2="effect5_innerShadow_3_1514" result="effect6_innerShadow_3_1514"/>
</filter>
<radialGradient id="paint0_radial_3_1514" cx="0" cy="0" r="1" gradientUnits="userSpaceOnUse" gradientTransform="translate(64 65) rotate(-134.045) scale(42.4323)">
<stop stop-color="#FD5B48"/>
<stop offset="1" stop-color="#FE4C37" stop-opacity="0"/>
</radialGradient>
</defs>
</svg>
