<svg width="42" height="42" viewBox="0 0 42 42" fill="none" xmlns="http://www.w3.org/2000/svg">
<circle cx="20.7451" cy="20.866" r="16.301" fill="#F6B545"/>
<path d="M20.6647 41.2258C9.15151 41.2258 0 32.0972 0 20.6129C0 9.12861 9.15151 2.67029e-05 20.6647 2.67029e-05C32.1778 2.67029e-05 41.3293 9.12861 41.3293 20.6129C41.3293 32.0972 32.1778 41.2258 20.6647 41.2258ZM20.6647 5.88947C12.3988 5.88947 5.90423 12.3678 5.90423 20.6129C5.90423 28.8581 12.3988 35.3364 20.6647 35.3364C28.9305 35.3364 35.4251 28.8581 35.4251 20.6129C35.4251 12.3678 28.9305 5.88947 20.6647 5.88947Z" fill="#FFCB5B"/>
<path d="M20.6648 1.03738C32.178 0.753586 41.3295 9.83235 41.3295 20.6132H41.0342C39.5582 20.6132 38.3772 19.4782 38.0822 18.0597C37.4918 14.0878 35.4252 10.3997 32.4733 7.84628C30.1116 5.57664 26.8643 4.15815 23.3217 3.59056C21.8457 3.59081 20.6648 2.45611 20.6648 1.03738Z" fill="#F6B545"/>
<path d="M20.6647 41.219C9.15152 41.5177 0 31.9611 0 20.6129H0.295301C1.7713 20.6129 2.95224 21.8076 3.24729 23.3008C3.83763 27.4817 5.90423 31.3639 8.85622 34.0518C11.2179 36.4408 14.4652 37.934 18.0077 38.5314C19.484 38.5312 20.6647 39.7259 20.6647 41.219Z" fill="#FFE27A"/>
<path d="M8.23123 19.0207C8.23123 26.8911 14.6164 33.075 22.7429 33.075C26.2258 33.075 29.4184 31.9505 32.0303 29.7019C29.1281 33.075 25.3549 35.0425 20.7112 35.0425C12.5846 35.0425 6.19946 28.8586 6.19946 20.9882C6.19946 16.4909 8.23098 12.8368 11.4235 10.307C9.39202 12.5557 8.23123 15.6476 8.23123 19.0207Z" fill="#F19920"/>
<path d="M29.2578 11.3377C28.9553 11.3377 28.653 11.3377 28.3505 11.6527C27.7458 12.2825 27.7458 13.2273 28.3505 13.857C30.1651 15.7466 31.0723 18.5809 31.0723 21.1003C31.0723 22.045 31.6771 22.6748 32.5844 22.6748C33.4916 22.6748 34.0964 22.045 34.0964 21.1003C34.0964 17.6362 32.8866 14.1721 30.7698 11.6527C30.1651 11.3377 29.5603 11.3377 29.2578 11.3377Z" fill="#FFCB5B"/>
<path d="M12.585 23.945C12.925 23.675 13.08 23.55 13.05 23.57C14.03 22.76 14.8 22.095 15.36 21.575C15.93 21.055 16.41 20.51 16.8 19.94C17.19 19.37 17.385 18.815 17.385 18.275C17.385 17.865 17.29 17.545 17.1 17.315C16.91 17.085 16.625 16.97 16.245 16.97C15.865 16.97 15.565 17.115 15.345 17.405C15.135 17.685 15.03 18.085 15.03 18.605H12.555C12.575 17.755 12.755 17.045 13.095 16.475C13.445 15.905 13.9 15.485 14.46 15.215C15.03 14.945 15.66 14.81 16.35 14.81C17.54 14.81 18.435 15.115 19.035 15.725C19.645 16.335 19.95 17.13 19.95 18.11C19.95 19.18 19.585 20.175 18.855 21.095C18.125 22.005 17.195 22.895 16.065 23.765H20.115V25.85H12.585V23.945ZM28.9543 17.285H24.2743V19.355C24.4743 19.135 24.7543 18.955 25.1143 18.815C25.4743 18.675 25.8643 18.605 26.2843 18.605C27.0343 18.605 27.6543 18.775 28.1443 19.115C28.6443 19.455 29.0093 19.895 29.2393 20.435C29.4693 20.975 29.5843 21.56 29.5843 22.19C29.5843 23.36 29.2543 24.29 28.5943 24.98C27.9343 25.66 27.0043 26 25.8043 26C25.0043 26 24.3093 25.865 23.7193 25.595C23.1293 25.315 22.6743 24.93 22.3543 24.44C22.0343 23.95 21.8593 23.385 21.8293 22.745H24.3343C24.3943 23.055 24.5393 23.315 24.7693 23.525C24.9993 23.725 25.3143 23.825 25.7143 23.825C26.1843 23.825 26.5343 23.675 26.7643 23.375C26.9943 23.075 27.1093 22.675 27.1093 22.175C27.1093 21.685 26.9893 21.31 26.7493 21.05C26.5093 20.79 26.1593 20.66 25.6993 20.66C25.3593 20.66 25.0793 20.745 24.8593 20.915C24.6393 21.075 24.4943 21.29 24.4243 21.56H21.9493V15.035H28.9543V17.285Z" fill="#70593A"/>
</svg>
